<svg xmlns="http://www.w3.org/2000/svg" width="32.149" height="24.484" viewBox="0 0 32.149 24.484">
  <g id="Icon_feather-mail" data-name="Icon feather-mail" transform="translate(1.5 1.5)">
    <path id="Tracé_26" data-name="Tracé 26" d="M5.915,4.5H29.234a4.31,4.31,0,0,1,4.415,4.185V24.8a4.31,4.31,0,0,1-4.415,4.185H5.915A4.31,4.31,0,0,1,1.5,24.8V8.685A4.31,4.31,0,0,1,5.915,4.5ZM29.234,25.984A1.333,1.333,0,0,0,30.649,24.8V8.685A1.333,1.333,0,0,0,29.234,7.5H5.915A1.333,1.333,0,0,0,4.5,8.685V24.8a1.333,1.333,0,0,0,1.415,1.185Z" transform="translate(-3 -6)" fill="#d8a952"/>
    <path id="Tracé_27" data-name="Tracé 27" d="M17.574,19.4a1.5,1.5,0,0,1-.782-.22L2.218,10.28A1.5,1.5,0,0,1,3.782,7.72l13.792,8.425L31.367,7.72a1.5,1.5,0,0,1,1.564,2.56l-14.574,8.9A1.5,1.5,0,0,1,17.574,19.4Z" transform="translate(-3 -6.456)" fill="#d8a952"/>
  </g>
</svg>
