<svg xmlns="http://www.w3.org/2000/svg" width="32.033" height="24.915" viewBox="0 0 32.033 24.915">
  <path id="Icon_awesome-address-card" data-name="Icon awesome-address-card" d="M29.364,2.25H2.669A2.67,2.67,0,0,0,0,4.919V24.5a2.67,2.67,0,0,0,2.669,2.669H29.364A2.67,2.67,0,0,0,32.033,24.5V4.919A2.67,2.67,0,0,0,29.364,2.25ZM9.788,7.589a3.559,3.559,0,1,1-3.559,3.559A3.563,3.563,0,0,1,9.788,7.589Zm6.229,13.169a1.166,1.166,0,0,1-1.246,1.068H4.8a1.166,1.166,0,0,1-1.246-1.068V19.69a3.5,3.5,0,0,1,3.737-3.2h.278a5.728,5.728,0,0,0,4.427,0h.278a3.5,3.5,0,0,1,3.737,3.2Zm12.457-2.936a.446.446,0,0,1-.445.445H20.021a.446.446,0,0,1-.445-.445v-.89a.446.446,0,0,1,.445-.445h8.008a.446.446,0,0,1,.445.445Zm0-3.559a.446.446,0,0,1-.445.445H20.021a.446.446,0,0,1-.445-.445v-.89a.446.446,0,0,1,.445-.445h8.008a.446.446,0,0,1,.445.445Zm0-3.559a.446.446,0,0,1-.445.445H20.021a.446.446,0,0,1-.445-.445v-.89a.446.446,0,0,1,.445-.445h8.008a.446.446,0,0,1,.445.445Z" transform="translate(0 -2.25)" fill="#d8a952"/>
</svg>
