<svg xmlns="http://www.w3.org/2000/svg" width="24.915" height="24.915" viewBox="0 0 24.915 24.915">
  <path id="Icon_awesome-phone-alt" data-name="Icon awesome-phone-alt" d="M24.2,17.606l-5.45-2.336a1.168,1.168,0,0,0-1.363.336l-2.414,2.949A18.037,18.037,0,0,1,6.355,9.933L9.3,7.519A1.165,1.165,0,0,0,9.64,6.156L7.3.706A1.176,1.176,0,0,0,5.966.03L.905,1.2A1.168,1.168,0,0,0,0,2.336,22.577,22.577,0,0,0,22.579,24.915a1.168,1.168,0,0,0,1.139-.905l1.168-5.061a1.182,1.182,0,0,0-.682-1.343Z" transform="translate(0 0)" fill="#d8a952"/>
</svg>
