<?xml version="1.0" encoding="UTF-8"?>
<svg id="Calque_1" data-name="Calque 1" xmlns="http://www.w3.org/2000/svg" xmlns:xlink="http://www.w3.org/1999/xlink" viewBox="0 0 499.39 90.59">
  <defs>
    <style>
      .cls-1 {
        filter: url(#drop-shadow-2);
      }

      .cls-1, .cls-2, .cls-3, .cls-4, .cls-5, .cls-6, .cls-7, .cls-8, .cls-9, .cls-10 {
        fill: ivory;
      }

      .cls-2 {
        filter: url(#drop-shadow-5);
      }

      .cls-3 {
        filter: url(#drop-shadow-10);
      }

      .cls-4 {
        filter: url(#drop-shadow-11);
      }

      .cls-11 {
        fill: #d8a952;
        filter: url(#drop-shadow-1);
      }

      .cls-5 {
        filter: url(#drop-shadow-3);
      }

      .cls-6 {
        filter: url(#drop-shadow-8);
      }

      .cls-7 {
        filter: url(#drop-shadow-7);
      }

      .cls-8 {
        filter: url(#drop-shadow-4);
      }

      .cls-9 {
        filter: url(#drop-shadow-9);
      }

      .cls-10 {
        filter: url(#drop-shadow-6);
      }
    </style>
    <filter id="drop-shadow-1" filterUnits="userSpaceOnUse">
      <feOffset dx="0" dy="0"/>
      <feGaussianBlur result="blur" stdDeviation="4"/>
      <feFlood flood-color="#1a0e04" flood-opacity=".6"/>
      <feComposite in2="blur" operator="in"/>
      <feComposite in="SourceGraphic"/>
    </filter>
    <filter id="drop-shadow-2" filterUnits="userSpaceOnUse">
      <feOffset dx="0" dy="0"/>
      <feGaussianBlur result="blur-2" stdDeviation="4"/>
      <feFlood flood-color="#1a0e04" flood-opacity=".6"/>
      <feComposite in2="blur-2" operator="in"/>
      <feComposite in="SourceGraphic"/>
    </filter>
    <filter id="drop-shadow-3" filterUnits="userSpaceOnUse">
      <feOffset dx="0" dy="0"/>
      <feGaussianBlur result="blur-3" stdDeviation="4"/>
      <feFlood flood-color="#1a0e04" flood-opacity=".6"/>
      <feComposite in2="blur-3" operator="in"/>
      <feComposite in="SourceGraphic"/>
    </filter>
    <filter id="drop-shadow-4" filterUnits="userSpaceOnUse">
      <feOffset dx="0" dy="0"/>
      <feGaussianBlur result="blur-4" stdDeviation="4"/>
      <feFlood flood-color="#1a0e04" flood-opacity=".6"/>
      <feComposite in2="blur-4" operator="in"/>
      <feComposite in="SourceGraphic"/>
    </filter>
    <filter id="drop-shadow-5" filterUnits="userSpaceOnUse">
      <feOffset dx="0" dy="0"/>
      <feGaussianBlur result="blur-5" stdDeviation="4"/>
      <feFlood flood-color="#1a0e04" flood-opacity=".6"/>
      <feComposite in2="blur-5" operator="in"/>
      <feComposite in="SourceGraphic"/>
    </filter>
    <filter id="drop-shadow-6" filterUnits="userSpaceOnUse">
      <feOffset dx="0" dy="0"/>
      <feGaussianBlur result="blur-6" stdDeviation="4"/>
      <feFlood flood-color="#1a0e04" flood-opacity=".6"/>
      <feComposite in2="blur-6" operator="in"/>
      <feComposite in="SourceGraphic"/>
    </filter>
    <filter id="drop-shadow-7" filterUnits="userSpaceOnUse">
      <feOffset dx="0" dy="0"/>
      <feGaussianBlur result="blur-7" stdDeviation="4"/>
      <feFlood flood-color="#1a0e04" flood-opacity=".6"/>
      <feComposite in2="blur-7" operator="in"/>
      <feComposite in="SourceGraphic"/>
    </filter>
    <filter id="drop-shadow-8" filterUnits="userSpaceOnUse">
      <feOffset dx="0" dy="0"/>
      <feGaussianBlur result="blur-8" stdDeviation="4"/>
      <feFlood flood-color="#1a0e04" flood-opacity=".6"/>
      <feComposite in2="blur-8" operator="in"/>
      <feComposite in="SourceGraphic"/>
    </filter>
    <filter id="drop-shadow-9" filterUnits="userSpaceOnUse">
      <feOffset dx="0" dy="0"/>
      <feGaussianBlur result="blur-9" stdDeviation="4"/>
      <feFlood flood-color="#1a0e04" flood-opacity=".6"/>
      <feComposite in2="blur-9" operator="in"/>
      <feComposite in="SourceGraphic"/>
    </filter>
    <filter id="drop-shadow-10" filterUnits="userSpaceOnUse">
      <feOffset dx="0" dy="0"/>
      <feGaussianBlur result="blur-10" stdDeviation="4"/>
      <feFlood flood-color="#1a0e04" flood-opacity=".6"/>
      <feComposite in2="blur-10" operator="in"/>
      <feComposite in="SourceGraphic"/>
    </filter>
    <filter id="drop-shadow-11" filterUnits="userSpaceOnUse">
      <feOffset dx="0" dy="0"/>
      <feGaussianBlur result="blur-11" stdDeviation="4"/>
      <feFlood flood-color="#1a0e04" flood-opacity=".6"/>
      <feComposite in2="blur-11" operator="in"/>
      <feComposite in="SourceGraphic"/>
    </filter>
  </defs>
  <path class="cls-11" d="m234.8,40.84l-25.63,5.01c.17,2.91.49,5.16.95,6.75.46,1.59,1.38,3.21,2.74,4.85,2.63,3.12,5.81,4.69,9.54,4.69,1.54,0,3.18-.26,4.92-.79,1.74-.53,3.67-1.47,5.79-2.83l.92,1.11c-5.95,3.87-11.23,5.8-15.84,5.8-4.89,0-8.7-1.67-11.43-5.01-2.74-3.34-4.1-7.17-4.1-11.5s1.04-8.09,3.13-11.02c2.08-2.92,4.43-5.05,7.02-6.38,2.6-1.33,4.56-2,5.9-2,1.54,0,3.14.22,4.79.67,1.66.45,3.28,1.31,4.87,2.57,1.59,1.27,2.91,3,3.97,5.2.31.46.6.77.87.93.27.16.77.23,1.49.23l.1,1.72h0Zm-25.53,3.2l6.72-1.3c.27-.12,1.31-.37,3.1-.74,1.79-.37,3-.6,3.61-.7,1.78-.37,2.91-.63,3.38-.79.48-.15.72-.4.72-.74,0-.49-.41-1.34-1.23-2.53s-1.99-2.28-3.51-3.27c-1.52-.99-3.31-1.48-5.36-1.48-2.56,0-4.38,1.22-5.46,3.67-1.08,2.44-1.74,5.07-1.97,7.89h0Z"/>
  <path class="cls-1" d="m28.87,31.29c4.85.8,8.76,2.12,11.71,3.95,2.96,1.83,5.02,3.85,6.18,6.06s1.74,4.56,1.74,7.03c0,6.81-2.77,11.19-8.31,13.14s-11.19,2.92-16.97,2.92c-.55,0-1.54-.02-2.97-.07-1.44-.05-2.88-.09-4.33-.12-1.45-.03-2.56-.05-3.33-.07s-1.63-.02-2.59-.02c-2.05,0-5.38.12-10,.37v-1.76c1.37-.12,2.46-.29,3.28-.49s1.54-.56,2.15-1.09c.62-.53,1.01-1.24,1.18-2.13.34-1.33.61-4.1.79-8.3.19-4.21.32-8.48.38-12.83s.1-7.71.1-10.09c0-2.57-.03-5.06-.1-7.47s-.25-4.78-.54-7.1-.67-3.87-1.15-4.64c-.48-.87-1.2-1.48-2.15-1.86-.96-.37-2.24-.67-3.85-.88v-1.76c3.62.25,6.82.37,9.59.37.65,0,3.02-.12,7.13-.37,4.38-.28,6.68-.42,6.92-.42,3.31,0,6.34.56,9.07,1.67,2.73,1.11,4.93,2.77,6.59,4.98,1.66,2.21,2.49,4.78,2.49,7.72,0,3.12-1.06,5.82-3.18,8.09s-5.4,3.99-9.84,5.17h0Zm-14.46-6.05v5.71c.75-.06,1.62-.09,2.61-.09,3.08-.06,5.78-.31,8.1-.74s4.39-1.5,6.2-3.2c1.81-1.7,2.72-4.31,2.72-7.84,0-2.78-.64-5.15-1.92-7.1-1.28-1.95-3-3.43-5.15-4.45s-4.46-1.53-6.92-1.53-3.79.25-4.31.74c-.44.34-.78,2.7-1,7.07-.22,4.38-.33,8.19-.33,11.43Zm0,7.89v18.18c0,3.15.07,5.38.21,6.68s.46,2.27.97,2.9c.51.63,1.28,1.01,2.31,1.14,1.03.12,2.84.19,5.43.19,2.77,0,5.44-.39,8.02-1.18,2.58-.79,4.76-2.17,6.54-4.15,1.78-1.98,2.67-4.64,2.67-7.98,0-1.86-.39-3.76-1.18-5.71s-1.97-3.69-3.54-5.22c-1.57-1.53-3.65-2.78-6.23-3.76-2.58-.97-5.58-1.46-9-1.46-.82,0-1.8.03-2.95.09-1.15.06-2.23.16-3.26.28h0Z"/>
  <path class="cls-5" d="m63.63,36.74l-6.31,2.55c-.27-.99-.41-1.72-.41-2.18,0-1.58,1.07-3.04,3.21-4.38s4.54-2.43,7.23-3.27c2.68-.83,4.55-1.25,5.61-1.25.92,0,2.07.37,3.43,1.11s2.46,1.48,3.28,2.23c.72.62,1.27,1.23,1.67,1.83.39.6.74,1.55,1.05,2.85s.46,2.95.46,4.96c0,.59-.08,2.66-.26,6.22l-.21,3.48c-.14,1.67-.21,3-.21,3.99,0,1.27.19,2.63.56,4.08.34,1.48,1.11,2.23,2.31,2.23,1.33,0,3.11-.45,5.33-1.35v1.9l-7.54,2.74c-1.5.46-2.36.7-2.56.7-.79,0-1.56-.47-2.33-1.42-.77-.94-1.39-2.06-1.87-3.36-6.32,3.19-11.18,4.78-14.56,4.78-2.08,0-3.66-.55-4.72-1.65s-1.59-2.74-1.59-4.94.28-3.67.85-4.69c.56-1.02,1.48-1.82,2.74-2.41,2.56-1.17,5.28-2.05,8.15-2.62,2.87-.57,5.88-1.06,9.02-1.46l.26-5.71v-1.53c0-2.63-.83-4.71-2.49-6.24-1.66-1.53-3.6-2.3-5.82-2.3-1.06,0-2.13.27-3.2.81-1.08.54-1.62,1.31-1.62,2.3,0,.5.17,1.16.51,1.99h.03Zm12.15,21.94c-.1-1.02,0-3.93.31-8.72-4.5-.28-8.11.22-10.83,1.48-2.72,1.27-4.09,2.86-4.09,4.78,0,1.39.42,2.71,1.25,3.94.83,1.24,1.98,1.86,3.45,1.86,1.63,0,4.94-1.11,9.91-3.34Z"/>
  <path class="cls-8" d="m92.9,64.2l.1-1.34c1.71-.31,2.89-.62,3.54-.93s1.21-1.03,1.69-2.18c.48-1.14.79-2.86.95-5.14.15-2.29.23-5.79.23-10.51,0-3.74-.22-6.22-.67-7.46-.44-1.23-1.56-1.85-3.33-1.85-1.06,0-2.14.12-3.23.37l.21-1.51,13.23-6.98c.14,1.92.21,4.55.21,7.89l5.49-2.83c.27-.15.51-.29.72-.42.38-.19.8-.41,1.28-.67s1.3-.71,2.46-1.35c1.16-.63,2.08-1.15,2.77-1.55l.41.19c.21.19.44.34.72.46,1.03.43,1.83.93,2.41,1.48.58.56.87,1.36.87,2.41,0,1.21-.55,2.2-1.64,2.97s-2.41,1.24-3.95,1.39c0-1.05-.27-1.86-.82-2.41-.55-.56-1.32-.83-2.31-.83s-2.24.33-3.64,1-2.46,1.29-3.18,1.88c-.85.68-1.36,1.25-1.51,1.69-.15.45-.25,1.55-.28,3.32-.21,5.23-.31,8-.31,8.3,0,6.03.34,9.76,1.03,11.18.31.5.65.8,1.03.9.38.11,1.03.16,1.95.16l1.33-.09,6.1-.09-.1,1.9c-.17,0-1.25.03-3.23.09s-3.32.09-4,.09l-16.51.46h-.02Z"/>
  <path class="cls-2" d="m154.63,31.29c4.85.8,8.76,2.12,11.71,3.95,2.96,1.83,5.02,3.85,6.18,6.06s1.74,4.56,1.74,7.03c0,6.81-2.77,11.19-8.31,13.14s-11.19,2.92-16.97,2.92c-.55,0-1.54-.02-2.97-.07-1.44-.05-2.88-.09-4.33-.12-1.45-.03-2.56-.05-3.33-.07s-1.63-.02-2.59-.02c-2.05,0-5.38.12-10,.37v-1.76c1.37-.12,2.46-.29,3.28-.49.82-.2,1.54-.56,2.15-1.09.62-.53,1.01-1.24,1.18-2.13.34-1.33.61-4.1.79-8.3.19-4.21.32-8.48.38-12.83s.1-7.71.1-10.09c0-2.57-.03-5.06-.1-7.47s-.25-4.78-.54-7.1-.67-3.87-1.15-4.64c-.48-.87-1.2-1.48-2.15-1.86-.96-.37-2.24-.67-3.85-.88v-1.76c3.62.25,6.82.37,9.59.37.65,0,3.02-.12,7.13-.37,4.38-.28,6.68-.42,6.92-.42,3.31,0,6.34.56,9.07,1.67,2.73,1.11,4.93,2.77,6.59,4.98,1.66,2.21,2.49,4.78,2.49,7.72,0,3.12-1.06,5.82-3.18,8.09s-5.4,3.99-9.84,5.17h0Zm-14.46-6.05v5.71c.75-.06,1.62-.09,2.61-.09,3.08-.06,5.78-.31,8.1-.74s4.39-1.5,6.2-3.2,2.72-4.31,2.72-7.84c0-2.78-.64-5.15-1.92-7.1-1.28-1.95-3-3.43-5.15-4.45s-4.46-1.53-6.92-1.53-3.79.25-4.31.74c-.44.34-.78,2.7-1,7.07-.22,4.38-.33,8.19-.33,11.43h0Zm0,7.89v18.18c0,3.15.07,5.38.21,6.68s.46,2.27.97,2.9,1.28,1.01,2.31,1.14c1.03.12,2.84.19,5.43.19,2.77,0,5.44-.39,8.02-1.18s4.76-2.17,6.54-4.15c1.78-1.98,2.67-4.64,2.67-7.98,0-1.86-.39-3.76-1.18-5.71s-1.97-3.69-3.54-5.22c-1.57-1.53-3.65-2.78-6.23-3.76-2.58-.97-5.58-1.46-9-1.46-.82,0-1.8.03-2.95.09s-2.23.16-3.26.28h0Z"/>
  <path class="cls-10" d="m213.03,39.99l-25.63,5.01c.17,2.91.49,5.16.95,6.75.46,1.59,1.38,3.21,2.74,4.85,2.63,3.12,5.81,4.69,9.54,4.69,1.54,0,3.18-.26,4.92-.79,1.74-.53,3.67-1.47,5.79-2.83l.92,1.11c-5.95,3.87-11.23,5.8-15.84,5.8-4.89,0-8.7-1.67-11.43-5.01-2.74-3.34-4.1-7.17-4.1-11.5s1.04-8.09,3.13-11.02c2.08-2.92,4.43-5.05,7.02-6.38,2.6-1.33,4.56-2,5.9-2,1.54,0,3.14.22,4.79.67,1.66.45,3.28,1.31,4.87,2.57,1.59,1.27,2.91,3,3.97,5.2.31.46.6.77.87.93.27.16.77.23,1.49.23l.1,1.72h0Zm-25.53,3.2l6.72-1.3c.27-.12,1.31-.37,3.1-.74,1.79-.37,3-.6,3.61-.7,1.78-.37,2.91-.63,3.38-.79.48-.15.72-.4.72-.74,0-.49-.41-1.34-1.23-2.53s-1.99-2.28-3.51-3.27c-1.52-.99-3.31-1.48-5.36-1.48-2.56,0-4.38,1.22-5.46,3.67-1.08,2.44-1.74,5.07-1.97,7.89h0Z"/>
  <path class="cls-7" d="m238.99,64.2l.1-1.34c1.71-.31,2.89-.62,3.54-.93s1.21-1.03,1.69-2.18c.48-1.14.79-2.86.95-5.14.15-2.29.23-5.79.23-10.51,0-3.74-.22-6.22-.67-7.46-.44-1.23-1.56-1.85-3.33-1.85-1.06,0-2.14.12-3.23.37l.21-1.51,13.23-6.98c.14,1.92.21,4.55.21,7.89l5.49-2.83c.27-.15.51-.29.72-.42.38-.19.8-.41,1.28-.67s1.3-.71,2.46-1.35c1.16-.63,2.08-1.15,2.77-1.55l.41.19c.21.19.44.34.72.46,1.03.43,1.83.93,2.41,1.48.58.56.87,1.36.87,2.41,0,1.21-.55,2.2-1.64,2.97-1.09.77-2.41,1.24-3.95,1.39,0-1.05-.27-1.86-.82-2.41-.55-.56-1.32-.83-2.31-.83s-2.24.33-3.64,1c-1.4.67-2.46,1.29-3.18,1.88-.85.68-1.36,1.25-1.51,1.69-.15.45-.25,1.55-.28,3.32-.21,5.23-.31,8-.31,8.3,0,6.03.34,9.76,1.03,11.18.31.5.65.8,1.03.9.38.11,1.03.16,1.95.16l1.33-.09,6.1-.09-.1,1.9c-.17,0-1.25.03-3.23.09s-3.32.09-4,.09l-16.51.46h-.02Z"/>
  <path class="cls-6" d="m311.59,64.29l-2.1-.09c.07-4.3-.87-9.46-2.82-15.49.82-.22,1.37-.34,1.64-.37.82,2.32,1.46,4,1.92,5.03.46,1.04,1.06,1.95,1.79,2.74s1.75,1.49,3.05,2.11c2.22,1.05,4.79,1.99,7.69,2.83s6.03,1.25,9.38,1.25c2.9,0,5.82-.65,8.74-1.95,2.92-1.3,4.38-4.16,4.38-8.58,0-2.23-.43-4.14-1.28-5.75s-1.97-2.91-3.36-3.9c-1.38-.99-2.99-1.87-4.82-2.64-1.83-.77-4.2-1.65-7.1-2.64-4.03-1.33-7.36-2.69-9.97-4.08-2.61-1.39-4.69-3.11-6.23-5.15s-2.31-4.53-2.31-7.47c0-4.67,1.9-8.56,5.69-11.67s9.21-4.66,16.25-4.66c3.59,0,7.13.34,10.61,1.02,1.4.25,2.27.37,2.62.37,1.03,0,2.05-.31,3.08-.93l.41-.19c.27,0,.62.06,1.03.19-.1.71-.2,1.42-.28,2.11-.09.7-.17,1.46-.26,2.3-.09.83-.15,1.48-.18,1.95-.03.46-.07.77-.1.93.44,3.74.65,5.78.62,6.12l-1.54.09c-.27-3.15-1.42-5.64-3.44-7.45s-4.29-3.04-6.82-3.69-4.96-.97-7.28-.97c-5.67,0-9.43,1.34-11.25,4.01-1.83,2.67-2.74,5.2-2.74,7.58,0,2.5.68,4.58,2.05,6.24s3.07,2.95,5.1,3.89c2.03.94,4.9,2.06,8.59,3.35,4.17,1.48,7.52,2.84,10.05,4.1,2.53,1.25,4.79,3.06,6.77,5.43,1.98,2.37,2.97,5.3,2.97,8.8,0,2.97-.85,5.65-2.56,8.03-1.71,2.38-4.27,4.27-7.69,5.66s-7.61,2.09-12.56,2.09-9.83-.63-15.02-1.9c-.92-.19-1.49-.28-1.69-.28-.89,0-1.23.54-1.03,1.62h0Z"/>
  <path class="cls-9" d="m356.25,7.7v-1.79c.75-.34,1.25-.57,1.49-.7l9.95-4.38,1.69-.84,1.69.75c-.65,2.78-1.11,5.99-1.38,9.62-.27,3.63-.48,8.25-.62,13.84l-.31,9.42c4.03-1.58,7.31-2.74,9.82-3.48s4.93-1.11,7.25-1.11c3.28,0,5.67.9,7.18,2.71,1.5,1.81,2.44,4.02,2.79,6.63.36,2.61.54,6.05.54,10.32,0,.83,0,1.61-.03,2.32-.02.71-.04,1.71-.08,2.99s-.08,2.46-.13,3.53c-.05,1.07-.08,1.68-.08,1.83,0,1.33.36,2.21,1.07,2.64.71.43,2.68.65,5.9.65l-.1,1.44h-3.32c-.51,0-2.62.02-6.31.05-3.7.03-5.6.05-5.7.05s-.85.15-2.25.46c-.34,0-.51-.22-.51-.65,0-.31.27-.53.82-.65,1.3-.28,2.26-.77,2.9-1.48.63-.71,1.06-1.92,1.28-3.62s.33-4.5.33-8.4c0-6.15-.55-10.54-1.64-13.17-1.09-2.63-3.59-3.94-7.49-3.94-2.02,0-4.24.34-6.67,1.02-2.43.68-4.22,1.3-5.38,1.86,0,.87-.07,2.32-.21,4.36l-.46,11.18c0,.71,0,1.36-.03,1.95-.02.59-.04,1.24-.08,1.95,0,3,.22,4.93.67,5.8.17.53.58.89,1.23,1.09.65.2,2.38.41,5.18.63v1.62c-1.13-.12-3.52-.19-7.18-.19s-7.88.15-12.25.46l.1-1.53c2.19-.4,3.63-.79,4.33-1.18.7-.39,1.18-1.12,1.44-2.2s.44-3.11.54-6.07c.1-4.85.24-9.01.41-12.47l.21-12.98c.07-1.33.1-4.28.1-8.85,0-4.17-.2-7.25-.59-9.25-.39-1.99-1.36-2.99-2.9-2.99-.24,0-1.32.25-3.23.75h.02Z"/>
  <path class="cls-3" d="m407.62,46.71c0-2.72.55-5.19,1.67-7.4,1.11-2.21,2.64-4.12,4.59-5.73,1.95-1.61,4.22-2.84,6.82-3.71,2.6-.87,5.38-1.3,8.36-1.3,2.7,0,5.25.45,7.67,1.35,2.41.9,4.52,2.13,6.33,3.71s3.24,3.44,4.28,5.59,1.56,4.46,1.56,6.94c0,3.22-.85,6.23-2.54,9.04s-4.08,5.08-7.18,6.8c-3.09,1.72-6.66,2.57-10.69,2.57-3.04,0-6.18-.6-9.41-1.81-3.23-1.21-5.95-3.15-8.15-5.82-2.2-2.67-3.31-6.08-3.31-10.23Zm6.72-2.55c0,2.88.63,5.74,1.9,8.58,1.26,2.85,3.03,5.18,5.31,7,2.27,1.83,4.78,2.74,7.51,2.74,2.39,0,4.56-.6,6.51-1.79s3.5-2.88,4.67-5.08c1.16-2.2,1.74-4.69,1.74-7.47s-.68-5.56-2.03-8.23c-1.35-2.67-3.21-4.85-5.59-6.54-2.38-1.68-5-2.53-7.87-2.53-2.33,0-4.41.57-6.25,1.72-1.85,1.14-3.29,2.74-4.33,4.78-1.04,2.04-1.56,4.31-1.56,6.82h-.01Z"/>
  <path class="cls-4" d="m454.48,35.16l-.41-1.32c1.64-.9,2.79-1.47,3.44-1.72.48,0,1.98-.65,4.49-1.95,2.52-1.3,4.26-2.5,5.21-3.58.27.74.63,2.92,1.1,6.54l4.41-1.58c4.58-1.73,8.05-2.6,10.41-2.6,2.56,0,5.12.76,7.67,2.27,2.55,1.52,4.61,3.56,6.2,6.12,1.59,2.57,2.38,5.32,2.38,8.26,0,3.74-.94,6.86-2.82,9.35-1.88,2.49-4.2,4.41-6.95,5.75s-5.4,2.28-7.95,2.81c-2.55.53-4.47.79-5.77.79-2.12,0-4.65-.45-7.59-1.34,0,.56-.03,2.3-.1,5.23s-.1,4.64-.1,5.14v8.43c0,1.98.08,3.38.26,4.21.17.83.49,1.37.95,1.6.46.23,1.26.38,2.38.44l3.74.19c.85,0,1.28.3,1.28.91,0,.38-.13.62-.38.71-.26.09-.86.14-1.82.14-4.24,0-6.89.02-7.95.07s-4.55.24-10.46.58c0-.56-.03-1.02-.1-1.39,1.74-.12,2.91-.35,3.49-.67.58-.33,1.04-.86,1.38-1.6.55-1.36.91-4.09,1.08-8.18.17-4.1.26-8.37.26-12.82l.1-5.79c0-4.45-.03-9.05-.1-13.79-.07-4.74-.21-7.64-.41-8.69-.17-.62-.44-1.21-.79-1.79-.36-.57-.79-1.04-1.28-1.39-.5-.35-1-.53-1.51-.53-.38,0-1.62.41-3.74,1.23v-.04Zm13.74-.14l-.1,23.47,4.72,1.44c3.59,1.08,6.08,1.62,7.49,1.62,1.67,0,3.54-.38,5.59-1.14s3.85-2.03,5.41-3.83c1.55-1.79,2.33-4.13,2.33-7,0-3.15-.8-6.07-2.41-8.74-1.61-2.67-3.61-4.77-6-6.29-2.39-1.51-4.67-2.27-6.82-2.27-1.09,0-4.5.91-10.2,2.74h0Z"/>
</svg>