<?xml version="1.0" encoding="UTF-8"?>
<svg id="Layer_1" data-name="Layer 1" xmlns="http://www.w3.org/2000/svg" viewBox="0 0 179.78 306.52">
  <defs>
    <style>
      .cls-1 {
        fill: #fff;
      }

      .cls-2 {
        fill: #3f3f3f;
      }

      .cls-3 {
        fill: #a17547;
      }

      .cls-4 {
        fill: #ffdcb5;
      }

      .cls-5 {
        fill: #d19f84;
      }

      .cls-6 {
        fill: #5e5e5e;
      }
    </style>
  </defs>
  <path class="cls-5" d="m87.47,221.39c1.46,0,3.03-.31,4.69-.64,1.93-.39,3.92-.78,6.1-.78,2.05,0,3.99.27,5.86.53,1.71.24,3.33.46,4.91.46,2.03,0,3.69-.37,5.36-1.2,2.5-1.24,5.1-2.82,7.85-4.79-.74-.12-1.46-.2-2.14-.21-1.06-.02-2.07-.05-3.03-.1-3.11.45-9.01,1.1-17.81,1.27-9.82.19-16.02-.77-18.77-1.34-1.28.08-2.62.15-4.07.17-.68.01-1.4.1-2.12.22,3.61,2.57,6.95,4.49,10.12,5.83.95.4,1.93.59,3.07.59Z"/>
  <path class="cls-4" d="m37.59,169.53c.02.11,1.69,10.01,14.05,24.46-1.88-3.55-2.97-7.3-2.97-7.3,0,0,2.03,3.39,4.64,6.21,1.69,1.91,3.57,3.52,4.65,4.4,6.35-4.82,14.79-8.71,24.04-8.86-.58-.68-1.13-1.48-1.53-2.4-.39-.91-.53-1.97-.34-2.87.19-.9.58-1.63,1-2.15.41-.53.79-.93,1.08-1.18.28-.25.44-.4.44-.4,0,0-.12.18-.33.49-.22.31-.49.77-.74,1.34-.26.56-.42,1.28-.4,1.98.03.71.31,1.39.75,1.98.41.53.92.98,1.45,1.38.11.03.21.06.32.1.78.26,1.69.56,2.72.84-.02-.03-.04-.06-.06-.09-1.25-1.75-3.12-3.13-3.12-3.13,0,0,2.28.34,4.47,1.45,1.09.53,2.15,1.23,2.9,1.84.57.46.98.85,1.14,1.01.2.03.4.06.61.08,1.77.28,3.68.41,5.61.2.81-.09,1.63-.26,2.46-.48.65-.59,2.46-2.17,4.53-3.27,2.55-1.46,5.29-2.14,5.29-2.14,0,0-1.86,1.31-3.48,3.09.12-.05.23-.1.36-.15.59-.24,1.05-.45,1.78-.72.7-.25,1.3-.42,1.55-.55.25-.14.23-.15.39-.36.16-.23.32-.56.41-.89.2-.7.17-1.35-.07-2.2-.35-1.71-1.61-3.59-3.06-5.65-.72-1.05-1.46-2.19-2.08-3.48-.62-1.27-1.09-2.8-1.22-4.19-.19-2.82.31-5.07.34-7.01.01-.39,0-.78-.02-1.17-.76-1.58-1.42-3.38-2.09-5.42-2.87-8.75-5.34-13-7.54-13s-4.66,4.25-7.54,13c-3.63,11.05-7,15.22-28.17,15.22-15.9,0-21.1-4.45-23.53-9.6l1.31,9.59Z"/>
  <path class="cls-4" d="m147.61,188.78c-.13-2.94-.1-5.88.05-8.81-2.24,2.08-4.76,3.72-6.78,4.65-1.07.51-1.99.83-2.63,1.04-.65.2-1.02.31-1.02.31,0,0,.33-.2.9-.55.57-.36,1.35-.9,2.22-1.62,1.76-1.42,3.77-3.67,5.29-6.17,1.16-1.85,2.05-3.82,2.68-5.55.24-2.01.53-4.02.85-6.02-3.59,2.11-9.11,3.49-17.96,3.49-9.72,0-15.69-.88-19.65-2.91,1.49,3.31,3.63,6.3,5.76,9.27,3.11,4.34,6.21,8.67,9.32,13.01,1.36,1.25,2.77,2.46,4.24,3.64,2.72,1.34,5.24,2.91,7.5,4.61.79-.61,1.88-1.48,2.93-2.45,1.97-1.77,3.72-3.84,3.72-3.84,0,0-.68,2.14-1.7,4.41,1.64-2.15,3.06-4.34,4.28-6.52Z"/>
  <path class="cls-6" d="m62.76,164.55c4.97,0,9.37-.5,12.07-1.37,7.43-2.4,9.93-16.97,9.93-23.25s-12.18-10.87-29.62-10.87c-14.12,0-16,2.29-16.92,7.51-1.03,5.83,1.39,20.67,5.49,24.43,2.24,2.06,10.26,3.55,19.05,3.55Zm-2.99-25.28c-.26.53-.61,1.3-1.08,2.2-.92,1.8-2.22,4.16-3.59,6.48-1.38,2.31-2.82,4.58-3.97,6.25-.56.84-1.07,1.51-1.41,2-.35.48-.56.74-.56.74,0,0,.13-.31.39-.85.26-.53.61-1.3,1.08-2.2.92-1.8,2.22-4.16,3.59-6.48,1.38-2.31,2.83-4.58,3.97-6.25.57-.84,1.07-1.51,1.41-2,.35-.48.56-.74.56-.74,0,0-.13.31-.39.85Zm-14.69,18.17c.42-.79.98-1.94,1.72-3.27.74-1.34,1.58-2.92,2.53-4.57.94-1.67,1.97-3.42,3-5.18,1.05-1.75,2.1-3.5,3.11-5.12,1-1.63,1.99-3.12,2.81-4.41.82-1.29,1.56-2.33,2.05-3.08.51-.73.8-1.15.8-1.15,0,0-.23.46-.63,1.26-.42.79-.98,1.93-1.72,3.27-.74,1.34-1.58,2.91-2.53,4.57-.94,1.67-1.97,3.42-3,5.18-1.05,1.75-2.1,3.5-3.11,5.12-1,1.63-1.99,3.12-2.81,4.41-.82,1.29-1.56,2.33-2.05,3.08-.51.73-.8,1.15-.8,1.15,0,0,.23-.46.63-1.26Z"/>
  <path class="cls-3" d="m75.32,204.96c-1.5,1.44-3.25,3.58-4.88,5.82-.38.52-.76,1.04-1.13,1.56,2.4-.82,4.76-1.38,7.04-1.41.77-.01,1.49-.04,2.2-.07l-.07-.05s.61-.71,1.61-1.64c1-.94,2.43-2.04,3.96-2.93,1.53-.9,3.13-1.58,4.35-1.98,1.22-.41,2.05-.58,2.05-.58,0,0-.74.42-1.76,1.14-1.02.72-2.29,1.79-3.38,2.99-.82.89-1.53,1.84-2.09,2.69,3.53-.4,6.12-1.02,7.98-1.65.49-.52,1.01-1.24,1.43-2.09.5-1.02.82-2.21.92-3.14.11-.94.07-1.6.07-1.6,0,0,.43.49.95,1.37.33.54.66,1.27.94,2.07v-6.95c-.28.16-.58.3-.9.44-2.45,1.13-5.71,1.47-8.52,2.86-2.94,1.39-5.77,2.96-7.63,4.53-.93.78-1.63,1.51-2.08,2.07-.45.55-.69.89-.69.89,0,0,.2-.36.6-.95.39-.6,1.03-1.41,1.9-2.3,1.72-1.79,4.47-3.69,7.28-5.37,2.92-1.8,6.26-2.52,8.16-3.68.89-.5,1.5-1.03,1.88-1.47v-.44c-4.46-1.99-8.82-2.83-12.97-2.83-15.59,0-28.15,11.8-31.53,18.24-2.04,3.89-6.08,6.07-9.75,7.29,2.03,0,4.21-.1,6.37-.45,3.87-.58,7.6-2.11,10.02-3.86,1.22-.85,2.13-1.73,2.72-2.38.31-.32.51-.6.66-.78.15-.18.23-.28.23-.28,0,0-.07.11-.19.31-.13.2-.3.5-.57.86-.51.73-1.31,1.73-2.46,2.77-2.26,2.1-5.95,4.2-9.98,5.33-4.01,1.17-8.18,1.53-11.25,1.73-.24.01-.46.03-.68.04,1.94,1.08,3.98,1.54,6.09,1.54,6.49,0,13.67-4.23,20.74-7.6.12-.11.25-.21.38-.32,1.55-1.32,3.53-3.27,5.57-5.22,2.04-1.95,4.21-3.81,5.99-4.98.87-.6,1.64-1.04,2.18-1.33.54-.29.85-.45.85-.45,0,0-.28.22-.76.59-.48.38-1.14.94-1.88,1.67Zm-14.53.57c-1.72,1.41-3.26,2.83-4.45,4.18-.65.63-1.22,1.23-1.69,1.8-.49.55-.92,1.04-1.23,1.47-.7.82-1.09,1.29-1.09,1.29,0,0,.24-.57.65-1.57.22-.5.53-1.07.9-1.73.35-.67.78-1.41,1.3-2.19,1.05-1.55,2.45-3.23,4.06-4.95,1.69-1.63,3.65-3.21,5.71-4.65,2.14-1.32,4.39-2.43,6.55-3.35,2.22-.77,4.31-1.4,6.15-1.74.92-.17,1.77-.26,2.52-.34.75-.09,1.4-.14,1.94-.16,1.08,0,1.7,0,1.7,0,0,0-.59.19-1.61.52-.52.13-1.13.32-1.83.57-.7.23-1.49.5-2.32.86-1.71.56-3.62,1.43-5.62,2.42-2,.97-4.08,2.13-6.03,3.47-2,1.26-3.92,2.65-5.59,4.12Zm15.31-3.81c-1.45.56-2.86,1.21-4.11,1.93-1.25.72-2.39,1.46-3.25,2.22-.87.76-1.55,1.47-1.95,2.02-.43.54-.65.88-.65.88,0,0,.12-.38.43-1.01.32-.62.81-1.53,1.65-2.42.83-.89,1.88-1.88,3.18-2.68,1.28-.82,2.73-1.54,4.21-2.18,1.5-.58,3-1.08,4.4-1.56,1.4-.48,2.72-.85,3.83-1.27,1.1-.41,2.03-.73,2.66-1.03.64-.26,1-.43,1-.43,0,0-.31.25-.88.66-.58.39-1.41.96-2.49,1.49-1.08.53-2.34,1.14-3.73,1.67-1.39.53-2.86,1.09-4.3,1.7Z"/>
  <path class="cls-3" d="m151.46,211.63c-.62-6.88-1.04-13.7-.47-20.64-2.02,3.55-4.52,7.11-7.62,10.53,2.45,2.47,4.34,4.97,5.5,7.18.6,1.15,1.51,2.11,2.58,2.93Z"/>
  <path class="cls-1" d="m104.92,141.95c-.03-.64-.05-.99-.05-.99,0,0,0,.34,0,.99,0,.64.01,1.59.12,2.79.09,1.2.28,2.66.55,4.32.31,1.65.69,3.52,1.34,5.49.66,1.97,1.51,4.08,2.81,6.11l.5.76c.18.25.39.48.58.72l.6.73.7.65c.44.47,1.01.83,1.58,1.2.14.09.28.19.43.27l.44.19.88.38c2.6.84,5.23,1.15,7.96,1.37,2.72.19,5.49.22,8.25.12,2.76-.12,5.52-.39,8.22-.85,1.35-.23,2.68-.5,3.97-.87,1.3-.35,2.56-.83,3.79-1.5l.78-.56c.35-.22.49-.49.74-.73.24-.24.44-.5.61-.78.18-.27.37-.54.53-.81.62-1.12,1.13-2.24,1.53-3.37.82-2.25,1.36-4.43,1.77-6.46.8-4.07,1.01-7.53.97-9.94,0-1.21-.11-2.16-.19-2.79-.1-.64-.16-.98-.16-.98,0,0,.03.34.1.98.05.64.08,1.58.04,2.78-.05,2.4-.46,5.81-1.34,9.82-.46,2-1.05,4.14-1.91,6.32-.89,2.12-1.9,4.49-4.02,5.79-1.05.53-2.24,1-3.51,1.32-1.25.35-2.56.6-3.88.82-2.65.43-5.37.67-8.1.76-2.73.12-5.46.12-8.14-.05-2.65-.18-5.36-.5-7.68-1.23-1.25-.48-2.24-1.03-3.12-1.84l-.67-.59-.58-.67c-.19-.23-.39-.44-.57-.67l-.5-.72c-1.3-1.91-2.19-3.96-2.89-5.88-1.33-3.87-1.96-7.26-2.25-9.64-.16-1.19-.23-2.13-.27-2.77Z"/>
  <path class="cls-1" d="m36.95,137.42s-.05.34-.16.97c-.08.64-.18,1.58-.19,2.79-.03,2.41.17,5.86.96,9.92.41,2.03.95,4.21,1.76,6.45.4,1.13.9,2.25,1.52,3.37.69,1.13,1.44,2.19,2.68,2.92,2.37,1.32,5.03,1.88,7.7,2.37,2.69.46,5.44.73,8.2.85,2.76.1,5.52.07,8.24-.12.68-.06,1.35-.12,2.03-.18.67-.09,1.34-.18,2-.27.66-.11,1.33-.25,1.98-.38.65-.17,1.24-.31,1.9-.53,2.59-.92,4.43-2.93,5.71-4.93,1.29-2.03,2.13-4.14,2.78-6.11.65-1.97,1.03-3.84,1.33-5.48.27-1.66.46-3.11.54-4.31.11-1.2.12-2.15.12-2.79,0-.64,0-.99,0-.99,0,0-.02.34-.05.98-.04.64-.11,1.58-.27,2.77-.29,2.37-.9,5.76-2.23,9.63-.69,1.92-1.57,3.96-2.86,5.88-1.28,1.9-3.06,3.68-5.37,4.5-.56.18-1.23.34-1.85.5-.63.11-1.26.23-1.89.34-.65.08-1.3.17-1.96.25-.66.05-1.33.11-1.99.16-2.67.17-5.4.17-8.12.05-2.72-.1-5.44-.34-8.08-.77-2.62-.45-5.25-1.01-7.4-2.19-2.04-1.28-3.06-3.66-3.95-5.78-.85-2.17-1.44-4.31-1.89-6.31-.87-4-1.28-7.41-1.33-9.8-.04-1.2,0-2.14.04-2.78.06-.64.1-.98.1-.98Z"/>
  <path class="cls-4" d="m26.16,134.59c.06-.02.12-.02.18-.03v-3.76c-1.86.52-3.31,2.07-4.07,3.8-.82,1.86-.98,3.93-1.11,5.95-.43,6.65-.59,13.41.91,19.91-.29-2.4-.47-4.92-.45-7.46,0-1.49.11-2.99.25-4.43.16-1.42.33-2.82.54-4.18.43-2.7.93-5.23,1.78-7.32.22-.52.45-1.01.76-1.46.31-.43.68-.86,1.22-1.03Z"/>
  <path class="cls-3" d="m31.19,81c5.85,1.4,13.05,2.9,21.19,4.15-2.32-1.43-4.29-3.24-5.41-4.93-.7-1-1.11-1.94-1.35-2.6-.12-.33-.2-.59-.25-.77-.05-.18-.08-.28-.08-.28,0,0,.04.09.12.26.07.17.19.42.36.72.34.6.87,1.43,1.68,2.27,1.59,1.73,4.26,3.36,7.18,4.32,2.91.99,6.01,1.54,8.35,2.04,1.7.35,2.99.62,3.56.74,6.56.62,13.49,1,20.68,1,3.97,0,8.02-.13,12.11-.39-.04-.08-.08-.15-.13-.23-.91-1.63-2.39-3.68-4.17-5.51-1.77-1.83-3.84-3.42-5.5-4.44-1.66-1.04-2.86-1.59-2.86-1.59,0,0,1.27.34,3.11,1.09,1.85.74,4.23,1.98,6.42,3.58,2.19,1.59,4.16,3.52,5.48,5.13.55.67,1,1.25,1.34,1.72,3.91-.32,7.86-.78,11.83-1.39-.08-.63-.22-1.38-.4-2.25-.16-.88-.37-1.87-.65-2.94-.5-2.15-1.29-4.61-2.24-7.22-.98-2.59-2.23-5.29-3.63-7.92-1.42-2.61-3.04-5.13-4.67-7.41-1.68-2.24-3.32-4.3-4.87-5.93-.75-.84-1.48-1.57-2.13-2.22-.64-.65-1.22-1.21-1.71-1.64-.98-.89-1.53-1.39-1.53-1.39,0,0,.59.46,1.63,1.28.53.4,1.14.91,1.84,1.52.7.59,1.49,1.27,2.31,2.06,1.68,1.53,3.49,3.48,5.37,5.62,1.82,2.19,3.66,4.63,5.32,7.2,1.63,2.58,3.12,5.27,4.34,7.88,1.19,2.62,2.2,5.13,2.9,7.34.38,1.1.68,2.12.91,3.03.26.91.47,1.7.6,2.37,0,.02,0,.04.01.06,1.21-.21,2.42-.44,3.63-.69,0-.23-.01-.48-.02-.78,0-.56-.05-1.24-.11-2.01-.05-.78-.12-1.66-.25-2.61-.41-3.83-1.47-8.92-3.23-13.85-.89-2.46-1.93-4.87-3.01-7.09-1.13-2.2-2.24-4.23-3.33-5.9-.52-.85-1.04-1.6-1.5-2.27-.46-.67-.86-1.25-1.22-1.71-.7-.93-1.1-1.47-1.1-1.47,0,0,.47.47,1.3,1.3.42.41.91.93,1.46,1.53.56.6,1.18,1.28,1.82,2.06,1.33,1.52,2.75,3.41,4.21,5.49,1.42,2.1,2.84,4.43,4.12,6.85,1.25,2.43,2.38,4.93,3.3,7.35.89,2.42,1.65,4.73,2.15,6.76.28,1.01.49,1.94.66,2.77.18.83.34,1.56.43,2.16.01.06.02.1.03.16,1.11-.27,2.23-.52,3.34-.82,1.74-.46,3.38-.95,4.97-1.45,0-.63,0-1.44,0-2.42,0-2.53.02-6.14-.1-10.41-.14-4.27-.41-9.21-1.43-14.35-.96-5.16-2.82-10.42-5.42-15.5-1.29-2.53-2.68-5.01-4.2-7.36-1.54-2.33-3.18-4.55-4.93-6.55-3.5-4.02-7.4-7.21-11.03-9.53-3.63-2.32-6.94-3.79-9.27-4.77-2.36-.9-3.73-1.38-3.73-1.38,0,0,1.4.37,3.83,1.1,2.41.8,5.85,2.03,9.72,4.12,3.86,2.09,8.12,5.07,12.06,8.98,1.97,1.95,3.84,4.13,5.62,6.43,1.76,2.32,3.39,4.79,4.92,7.31,3.07,5.03,5.55,10.63,6.98,16.08,1.5,5.44,2.16,10.64,2.63,15.03.45,4.4.7,8.03.88,10.57,0,.12.02.23.02.34,2.32-.92,4.45-1.89,6.35-2.89,0-.26-.02-.81-.05-1.64,0-.58-.04-1.28-.11-2.08-.06-.8-.11-1.71-.24-2.69-.41-3.95-1.39-9.22-3.15-14.32-1.72-5.11-4.19-10.01-6.48-13.43-1.12-1.73-2.17-3.1-2.93-4.04-.77-.94-1.21-1.47-1.21-1.47,0,0,.53.45,1.45,1.24.91.8,2.2,1.98,3.63,3.52,2.91,3.04,6.32,7.59,9.05,12.61.22.4.43.81.64,1.21-2.86-8.25-6.91-16.12-12.04-23.26-3.12-4.35-6.64-8.42-10.49-12.17-1.18-.57-2.75-1.19-4.41-1.65-1.77-.49-3.62-.78-5.02-.89-1.41-.12-2.36-.1-2.36-.1,0,0,.91-.26,2.33-.52,1.07-.2,2.43-.37,3.87-.44-16.34-6.73-35.42-11.76-50.56-11.76-9.57,0-17.57,2.01-22.3,6.85,0,0,4.59-.7,9.1-.73.04,0,.08,0,.12,0,4.39-.35,10.27-.4,16.08.11,5.81.51,11.54,1.58,15.74,2.68,2.11.53,3.84,1.05,5.04,1.43,1.2.38,1.89.6,1.89.6,0,0-.7-.16-1.94-.44-1.23-.27-3-.64-5.13-.98-4.25-.73-9.98-1.29-15.7-1.29-3.8,0-7.58.24-10.92.61-4.39.89-12.39,3.01-17.87,7.4,1.58.04,3.65.13,6.11.31,5.51.41,12.9,1.19,20.07,3.42.9.26,1.78.59,2.65.94.88.31,1.74.71,2.57,1.13.86.38,1.63.86,2.41,1.32.78.44,1.51.95,2.23,1.44,2.87,1.98,5.26,4.21,7,6.36,1.75,2.14,2.9,4.13,3.58,5.57.67,1.45.89,2.33.89,2.33,0,0-.33-.85-1.15-2.19-.82-1.34-2.17-3.14-4.09-5-3.8-3.7-10.12-7.46-16.93-8.65-3.49-.66-7.05-.97-10.41-1.08,1.19.32,2.38.65,3.52,1.05,1.5.51,2.93,1.09,4.3,1.69,2.73,1.21,5.15,2.56,7.16,3.82,2,1.27,3.61,2.44,4.7,3.3,1.1.86,1.7,1.41,1.7,1.41,0,0-.81-.08-2.19-.32-1.38-.24-3.31-.64-5.58-1.19-2.27-.55-4.86-1.26-7.6-2.01-1.36-.37-2.77-.75-4.19-1.13-1.42-.36-2.86-.74-4.3-1.07-1.43-.35-2.87-.64-4.29-.94-1.42-.26-2.82-.52-4.18-.72-2.73-.41-5.3-.66-7.55-.79-2.25-.14-4.17-.14-5.54-.11-1.38.02-2.19.04-2.19.04,0,0,.17-.12.48-.33.32-.21.78-.53,1.41-.85.23-.13.5-.27.77-.4-5.36.11-10.8.55-15.78,2.32.36-.03.74-.05,1.13-.07.74-.04,1.54-.07,2.39-.04.85,0,1.74.02,2.65.1.91.08,1.87.11,2.82.26.96.14,1.93.27,2.9.41.96.2,1.92.4,2.87.59.95.18,1.86.48,2.75.71,1.77.51,3.4,1.08,4.76,1.66,2.74,1.12,4.44,2.23,4.44,2.23,0,0-2.03.05-4.94-.22-1.46-.12-3.14-.31-4.93-.56-.89-.14-1.82-.23-2.75-.4-.93-.15-1.88-.31-2.82-.46-.94-.18-1.89-.35-2.81-.53-.61-.1-1.21-.23-1.8-.36,1.85.65,3.82,1.41,5.72,2.26.53.08,1.22.19,2.03.31,1.08.14,2.38.4,3.87.72.74.16,1.53.32,2.36.5.83.19,1.69.44,2.59.67,3.62.89,7.72,2.34,12.02,4.04,4.26,1.82,8.68,4,12.89,6.52,4.18,2.58,8.18,5.41,11.68,8.34,3.47,2.97,6.56,5.91,8.96,8.65.61.68,1.19,1.32,1.74,1.94.52.65,1.01,1.26,1.47,1.83.93,1.14,1.73,2.15,2.32,3.02,1.22,1.72,1.92,2.7,1.92,2.7,0,0-.78-.92-2.15-2.52-.66-.82-1.54-1.74-2.56-2.8-.51-.53-1.04-1.09-1.61-1.68-.6-.56-1.23-1.15-1.88-1.76-2.59-2.49-5.88-5.1-9.51-7.69-3.66-2.56-7.78-4.96-12.01-7.08-4.26-2.07-8.67-3.78-12.86-5.15-4.23-1.25-8.2-2.28-11.67-2.81-.86-.14-1.69-.31-2.48-.42-.79-.1-1.54-.19-2.25-.27-1.41-.19-2.63-.32-3.65-.36-1.18-.08-2.06-.14-2.59-.17-2.71.49-5.81.88-8.62,1.16,3.4.51,7.33,1.33,11.17,2.44,5.01,1.46,9.83,3.41,13.31,5.13,1.75.84,3.16,1.61,4.15,2.17.98.56,1.54.88,1.54.88,0,0-.59-.26-1.62-.72-1.03-.45-2.51-1.08-4.32-1.74-3.6-1.36-8.52-2.82-13.53-3.75-5.01-.94-10.07-1.36-13.85-1.4-1.52-.03-2.82-.01-3.84.02.67,1.97,1.04,4.82-.94,7.22,1.42-.51,2.81-.82,4.03-.93,1.43-.15,2.63-.06,3.45.07.82.12,1.28.26,1.28.26,0,0-.44.17-1.2.45-.76.28-1.81.7-3,1.22-1.2.54-2.53,1.23-3.89,2.04-.68.4-1.33.89-2.01,1.34-.66.47-1.32.98-1.93,1.54-.63.53-1.24,1.09-1.79,1.69-.53.61-1.12,1.18-1.58,1.81-.47.63-.95,1.22-1.35,1.84-.4.61-.78,1.2-1.12,1.76-.52.9-.94,1.71-1.27,2.37-.57,3.67-.73,8.39-.22,14.55.35-1.14.77-2.32,1.27-3.53,1.98-4.92,5.26-10.29,10-14.85,4.71-4.56,10.85-8.3,17.62-10,3.37-.85,6.89-1.17,10.29-.89,3.4.26,6.64,1.09,9.63,2.14,5.99,2.15,11.01,5.21,15.24,7.81,4.22,2.64,7.72,4.83,10.26,6.22,2.53,1.41,4.04,2.1,4.04,2.1,0,0-1.55-.59-4.17-1.84-2.63-1.23-6.28-3.21-10.65-5.57-4.37-2.33-9.51-5.02-15.36-6.7-2.92-.82-6-1.39-9.12-1.43-3.11-.05-6.25.43-9.25,1.39-6.01,1.92-11.33,5.65-15.26,9.97-3.96,4.34-6.54,9.26-7.98,13.64-.65,1.92-1.08,3.73-1.37,5.39,1.62-1.87,3.79-3.96,6.18-5.76,2.77-2.09,5.79-3.75,8.14-4.76,1.17-.52,2.16-.89,2.87-1.13.7-.24,1.1-.38,1.1-.38,0,0-.38.19-1.04.52-.66.33-1.59.83-2.67,1.49-2.17,1.29-4.87,3.29-7.22,5.62-.25.25-.48.51-.72.76,2.88-1.87,6.35-3.21,10.41-3.21,1.47,0,3.01.17,4.63.56Zm56.93-62.94c-1.72-.55-2.71-.87-2.71-.87,0,0,.26.01.75.03.49.03,1.21.04,2.11.15,1.82.16,4.42.58,7.45,1.5,1.51.46,3.14,1.02,4.8,1.77,1.67.72,3.39,1.6,5.1,2.63,1.68,1.07,3.43,2.19,5.04,3.55,1.61,1.35,3.2,2.8,4.64,4.39,1.41,1.61,2.75,3.29,3.91,5.06,1.17,1.75,2.17,3.58,3.01,5.39,1.71,3.62,2.71,7.25,3.23,10.37.54,3.13.56,5.78.46,7.6-.02.91-.12,1.63-.17,2.11-.06.48-.09.74-.09.74,0,0-.04-.26-.12-.74-.08-.48-.16-1.19-.34-2.07-.31-1.77-.84-4.28-1.76-7.17-.94-2.88-2.24-6.15-4.05-9.42-.86-1.66-1.97-3.24-3.05-4.86-1.1-1.61-2.38-3.14-3.71-4.6-1.3-1.49-2.75-2.86-4.21-4.15-1.48-1.28-2.99-2.47-4.53-3.55-1.56-1.04-3.07-2.05-4.58-2.89-1.5-.85-2.96-1.59-4.34-2.24-2.76-1.27-5.16-2.17-6.87-2.73Zm-63.89,54.84c-3.23,1.46-5.75,3.1-7.44,4.37-.86.62-1.49,1.16-1.93,1.53-.44.37-.68.56-.68.56,0,0,.18-.24.53-.7.34-.46.86-1.13,1.6-1.92,1.45-1.59,3.74-3.72,6.96-5.66,1.61-.95,3.42-1.92,5.46-2.65,2.02-.77,4.22-1.45,6.57-1.82,2.34-.38,4.81-.64,7.32-.52,2.51.13,5.03.51,7.49,1.08,2.44.63,4.83,1.41,7.09,2.3,2.29.85,4.43,1.9,6.51,2.86,4.13,1.97,7.88,3.89,11.17,5.36,3.29,1.46,6.11,2.52,8.14,3.12,1.01.34,1.82.5,2.37.66.55.15.85.23.85.23,0,0-.31-.01-.88-.03-.57-.04-1.42-.02-2.49-.16-2.14-.21-5.19-.79-8.72-1.89-3.54-1.07-7.53-2.68-11.72-4.4-2.09-.86-4.27-1.7-6.46-2.51-2.19-.83-4.45-1.51-6.72-2.06-2.26-.56-4.56-.95-6.82-1.1-2.27-.12-4.52-.08-6.68.18-2.16.25-4.24.68-6.18,1.23-1.94.54-3.73,1.23-5.35,1.94Z"/>
  <path class="cls-4" d="m59.64,124.03c12.98,0,19.83,2.91,25.33,5.26,3.73,1.59,6.67,2.84,10.55,2.84,3.24,0,5.84-.88,8.78-2.1.05-.02.09-.04.13-.06.53-.22,1.07-.45,1.64-.69,5.5-2.34,12.35-5.26,25.33-5.26s21.37.35,26.64.65c1.63-10.33,2.08-20.15,1.74-31.12-.13-4.1-.94-8.71-1.86-13.13-.56.35-1.13.71-1.72,1.09-1.57.9-3.25,1.91-5.12,2.79-1.82.97-3.83,1.79-5.88,2.67-2.07.84-4.25,1.59-6.45,2.34-1.12.33-2.24.66-3.37.99-1.13.34-2.26.67-3.41.9-1.15.26-2.3.52-3.44.78l-1.71.38-1.72.28c-1.14.19-2.27.37-3.38.55-1.11.2-2.21.36-3.31.45-2.18.22-4.28.43-6.28.63-2,.08-3.89.16-5.64.23-.87.03-1.7.07-2.5.1-.79-.01-1.55-.02-2.26-.04-1.41-.03-2.65-.05-3.66-.07-2.03-.04-3.18-.06-3.18-.06,0,0,1.16-.09,3.18-.24,1.01-.08,2.23-.17,3.64-.28.7-.06,1.45-.11,2.23-.18.78-.11,1.61-.22,2.46-.33,1.71-.23,3.57-.48,5.53-.75,1.94-.38,3.98-.78,6.1-1.2,1.06-.18,2.12-.45,3.19-.74,1.07-.28,2.15-.56,3.24-.85l1.64-.43,1.62-.52c1.08-.35,2.16-.71,3.24-1.07,1.09-.33,2.15-.76,3.19-1.18,1.05-.42,2.09-.83,3.13-1.25,1.39-.63,2.74-1.26,4.07-1.9-2.89,1.04-6,2.01-9.38,2.91-13.75,3.65-28.8,5.51-44.75,5.51s-33.53-1.92-51.03-5.69c-.13,1.73-.28,4.15-.29,6.6-.07,4.56.33,9.17.33,9.17,0,0-1.44-4.38-2.43-8.94-.19-.85-.37-1.7-.53-2.52.03,1.59.11,3.31.25,5.04.42,6.28,1.69,12.52,1.69,12.52,0,0-2.29-5.94-3.77-12.19-.16-.62-.3-1.24-.44-1.85.15,1.7.33,3.47.54,5.26.89,8.11,2.37,16.18,2.37,16.18,0,0-2.5-7.81-4.44-15.81-.39-1.56-.76-3.12-1.1-4.63.21,2.66.5,5.58.9,8.5,1.22,9.78,3.63,19.42,3.63,19.42,0,0-3.42-9.31-5.7-19.03-.24-.98-.47-1.97-.69-2.95,1.49,8.33,3.4,16.54,4.86,23.78,4.96-.31,14.41-.75,28.26-.75Zm72.36-8.69c-.45-.15-1.13-.33-1.99-.51-1.71-.42-4.2-.78-7.2-.74-2.99-.06-6.47.27-10.19.88-3.74.51-7.74,1.24-11.85,1.68-2.06.15-4.14.22-6.2.14-2.06-.09-4.05-.31-5.96-.59-3.8-.65-7.25-1.43-10.23-1.92-2.97-.59-5.47-.85-7.24-.92-.88-.06-1.58-.08-2.06-.07-.48,0-.73,0-.73,0,0,0,.25-.05.72-.13.47-.1,1.16-.21,2.06-.31,1.78-.17,4.36-.25,7.44-.06,3.06.25,6.6.77,10.34,1.11,1.87.21,3.79.37,5.73.39,1.94.01,3.92-.11,5.9-.31,3.98-.3,7.99-.91,11.8-1.32,3.83-.33,7.47-.39,10.56-.08,3.09.37,5.59,1.09,7.26,1.74.83.35,1.47.65,1.89.88.42.22.65.34.65.34,0,0-.24-.08-.7-.22Zm-77.08-8.14c2.55-.6,6.19-1.47,10.65-2.24,4.46-.66,9.76-1.2,15.48-.84,2.86.22,5.73.71,8.6.97,2.85.26,5.75.21,8.68-.05,5.85-.42,11.73-1.62,17.38-2.18,5.68-.52,11.02-.24,15.5.42,4.48.74,8.11,1.83,10.58,2.74,1.23.47,2.18.89,2.81,1.18.64.3.98.46.98.46,0,0-.36-.11-1.02-.33-.67-.21-1.65-.51-2.92-.81-2.51-.67-6.17-1.41-10.6-1.74-4.42-.41-9.6-.4-15.07.39-5.49.66-11.34,1.98-17.42,2.54-3.04.22-6.14.21-9.14-.13-2.99-.33-5.83-.87-8.56-1.14-5.46-.64-10.66-.4-15.09.02-4.44.35-8.15.89-10.74,1.26-2.6.34-4.08.54-4.08.54,0,0,1.45-.38,3.98-1.05Z"/>
  <path class="cls-3" d="m39.74,199.58c-1.71-2.88-3.69-6.9-5.23-11.15.81,3.96,1.63,9.02,2.18,15.71.33,4.03.2,7.61-.19,10.93,3.33-.64,7.84-2.13,10.25-5.07-.13-.7-.31-1.45-.48-2.27-.21-.99-.5-2.03-.84-3.05-.29-1.04-.65-2.06-1.03-3-.4-.93-.7-1.84-1.07-2.57-.35-.74-.6-1.39-.83-1.82-.2-.45-.32-.7-.32-.7,0,0,.19.2.53.56.32.37.8.89,1.26,1.59.47.7,1.01,1.52,1.48,2.47.45.96.87,2,1.24,3.07.3,1.09.54,2.19.71,3.24.07.46.1.9.13,1.32.03-.05.06-.09.09-.14,1.15-2.2,3.04-4.68,5.46-7.14-10.47-10.9-15.38-19.92-17.63-25.47.07,3.21.48,7.32,1.33,11.41.91,4.35,2.32,8.63,3.63,11.73.64,1.56,1.24,2.84,1.68,3.73.44.89.69,1.39.69,1.39,0,0-.32-.47-.88-1.29-.56-.82-1.33-2.01-2.19-3.49Z"/>
  <path class="cls-4" d="m35.22,157.21c-.27-.82-.5-1.65-.73-2.46l-.11-.38c-.4-1.41-.78-2.95-1.19-4.58-.08-.31-.16-.63-.24-.94-.42.2-.85.47-1.25.88-.64.63-1.2,1.53-1.58,2.56-.81,2.06-.84,4.45-.47,6.17.18.87.42,1.58.61,2.06.19.49.33.76.33.76,0,0-.19-.24-.49-.68-.3-.44-.7-1.1-1.08-1.95-.77-1.68-1.35-4.25-.95-6.88.18-1.3.61-2.65,1.35-3.81.69-1.11,1.68-1.99,2.65-2.55-1.28-4.68-2.86-9.13-5.04-9.92l-.68-.25v-.04c-.57.32-.93,1.26-1.17,2.21-.49,2.01-.63,4.51-.66,7.16-.01,1.33.01,2.71.07,4.1.08,1.38.17,2.75.37,4.13.76,5.5,2.52,10.84,4.06,14.72.2.51.4.98.59,1.44.22-.38.46-.76.74-1.15l2.78-3.98c.86-2.1,1.67-4.31,2.11-6.61Z"/>
  <path class="cls-6" d="m116.2,163.18c2.7.87,7.1,1.37,12.07,1.37,8.8,0,16.81-1.49,19.05-3.55,4.1-3.77,6.52-18.6,5.49-24.43-.92-5.22-2.8-7.51-16.92-7.51-17.44,0-29.62,4.47-29.62,10.87s2.5,20.85,9.93,23.25Zm12.84-23.91c-.26.53-.61,1.3-1.08,2.2-.92,1.8-2.22,4.16-3.59,6.48-1.38,2.31-2.82,4.58-3.97,6.25-.56.84-1.07,1.51-1.41,2-.35.48-.56.74-.56.74,0,0,.13-.31.39-.85.26-.53.61-1.3,1.08-2.2.92-1.8,2.22-4.16,3.59-6.48,1.38-2.31,2.83-4.58,3.97-6.25.57-.84,1.07-1.51,1.41-2,.35-.48.56-.74.56-.74,0,0-.13.31-.39.85Zm-14.69,18.17c.42-.79.98-1.94,1.72-3.27.74-1.34,1.58-2.92,2.53-4.57.94-1.67,1.97-3.42,3-5.18,1.05-1.75,2.1-3.5,3.11-5.12,1-1.63,1.99-3.12,2.81-4.41.82-1.29,1.56-2.33,2.05-3.08.51-.73.8-1.15.8-1.15,0,0-.23.46-.63,1.26-.42.79-.98,1.93-1.72,3.27-.74,1.34-1.58,2.91-2.53,4.57-.94,1.67-1.97,3.42-3,5.18-1.05,1.75-2.1,3.5-3.11,5.12-1,1.63-1.99,3.12-2.81,4.41-.82,1.29-1.56,2.33-2.05,3.08-.51.73-.8,1.15-.8,1.15,0,0,.23-.46.63-1.26Z"/>
  <path class="cls-1" d="m141.25,125.71c-3.21-.1-6.69-.17-10.38-.22-3.68,0-7.64.16-11.64.93-4,.72-8.04,2.07-11.9,3.83-1.94.85-3.85,1.76-5.8,2.45-1.95.7-3.97,1.11-6.02,1.11l-1.56-.08c-.52-.04-.99-.15-1.49-.21-.99-.19-1.99-.47-2.97-.82-1.96-.69-3.87-1.6-5.81-2.45-3.86-1.76-7.9-3.1-11.9-3.83-4-.76-7.93-.93-11.64-.93-3.68.05-7.16.12-10.37.22-6.43.19-11.77.57-15.51.85-3.74.3-5.86.58-5.86.58,0,0,2.14-.15,5.88-.28,3.74-.16,9.09-.23,15.51-.28,3.21-.02,6.68,0,10.36.03,3.65.08,7.49.37,11.38,1.12,3.9.74,7.77,2.06,11.57,3.83,1.91.86,3.83,1.8,5.89,2.55,1.03.38,2.09.68,3.2.9.56.08,1.14.2,1.68.25l1.64.09c2.24-.01,4.47-.49,6.52-1.25,2.06-.75,3.98-1.69,5.89-2.55,3.8-1.76,7.67-3.09,11.57-3.83,3.89-.75,7.71-1.04,11.38-1.12,3.68-.04,7.15-.05,10.36-.03,6.42.05,11.77.13,15.51.28,3.74.14,5.88.28,5.88.28,0,0-2.12-.28-5.86-.58-3.74-.28-9.08-.66-15.51-.85Z"/>
  <path class="cls-4" d="m170.04,135.17c-.6-.3-1.32.28-1.72.67-.12.12-.21.22-.31.33-.03.14-.07.28-.1.42-.71,3.27-1.12,6.58-1.29,9.9.45.43.87.92,1.21,1.46.74,1.16,1.16,2.51,1.35,3.81.4,2.63-.18,5.2-.95,6.88-.27.6-.55,1.1-.79,1.5.27,1.56.6,3.12.99,4.66,1.24-3.49,2.45-7.69,3.05-12.01.2-1.38.3-2.75.37-4.13.05-1.4.08-2.77.07-4.1-.03-2.65-.17-5.15-.66-7.16-.25-.97-.61-1.94-1.21-2.24Z"/>
  <path class="cls-3" d="m148.73,219.28c-4.03-1.13-7.72-3.23-9.98-5.33-1.15-1.03-1.95-2.04-2.46-2.77-.27-.35-.44-.66-.57-.86-.13-.2-.19-.31-.19-.31,0,0,.08.1.23.28.15.18.36.46.66.78.59.65,1.49,1.53,2.72,2.38,2.42,1.75,6.15,3.28,10.02,3.86,2.03.32,4.08.44,6,.45-3.64-1.23-7.65-3.41-9.68-7.29-3.38-6.44-15.94-18.24-31.53-18.24-3.8,0-7.79.71-11.86,2.37.24.42.55.86.98,1.32.75.81,1.91,1.56,3.29,2.25,1.38.7,2.98,1.34,4.51,2.23,2.94,1.74,5.81,3.67,7.62,5.51.92.9,1.57,1.75,1.99,2.37.42.62.62.99.62.99,0,0-.24-.35-.71-.92-.47-.57-1.2-1.34-2.17-2.14-1.94-1.62-4.91-3.23-7.96-4.66-1.48-.69-3.09-1.17-4.62-1.76-1.52-.59-2.99-1.32-4.07-2.28-.21-.18-.4-.37-.58-.56v9.5c.32-1.23.79-2.32,1.25-3.09.52-.88.95-1.37.95-1.37,0,0-.04.66.07,1.6.1.94.42,2.12.92,3.14.46.94,1.05,1.71,1.58,2.24,1.88.6,4.45,1.17,7.86,1.54-.56-.86-1.28-1.82-2.11-2.72-1.09-1.19-2.36-2.27-3.38-2.99-1.02-.73-1.76-1.14-1.76-1.14,0,0,.83.18,2.05.58,1.22.4,2.82,1.08,4.35,1.98,1.52.89,2.96,2,3.96,2.93,1.01.93,1.61,1.64,1.61,1.64l-.08.06c.63.02,1.24.05,1.91.06,2.34.04,4.82.61,7.38,1.46-.38-.53-.77-1.07-1.16-1.6-1.63-2.24-3.38-4.38-4.88-5.82-.74-.73-1.4-1.3-1.88-1.67-.48-.38-.76-.59-.76-.59,0,0,.31.16.85.45.54.29,1.31.73,2.18,1.33,1.77,1.17,3.95,3.03,5.99,4.98,2.04,1.95,4.03,3.9,5.57,5.22.03.03.06.05.09.08,7.61,3.37,15.41,7.76,21.73,7.76,1.97,0,3.79-.44,5.42-1.45-.23-.01-.46-.03-.71-.04-3.06-.2-7.23-.57-11.25-1.73Zm-18.69-11.38c-.4-.55-1.09-1.26-1.95-2.02-.87-.77-2-1.5-3.25-2.22-1.25-.73-2.66-1.37-4.11-1.93-1.43-.62-2.91-1.17-4.3-1.7-1.39-.53-2.65-1.14-3.73-1.67-1.08-.53-1.91-1.1-2.49-1.49-.57-.41-.88-.66-.88-.66,0,0,.36.17,1,.43.63.29,1.56.61,2.66,1.03,1.1.42,2.43.79,3.83,1.27,1.4.48,2.91.98,4.4,1.56,1.48.64,2.92,1.36,4.21,2.18,1.3.8,2.35,1.79,3.18,2.68.84.89,1.33,1.8,1.65,2.42.3.64.43,1.01.43,1.01,0,0-.21-.34-.65-.88Zm.4-6.49c-1.95-1.34-4.02-2.49-6.03-3.47-1.99-.99-3.91-1.86-5.62-2.42-.83-.36-1.62-.63-2.32-.86-.7-.25-1.32-.44-1.83-.57-1.03-.33-1.61-.52-1.61-.52,0,0,.62,0,1.7,0,.54.01,1.19.07,1.94.16.75.07,1.6.16,2.52.34,1.84.34,3.93.98,6.15,1.74,2.16.92,4.41,2.03,6.55,3.35,2.06,1.44,4.02,3.02,5.71,4.65,1.61,1.72,3.01,3.4,4.06,4.95.51.78.95,1.52,1.3,2.19.37.66.68,1.24.9,1.73.42,1,.65,1.57.65,1.57,0,0-.4-.47-1.09-1.29-.31-.43-.74-.92-1.23-1.47-.48-.56-1.04-1.17-1.69-1.8-1.19-1.34-2.73-2.77-4.45-4.18-1.67-1.47-3.59-2.86-5.59-4.12Z"/>
  <path class="cls-3" d="m153.51,240.9c-.27,2.18-.5,4.5-.66,6.83-.22,2.33-.38,4.66-.46,6.85-.06,2.19-.22,4.24-.22,6-.02,1.76-.1,3.23-.09,4.26-.03,1.03-.04,1.62-.04,1.62,0,0-.1-.58-.28-1.6-.14-1.02-.39-2.48-.52-4.25-.13-1.77-.29-3.84-.29-6.06.02-2.22.1-4.59.25-6.95.24-2.36.54-4.71.89-6.9.36-2.19.85-4.21,1.27-5.93.08-.35.17-.68.26-1.01-.16-1.41-.31-2.82-.46-4.23-.15-.11-.3-.22-.45-.31-1.45-.92-3.15-1.4-4.8-1.92-4.57-1.45-8.99-3.33-13.18-5.6-2.12-1.15-4.19-2.4-6.18-3.74-.03-.02-.07-.05-.1-.07.32.81.65,1.71,1,2.7,1.48,4.19,3.05,9.9,3.79,15.75.79,5.85.48,11.81-.59,16.08-.51,2.14-1.15,3.85-1.64,5.02-.51,1.16-.84,1.81-.84,1.81,0,0,.27-.68.68-1.87.39-1.2.87-2.95,1.19-5.08.68-4.26.48-10.05-.78-15.62-.95-4.46-2.42-8.77-3.87-12.31.13.81.25,1.64.34,2.48.69,5.37.43,10.67.43,10.67,0,0-.99-5.23-2.84-10.1-1.06-2.94-2.4-5.71-3.3-7.45-2.04,1.33-3.98,2.46-5.85,3.38-2.5,1.24-4.86,1.62-7.15,1.62-.56,0-1.11-.03-1.66-.07,1.32.52,2.53,1.09,3.56,1.65,1.45.88,2.57,1.73,3.32,2.35.73.65,1.12,1.05,1.12,1.05,0,0-.5-.24-1.4-.61-.86-.41-2.12-.94-3.67-1.42-1.51-.55-3.31-1.07-5.26-1.41-1.93-.43-4.03-.68-6.12-.69-2.09-.13-4.2-.03-6.16.26-1.97.2-3.81.59-5.35,1.03-1.57.37-2.87.81-3.76,1.15-.92.3-1.44.51-1.44.51,0,0,.42-.37,1.19-.97.8-.56,1.97-1.32,3.48-2.1.23-.1.48-.2.72-.31-.04,0-.09,0-.13,0-1.51,0-3.04-.24-4.63-.91-3.49-1.47-7.22-3.61-11.38-6.62-.5.62-1.26,1.56-2.16,2.72-1.64,2.13-3.76,5.01-5.23,8.23-1.5,3.19-2.16,6.77-2,9.46.07,1.35.3,2.46.52,3.23.21.77.38,1.2.38,1.2,0,0-.22-.4-.54-1.14-.32-.74-.72-1.83-.98-3.21-.55-2.74-.4-6.61.74-10.25.62-2.08,1.48-4.05,2.36-5.82-1.68,1.22-3.73,1.89-5.77,2.42-2.9.74-5.88,1.24-8.89,1.4-1.46.08-2.94.08-4.4-.01-1.09.17-2.17.29-3.25.29-2.73,0-5.25-.61-7.56-1.81-1.12,4.58-2.38,8.98-3.05,13.83.02-.06.05-.13.07-.19,1.07-2.9,2.28-5.78,3.48-7.77.58-1.01,1.14-1.8,1.56-2.33.42-.52.66-.82.66-.82,0,0-.19.33-.52.91-.32.59-.74,1.44-1.14,2.5-.84,2.11-1.55,5.06-2.11,8.04-.56,2.99-1.04,6.01-1.53,8.32-.26,1.29-.53,2.34-.71,3.02.55,5.58,2.1,12.02,5.3,19.88,1.74,4.3,4.09,8.01,6.81,11.24.71-.77,1.55-2.1,1.96-4.03.46-2.05.28-4.77-.22-7.8-.5-3.07-1.01-6.43-1.34-9.78-.73-6.71-.58-13.51.23-18.48.37-2.49.92-4.52,1.3-5.93.44-1.39.69-2.19.69-2.19,0,0-.17.81-.48,2.24-.24,1.44-.6,3.48-.74,5.96-.35,4.96.13,11.57,1.44,18.04.63,3.25,1.42,6.42,2.21,9.46.79,3.06,1.38,6.21,1.03,9.13-.32,2.89-1.5,5.25-2.68,6.68-.05.06-.1.12-.15.18.66.63,1.34,1.23,2.03,1.82,2.65,1.58,5.46,2.94,8.32,4.11,7.73,3.18,15.92,5.29,24.27,6.37.56-2.88,1.04-6.62,1.2-10.42.17-4.04-.03-8.11-.39-11.16-.34-3.05-.74-5.07-.74-5.07,0,0,.69,1.93,1.49,4.92.82,2.99,1.65,7.06,2.1,11.21.43,3.91.51,7.86.39,10.95,4.69.41,9.41.49,14.12.24.05-.29.1-.57.14-.88.29-2.23.38-4.91.15-7.81-.22-2.9-.75-6-1.45-9.08-1.44-6.17-3.4-12.33-4.45-17.04-.54-2.35-.9-4.33-1.09-5.73-.2-1.39-.28-2.19-.28-2.19,0,0,.16.79.49,2.15.33,1.36.87,3.29,1.63,5.56,1.48,4.56,4,10.43,6.08,16.58,1.03,3.09,1.89,6.26,2.42,9.32.54,3.06.74,6.01.66,8.57,0,.07-.01.14-.01.21,5.07-.5,10.1-1.36,15.02-2.64,0-.08-.01-.16-.02-.24-.38-4.04-2.01-9.42-4.41-14.54-2.37-5.14-5.13-10.18-6.88-14.11-.89-1.96-1.55-3.62-1.98-4.8-.43-1.18-.65-1.86-.65-1.86,0,0,.28.66.81,1.79.53,1.13,1.33,2.72,2.38,4.58,2.07,3.74,5.24,8.47,8.11,13.48,2.85,4.93,5.08,10.35,5.93,14.77,1.68-.5,3.35-1.04,5-1.63,3.42-1.24,6.83-2.73,9.99-4.54.24-1.34.45-3.27.5-5.7.06-2.51-.06-5.53-.19-8.86-.12-3.33-.21-6.99.16-10.68.74-7.4,3.37-14.13,5.43-19.01,1.05-2.44,1.97-4.45,2.62-5.85.65-1.4,1.02-2.2,1.02-2.2,0,0-.25.85-.69,2.32-.44,1.48-1.06,3.59-1.74,6.14-1.34,5.07-2.88,11.99-2.56,18.73.15,3.36.72,6.72,1.31,9.95.59,3.22,1.18,6.33,1.51,9.09.03.23.05.44.07.66,2.13-1.99,3.96-4.23,5.37-6.78,2.62-4.72,3.57-10.1,4.45-15.38.07-.45.14-.89.22-1.34.68-7.12.13-14.4-.63-21.67-.15,1.21-.29,2.5-.47,3.85Zm-113.41,26.99c-.24-.83-.62-2.02-.93-3.48-.32-1.46-.67-3.16-.91-5.02-.22-1.85-.39-3.84-.5-5.83-.03-1.99,0-3.99.1-5.85.11-1.86.35-3.59.57-5.07.21-1.48.51-2.69.69-3.53.21-.84.33-1.32.33-1.32,0,0-.03.5-.08,1.36-.08.86-.11,2.1-.2,3.57-.11,1.47-.1,3.2-.15,5.03-.04,1.84-.01,3.8.07,5.76.04,1.96.15,3.92.32,5.75.19,1.83.29,3.55.49,5.01.19,1.46.31,2.7.44,3.55.11.86.17,1.35.17,1.35,0,0-.15-.47-.42-1.3Zm26.59-36.55c.11-.77.17-1.21.17-1.21,0,0,.05.44.15,1.21.06.77.24,1.86.4,3.15.13,1.3.45,2.8.7,4.4.27,1.6.64,3.29,1.08,4.97.38,1.69.85,3.36,1.35,4.9.53,1.53.93,3.01,1.42,4.22.46,1.22.8,2.27,1.1,2.98.27.73.42,1.14.42,1.14,0,0-.26-.36-.71-.99-.42-.65-1.06-1.56-1.66-2.75-.62-1.18-1.33-2.57-1.92-4.13-.58-1.57-1.12-3.26-1.59-4.98-.38-1.74-.69-3.5-.89-5.15-.2-1.66-.21-3.22-.21-4.55-.01-1.33.14-2.44.21-3.21Zm-7.14,46.1c-.47-.57-.99-1.3-1.57-2.14-.6-.84-1.26-1.8-1.9-2.89-1.29-2.19-2.53-4.89-3.76-7.84-1.05-3.01-1.95-6.3-2.61-9.66-.46-3.38-.68-6.79-.65-9.98.2-3.19.52-6.14,1.03-8.63.26-1.24.57-2.36.88-3.35.28-.99.54-1.84.8-2.53.54-1.37.85-2.15.85-2.15,0,0-.08.83-.23,2.29-.12.72-.2,1.6-.28,2.6-.1,1-.18,2.13-.19,3.37-.21,2.45-.18,5.32-.01,8.37.11,3.05.47,6.28,1.05,9.47.48,3.21,1.21,6.38,2.08,9.3.83,2.93,1.72,5.67,2.71,7.92.41,1.17.85,2.21,1.26,3.14.39.93.75,1.74,1.09,2.38.6,1.34.95,2.1.95,2.1,0,0-.54-.64-1.49-1.76Zm7.52,7.17c-.15,1.39-.34,2.54-.49,3.33-.21.79-.33,1.24-.33,1.24,0,0-.11-.45-.31-1.24-.14-.78-.37-1.9-.72-3.21-.22-1.32-.58-2.83-1.02-4.42-.34-1.61-.8-3.3-1.34-4.96-.41-1.7-.92-3.37-1.46-4.93-.47-1.58-.95-3.07-1.44-4.3-.39-1.3-.77-2.37-1.06-3.11-.24-.78-.38-1.22-.38-1.22,0,0,.34.32.93.89.54.6,1.3,1.48,2.16,2.59.78,1.15,1.61,2.55,2.45,4.09.71,1.59,1.39,3.33,1.98,5.1.43,1.82.77,3.65.99,5.39.09,1.75.12,3.38.05,4.77Zm9.73.01c-.08.95-.2,1.82-.34,2.58-.11.76-.22,1.42-.36,1.96-.28,1.07-.44,1.68-.44,1.68,0,0-.03-.63-.08-1.73.01-.54-.02-1.21-.07-1.96-.03-.76-.1-1.6-.22-2.52-.1-1.84-.42-3.97-.86-6.21-.38-2.25-.98-4.61-1.72-6.93-.66-2.34-1.5-4.62-2.42-6.72-.89-2.11-1.79-4.06-2.73-5.65-.4-.84-.82-1.58-1.21-2.23-.37-.66-.71-1.23-1.02-1.68-.56-.95-.88-1.49-.88-1.49,0,0,.47.42,1.29,1.17.4.38.86.87,1.37,1.45.53.57,1.11,1.22,1.7,1.97,1.17,1.51,2.36,3.39,3.56,5.47,1.07,2.15,2.07,4.51,2.88,6.94.67,2.48,1.17,4.99,1.46,7.37.16,2.4.21,4.63.07,6.53Zm17.03-9.91c.93,3.65,1.76,7.09,2.24,10.1.39,3.03.51,5.56.46,7.33-.02.88-.12,1.58-.15,2.05-.04.47-.07.72-.07.72,0,0-.04-.25-.1-.72-.08-.47-.14-1.15-.32-2.01-.24-1.72-.77-4.15-1.64-6.99-.75-2.86-1.88-6.14-3.16-9.65-1.16-3.55-2.48-7.35-3.52-11.29-.91-3.98-1.48-8.04-1.71-11.85-.13-3.82.08-7.38.41-10.4.43-3.02.99-5.48,1.42-7.19.49-1.7.81-2.65.81-2.65,0,0-.1,1-.18,2.75-.14,1.74-.28,4.23-.21,7.2-.03,2.96.1,6.41.59,10.06.35,3.66,1.04,7.52,2.06,11.29.86,3.82,2.02,7.63,3.06,11.24Zm12.84,1.98c.42.95.84,1.81,1.23,2.56.38.76.72,1.42,1.02,1.94.56,1.09.88,1.72.88,1.72,0,0-.48-.52-1.31-1.43-.41-.46-.87-1.05-1.4-1.73-.53-.67-1.13-1.44-1.73-2.31-1.19-1.75-2.42-3.9-3.67-6.25-1.12-2.41-2.2-5.04-3.11-7.73-.77-2.74-1.39-5.51-1.81-8.13-.3-2.64-.5-5.11-.5-7.23,0-1.06.06-2.03.13-2.89.05-.86.1-1.6.18-2.21.18-1.22.28-1.91.28-1.91,0,0,.09.7.24,1.92.04.61.13,1.34.24,2.18.1.84.23,1.78.42,2.81.24,2.05.71,4.42,1.29,6.93.52,2.52,1.24,5.16,2.09,7.76.77,2.62,1.69,5.2,2.67,7.58.94,2.39,1.89,4.61,2.85,6.44Zm21.24,5.56c-.11.77-.26,1.36-.37,1.75-.13.39-.19.6-.19.6,0,0-.03-.22-.08-.62-.06-.4-.16-.98-.33-1.69-.33-1.43-1.01-3.38-2.11-5.54-1.12-2.16-2.69-4.51-4.48-7.08-.87-1.3-1.89-2.61-2.78-4.07-.91-1.45-1.81-2.97-2.65-4.5-.79-1.57-1.53-3.15-2.21-4.73-.7-1.57-1.22-3.2-1.73-4.75-.52-1.55-.9-3.09-1.22-4.56-.35-1.46-.57-2.86-.74-4.15-.36-2.59-.43-4.77-.42-6.29.02-1.52.11-2.39.11-2.39,0,0,.33.81.85,2.22.53,1.39,1.29,3.38,2.19,5.75.47,1.17.98,2.43,1.51,3.76.53,1.33,1.18,2.69,1.77,4.13.61,1.43,1.34,2.85,2.02,4.33.69,1.47,1.44,2.94,2.23,4.38.75,1.47,1.53,2.91,2.36,4.32.85,1.4,1.61,2.86,2.41,4.27,1.56,2.84,2.84,5.75,3.45,8.39.65,2.63.65,4.93.42,6.47Zm11.32-47.25c-.14,1.24-.31,2.47-.5,3.63-.19,1.15-.49,2.21-.72,3.11-.23.91-.53,1.64-.7,2.16-.21.51-.32.8-.32.8,0,0,0-.31,0-.86.04-.54.03-1.33.1-2.25.09-.92.09-2,.21-3.14.11-1.14.2-2.36.27-3.58.14-1.22.25-2.43.33-3.58.07-1.14.25-2.21.31-3.14.08-.92.22-1.69.27-2.23.09-.54.13-.85.13-.85,0,0,.07.31.19.84.08.54.26,1.31.33,2.24.07.93.2,2.02.19,3.19-.01,1.17-.05,2.41-.12,3.66Z"/>
  <path class="cls-4" d="m167.12,152.28c-.16-.43-.36-.84-.57-1.21,0,.32,0,.63,0,.95.1,2.51.36,5.02.77,7.51.1-.32.19-.68.27-1.07.37-1.72.35-4.11-.47-6.17Z"/>
  <path class="cls-4" d="m174.35,134.61c-.82-1.87-2.43-3.53-4.49-3.92-.11-.02-.24-.03-.36-.05-.41,1.65-.92,3.29-1.34,4.94.18-.24.41-.48.71-.71.32-.24.84-.46,1.39-.28.54.17.92.6,1.22,1.03.31.44.54.94.76,1.46.85,2.09,1.35,4.61,1.78,7.32.21,1.35.39,2.75.54,4.18.13,1.44.25,2.95.25,4.43.02,3.14-.25,6.24-.66,9.12.03-.12.08-.24.11-.37,1.84-6.88,1.66-14.1,1.2-21.19-.13-2.02-.29-4.09-1.11-5.95Z"/>
  <path class="cls-2" d="m178.02,132.99c-1.46-3.31-4.23-5.64-7.42-6.25-.54-.1-1.13-.17-1.74-.19.17-.96.34-1.94.51-2.94,3.71-21.37,8.75-50.47-1.96-67.41-.13-7.01-3.58-14.67-10.32-22.89-3.14-3.84-8.54-7.97-15.31-11.97-12.02-8.72-25.53-15.15-39.9-19.51,3.98,1.92,7.8,4.12,11.46,6.56C99.03,3.39,83.66,0,70.75,0c-11.48,0-19.95,2.71-25.17,8.06l-8.38,8.59,7.39-1.13c-1.82,1.18-3.5,2.55-4.93,4.13l-3.54,3.91c-6.36.14-13.08.73-19.17,3.39l-10.91,4.78,11.58,2.8c.08.02,6,1.47,11.7,3.78-4.21.66-9.8,1.22-14.74,1.5l-6.93.38,3.79,5.82s1.98,3.21.32,4.99c-.21.22-.81.63-1.35.99-6.93,4.69-13.87,12.35-8.46,44.08l2.14,12.58,5.45-11.54c.04-.09,3.93-7.99,10.93-11.26.8,10.64,3.19,21.83,5.34,31.86.54,2.53,1.06,4.98,1.54,7.35-.02,0-.06,0-.07,0l-.93.09v1.55c-.11.02-.23.02-.33.04-3.19.6-5.96,2.94-7.42,6.25-1.14,2.59-1.32,5.32-1.45,7.31-.44,6.82-.74,14.75,1.33,22.49,1.76,6.59,5.22,12.26,9.75,16.26.24,1.19.54,2.44.88,3.81,1.14,4.58,2.69,10.86,3.58,21.62.26,3.12.21,5.94-.02,8.58-.12.77-.24,1.6-.39,2.48l-8.02.44,6.86,6.16s.01.01.02.02c-.34,1.47-.71,2.93-1.08,4.41-1.67,6.59-3.36,13.32-2.82,21.99-.04.63-.09,1.26-.12,1.88-.11,2.33-.09,4.63,0,6.85.17,4.45.79,8.59,1.67,12.05.85,3.47,2.01,6.22,2.94,8.06.44.93.87,1.62,1.15,2.1.28.47.43.72.43.72,0,0-.09-.28-.25-.81-.16-.52-.44-1.28-.69-2.27-.55-1.95-1.2-4.77-1.62-8.19-.18-1.47-.31-3.06-.41-4.72.73,2.3,1.59,4.71,2.63,7.27,13.82,34.02,59.87,35,65.07,35h.2s.2,0,.2,0c4.21,0,35.09-.65,54.07-18.85-.16.27-.34.55-.49.81-.39.57-.75,1.12-1.1,1.63-.68,1.03-1.27,1.95-1.82,2.66-1.06,1.44-1.65,2.31-1.65,2.31,0,0,.84-.6,2.27-1.73.74-.54,1.55-1.29,2.47-2.17.46-.44.95-.92,1.46-1.41.47-.54.97-1.1,1.49-1.68,2.11-2.34,4.22-5.37,6.17-8.8.46-.87.93-1.76,1.41-2.66.47-.9.86-1.86,1.27-2.81.42-.95.81-1.92,1.14-2.92.34-.99.73-1.97,1.04-2.98.55-2.04,1.12-4.07,1.49-6.11.49-2.02.6-4.07.88-6.02.04-.65.08-1.29.12-1.92,1.81-11.36-.24-19.42-2.24-27.3-.38-1.48-.74-2.95-1.09-4.43.08-.08.16-.15.24-.23l5.47-5.97-6.95-.36c-.46-3.37-.65-6.96-.31-11.09.67-8.05,2.05-13.85,3.27-18.97.55-2.31,1.06-4.46,1.42-6.56,4.47-3.99,7.89-9.61,9.63-16.15,2.07-7.74,1.77-15.66,1.33-22.48-.13-1.99-.3-4.72-1.44-7.31ZM16.15,83.64c.24-.25.47-.52.72-.76,2.35-2.33,5.06-4.33,7.22-5.62,1.07-.66,2.01-1.16,2.67-1.49.66-.33,1.04-.52,1.04-.52,0,0-.4.14-1.1.38-.7.24-1.7.61-2.87,1.13-2.35,1.01-5.37,2.67-8.14,4.76-2.39,1.8-4.57,3.9-6.18,5.76.29-1.66.72-3.47,1.37-5.39,1.45-4.38,4.02-9.3,7.98-13.64,3.93-4.32,9.25-8.05,15.26-9.97,3-.96,6.13-1.44,9.25-1.39,3.12.04,6.2.61,9.12,1.43,5.85,1.68,10.99,4.37,15.36,6.7,4.37,2.36,8.02,4.34,10.65,5.57,2.62,1.25,4.17,1.84,4.17,1.84,0,0-1.51-.69-4.04-2.1-2.54-1.39-6.04-3.58-10.26-6.22-4.23-2.6-9.25-5.67-15.24-7.81-2.99-1.05-6.23-1.87-9.63-2.14-3.4-.27-6.92.04-10.29.89-6.77,1.7-12.91,5.44-17.62,10-4.74,4.57-8.02,9.94-10,14.85-.5,1.21-.91,2.39-1.27,3.53-.51-6.15-.35-10.88.22-14.55.32-.66.75-1.48,1.27-2.37.34-.56.71-1.15,1.12-1.76.4-.61.88-1.21,1.35-1.84.47-.63,1.05-1.2,1.58-1.81.55-.6,1.16-1.16,1.79-1.69.6-.56,1.26-1.07,1.93-1.54.68-.46,1.33-.94,2.01-1.34,1.35-.81,2.69-1.49,3.89-2.04,1.2-.53,2.25-.95,3-1.22.76-.28,1.2-.45,1.2-.45,0,0-.46-.14-1.28-.26-.82-.13-2.02-.21-3.45-.07-1.22.11-2.6.41-4.03.93,1.98-2.4,1.61-5.25.94-7.22,1.03-.03,2.33-.05,3.84-.02,3.79.04,8.85.46,13.85,1.4,5,.94,9.93,2.39,13.53,3.75,1.81.66,3.29,1.29,4.32,1.74,1.03.46,1.62.72,1.62.72,0,0-.56-.32-1.54-.88-.98-.55-2.4-1.33-4.15-2.17-3.48-1.72-8.3-3.67-13.31-5.13-3.84-1.12-7.78-1.93-11.17-2.44,2.8-.28,5.91-.67,8.62-1.16.53.04,1.41.09,2.59.17,1.02.04,2.25.17,3.65.36.71.08,1.46.18,2.25.27.79.11,1.61.27,2.48.42,3.47.53,7.44,1.56,11.67,2.81,4.19,1.37,8.6,3.08,12.86,5.15,4.23,2.12,8.34,4.52,12.01,7.08,3.63,2.6,6.91,5.21,9.51,7.69.66.61,1.29,1.2,1.88,1.76.57.59,1.1,1.15,1.61,1.68,1.02,1.05,1.9,1.98,2.56,2.8,1.37,1.6,2.15,2.52,2.15,2.52,0,0-.7-.98-1.92-2.7-.59-.88-1.39-1.88-2.32-3.02-.46-.58-.95-1.19-1.47-1.83-.55-.62-1.13-1.26-1.74-1.94-2.4-2.74-5.49-5.67-8.96-8.65-3.51-2.94-7.51-5.77-11.68-8.34-4.21-2.53-8.63-4.71-12.89-6.52-4.3-1.7-8.4-3.15-12.02-4.04-.9-.23-1.76-.49-2.59-.67-.83-.18-1.62-.34-2.36-.5-1.48-.33-2.79-.58-3.87-.72-.81-.13-1.5-.23-2.03-.31-1.9-.85-3.86-1.61-5.72-2.26.59.13,1.19.26,1.8.36.93.17,1.87.35,2.81.53.95.15,1.89.31,2.82.46.93.17,1.86.26,2.75.4,1.78.26,3.47.44,4.93.56,2.91.28,4.94.22,4.94.22,0,0-1.7-1.11-4.44-2.23-1.36-.58-2.99-1.15-4.76-1.66-.89-.23-1.8-.53-2.75-.71-.95-.2-1.91-.39-2.87-.59-.97-.14-1.94-.28-2.9-.41-.95-.15-1.91-.18-2.82-.26-.92-.08-1.81-.09-2.65-.1-.84-.02-1.65,0-2.39.04-.4.02-.77.04-1.13.07,4.98-1.76,10.42-2.2,15.78-2.32-.27.14-.54.27-.77.4-.63.33-1.09.65-1.41.85-.31.21-.48.33-.48.33,0,0,.81-.01,2.19-.04,1.37-.03,3.3-.03,5.54.11,2.25.13,4.82.39,7.55.79,1.36.21,2.76.46,4.18.72,1.42.3,2.86.58,4.29.94,1.44.33,2.87.71,4.3,1.07,1.43.39,2.83.76,4.19,1.13,2.73.75,5.33,1.46,7.6,2.01,2.27.55,4.2.96,5.58,1.19,1.37.24,2.19.32,2.19.32,0,0-.6-.56-1.7-1.41-1.1-.86-2.7-2.03-4.7-3.3-2.01-1.26-4.43-2.61-7.16-3.82-1.36-.61-2.8-1.19-4.3-1.69-1.14-.4-2.33-.73-3.52-1.05,3.36.11,6.92.42,10.41,1.08,6.81,1.19,13.13,4.95,16.93,8.65,1.92,1.85,3.27,3.66,4.09,5,.82,1.34,1.15,2.19,1.15,2.19,0,0-.22-.88-.89-2.33-.67-1.44-1.82-3.43-3.58-5.57-1.74-2.15-4.13-4.37-7-6.36-.72-.49-1.45-1-2.23-1.44-.77-.46-1.55-.93-2.41-1.32-.84-.42-1.69-.82-2.57-1.13-.87-.35-1.76-.68-2.65-.94-7.17-2.24-14.56-3.01-20.07-3.42-2.46-.18-4.53-.27-6.11-.31,5.47-4.39,13.48-6.51,17.87-7.4,3.34-.37,7.12-.62,10.92-.61,5.72,0,11.45.57,15.7,1.29,2.13.34,3.9.71,5.13.98,1.23.28,1.94.44,1.94.44,0,0-.69-.22-1.89-.6-1.2-.38-2.94-.9-5.04-1.43-4.2-1.1-9.93-2.17-15.74-2.68-5.81-.51-11.69-.46-16.08-.11-.04,0-.08,0-.12,0-4.5.02-9.1.73-9.1.73,4.73-4.85,12.72-6.85,22.3-6.85,15.14,0,34.23,5.02,50.56,11.76-1.45.07-2.81.24-3.87.44-1.42.26-2.33.52-2.33.52,0,0,.95-.02,2.36.1,1.41.11,3.25.41,5.02.89,1.66.46,3.23,1.08,4.41,1.65,3.85,3.76,7.37,7.83,10.49,12.17,5.13,7.14,9.18,15.01,12.04,23.26-.21-.41-.42-.81-.64-1.21-2.73-5.02-6.15-9.57-9.05-12.61-1.43-1.54-2.72-2.72-3.63-3.52-.92-.79-1.45-1.24-1.45-1.24,0,0,.44.53,1.21,1.47.76.94,1.81,2.31,2.93,4.04,2.29,3.42,4.76,8.32,6.48,13.43,1.76,5.1,2.74,10.38,3.15,14.32.13.98.18,1.89.24,2.69.07.8.1,1.5.11,2.08.03.82.04,1.38.05,1.64-1.9,1.01-4.02,1.97-6.35,2.89,0-.12-.02-.22-.02-.34-.19-2.53-.44-6.17-.88-10.57-.47-4.39-1.13-9.59-2.63-15.03-1.42-5.45-3.9-11.04-6.98-16.08-1.53-2.53-3.17-4.99-4.92-7.31-1.79-2.3-3.65-4.48-5.62-6.43-3.94-3.91-8.2-6.89-12.06-8.98-3.87-2.09-7.31-3.32-9.72-4.12-2.44-.73-3.83-1.1-3.83-1.1,0,0,1.37.48,3.73,1.38,2.33.97,5.65,2.44,9.27,4.77,3.62,2.32,7.53,5.51,11.03,9.53,1.75,2.01,3.39,4.23,4.93,6.55,1.52,2.35,2.91,4.83,4.2,7.36,2.6,5.07,4.46,10.33,5.42,15.5,1.02,5.14,1.28,10.08,1.43,14.35.12,4.27.1,7.88.1,10.41,0,.98,0,1.79,0,2.42-1.59.5-3.22.98-4.97,1.45-1.11.3-2.23.55-3.34.82,0-.06-.02-.1-.03-.16-.09-.6-.25-1.33-.43-2.16-.17-.83-.38-1.76-.66-2.77-.5-2.02-1.26-4.33-2.15-6.76-.92-2.42-2.05-4.92-3.3-7.35-1.28-2.42-2.7-4.74-4.12-6.85-1.47-2.08-2.88-3.97-4.21-5.49-.64-.78-1.26-1.46-1.82-2.06-.55-.61-1.04-1.12-1.46-1.53-.83-.83-1.3-1.3-1.3-1.3,0,0,.4.53,1.1,1.47.36.46.77,1.04,1.22,1.71.47.66.98,1.42,1.5,2.27,1.09,1.67,2.21,3.7,3.33,5.9,1.08,2.22,2.12,4.63,3.01,7.09,1.76,4.93,2.82,10.02,3.23,13.85.12.95.2,1.83.25,2.61.06.78.11,1.45.11,2.01,0,.3.02.56.02.78-1.21.24-2.42.47-3.63.69,0-.02,0-.04-.01-.06-.13-.66-.35-1.46-.6-2.37-.24-.91-.54-1.93-.91-3.03-.69-2.21-1.7-4.72-2.9-7.34-1.22-2.61-2.71-5.29-4.34-7.88-1.66-2.57-3.5-5.01-5.32-7.2-1.88-2.15-3.68-4.1-5.37-5.62-.81-.79-1.6-1.47-2.31-2.06-.69-.61-1.31-1.12-1.84-1.52-1.04-.81-1.63-1.28-1.63-1.28,0,0,.56.51,1.53,1.39.5.43,1.07.99,1.71,1.64.65.64,1.38,1.37,2.13,2.22,1.55,1.63,3.19,3.69,4.87,5.93,1.63,2.28,3.24,4.8,4.67,7.41,1.4,2.63,2.64,5.33,3.63,7.92.96,2.6,1.74,5.07,2.24,7.22.28,1.07.49,2.06.65,2.94.18.86.32,1.62.4,2.25-3.97.61-7.92,1.07-11.83,1.39-.34-.47-.78-1.06-1.34-1.72-1.31-1.61-3.29-3.54-5.48-5.13-2.19-1.6-4.57-2.84-6.42-3.58-1.84-.75-3.11-1.09-3.11-1.09,0,0,1.2.55,2.86,1.59,1.66,1.02,3.72,2.61,5.5,4.44,1.78,1.83,3.25,3.89,4.17,5.51.05.08.09.15.13.23-4.09.26-8.14.39-12.11.39-7.18,0-14.12-.38-20.68-1-.57-.12-1.86-.38-3.56-.74-2.35-.5-5.44-1.05-8.35-2.04-2.92-.95-5.59-2.59-7.18-4.32-.81-.84-1.35-1.67-1.68-2.27-.17-.3-.29-.55-.36-.72-.08-.17-.12-.26-.12-.26,0,0,.03.1.08.28.04.18.13.44.25.77.24.66.65,1.59,1.35,2.6,1.12,1.7,3.09,3.51,5.41,4.93-8.14-1.25-15.34-2.76-21.19-4.15-1.62-.39-3.16-.56-4.63-.56-4.06,0-7.53,1.34-10.41,3.21Zm10.36,17.36c.22.98.45,1.96.69,2.95,2.28,9.72,5.7,19.03,5.7,19.03,0,0-2.41-9.63-3.63-19.42-.4-2.92-.69-5.84-.9-8.5.34,1.51.71,3.07,1.1,4.63,1.94,8,4.44,15.81,4.44,15.81,0,0-1.48-8.07-2.37-16.18-.21-1.78-.39-3.56-.54-5.26.14.62.28,1.23.44,1.85,1.48,6.25,3.77,12.19,3.77,12.19,0,0-1.27-6.24-1.69-12.52-.14-1.73-.21-3.45-.25-5.04.16.83.34,1.68.53,2.52.99,4.56,2.43,8.94,2.43,8.94,0,0-.4-4.6-.33-9.17.01-2.45.16-4.88.29-6.6,17.49,3.77,34.63,5.69,51.03,5.69s31-1.85,44.75-5.51c3.38-.9,6.49-1.87,9.38-2.91-1.33.64-2.68,1.27-4.07,1.9-1.04.41-2.08.83-3.13,1.25-1.05.42-2.1.85-3.19,1.18-1.08.36-2.17.71-3.24,1.07l-1.62.52-1.64.43c-1.09.29-2.17.57-3.24.85-1.07.29-2.13.56-3.19.74-2.11.42-4.16.82-6.1,1.2-1.96.27-3.82.52-5.53.75-.86.12-1.68.23-2.46.33-.79.06-1.53.12-2.23.18-1.4.11-2.63.2-3.64.28-2.02.15-3.18.24-3.18.24,0,0,1.16.02,3.18.06,1.01.02,2.25.04,3.66.07.71.01,1.46.02,2.26.04.79-.03,1.63-.07,2.5-.1,1.75-.07,3.64-.15,5.64-.23,2-.2,4.1-.41,6.28-.63,1.09-.09,2.2-.25,3.31-.45,1.12-.18,2.25-.37,3.38-.55l1.72-.28,1.71-.38c1.14-.26,2.29-.52,3.44-.78,1.16-.23,2.29-.57,3.41-.9,1.13-.33,2.26-.66,3.37-.99,2.2-.76,4.38-1.5,6.45-2.34,2.05-.88,4.06-1.7,5.88-2.67,1.86-.88,3.55-1.89,5.12-2.79.59-.38,1.17-.74,1.72-1.09.92,4.42,1.74,9.03,1.86,13.13.34,10.97-.11,20.79-1.74,31.12-5.28-.3-14.17-.65-26.64-.65s-19.83,2.91-25.33,5.26c-.56.24-1.1.47-1.64.69-.05.02-.09.04-.13.06-2.94,1.21-5.53,2.1-8.78,2.1-3.88,0-6.82-1.25-10.55-2.84-5.5-2.34-12.35-5.26-25.33-5.26-13.86,0-23.3.44-28.26.75-1.46-7.24-3.37-15.44-4.86-23.78Zm-4.11,43.39c-.21,1.35-.39,2.75-.54,4.18-.13,1.44-.25,2.95-.25,4.43-.02,2.54.16,5.06.45,7.46-1.5-6.49-1.34-13.25-.91-19.91.13-2.02.29-4.09,1.11-5.95.76-1.74,2.21-3.28,4.07-3.8v3.76c-.06.01-.12,0-.18.03-.54.17-.92.6-1.22,1.03-.31.44-.54.94-.76,1.46-.85,2.09-1.35,4.61-1.78,7.32Zm7.93,23.41c-.27.39-.51.77-.74,1.15-.19-.45-.39-.93-.59-1.44-1.54-3.87-3.29-9.21-4.06-14.72-.2-1.38-.3-2.75-.37-4.13-.05-1.4-.08-2.77-.07-4.1.03-2.65.17-5.15.66-7.16.24-.95.6-1.88,1.17-2.21v.04l.68.25c2.18.79,3.76,5.23,5.04,9.92-.97.56-1.96,1.44-2.65,2.55-.74,1.16-1.16,2.51-1.35,3.81-.4,2.63.18,5.2.95,6.88.38.85.78,1.51,1.08,1.95.3.44.49.68.49.68,0,0-.13-.27-.33-.76-.2-.49-.44-1.2-.61-2.06-.37-1.72-.35-4.11.47-6.17.38-1.03.94-1.94,1.58-2.56.41-.4.83-.68,1.25-.88.08.32.16.63.24.94.41,1.63.79,3.18,1.19,4.58l.11.38c.23.81.46,1.64.73,2.46-.44,2.31-1.25,4.52-2.11,6.61l-2.78,3.98Zm11.79,35.16c-.44-.89-1.04-2.16-1.68-3.73-1.32-3.11-2.73-7.38-3.63-11.73-.85-4.08-1.26-8.2-1.33-11.41,2.25,5.55,7.15,14.57,17.63,25.47-2.43,2.46-4.31,4.94-5.46,7.14-.03.05-.06.09-.09.14-.02-.43-.06-.87-.13-1.32-.17-1.04-.41-2.15-.71-3.24-.37-1.07-.8-2.11-1.24-3.07-.46-.95-1-1.78-1.48-2.47-.46-.7-.95-1.22-1.26-1.59-.34-.35-.53-.56-.53-.56,0,0,.12.25.32.7.22.43.48,1.07.83,1.82.36.73.67,1.64,1.07,2.57.38.94.73,1.96,1.03,3,.34,1.02.63,2.06.84,3.05.16.82.35,1.57.48,2.27-2.41,2.95-6.91,4.43-10.25,5.07.39-3.32.53-6.9.19-10.93-.55-6.69-1.37-11.74-2.18-15.71,1.54,4.26,3.51,8.28,5.23,11.15.86,1.48,1.63,2.67,2.19,3.49.56.82.88,1.29.88,1.29,0,0-.25-.51-.69-1.39Zm-5.31-61.79c.05,2.39.46,5.8,1.33,9.8.45,1.99,1.04,4.14,1.89,6.31.88,2.12,1.9,4.5,3.95,5.78,2.15,1.18,4.79,1.74,7.4,2.19,2.64.43,5.36.67,8.08.77,2.72.12,5.45.12,8.12-.05.67-.06,1.33-.11,1.99-.16.66-.08,1.31-.17,1.96-.25.64-.11,1.27-.23,1.89-.34.62-.16,1.29-.32,1.85-.5,2.31-.81,4.09-2.6,5.37-4.5,1.29-1.92,2.17-3.96,2.86-5.88,1.33-3.86,1.94-7.25,2.23-9.63.15-1.19.23-2.13.27-2.77.03-.64.05-.98.05-.98,0,0,0,.34,0,.99,0,.64-.01,1.59-.12,2.79-.08,1.2-.27,2.65-.54,4.31-.31,1.65-.69,3.51-1.33,5.48-.65,1.97-1.49,4.07-2.78,6.11-1.28,2-3.12,4.01-5.71,4.93-.66.22-1.25.36-1.9.53-.66.13-1.32.27-1.98.38-.66.09-1.33.18-2,.27-.67.06-1.35.12-2.03.18-2.71.19-5.48.22-8.24.12-2.76-.12-5.51-.39-8.2-.85-2.68-.49-5.34-1.05-7.7-2.37-1.23-.73-1.99-1.79-2.68-2.92-.61-1.12-1.12-2.24-1.52-3.37-.81-2.24-1.35-4.43-1.76-6.45-.79-4.06-1-7.51-.96-9.92,0-1.2.11-2.15.19-2.79.1-.64.16-.97.16-.97,0,0-.03.34-.1.98-.05.64-.08,1.58-.04,2.78Zm1.42-4.61c.92-5.22,2.8-7.51,16.92-7.51,17.44,0,29.62,4.47,29.62,10.87s-2.5,20.85-9.93,23.25c-2.7.87-7.1,1.37-12.07,1.37-8.79,0-16.81-1.49-19.05-3.55-4.1-3.77-6.52-18.6-5.49-24.43Zm21.59,32.98c21.17,0,24.54-4.17,28.17-15.22,2.87-8.75,5.34-13,7.54-13s4.67,4.25,7.54,13c.67,2.03,1.33,3.83,2.09,5.42.02.39.03.78.02,1.17-.03,1.94-.53,4.19-.34,7.01.13,1.4.6,2.93,1.22,4.19.62,1.29,1.37,2.43,2.08,3.48,1.44,2.07,2.71,3.94,3.06,5.65.24.86.27,1.5.07,2.2-.09.33-.25.67-.41.89-.16.21-.14.22-.39.36-.25.13-.84.3-1.55.55-.73.28-1.19.48-1.78.72-.12.05-.24.1-.36.15,1.62-1.77,3.48-3.09,3.48-3.09,0,0-2.74.69-5.29,2.14-2.07,1.11-3.89,2.68-4.53,3.27-.83.22-1.65.39-2.46.48-1.93.21-3.84.08-5.61-.2-.21-.02-.41-.05-.61-.08-.16-.16-.56-.55-1.14-1.01-.75-.61-1.8-1.31-2.9-1.84-2.19-1.11-4.47-1.45-4.47-1.45,0,0,1.87,1.38,3.12,3.13.02.03.04.06.06.09-1.03-.29-1.95-.58-2.72-.84-.11-.03-.21-.06-.32-.1-.53-.4-1.04-.85-1.45-1.38-.45-.59-.72-1.27-.75-1.98-.02-.7.13-1.41.4-1.98.25-.57.52-1.04.74-1.34.21-.31.33-.49.33-.49,0,0-.16.15-.44.4-.29.25-.67.64-1.08,1.18-.42.53-.81,1.26-1,2.15-.19.9-.05,1.96.34,2.87.41.92.96,1.72,1.53,2.4-9.25.15-17.69,4.03-24.04,8.86-1.09-.88-2.96-2.5-4.65-4.4-2.61-2.82-4.64-6.21-4.64-6.21,0,0,1.09,3.75,2.97,7.3-12.36-14.45-14.03-24.35-14.05-24.46l-1.31-9.59c2.43,5.16,7.63,9.6,23.53,9.6Zm47.63-15.18c.69,1.92,1.58,3.96,2.89,5.88l.5.72c.17.23.38.44.57.67l.58.67.67.59c.88.81,1.87,1.37,3.12,1.84,2.32.72,5.02,1.05,7.68,1.23,2.68.17,5.41.17,8.14.05,2.73-.09,5.46-.34,8.1-.76,1.32-.21,2.63-.47,3.88-.82,1.27-.32,2.46-.79,3.51-1.32,2.12-1.3,3.13-3.67,4.02-5.79.86-2.17,1.45-4.32,1.91-6.32.88-4.01,1.29-7.42,1.34-9.82.04-1.2,0-2.14-.04-2.78-.07-.64-.1-.98-.1-.98,0,0,.05.34.16.98.08.64.19,1.59.19,2.79.03,2.41-.18,5.87-.97,9.94-.41,2.03-.95,4.22-1.77,6.46-.4,1.13-.91,2.25-1.53,3.37-.16.28-.35.54-.53.81-.17.28-.37.54-.61.78-.25.24-.4.51-.74.73l-.78.56c-1.23.67-2.49,1.15-3.79,1.5-1.3.37-2.63.64-3.97.87-2.69.46-5.45.73-8.22.85-2.76.1-5.53.07-8.25-.12-2.73-.22-5.37-.53-7.96-1.37l-.88-.38-.44-.19c-.14-.08-.29-.18-.43-.27-.57-.37-1.15-.73-1.58-1.2l-.7-.65-.6-.73c-.19-.24-.4-.47-.58-.72l-.5-.76c-1.3-2.03-2.15-4.14-2.81-6.11-.65-1.98-1.04-3.84-1.34-5.49-.27-1.66-.46-3.11-.55-4.32-.11-1.2-.12-2.15-.12-2.79,0-.64,0-.99,0-.99,0,0,.02.34.05.99.04.64.11,1.58.27,2.77.29,2.38.91,5.77,2.25,9.64Zm-1.16-14.44c0-6.4,12.18-10.87,29.62-10.87,14.12,0,16,2.29,16.92,7.51,1.03,5.83-1.39,20.67-5.49,24.43-2.24,2.06-10.26,3.55-19.05,3.55-4.97,0-9.37-.5-12.07-1.37-7.43-2.4-9.93-16.97-9.93-23.25Zm35.05,54.79c-1.05.97-2.14,1.85-2.93,2.45-2.26-1.7-4.78-3.28-7.5-4.61-1.47-1.17-2.88-2.39-4.24-3.64-3.11-4.34-6.21-8.67-9.32-13.01-2.13-2.97-4.27-5.97-5.76-9.27,3.96,2.02,9.93,2.91,19.65,2.91,8.85,0,14.37-1.38,17.96-3.49-.32,2.01-.62,4.01-.85,6.02-.63,1.73-1.51,3.7-2.68,5.55-1.52,2.5-3.53,4.74-5.29,6.17-.87.73-1.66,1.26-2.22,1.62-.57.35-.9.55-.9.55,0,0,.37-.11,1.02-.31.65-.21,1.56-.54,2.63-1.04,2.03-.92,4.54-2.57,6.78-4.65-.14,2.93-.18,5.87-.05,8.81-1.22,2.18-2.65,4.37-4.28,6.52,1.02-2.27,1.7-4.41,1.7-4.41,0,0-1.75,2.07-3.72,3.84Zm9.67-3.72c-.57,6.94-.15,13.75.47,20.64-1.07-.81-1.98-1.77-2.58-2.93-1.16-2.21-3.06-4.71-5.5-7.18,3.09-3.42,5.6-6.98,7.62-10.53Zm-73.89,12.15c-.54.29-1.31.73-2.18,1.33-1.77,1.17-3.95,3.03-5.99,4.98-2.04,1.95-4.03,3.9-5.57,5.22-.13.11-.25.22-.38.32-7.07,3.37-14.25,7.6-20.74,7.6-2.12,0-4.15-.46-6.09-1.54.23-.01.44-.02.68-.04,3.06-.2,7.23-.57,11.25-1.73,4.03-1.13,7.72-3.23,9.98-5.33,1.15-1.03,1.95-2.04,2.46-2.77.27-.35.44-.66.57-.86.13-.2.19-.31.19-.31,0,0-.08.1-.23.28-.15.18-.36.46-.66.78-.59.65-1.49,1.53-2.72,2.38-2.42,1.75-6.15,3.28-10.02,3.86-2.16.35-4.34.45-6.37.45,3.67-1.22,7.71-3.4,9.75-7.29,3.38-6.44,15.94-18.24,31.53-18.24,4.15,0,8.51.83,12.97,2.83v.44c-.39.44-.99.97-1.88,1.47-1.89,1.16-5.24,1.88-8.16,3.68-2.81,1.69-5.56,3.59-7.28,5.37-.87.88-1.5,1.7-1.9,2.3-.4.59-.6.95-.6.95,0,0,.23-.34.69-.89.45-.55,1.15-1.29,2.08-2.07,1.86-1.57,4.69-3.14,7.63-4.53,2.81-1.4,6.07-1.73,8.52-2.86.32-.14.62-.29.9-.44v6.95c-.28-.81-.62-1.53-.94-2.07-.52-.88-.95-1.37-.95-1.37,0,0,.04.66-.07,1.6-.1.94-.42,2.12-.92,3.14-.42.85-.95,1.57-1.43,2.09-1.87.63-4.46,1.25-7.98,1.65.55-.85,1.27-1.8,2.09-2.69,1.09-1.19,2.36-2.27,3.38-2.99,1.02-.73,1.76-1.14,1.76-1.14,0,0-.83.18-2.05.58-1.22.4-2.82,1.08-4.35,1.98-1.52.89-2.96,2-3.96,2.93-1.01.93-1.61,1.64-1.61,1.64l.07.05c-.71.03-1.43.06-2.2.07-2.28.04-4.64.59-7.04,1.41.37-.52.75-1.04,1.13-1.56,1.63-2.24,3.38-4.38,4.88-5.82.74-.73,1.4-1.3,1.88-1.67.48-.38.76-.59.76-.59,0,0-.31.16-.85.45Zm-.7,11.61c1.46-.02,2.79-.09,4.07-.17,2.75.56,8.96,1.52,18.77,1.34,8.8-.17,14.7-.82,17.81-1.27.97.05,1.97.09,3.03.1.69.01,1.41.1,2.14.21-2.75,1.96-5.36,3.55-7.85,4.79-1.68.83-3.33,1.2-5.36,1.2-1.58,0-3.2-.22-4.91-.46-1.87-.26-3.8-.53-5.86-.53-2.18,0-4.17.4-6.1.78-1.66.33-3.22.64-4.69.64-1.14,0-2.11-.19-3.07-.59-3.17-1.34-6.51-3.26-10.12-5.83.73-.12,1.44-.21,2.12-.22Zm78.21,43.97c-.07.45-.14.89-.22,1.34-.88,5.28-1.83,10.66-4.45,15.38-1.41,2.54-3.24,4.79-5.37,6.78-.03-.22-.04-.44-.07-.66-.34-2.76-.92-5.87-1.51-9.09-.59-3.23-1.16-6.59-1.31-9.95-.32-6.74,1.22-13.65,2.56-18.73.68-2.55,1.3-4.66,1.74-6.14.44-1.48.69-2.32.69-2.32,0,0-.37.8-1.02,2.2-.65,1.4-1.57,3.41-2.62,5.85-2.06,4.88-4.69,11.61-5.43,19.01-.37,3.69-.28,7.35-.16,10.68.13,3.34.25,6.35.19,8.86-.05,2.43-.27,4.36-.5,5.7-3.16,1.81-6.57,3.3-9.99,4.54-1.65.6-3.32,1.13-5,1.63-.85-4.43-3.08-9.84-5.93-14.77-2.87-5.01-6.03-9.74-8.11-13.48-1.05-1.86-1.85-3.45-2.38-4.58-.53-1.13-.81-1.79-.81-1.79,0,0,.22.68.65,1.86.43,1.18,1.09,2.84,1.98,4.8,1.75,3.93,4.51,8.97,6.88,14.11,2.39,5.12,4.03,10.5,4.41,14.54,0,.08.01.16.02.24-4.92,1.28-9.95,2.15-15.02,2.64,0-.07.01-.14.01-.21.08-2.56-.11-5.51-.66-8.57-.54-3.06-1.4-6.24-2.42-9.32-2.08-6.15-4.6-12.02-6.08-16.58-.76-2.27-1.3-4.2-1.63-5.56-.34-1.36-.49-2.15-.49-2.15,0,0,.08.8.28,2.19.2,1.39.55,3.37,1.09,5.73,1.05,4.71,3.01,10.87,4.45,17.04.71,3.08,1.23,6.18,1.45,9.08.23,2.9.14,5.58-.15,7.81-.04.31-.09.58-.14.88-4.7.26-9.42.17-14.12-.24.12-3.09.04-7.04-.39-10.95-.45-4.15-1.28-8.23-2.1-11.21-.8-2.99-1.49-4.92-1.49-4.92,0,0,.39,2.02.74,5.07.36,3.04.56,7.12.39,11.16-.16,3.81-.65,7.55-1.2,10.42-8.34-1.07-16.53-3.18-24.27-6.37-2.85-1.18-5.67-2.53-8.32-4.11-.69-.59-1.37-1.19-2.03-1.82.05-.06.1-.11.15-.18,1.19-1.43,2.36-3.79,2.68-6.68.35-2.91-.24-6.07-1.03-9.13-.79-3.04-1.58-6.21-2.21-9.46-1.31-6.46-1.79-13.08-1.44-18.04.14-2.48.49-4.53.74-5.96.31-1.42.48-2.24.48-2.24,0,0-.25.8-.69,2.19-.38,1.41-.92,3.44-1.3,5.93-.82,4.97-.96,11.77-.23,18.48.33,3.35.84,6.71,1.34,9.78.5,3.03.68,5.76.22,7.8-.41,1.92-1.25,3.26-1.96,4.03-2.73-3.24-5.07-6.95-6.81-11.24-3.2-7.87-4.75-14.3-5.3-19.88.18-.68.45-1.73.71-3.02.49-2.3.96-5.33,1.53-8.32.57-2.98,1.28-5.93,2.11-8.04.4-1.06.82-1.92,1.14-2.5.33-.58.52-.91.52-.91,0,0-.24.3-.66.82-.41.53-.98,1.32-1.56,2.33-1.2,2-2.42,4.87-3.48,7.77-.02.06-.05.13-.07.19.67-4.86,1.93-9.25,3.05-13.83,2.3,1.2,4.83,1.81,7.56,1.81,1.08,0,2.17-.12,3.25-.29,1.47.09,2.94.09,4.4.01,3-.17,5.98-.66,8.89-1.4,2.04-.52,4.09-1.2,5.77-2.42-.88,1.77-1.74,3.74-2.36,5.82-1.14,3.64-1.29,7.5-.74,10.25.26,1.38.65,2.47.98,3.21.32.74.54,1.14.54,1.14,0,0-.17-.43-.38-1.2-.22-.76-.45-1.88-.52-3.23-.16-2.69.49-6.27,2-9.46,1.47-3.22,3.59-6.1,5.23-8.23.91-1.16,1.66-2.1,2.16-2.72,4.15,3.01,7.89,5.14,11.38,6.62,1.59.67,3.12.91,4.63.91.04,0,.09,0,.13,0-.24.1-.49.2-.72.31-1.51.78-2.68,1.54-3.48,2.1-.78.6-1.19.97-1.19.97,0,0,.52-.21,1.44-.51.89-.35,2.19-.78,3.76-1.15,1.54-.44,3.38-.83,5.35-1.03,1.96-.29,4.07-.39,6.16-.26,2.09.02,4.19.26,6.12.69,1.95.34,3.75.85,5.26,1.41,1.54.48,2.8,1.01,3.67,1.42.89.37,1.4.61,1.4.61,0,0-.39-.4-1.12-1.05-.75-.62-1.87-1.46-3.32-2.35-1.04-.56-2.24-1.13-3.56-1.65.55.04,1.1.07,1.66.07,2.29,0,4.65-.38,7.15-1.62,1.87-.93,3.81-2.05,5.85-3.38.9,1.75,2.24,4.51,3.3,7.45,1.85,4.87,2.84,10.1,2.84,10.1,0,0,.26-5.3-.43-10.67-.09-.84-.21-1.67-.34-2.48,1.45,3.53,2.92,7.85,3.87,12.31,1.26,5.57,1.45,11.36.78,15.62-.32,2.13-.8,3.88-1.19,5.08-.41,1.2-.68,1.87-.68,1.87,0,0,.32-.65.84-1.81.49-1.17,1.13-2.89,1.64-5.02,1.06-4.26,1.38-10.23.59-16.08-.73-5.86-2.31-11.56-3.79-15.75-.35-.99-.69-1.89-1-2.7.03.02.07.05.1.07,1.99,1.34,4.06,2.59,6.18,3.74,4.19,2.27,8.61,4.15,13.18,5.6,1.65.52,3.35,1,4.8,1.92.15.1.3.2.45.31.15,1.41.31,2.82.46,4.23-.09.33-.18.66-.26,1.01-.42,1.72-.91,3.74-1.27,5.93-.34,2.19-.65,4.54-.89,6.9-.15,2.36-.23,4.73-.25,6.95,0,2.22.15,4.29.29,6.06.12,1.77.38,3.23.52,4.25.18,1.02.28,1.6.28,1.6,0,0,.02-.59.04-1.62,0-1.03.07-2.5.09-4.26,0-1.76.15-3.81.22-6,.08-2.19.24-4.52.46-6.85.16-2.33.39-4.66.66-6.83.18-1.35.32-2.64.47-3.85.76,7.28,1.31,14.55.63,21.67Zm.66-36.22c-6.32,0-14.12-4.39-21.73-7.76-.03-.03-.06-.05-.09-.08-1.55-1.32-3.53-3.27-5.57-5.22-2.04-1.95-4.21-3.81-5.99-4.98-.87-.6-1.64-1.04-2.18-1.33-.54-.29-.85-.45-.85-.45,0,0,.28.22.76.59.48.38,1.14.94,1.88,1.67,1.5,1.44,3.25,3.58,4.88,5.82.39.53.78,1.07,1.16,1.6-2.56-.85-5.04-1.42-7.38-1.46-.67-.01-1.29-.04-1.91-.06l.08-.06s-.61-.71-1.61-1.64c-1-.94-2.43-2.04-3.96-2.93-1.53-.9-3.13-1.58-4.35-1.98-1.22-.41-2.05-.58-2.05-.58,0,0,.74.42,1.76,1.14,1.02.72,2.29,1.79,3.38,2.99.83.9,1.55,1.87,2.11,2.72-3.41-.37-5.97-.94-7.86-1.54-.52-.53-1.11-1.3-1.58-2.24-.5-1.02-.82-2.21-.92-3.14-.11-.94-.07-1.6-.07-1.6,0,0-.43.49-.95,1.37-.46.76-.93,1.86-1.25,3.09v-9.5c.18.19.37.38.58.56,1.09.96,2.55,1.69,4.07,2.28,1.53.59,3.14,1.07,4.62,1.76,3.05,1.43,6.02,3.04,7.96,4.66.98.79,1.7,1.57,2.17,2.14.47.57.71.92.71.92,0,0-.2-.37-.62-.99-.42-.62-1.07-1.47-1.99-2.37-1.81-1.84-4.68-3.78-7.62-5.51-1.53-.89-3.13-1.54-4.51-2.23-1.38-.69-2.54-1.44-3.29-2.25-.43-.45-.74-.9-.98-1.32,4.07-1.65,8.06-2.37,11.86-2.37,15.59,0,28.15,11.8,31.53,18.24,2.03,3.87,6.04,6.06,9.68,7.29-1.92-.01-3.97-.13-6-.45-3.87-.58-7.6-2.11-10.02-3.86-1.22-.85-2.13-1.73-2.72-2.38-.31-.32-.51-.6-.66-.78-.15-.18-.23-.28-.23-.28,0,0,.07.11.19.31.13.2.3.5.57.86.51.73,1.31,1.73,2.46,2.77,2.26,2.1,5.95,4.2,9.98,5.33,4.01,1.17,8.18,1.53,11.25,1.73.25.01.48.03.71.04-1.63,1.01-3.45,1.45-5.42,1.45Zm1.47-95.64c-3.74-.16-9.09-.24-15.51-.28-3.21-.02-6.68,0-10.36.03-3.67.08-7.49.37-11.38,1.12-3.9.74-7.77,2.06-11.57,3.83-1.91.86-3.83,1.8-5.89,2.55-2.05.75-4.28,1.23-6.52,1.25l-1.64-.09c-.54-.05-1.12-.17-1.68-.25-1.11-.22-2.17-.53-3.2-.9-2.06-.75-3.98-1.69-5.89-2.55-3.8-1.77-7.67-3.09-11.57-3.83-3.89-.75-7.73-1.03-11.38-1.12-3.68-.04-7.15-.06-10.36-.03-6.42.05-11.77.12-15.51.28-3.74.14-5.88.28-5.88.28,0,0,2.12-.28,5.86-.58,3.74-.28,9.08-.67,15.51-.85,3.21-.1,6.7-.17,10.37-.22,3.71,0,7.64.16,11.64.93,4,.72,8.04,2.07,11.9,3.83,1.94.85,3.85,1.76,5.81,2.45.97.35,1.98.62,2.97.82.5.07.97.17,1.49.21l1.56.08c2.05,0,4.07-.41,6.02-1.11,1.96-.69,3.87-1.6,5.8-2.45,3.86-1.76,7.9-3.1,11.9-3.83,4-.76,7.95-.93,11.64-.93,3.68.05,7.16.12,10.38.22,6.43.19,11.77.57,15.51.85,3.74.3,5.86.58,5.86.58,0,0-2.14-.15-5.88-.28Zm9.82,25.15c-.01-.32,0-.63,0-.95.22.38.41.78.57,1.21.81,2.06.84,4.45.47,6.17-.08.39-.17.75-.27,1.07-.41-2.49-.67-5-.77-7.51Zm5.28-3.34c-.08,1.38-.17,2.75-.37,4.13-.6,4.32-1.81,8.53-3.05,12.01-.39-1.54-.72-3.09-.99-4.66.25-.4.52-.9.79-1.5.77-1.68,1.36-4.25.95-6.88-.18-1.3-.61-2.65-1.35-3.81-.34-.55-.76-1.04-1.21-1.46.17-3.32.58-6.64,1.29-9.9.03-.14.07-.28.1-.42.1-.11.18-.22.31-.33.41-.4,1.12-.97,1.72-.67.6.3.96,1.27,1.21,2.24.49,2.01.63,4.51.66,7.16.01,1.33-.01,2.71-.07,4.1Zm2.42,13.08c-.03.12-.08.24-.11.37.41-2.88.69-5.98.66-9.12,0-1.49-.11-2.99-.25-4.43-.16-1.42-.33-2.82-.54-4.18-.43-2.7-.93-5.23-1.78-7.32-.22-.52-.45-1.01-.76-1.46-.31-.43-.68-.86-1.22-1.03-.55-.17-1.07.04-1.39.28-.3.23-.53.47-.71.71.42-1.65.93-3.29,1.34-4.94.12.02.25.03.36.05,2.06.39,3.67,2.05,4.49,3.92.82,1.86.98,3.93,1.11,5.95.46,7.09.63,14.31-1.2,21.19Z"/>
  <path class="cls-2" d="m35.75,69.73c2.16-.26,4.41-.3,6.68-.18,2.26.16,4.55.54,6.82,1.1,2.27.55,4.52,1.23,6.72,2.06,2.19.81,4.37,1.65,6.46,2.51,4.19,1.72,8.18,3.33,11.72,4.4,3.53,1.1,6.58,1.68,8.72,1.89,1.06.14,1.92.12,2.49.16.57.02.88.03.88.03,0,0-.3-.08-.85-.23-.55-.17-1.37-.32-2.37-.66-2.03-.6-4.85-1.66-8.14-3.12-3.29-1.47-7.04-3.39-11.17-5.36-2.08-.95-4.22-2.01-6.51-2.86-2.27-.9-4.65-1.67-7.09-2.3-2.46-.57-4.98-.95-7.49-1.08-2.51-.11-4.98.14-7.32.52-2.35.37-4.55,1.05-6.57,1.82-2.03.74-3.85,1.7-5.46,2.65-3.22,1.94-5.52,4.07-6.96,5.66-.74.79-1.25,1.46-1.6,1.92-.35.46-.53.7-.53.7,0,0,.24-.2.68-.56.43-.37,1.07-.91,1.93-1.53,1.69-1.26,4.21-2.9,7.44-4.37,1.63-.71,3.41-1.39,5.35-1.94,1.93-.56,4.01-.98,6.18-1.23Z"/>
  <path class="cls-2" d="m99.32,23.03c1.51.84,3.02,1.85,4.58,2.89,1.53,1.08,3.04,2.28,4.53,3.55,1.47,1.29,2.91,2.65,4.21,4.15,1.33,1.46,2.6,2.99,3.71,4.6,1.09,1.62,2.19,3.21,3.05,4.86,1.81,3.27,3.11,6.54,4.05,9.42.92,2.89,1.45,5.39,1.76,7.17.18.89.26,1.59.34,2.07.08.48.12.74.12.74,0,0,.03-.26.09-.74.05-.49.15-1.2.17-2.11.1-1.83.08-4.47-.46-7.6-.52-3.12-1.52-6.75-3.23-10.37-.84-1.82-1.84-3.64-3.01-5.39-1.16-1.76-2.5-3.44-3.91-5.06-1.44-1.59-3.03-3.03-4.64-4.39-1.61-1.36-3.36-2.48-5.04-3.55-1.71-1.04-3.43-1.91-5.1-2.63-1.66-.75-3.29-1.31-4.8-1.77-3.03-.91-5.63-1.33-7.45-1.5-.91-.11-1.63-.12-2.11-.15-.49-.02-.75-.03-.75-.03,0,0,.99.32,2.71.87,1.71.56,4.11,1.46,6.87,2.73,1.37.65,2.83,1.4,4.34,2.24Z"/>
  <path class="cls-2" d="m88.72,252.19c-.49-3.65-.62-7.1-.59-10.06-.07-2.97.07-5.46.21-7.2.08-1.75.18-2.75.18-2.75,0,0-.32.95-.81,2.65-.43,1.71-.99,4.17-1.42,7.19-.33,3.02-.54,6.58-.41,10.4.22,3.81.79,7.87,1.71,11.85,1.04,3.95,2.36,7.74,3.52,11.29,1.28,3.51,2.41,6.79,3.16,9.65.86,2.84,1.4,5.26,1.64,6.99.19.86.24,1.54.32,2.01.07.47.1.72.1.72,0,0,.02-.25.07-.72.03-.47.13-1.16.15-2.05.05-1.77-.07-4.31-.46-7.33-.48-3.01-1.31-6.45-2.24-10.1-1.04-3.61-2.2-7.42-3.06-11.24-1.02-3.78-1.71-7.64-2.06-11.29Z"/>
  <path class="cls-2" d="m59,274.73c-.41-.92-.85-1.97-1.26-3.14-.99-2.25-1.88-4.99-2.71-7.92-.87-2.92-1.59-6.09-2.08-9.3-.58-3.19-.94-6.42-1.05-9.47-.17-3.04-.2-5.92.01-8.37.01-1.24.09-2.37.19-3.37.08-1.01.16-1.89.28-2.6.15-1.46.23-2.29.23-2.29,0,0-.31.78-.85,2.15-.26.69-.52,1.54-.8,2.53-.3.98-.61,2.11-.88,3.35-.52,2.49-.83,5.44-1.03,8.63-.03,3.19.19,6.6.65,9.98.66,3.35,1.56,6.64,2.61,9.66,1.22,2.95,2.47,5.65,3.76,7.84.65,1.09,1.31,2.05,1.9,2.89.58.85,1.1,1.57,1.57,2.14.95,1.12,1.49,1.76,1.49,1.76,0,0-.35-.76-.95-2.1-.34-.64-.7-1.45-1.09-2.38Z"/>
  <path class="cls-2" d="m67.59,244.26c.47,1.72,1.02,3.42,1.59,4.98.59,1.56,1.3,2.95,1.92,4.13.6,1.19,1.25,2.1,1.66,2.75.45.63.71.99.71.99,0,0-.15-.42-.42-1.14-.3-.71-.64-1.76-1.1-2.98-.49-1.21-.89-2.69-1.42-4.22-.5-1.55-.96-3.22-1.35-4.9-.44-1.67-.81-3.37-1.08-4.97-.25-1.6-.57-3.1-.7-4.4-.16-1.3-.33-2.39-.4-3.15-.1-.77-.15-1.21-.15-1.21,0,0-.06.44-.17,1.21-.07.77-.22,1.88-.21,3.21,0,1.33.01,2.89.21,4.55.21,1.66.51,3.41.89,5.15Z"/>
  <path class="cls-2" d="m75.28,270.72c-.82-2.43-1.82-4.79-2.88-6.94-1.2-2.08-2.39-3.97-3.56-5.47-.59-.75-1.17-1.4-1.7-1.97-.51-.58-.97-1.07-1.37-1.45-.82-.74-1.29-1.17-1.29-1.17,0,0,.32.54.88,1.49.31.45.64,1.02,1.02,1.68.38.65.8,1.39,1.21,2.23.94,1.59,1.84,3.55,2.73,5.65.92,2.09,1.76,4.38,2.42,6.72.74,2.31,1.33,4.67,1.72,6.93.44,2.24.76,4.37.86,6.21.12.92.19,1.77.22,2.52.05.76.09,1.42.07,1.96.05,1.1.08,1.73.08,1.73,0,0,.16-.61.44-1.68.13-.54.24-1.2.36-1.96.13-.76.26-1.63.34-2.58.14-1.9.1-4.14-.07-6.53-.29-2.38-.79-4.9-1.46-7.37Z"/>
  <path class="cls-2" d="m101.14,262.68c-.85-2.6-1.57-5.24-2.09-7.76-.58-2.5-1.04-4.87-1.29-6.93-.19-1.02-.32-1.97-.42-2.81-.11-.84-.2-1.58-.24-2.18-.15-1.22-.24-1.92-.24-1.92,0,0-.1.7-.28,1.91-.08.61-.13,1.36-.18,2.21-.07.86-.12,1.83-.13,2.89,0,2.12.2,4.59.5,7.23.43,2.62,1.05,5.4,1.81,8.13.91,2.69,1.99,5.32,3.11,7.73,1.25,2.35,2.48,4.5,3.67,6.25.6.87,1.2,1.64,1.73,2.31.52.68.99,1.26,1.4,1.73.83.91,1.31,1.43,1.31,1.43,0,0-.32-.63-.88-1.72-.31-.53-.65-1.18-1.02-1.94-.39-.75-.81-1.61-1.23-2.56-.96-1.83-1.91-4.05-2.85-6.44-.98-2.37-1.91-4.95-2.67-7.58Z"/>
  <path class="cls-2" d="m124.04,267.4c-.8-1.41-1.56-2.88-2.41-4.27-.82-1.41-1.61-2.85-2.36-4.32-.79-1.45-1.54-2.91-2.23-4.38-.68-1.47-1.41-2.9-2.02-4.33-.6-1.43-1.24-2.8-1.77-4.13-.54-1.33-1.05-2.59-1.51-3.76-.9-2.37-1.66-4.36-2.19-5.75-.52-1.41-.85-2.22-.85-2.22,0,0-.08.87-.11,2.39-.02,1.52.05,3.7.42,6.29.17,1.29.39,2.7.74,4.15.32,1.46.7,3.01,1.22,4.56.52,1.55,1.03,3.17,1.73,4.75.68,1.58,1.42,3.17,2.21,4.73.84,1.53,1.73,3.05,2.65,4.5.89,1.46,1.9,2.77,2.78,4.07,1.8,2.57,3.37,4.92,4.48,7.08,1.1,2.16,1.78,4.11,2.11,5.54.17.71.27,1.29.33,1.69.05.4.08.62.08.62,0,0,.07-.21.19-.6.11-.39.27-.98.37-1.75.23-1.54.23-3.84-.42-6.47-.61-2.64-1.89-5.55-3.45-8.39Z"/>
  <path class="cls-2" d="m66.03,274.46c-.59-1.77-1.27-3.51-1.98-5.1-.84-1.54-1.67-2.94-2.45-4.09-.85-1.11-1.61-1.99-2.16-2.59-.59-.57-.93-.89-.93-.89,0,0,.14.44.38,1.22.29.74.68,1.81,1.06,3.11.5,1.24.98,2.72,1.44,4.3.54,1.55,1.05,3.23,1.46,4.93.54,1.66.99,3.35,1.34,4.96.44,1.59.8,3.11,1.02,4.42.35,1.31.57,2.42.72,3.21.2.79.31,1.24.31,1.24,0,0,.12-.45.33-1.24.15-.79.34-1.94.49-3.33.07-1.39.04-3.01-.05-4.77-.22-1.73-.56-3.57-.99-5.39Z"/>
  <path class="cls-2" d="m138.82,225.91c-.12-.54-.19-.84-.19-.84,0,0-.05.31-.13.85-.05.54-.2,1.31-.27,2.23-.06.92-.24,1.99-.31,3.14-.08,1.15-.19,2.36-.33,3.58-.07,1.22-.16,2.44-.27,3.58-.12,1.14-.12,2.22-.21,3.14-.08.92-.06,1.71-.1,2.25,0,.55,0,.86,0,.86,0,0,.12-.29.32-.8.17-.52.47-1.25.7-2.16.23-.91.53-1.96.72-3.11.18-1.15.35-2.39.5-3.63.06-1.25.1-2.49.12-3.66.01-1.17-.12-2.26-.19-3.19-.07-.93-.25-1.7-.33-2.24Z"/>
  <path class="cls-2" d="m39.92,264.29c-.21-1.46-.31-3.18-.49-5.01-.16-1.83-.27-3.79-.32-5.75-.09-1.96-.11-3.92-.07-5.76.06-1.84.05-3.56.15-5.03.08-1.47.12-2.71.2-3.57.05-.87.08-1.36.08-1.36,0,0-.12.48-.33,1.32-.18.85-.48,2.06-.69,3.53-.22,1.47-.46,3.2-.57,5.07-.1,1.86-.13,3.86-.1,5.85.11,1.99.28,3.98.5,5.83.23,1.85.59,3.56.91,5.02.3,1.46.69,2.65.93,3.48.27.83.42,1.3.42,1.3,0,0-.06-.49-.17-1.35-.13-.85-.25-2.09-.44-3.55Z"/>
  <path class="cls-2" d="m140.48,209.71c.65.63,1.22,1.23,1.69,1.8.49.55.92,1.04,1.23,1.47.7.82,1.09,1.29,1.09,1.29,0,0-.24-.57-.65-1.57-.22-.5-.53-1.07-.9-1.73-.35-.67-.78-1.41-1.3-2.19-1.05-1.55-2.45-3.23-4.06-4.95-1.69-1.63-3.65-3.21-5.71-4.65-2.14-1.32-4.39-2.43-6.55-3.35-2.22-.77-4.31-1.4-6.15-1.74-.92-.17-1.77-.26-2.52-.34-.75-.09-1.4-.14-1.94-.16-1.08,0-1.7,0-1.7,0,0,0,.59.19,1.61.52.52.13,1.13.32,1.83.57.7.23,1.49.5,2.32.86,1.71.56,3.62,1.43,5.62,2.42,2,.97,4.08,2.13,6.03,3.47,2,1.26,3.92,2.65,5.59,4.12,1.72,1.41,3.26,2.83,4.45,4.18Z"/>
  <path class="cls-2" d="m128.61,205.34c-.83-.89-1.88-1.88-3.18-2.68-1.29-.82-2.73-1.54-4.21-2.18-1.5-.58-3-1.08-4.4-1.56-1.4-.48-2.72-.85-3.83-1.27-1.1-.41-2.03-.73-2.66-1.03-.64-.26-1-.43-1-.43,0,0,.31.25.88.66.58.39,1.41.96,2.49,1.49,1.08.53,2.34,1.14,3.73,1.67,1.39.53,2.86,1.09,4.3,1.7,1.45.56,2.86,1.21,4.11,1.93,1.25.72,2.39,1.46,3.25,2.22.87.76,1.55,1.47,1.95,2.02.43.54.65.88.65.88,0,0-.12-.38-.43-1.01-.32-.62-.81-1.53-1.65-2.42Z"/>
  <path class="cls-2" d="m72.4,197.94c1.99-.99,3.91-1.86,5.62-2.42.83-.36,1.62-.63,2.32-.86.7-.25,1.32-.44,1.83-.57,1.03-.33,1.61-.52,1.61-.52,0,0-.62,0-1.7,0-.54.01-1.2.07-1.94.16-.75.07-1.6.16-2.52.34-1.84.34-3.93.98-6.15,1.74-2.16.92-4.41,2.03-6.55,3.35-2.06,1.44-4.02,3.02-5.71,4.65-1.61,1.72-3.01,3.4-4.06,4.95-.52.78-.95,1.52-1.3,2.19-.37.66-.68,1.24-.9,1.73-.42,1-.65,1.57-.65,1.57,0,0,.4-.47,1.09-1.29.31-.43.74-.92,1.23-1.47.48-.56,1.04-1.17,1.69-1.8,1.19-1.34,2.73-2.77,4.45-4.18,1.67-1.47,3.59-2.86,5.59-4.12,1.95-1.34,4.02-2.49,6.03-3.47Z"/>
  <path class="cls-2" d="m84.12,198.34c1.08-.53,1.91-1.1,2.49-1.49.57-.41.88-.66.88-.66,0,0-.36.17-1,.43-.63.29-1.56.61-2.66,1.03-1.1.42-2.43.79-3.83,1.27-1.4.48-2.91.98-4.4,1.56-1.48.64-2.92,1.36-4.21,2.18-1.3.8-2.35,1.79-3.18,2.68-.84.89-1.33,1.8-1.65,2.42-.3.64-.43,1.01-.43,1.01,0,0,.21-.34.65-.88.4-.55,1.09-1.26,1.95-2.02.87-.77,2-1.5,3.25-2.22,1.25-.73,2.66-1.37,4.11-1.93,1.43-.62,2.91-1.17,4.3-1.7,1.39-.53,2.65-1.14,3.73-1.67Z"/>
  <path class="cls-2" d="m65.76,106.45c4.43-.42,9.63-.66,15.09-.02,2.73.27,5.57.8,8.56,1.14,3,.34,6.1.35,9.14.13,6.08-.57,11.93-1.89,17.42-2.54,5.47-.79,10.65-.8,15.07-.39,4.43.33,8.08,1.07,10.6,1.74,1.27.3,2.25.6,2.92.81.67.21,1.02.33,1.02.33,0,0-.34-.16-.98-.46-.64-.29-1.58-.72-2.81-1.18-2.47-.91-6.09-1.99-10.58-2.74-4.48-.66-9.83-.94-15.5-.42-5.65.57-11.53,1.76-17.38,2.18-2.92.27-5.82.32-8.68.05-2.87-.26-5.74-.74-8.6-.97-5.72-.36-11.02.18-15.48.84-4.45.77-8.1,1.64-10.65,2.24-2.54.67-3.98,1.05-3.98,1.05,0,0,1.48-.19,4.08-.54,2.59-.37,6.29-.9,10.74-1.26Z"/>
  <path class="cls-2" d="m130.16,114.33c-1.67-.65-4.17-1.38-7.26-1.74-3.09-.31-6.73-.25-10.56.08-3.82.41-7.83,1.02-11.8,1.32-1.98.21-3.96.32-5.9.31-1.94-.02-3.86-.18-5.73-.39-3.74-.34-7.28-.85-10.34-1.11-3.07-.19-5.65-.12-7.44.06-.89.1-1.59.22-2.06.31-.47.09-.72.13-.72.13,0,0,.25,0,.73,0,.48,0,1.17,0,2.06.07,1.77.07,4.27.33,7.24.92,2.98.48,6.43,1.27,10.23,1.92,1.91.27,3.9.5,5.96.59,2.06.08,4.14.01,6.2-.14,4.11-.43,8.11-1.17,11.85-1.68,3.72-.61,7.2-.94,10.19-.88,2.99-.05,5.49.32,7.2.74.86.18,1.54.36,1.99.51.46.14.7.22.7.22,0,0-.23-.12-.65-.34-.42-.23-1.06-.53-1.89-.88Z"/>
  <path class="cls-1" d="m47.3,154.47c.82-1.29,1.81-2.78,2.81-4.41,1.01-1.62,2.06-3.37,3.11-5.12,1.03-1.76,2.06-3.51,3-5.18.95-1.66,1.78-3.24,2.53-4.57.74-1.34,1.3-2.49,1.72-3.27.4-.8.63-1.26.63-1.26,0,0-.29.42-.8,1.15-.49.75-1.23,1.79-2.05,3.08-.82,1.29-1.8,2.78-2.81,4.41-1.01,1.62-2.06,3.37-3.11,5.12-1.03,1.76-2.07,3.51-3,5.18-.95,1.66-1.78,3.24-2.53,4.57-.74,1.34-1.3,2.49-1.72,3.27-.4.8-.63,1.26-.63,1.26,0,0,.29-.42.8-1.15.49-.75,1.23-1.79,2.05-3.08Z"/>
  <path class="cls-1" d="m58.19,141.17c-1.14,1.67-2.59,3.94-3.97,6.25-1.37,2.32-2.67,4.67-3.59,6.48-.47.9-.81,1.67-1.08,2.2-.25.53-.39.85-.39.85,0,0,.21-.27.56-.74.34-.48.85-1.16,1.41-2,1.14-1.67,2.59-3.94,3.97-6.25,1.37-2.32,2.67-4.67,3.59-6.48.47-.9.81-1.67,1.08-2.2.25-.53.39-.85.39-.85,0,0-.21.27-.56.74-.34.48-.85,1.16-1.41,2Z"/>
  <path class="cls-1" d="m116.57,154.47c.82-1.29,1.81-2.78,2.81-4.41,1.01-1.62,2.06-3.37,3.11-5.12,1.03-1.76,2.06-3.51,3-5.18.95-1.66,1.78-3.24,2.53-4.57.74-1.34,1.3-2.49,1.72-3.27.4-.8.63-1.26.63-1.26,0,0-.29.42-.8,1.15-.49.75-1.23,1.79-2.05,3.08-.82,1.29-1.8,2.78-2.81,4.41-1.01,1.62-2.06,3.37-3.11,5.12-1.03,1.76-2.07,3.51-3,5.18-.95,1.66-1.78,3.24-2.53,4.57-.74,1.34-1.3,2.49-1.72,3.27-.4.8-.63,1.26-.63,1.26,0,0,.29-.42.8-1.15.49-.75,1.23-1.79,2.05-3.08Z"/>
  <path class="cls-1" d="m127.45,141.17c-1.14,1.67-2.59,3.94-3.97,6.25-1.37,2.32-2.67,4.67-3.59,6.48-.47.9-.81,1.67-1.08,2.2-.25.53-.39.85-.39.85,0,0,.21-.27.56-.74.34-.48.85-1.16,1.41-2,1.14-1.67,2.59-3.94,3.97-6.25,1.37-2.32,2.67-4.67,3.59-6.48.47-.9.81-1.67,1.08-2.2.25-.53.39-.85.39-.85,0,0-.21.27-.56.74-.34.48-.85,1.16-1.41,2Z"/>
</svg>