<?xml version="1.0" encoding="utf-8"?>
<!-- Generator: $$$/GeneralStr/196=Adobe Illustrator 27.6.0, SVG Export Plug-In . SVG Version: 6.00 Build 0)  -->
<svg version="1.1" id="Layer_1" xmlns="http://www.w3.org/2000/svg" xmlns:xlink="http://www.w3.org/1999/xlink" x="0px" y="0px"
	 viewBox="0 0 253.2 340.7" style="enable-background:new 0 0 253.2 340.7;" xml:space="preserve">
<style type="text/css">
	.st0{fill:#F7F9FD;}
	.st1{fill:#1F1A2B;}
	.st2{fill:#DDD6B6;}
	.st3{fill:#D4720F;}
	.st4{fill:#F99B0C;}
	.st5{fill:#FDC90E;}
</style>
<g>
	<path class="st0" d="M55.4,23.1c0.8-2.1,2.3-4,4.4-4.9c-0.5,1.7-1.2,3.5-1.2,5.3c-0.1,2.1,0.3,4.4,1.8,5.9c0.7,0.8,1.9,0.8,2.9,0.7
		c1.9,0,3.4-1.4,4.4-2.9c0.9-1.3,0.9-2.9,1-4.4c0.1-1.2,0.3-2.4,0.1-3.6c-0.5-1.8-2.3-2.7-3.2-4.2c1.1-0.9,2.4-1.2,3.7-1.6
		c2.1-0.6,4-2,6.1-2.5c2.4-0.6,4.8-1.4,7.2-1.7c4.8-0.6,9.8-0.9,14.5,0.2c1.9,0.5,3.8,1.2,5.6,2c1.4,0.6,2.5,1.7,3.8,2.5
		c0.4,0.3,0.9,0,1.4,0c-1.2-1.6-2.7-2.8-4.2-4c-4.9-3.6-11.1-5-17.1-4.7c-3,0.2-6,0.3-8.9,1c-4.4,1-8.7,2.5-12.7,4.5
		c-2.7,1.5-5.6,2.8-8,4.8c-2.7,2-4.8,4.8-5.7,8.1c0.1,0.4,0.6,0.6,0.9,0.9c1.1,0.8,2.1,1.9,3.1,2.9C55.1,25.9,54.8,24.4,55.4,23.1z"
		/>
	<path class="st0" d="M89,13.6c0.2-0.8,0.2-1.9-0.5-2.5c-0.6-0.7-1.7-0.7-2.5-0.3c-1.3,0.7-1.8,2.7-0.6,3.8
		C86.5,15.5,88.3,14.8,89,13.6z"/>
	<path class="st0" d="M91.9,13.7c0.8-0.2,1.1-1.1,1.2-1.9c-0.3-1-1.6-1.7-2.5-1.1c-0.4,0.5-0.7,1.1-0.6,1.8
		C90.2,13.2,91,13.9,91.9,13.7z"/>
	<path class="st0" d="M75.5,21.8c2.3,0.8,5.1-0.4,6.2-2.5c0.8-1.5,1.1-3.2,0.9-4.8c-0.5-1.1-1.4-2-2.2-2.9c-0.9-0.5-2.1-0.4-3.1-0.2
		c-1,0.2-2.1,0.7-2.7,1.6c-1.3,1.7-2.1,3.8-1.5,5.9C73.4,20.1,74.2,21.5,75.5,21.8z"/>
	<path class="st0" d="M113.2,27.9c0.7,1.6,2.1,3,3.8,3.4c1.1,0.3,2.3-0.5,2.9-1.4c0.8-1.3,0.7-3,0.3-4.4c-0.5-1.7-1.6-3.3-3.2-4.1
		c-1.4-0.6-2.9-0.2-4.3-0.3c0.5-1.5,2.1-2.2,3.4-2.8c6.4-2.6,14.2-0.5,18.9,4.4c1.1,1.1,1.8,2.4,3.1,3.3c0.8,0.2,1.5-0.2,2.3-0.2
		c0.6,0.7,1,1.5,1.5,2.1c0.7,0.6,1.7,0.2,2.4-0.3c0.1-0.9-0.1-1.9-0.1-2.8c2.1-0.2,4.1,0.4,6.1,1.2c1.1-0.8,2.3-1.8,3.7-1.5
		c1.5,0.2,2.4,1.4,3.2,2.5c0.6-0.3,1.3-0.8,2.1-0.6c1.2,0.3,2.3,0.9,3.3,1.6c0.9,0.6,0.8,1.8,1.1,2.7c1.5-0.3,2.9-0.9,4.4-1
		c2.9-0.3,5.9,0.1,8.6,1.2c4.9,1.9,9.8,4.6,13,8.8c3.1,4,3.2,9.9,0.7,14.2c-1.4,2.4-4.2,3.5-6.9,3.3c-3.6,0-6.7-2.2-9.8-3.8
		c-4.5-2.2-10-2.7-14.7-0.8c-3.7,1.5-6,5-9.7,6.5c-2.9,1.3-6,2.3-8.7,4.2c-2.5,1.6-4.3,4-6,6.5c-1.2,1.8-2.4,3.7-3.3,5.8
		c-0.8,1.8-1.2,3.7-2.2,5.4c-1.5,2.8-4.1,5.1-7.1,5.9c1.2-2.9,3.2-5.4,3.7-8.5c-0.4-0.6-1-1.1-1.7-1c-1.6,0.8-2.7,2.4-4.4,3
		c-1.5,0.4-3.1-0.1-4.6,0c-1.3,1.6-1.8,3.6-2.9,5.3c-1,1.5-1.9,3.1-3.4,4c-1,0.2-2-0.4-3-0.2c-1.1,0.4-2,1.2-3.1,1.7
		c-1.5,0.8-3.2,0.8-4.8,1.3c0.2,1.4,1.3,2.4,1.6,3.7c0.5,2.1-0.6,4.1-0.5,6.2c0.2,1.2,1.5,1.7,2.5,1.7c2,0.1,4.1-0.7,5.2-2.4
		c1.3-1.7,2.1-3.8,3.9-5.1c2.1-1.3,4.6-1.7,7-1.6c1.2,0,2.4,0.1,3.6-0.3c1.2-0.7,1.9-1.9,3-2.7c1.1-0.9,2.5-1.3,3.9-1.1
		c0.7,0.1,1.5,0.5,1.7,1.3c0.3,0.9,0.1,1.9-0.1,2.8c-0.9,3.1-3.4,5.6-6.3,6.9c-2.3,1-4.9,1.5-7.2,2.7c-1.8,1-3.3,2.5-4.5,4.1
		c-2.6,3.4-3.6,7.8-6.2,11.2c-0.7,1.1-2.3,1.6-3.4,0.9c-1-0.8-1.5-2.1-2.1-3.2c-1.5-2.8-3.8-5.2-5-8.2c-0.8-1.8-0.7-3.8-0.6-5.7
		c0.1-3.8,1.2-7.5,2-11.1c0.5-2.2,0.7-4.7-0.3-6.8c-1.1-2.5-3.4-4.2-4.9-6.5c-1.5-2.1-2.3-4.6-4.1-6.5c-1.6-1.7-3.9-2.7-6.2-3.3
		c-3.9-1.1-8.2-0.8-11.8,1c-2.3,1.2-4.4,2.7-6.9,3.7c-2.7,1.1-5.6,2-8.5,1.4c-2.3-0.6-4.1-2.6-5.1-4.7c-1.1-2.2-1-4.9-2.2-7
		c-0.9,2.2-0.9,4.7-1.1,7c-0.1,3.5,0.4,7.1,0.6,10.6c0.1,2.3,0,4.5,0.2,6.8c0.1,1.7,0.4,3.5-0.2,5.1c-0.7,2-2.4,3.3-4.3,4.1
		c-1.8,0.7-4.1,0.2-5.3-1.4c-1.4-1.8-1.8-4.2-2.2-6.4c-0.6-3.5-1.5-7-2.5-10.4c-0.5-1.6-0.9-3.3-1.9-4.7c-0.4,0-0.8,0.3-1,0.6
		c0.4,0.4,0.9,0.8,1,1.3c0.6,1.9,0.7,4,1,5.9c0.6,3.1,0.6,6.4,1.3,9.5c0.4,2.5,1.6,5,3.6,6.6c2.5,2,6.2,1.8,8.7-0.2
		c3.5-2.6,5.2-7,5.3-11.2c0.2-3.8-0.9-7.5-2.1-11c-0.7-1.9-0.9-3.9-0.7-5.9c0.1,0.1,0.3,0.2,0.4,0.2c0.4,1.3,0.7,2.7,1.4,3.8
		c1,1.9,2.7,3.5,4.9,3.8c3.3,0.3,6.4-0.8,9.3-2.3c2.9-1.3,5.5-3.2,8.4-4.4c2.2-0.9,4.8-1.1,7.1-0.7c3,0.5,5.8,2.4,7.2,5.2
		c1.2,2.4,2.4,5,4.2,7c1.3,1.5,2.9,2.6,4,4.3c0.9,1.3,0.7,2.9,0.4,4.3c-0.7,2.5-2,4.7-3.1,7c-0.9,2-1.1,4.3-1,6.5
		c0.1,2.8,1.7,5.3,3.5,7.3c1.8,2.1,4.3,3.7,5.4,6.3c0.9,2,0.7,4.4,2.1,6.2c1.5,0.4,3.2,0.1,4.3-1c1.8-1.7,2.7-4.2,3.7-6.4
		c1.6-3.4,2.9-7.1,5.6-9.9c1.9-1.9,4.6-2.5,7.1-3.2c4.9-1.2,9.3-4.5,11.6-9c0.6-1.3,0.9-2.8,0.7-4.3c-0.2-1.4-0.7-2.7-0.7-4.1
		c-0.1-2.8,0.7-5.6,1.5-8.3c0.9-2.9,2-5.8,3.7-8.4c2-3,5-5,8.2-6.6c2.7-1.5,5.4-2.7,8-4.4c1.9-1.1,3.5-2.6,5.5-3.6
		c3.2-1.5,6.9-1.9,10.3-0.8c3.8,1.3,7.1,3.8,11.1,4.5c2.3,0.3,4.7,0.3,6.8-0.8c2.2-1.1,3.9-3.1,4.8-5.3c1.7-4.4,1-9.6-1.5-13.6
		c-1.9-3-4.6-5.5-7.6-7.5c-2.5-1.8-5.3-3.1-8.2-3.9c-2.4-0.8-5-1-7.6-0.6c-1.3,0.2-2.4,1-3.6,1.3c-0.8-0.7-1.4-1.7-2.2-2.3
		c-1.4-1-2.9-1.8-4.5-2.4c-1.5-0.5-3.1-0.6-4.7-1c-1.2-0.3-2.3-0.7-3.5-0.9c-2.9-0.3-6-0.3-8.8,0.8c-1.1,0.3-1.8,1.2-2.6,1.9
		c-1-1-1.6-2.3-2.5-3.3c-1.6-1.9-3.4-3.7-5.6-5c-3.4-2.2-7.5-3.1-11.4-2.9c-3.2,0.2-6.2,1.6-8.2,4.1c-1.9,2.3-2.7,5.8-1.4,8.5
		c0.8-1,1.4-2.3,2.3-3.2C112.3,24.7,112.5,26.4,113.2,27.9z"/>
	<path class="st0" d="M130.1,27.6c1.3,0.1,2.8-1.5,1.9-2.7c-0.6-0.9-1.9-1.5-3-1c-0.7,0.4-1.5,1.2-1.3,2.1
		C128,27.1,129.1,27.5,130.1,27.6z"/>
	<path class="st0" d="M37.2,34.1c0.7,0.1,1.5,0.3,2-0.3c0.8-1.5,0.8-3.3,1.7-4.7c0.7-1,2-1.3,3.1-1.4c2.1-0.2,4.4-0.2,6.2,0.9
		c1.6,0.9,3.4,1.8,4.6,3.2c0.6,0.6,1.2,1.4,2.1,1.7c-0.1-1.7-1.1-3.2-2.2-4.6c-2.7-3.4-7.2-5.2-11.5-4.9c-3,0-5.7,1.1-8.4,2.4
		c-2.5,1.2-5,3-6.1,5.7c1.1,0.4,2.3,0.7,3.4,1.2c0.5,0.2,0.9,0.4,1.4,0.4C34.9,33.5,36.1,33.8,37.2,34.1z"/>
	<path class="st0" d="M156,27.4c-0.4-1.3-1.9-2.2-3.3-1.9c-1,0-1.6,0.8-2.2,1.5c0.3,1.1,0.7,2.4,1.9,2.8c1,0.3,2.1,0.3,3.1,0.5
		C155.9,29.3,156.5,28.3,156,27.4z"/>
	<path class="st0" d="M132.3,30.6c0.7,0.8,2.4,0.8,2.6-0.4c0.4-1-0.6-2.5-1.8-2.1C132.1,28.3,131.4,29.8,132.3,30.6z"/>
	<path class="st0" d="M80.2,32.5c0.1-1.3-1.2-2.4-2.5-1.7c-1,0.4-1.4,1.8-0.4,2.5C78.2,34,79.9,33.7,80.2,32.5z"/>
	<path class="st0" d="M94.3,33.6c0.6,0.7,1.5,0.3,2.1-0.1c0.3-0.8-0.3-2.3-1.3-2C94.2,31.7,93.5,33,94.3,33.6z"/>
	<path class="st0" d="M157.5,37.5c0.8,0,1.2-1.2,0.6-1.7c-1.5-1.5-3.9-2.8-6.1-2.1c-1,0.2-1.9,1.5-1,2.3
		C152.7,37.7,155.3,37.7,157.5,37.5z"/>
	<path class="st0" d="M18.6,42.5c1.1-1.7,2.9-2.8,4.7-3.6c1.7-0.8,3.6-0.6,5.4-0.6c2.2,0,4.1,1.4,6,2.3c1.8,0.9,3.2,2.2,5.1,3
		c-0.7-1.9-1.6-3.7-3-5.2c-2.4-2.6-6-4.1-9.6-4.1c-3.9-0.1-8,1.4-10.3,4.5c-1.8,2.4-2.1,5.5-2.6,8.4c-0.3,1.5-0.7,3.2-2.2,3.8
		c-1.6,0.8-3.3,1.8-3.8,3.6c0.9,0,1.8-0.2,2.7-0.1c0.9,0.3,1.5,1.2,2.2,1.8c0.9-2.2,2.2-4.3,3.2-6.4C17.4,47.6,17,44.7,18.6,42.5z"
		/>
	<path class="st0" d="M49.9,39.2c1.1,0.7,2.7-0.4,2.5-1.7c-0.1-1-1.1-2.2-2.2-1.8C48.6,36,48.4,38.5,49.9,39.2z"/>
	<path class="st0" d="M166.7,42.2c1,0.4,2.1,0.8,3.2,0.8c0.9-0.6,1.5-1.5,1.7-2.5c-1.2-2-3.4-3.1-5.5-4.1c-1.2-0.5-2.6-1.3-3.9-0.8
		c-0.7,0.3-1.5,0.8-1.7,1.5c-0.1,0.6,0.3,1.2,0.7,1.6C162.6,40.4,164.7,41.4,166.7,42.2z"/>
	<path class="st0" d="M48.9,41.8c0.8-1.4-1-3.5-2.5-2.8c-1,0.6-2.2,2.1-1.2,3.2C46.4,43,47.9,42.4,48.9,41.8z"/>
	<path class="st0" d="M114.3,40.2c-3.7,1.5-6.8,4.3-8.9,7.7c0.5,0.2,1,0.4,1.4,0.7c0.3,1.7-0.3,3.5,0.5,5.1c0.5,0.9,1,1.8,1.7,2.4
		c1.6,0.9,3.8,0.7,5.1-0.6c2.4-2,3-5.7,1.9-8.5c-0.4-1.1-1.6-1.5-2.4-2.2c-0.2-0.4,0.2-0.8,0.6-0.9c4.8-2.3,10.4-2.4,15.4-0.6
		c1.4,0.5,2.9,1.2,4.4,0.9c-2.4-2.4-5.5-4-8.7-4.8C121.6,38.5,117.7,38.9,114.3,40.2z"/>
	<path class="st0" d="M68,41.7c0.3-0.7,0.4-1.8-0.3-2.3c-0.2,0-0.6,0.1-0.8,0.1c-1.1,0.1-1.6,1.3-1.1,2.3
		C66.4,42.1,67.3,42.1,68,41.7z"/>
	<path class="st0" d="M148.2,42.3c1.2,1.1,2.8,1.7,4.4,2.1c2.3,0.6,4.5,1.2,6.9,1.1c2,0,4,0.1,6-0.2c0-0.2,0.1-0.5,0.1-0.6
		c-1.1-0.8-2.4-0.9-3.6-1.4c-2.5-1-5.1-2-7.6-2.9c-1.9-0.7-4.1-1-6.1-0.5C147.3,40.3,147.4,41.7,148.2,42.3z"/>
	<path class="st0" d="M123,44.5c-0.6-1-1.9-1.5-3-1c-1.8,1-1,3.9,0.7,4.6C122.5,48.5,124.2,46,123,44.5z"/>
	<path class="st0" d="M145.3,49.4c1.3,0.4,2.6,0.9,3.9,0.5c0.2-0.5,0.1-0.9-0.2-1.2c-2.5-2.3-5.5-4.1-8.8-4.9l-0.3,0.1
		c-1,0.6-0.4,1.7,0.1,2.4C141.4,47.8,143.4,48.7,145.3,49.4z"/>
	<path class="st0" d="M125.6,44.2c-1.4,1.2-0.6,4,1.4,4c1.4-0.3,2.3-2.5,1.2-3.6C127.5,43.9,126.4,43.9,125.6,44.2z"/>
	<path class="st0" d="M131.2,46.1c-1.6,1.1,0.8,3.3,1.9,2.1C134.2,47.1,132.4,45.5,131.2,46.1z"/>
	<path class="st0" d="M84.9,47.5c-1.1-1.1-2.8-0.5-4.2-0.6c-0.5,0-1.1-0.3-1.5,0.1c-1.1,0.9-1.9,2.1-2.4,3.4
		c-0.1,1.2-0.2,2.4,0.2,3.6c0.4,1.2,1.7,1.9,2.9,1.8c0.8,0,1.6-0.2,2.4-0.4c1.3-1.2,1.4-3.1,2.3-4.5c0.5-0.2,1-0.4,1.4-0.6
		C85.8,49.2,85.7,48.1,84.9,47.5z"/>
	<path class="st0" d="M23.1,54.3c1.3,1.1,3.1,0,4.6,0.7c1.2,0.5,2.1-1,2.4-2c-0.4-0.3-0.8-0.5-1.2-0.8c-0.4-1.1-0.3-2.4,0.7-3.1
		c-0.3-0.9-1.2-1.5-2.1-1.5c-1-0.1-2,0.2-3,0.4c-0.8,0.6-1.6,1.3-2.3,2C22,51.4,21.7,53.3,23.1,54.3z"/>
	<path class="st0" d="M180.5,50.3c-1.4-0.4-2.7,0.3-3.9,0.9c-0.2,1.1,0.7,2.7,2,2.5c0.8-0.4,1.5-1,2.4-1.2c0.6-0.2,1.3-0.3,1.9-0.5
		C182.2,51.2,181.5,50.4,180.5,50.3z"/>
	<path class="st0" d="M59.5,56.7c1.2-0.8,2.4-2.1,2.1-3.6c-0.6-0.8-1.8-1.1-2.7-0.7c-1.4,0.6-2.8,2.1-2.4,3.8
		C56.9,57.5,58.6,57.3,59.5,56.7z"/>
	<path class="st0" d="M43.3,72.2c0-4.9,0.1-9.8,0-14.8c0-1.6,0.2-3.3,0.3-4.9l-0.2,0.2c-0.4,0.4-0.7,0.8-0.9,1.2
		c-1.4,3.4-2.2,7-2,10.6C40.6,67.3,41,70.4,43.3,72.2z"/>
	<path class="st0" d="M8.7,77.3c0.7,3.1,0.3,6.3-0.8,9.2c-1,2.2-0.8,4.7-0.5,7.1c0.3,2.7,1.3,5.6,3.6,7.3c1.3,1.1,3.3,1.4,4.9,0.7
		c2.6-1.6,4.6-4.1,5.9-6.9c0.4-0.9,0.3-1.9,0.3-2.9c0-2.9-0.4-5.8-0.4-8.6c-0.1-2.9-0.5-5.8-0.4-8.7c0-1.1,0.5-2,0.8-3
		c-0.1-0.5,0.4-1.3-0.2-1.5c-1.5,0.8-2.2,2.4-2.5,4c-0.9,4.8-0.5,9.7-0.9,14.5c-0.1,1.5-0.4,3-0.5,4.5c-0.1,1,0.4,2,0.5,3
		c-0.6,0.8-1.5,1.3-2.3,1.8c-1.1,0.6-2.3,1.2-3.6,0.9c-1.5-0.4-2.5-1.7-2.8-3.1c-0.4-1.7-0.5-3.5-0.3-5.3c0.2-1.8,1-3.5,1.5-5.2
		c1-2.9,1-6.2-0.2-9.1c-0.7-1.9-2-3.7-2.1-5.8c-0.2-1.9,0.1-3.9,0.6-5.7c0.6-2.1,2-3.7,3.2-5.4c0.2-1.6-0.9-3.2-2.5-3.5
		c-1.1-0.2-2.6,0-3.2,1.1c-1.2,1.7-0.1,3.9-0.9,5.7c-0.9,2.2-1,4.7-0.5,7C6.2,72.1,7.9,74.5,8.7,77.3z"/>
	<path class="st0" d="M24.7,59c0.6,1.1,2.5,1.1,2.9-0.2c0.1-1.2-0.2-2.3-0.5-3.4c-1,0.2-2.1,0.4-3.2,0.5C24.1,57,24.3,58,24.7,59z"
		/>
	<path class="st0" d="M91.3,67.1c1.6,1.2,2.8,2.7,4.4,3.9c-0.2-0.8-0.5-1.6-1.1-2.3c-1.4-1.6-2.9-3.1-4.7-4.4
		c-1-0.7-2.1-1.1-3.3-1.2C87.8,64.9,89.8,65.7,91.3,67.1z"/>
	<path class="st0" d="M60.9,70.4c2.5-0.7,4.6-2.2,6.8-3.4c1.3-0.7,2.7-1.2,4-1.8c-1.2-0.8-2.7-0.9-4.1-0.5c-1.9,0.6-3.3,2.1-5.2,2.7
		c-2.1,0.8-4.3,1.4-6.5,1.1c-1.2-0.8-1.2-2.6-2.5-3.2c-0.2,1.1-0.2,2.4,0.5,3.3C55.6,70.6,58.5,71,60.9,70.4z"/>
	<path class="st0" d="M119.6,69.4c1.5,0.4,2.9-0.9,3.3-2.2c0.2-0.8-0.5-1.4-1.2-1.5c-1.2-0.3-2.4,0.2-3.4,0.7
		c-0.1,0.3-0.3,0.8-0.4,1.1C118.2,68.2,118.6,69.2,119.6,69.4z"/>
	<path class="st0" d="M28,69.3c-1,0.5-2.1,0.4-3.2,0.3c0,1.3,0.6,2.8,2,3.3c0.7,0.1,1.5-0.2,2-0.7c0.5-0.9,0.6-2.1,0.5-3.1
		C28.8,69,28.4,69.1,28,69.3z"/>
	<path class="st0" d="M105,74.3c0.5-0.5,0.9-1.3,0.8-2c-0.4-0.7-1.2-1-2-0.8c-0.5,0.5-1,1.2-0.6,1.9C103.4,74.1,104.3,74.3,105,74.3
		z"/>
	<path class="st0" d="M22.1,75.2c0.3,1.3,1.3,2.6,2.7,2.7c1.6,0,3-1.2,3.5-2.7c-1.3,0.2-2.5,0.6-3.8,0.8
		C23.6,75.9,22.9,75.6,22.1,75.2z"/>
	<path class="st0" d="M41.8,85.7c1.5-1.3,1.5-3.4,1.1-5.2c-0.5-0.3-1.1-0.6-1.7-0.4c-1.3,0.3-2.1,1.6-2.2,2.9
		c0.2,0.8,0.3,1.8,0.8,2.5C40.3,86.1,41.1,86,41.8,85.7z"/>
	<path class="st0" d="M171.7,116.6c0,1.4-0.1,2.9,0.4,4.3c1.3,0.5,2.6,0.2,3.9-0.1c1.1-3,0.3-6.3,0.7-9.4c0.3-2.8,0.2-5.6,0.3-8.3
		c0.2-3,0.1-5.9,0.5-8.9c0.2-2.7,0.5-5.4,0.3-8c-1.6-0.4-3.2-0.5-4.8-0.4c-0.2,1.9-0.3,3.8-0.6,5.7c0,2-0.2,4-0.4,6
		c-0.1,2.5,0,5-0.2,7.5C171.6,108.8,171.8,112.7,171.7,116.6z"/>
	<path class="st0" d="M39.9,94c1.7-0.3,3-2,3.1-3.8c-0.2-0.6-0.5-0.6-0.9-0.2c-0.8,0.5-1.6,0.9-2.5,1.3c-0.8,0.3-1.7,0.6-2.2,1.3
		C37.7,93.5,38.8,94.1,39.9,94z"/>
	<path class="st0" d="M70,97.5c1.4,0.9,3.1,0.7,4.6,0.6c0.4-1.8-0.5-3.9-2.2-4.7c-1.1-0.6-2.3-0.1-3.4,0.2c-0.4,0.4-0.8,0.9-1.1,1.4
		C68.5,95.9,69,96.9,70,97.5z"/>
	<path class="st0" d="M23,118.4c0.8,0,2.1,0.3,2.5-0.7c0.7-1.5,0-3.3-0.3-4.8c-0.6-2.7-1.7-5.2-2.4-7.9c-0.3-1-0.8-1.9-1.4-2.7
		c-0.5,1.3-0.2,2.7-0.2,4c0.3,2.2,0.4,4.4,0.4,6.6c0.1,1.8,0,3.7,0.6,5.5c0.1-1.1,0.2-2.1,0.3-3.2C23.2,116.1,22.8,117.4,23,118.4z"
		/>
	<path class="st0" d="M33.2,106.8c0.2-1.2-0.5-2.3-1.6-2.7c-2.2-1.1-5.4,0.5-5.4,3.1c1.1,0.3,2.3,0.6,3.5,0.7
		C30.9,107.9,32.1,107.3,33.2,106.8z"/>
	<path class="st0" d="M232.6,140.3c-0.2-2.2-0.4-4.4-1.6-6.3c-1.2-2.1-2.7-4-4.5-5.7c-3.8-3.5-8.4-6.2-13.3-7.8
		c-6.4-2.3-13.2-3.2-19.9-3.7c-1.9-0.1-3.8-0.4-5.6,0.3c-1.4,0.9-2,2.5-3,3.8c-0.1-1.4-0.1-2.9-0.1-4.3c-0.3,1.6-0.3,3.2-0.2,4.8
		c2.7,0.5,5.4,0.4,8.2,0.6c3,0.2,5.9,0.8,8.9,1.3c2.1,0.3,4.2,1,6.3,1.5c4.6,1.2,9,3.5,12.4,6.9
		C225.1,133.1,229.4,136.3,232.6,140.3z"/>
	<path class="st0" d="M25.7,129c0.1-1.6,0-3.4-1.3-4.5c-0.8-0.9-2.2-1.2-3.2-0.5c-1.3,0.8-1.6,2.5-1.5,3.9c0.9,0.5,1.8,1,2.9,1.1
		C23.6,129.2,24.7,129.1,25.7,129z"/>
	<path class="st0" d="M146.7,131.3c-1-0.2-2.1-0.4-3-0.9c-0.9-0.6-1.3-1.8-1.5-2.9c1,0.8,1.8,2.2,3.3,2.1c1.7,0.1,3.2-0.9,4.6-1.7
		c0-0.5-0.1-0.9-0.3-1.3c-1.9-1.9-5.2-2.3-7.3-0.5c-1.5,0.9-1.7,3.3-0.3,4.3C143.5,131.5,145.2,131.6,146.7,131.3z"/>
	<path class="st0" d="M76.7,133.9c-0.9-0.4-1.8-0.5-2.7-0.9c-0.6-2.3-0.4-4.7-1.3-7c0.1,1.8,0.6,3.5,0.8,5.3
		c0.2,1.4-0.2,2.8-0.3,4.2c0.9,0.3,1.8,0.7,2.7,0.7C76.5,135.5,76.5,134.7,76.7,133.9z"/>
	<path class="st0" d="M108.7,133.4c0.5-1.4,0.5-3-0.2-4.3c-0.4-0.8-1.4-0.7-2-0.4c-1,0.9-0.7,2.6-0.3,3.8
		C106.4,133.6,107.8,134,108.7,133.4z"/>
	<path class="st0" d="M44.6,131.8c-1,0.1-2,0.8-2.2,1.8c-0.2,0.9,0.2,2,1.1,2.4c1,0.4,2.1,0.3,3.1,0.1c0.6-0.2,1.3-0.5,1.5-1.2
		c0.1-0.8,0.1-1.6,0.1-2.4c0.2,0,0.6,0.1,0.8,0.1c-0.4-0.3-0.8-0.6-1.2-0.8C46.8,131.8,45.7,131.7,44.6,131.8z"/>
	<path class="st0" d="M167,144.6c0.9,0.8,1.7,1.8,2.7,2.5c1.1,0,2.1-0.3,3.2-0.3c1,0.6,0.4,1.9-0.2,2.6c-1.1,1.4-3.4,1.6-4.7,0.4
		c-1.2-1.1-1.6-2.8-1.8-4.4c-0.8,1.1-0.9,2.7-0.2,3.9c1,1.9,3.6,2.8,5.6,1.9c1.1-0.5,2.2-1.5,2.5-2.7c0.3-1.7-0.1-3.6-1.5-4.7
		c-0.8-0.7-1.8-0.8-2.8-1l-0.3,0C168.5,143.4,167.7,143.9,167,144.6z"/>
	<path class="st0" d="M227.4,260.1c1.3,0.2,2.9,0.2,4-0.7c3.5-2.6,5.5-6.5,7.2-10.4c1-2,1.4-4.1,2.1-6.2c0.8-2.2,1-4.6,1.7-6.9
		c0.7-2.3,0.5-4.7,1-6.9c0.8-4.1,0.6-8.2,1.1-12.4c0-6.6,0-13.1,0-19.7c0-2-0.5-4-0.4-6.1c-0.5-5.2-0.7-10.5-1.6-15.7
		c-1.1-5.6-1.7-11.3-3.1-16.8c-0.9-2.7-1.4-5.5-2.6-8c-0.7-1.6-1.4-3.2-2.4-4.7c0.2,1.9,1,3.7,1.2,5.7c0.1,1.9,0.7,3.7,0.9,5.6
		c0.3,4.4,1.5,8.8,1.5,13.2c0,2.4,0.7,4.7,0.7,7.1c0,0.9,0,1.8,0,2.7c-0.1,2.1,0.5,4.3,0.4,6.4c-0.1,1.8-0.1,3.6,0.2,5.3
		c0.4,2.9-0.1,5.9,0.3,8.8c0.5,3.2,0.1,6.4,0.2,9.6c0.1,2.3-0.5,4.5-0.4,6.8c0,1.5,0,3,0,4.5c0.1,2.8-0.4,5.5-0.5,8.2
		c-0.1,2.5-0.8,4.9-1.3,7.3c-0.5,3.8-1.8,7.5-3.4,11c-0.3,0.7-0.9,1.2-1.3,1.8c-1.6,3.3-3.6,6.4-5.7,9.4
		C227.3,259.4,227.3,259.9,227.4,260.1z"/>
	<path class="st0" d="M103.8,158.7c-0.5,1.4,0.7,3,2.1,3.2c1.1,0.1,2.4-0.1,3.3-0.7c0.8-0.5,1-1.6,0.6-2.4c-0.4-0.6-0.9-1-1.4-1.5
		c-0.9-0.1-1.8-0.2-2.7,0C105,157.4,104.2,157.9,103.8,158.7z"/>
	<path class="st0" d="M98.5,179c1,0.4,2-0.5,2.3-1.4c0.3-1.2,0.2-2.5-0.5-3.5c-0.5-0.2-1.1-0.4-1.6-0.1
		C97,174.8,96.6,178.1,98.5,179z"/>
	<path class="st0" d="M60.7,180c0.4-0.6,0.7-1.2,1.1-1.8c-0.6-0.7-1.1-1.6-2.1-1.8c-1.3-0.4-2.6,0.2-3.7,0.9
		c0.2,0.7,0.4,1.4,0.8,2.1C57.6,180.5,59.4,180.8,60.7,180z"/>
	<path class="st0" d="M114.5,201.9c0.9,0.5,2.1,0.4,3.1,0.3c1.3-0.2,2.5-1.4,2.1-2.8c-0.9-1.3-2.8-1.8-4.3-1.3
		c-0.6,0.2-1.3,0.6-1.6,1.2C113.4,200.2,113.6,201.4,114.5,201.9z"/>
	<path class="st0" d="M88.6,214.3c1.6,0.3,2.9-0.9,3.6-2.2c-0.5-1.5-1.7-2.6-2.9-3.5c-0.6-0.5-1.4-0.7-2.2-0.5
		c-1.3,0.3-2.3,1.4-3,2.5C86.1,211.1,86.7,213.5,88.6,214.3z"/>
	<path class="st0" d="M145.3,209.7c-1.6-0.5-3.3,0.1-4.6,1c0,0.7-0.4,1.8,0.5,2.2c1.9,0.9,3.9,0.1,5.8-0.3c0.2,0.4,0.4,0.9,0.6,1.3
		c0-0.9,0-1.8,0-2.7C146.9,210.6,146.3,209.9,145.3,209.7z"/>
	<path class="st0" d="M49.4,232.7c0.4,1.4,1.8,2.5,3.3,2.5c1.4,0,3-0.5,3.6-1.9c0.6-1.5,0.3-3.2,0-4.8c-1.1-1.3-3-0.8-4.4-0.6
		c-0.4,0.5-0.9,0.9-1.4,1.4C49.9,230.3,49.3,231.4,49.4,232.7z"/>
	<path class="st0" d="M103.2,236.9c2-0.4,3.2-2.2,3.7-4c-0.8-1.4-2.8-1.6-4.2-1.1c-1.5,0.5-3.1,1.4-3.7,3
		C100,236,101.5,237.1,103.2,236.9z"/>
	<path class="st0" d="M113.4,249.2c0.5,1.4,2.4,1.7,3.6,1.1c1.3-0.9,2.1-2.6,1.6-4.2c-0.5-1.2-2.1-1.4-3.1-0.9
		C114.1,246,113,247.6,113.4,249.2z"/>
	<path class="st0" d="M158.4,262c0.8,1.9,3.3,2.3,5,1.6c1.4-0.9,1.8-2.6,2.3-4.1c-0.3-1.6-1.4-3-2.4-4.2c-1,0.1-2.2-0.1-3,0.6
		C158.6,257.3,157.6,259.8,158.4,262z"/>
	<path class="st0" d="M175.2,267c0.4-0.7,0.5-1.5,0.7-2.2l-0.1-0.3c-1.2,0.1-2.5,0.3-3.5,1c-0.6,1.1-1.3,2.2-1.3,3.5
		C172.3,268.4,173.9,268,175.2,267z"/>
	<path class="st0" d="M117,266c-0.4,0.3-0.7,0.8-0.9,1.3c0.4,0.8,0.6,2,1.7,2.2c1,0.3,2.4,0.5,3-0.6c0.6-1-0.1-2.2-0.5-3.1l-0.3-0.1
		C118.9,265.8,117.9,265.7,117,266z"/>
	<path class="st0" d="M45.8,267.5c0.8,0.8,1.3,1.8,2.2,2.4c1.7,0.5,3.4-0.5,4.8-1.3c-0.3-0.8-0.8-1.7-1.6-2c-2.3-0.9-5.2-0.6-7,1.1
		c-0.1,0.8-0.5,1.8,0.1,2.4c0-0.7,0.1-1.4,0.2-2.1C44.9,267.7,45.4,267.5,45.8,267.5z"/>
	<path class="st0" d="M213.6,270.2c-1.1-0.2-2.2,0.1-3.2,0.4c-5.1,1.6-10.1,3.5-15.1,5.3c-2.5,0.9-5.1,1.4-7.8,1.5
		c-0.1,1.2-0.1,2.4,0,3.6c1.3,0.3,2.7,0.2,4,0.1c7-0.4,14-2.3,20-6c1.4-1,3.1-1.8,3.9-3.4C214.9,271.1,214.4,270.3,213.6,270.2z"/>
	<path class="st0" d="M88.8,281.7c0.2,1.6,2.2,2.4,3.5,1.6c2-1.3,2.6-4.2,1.3-6.2c-0.4-0.8-1.6-0.9-2.3-0.6
		C89.7,277.6,88.5,279.7,88.8,281.7z"/>
	<path class="st0" d="M114.6,287.9c-0.5,1.3,0.1,2.9,1.3,3.5c1.1,0.3,2.3,0.1,3.5,0c0.8-1.2,0.8-2.9-0.1-4.1
		c-0.8-0.3-1.5-0.7-2.4-0.8C115.9,286.6,115,287.1,114.6,287.9z"/>
	<path class="st0" d="M49,312.5c5.1,0.6,10.3,0.8,15.4,1.1c5.8,0.1,11.6,0.2,17.4,0.7c5.5,0.2,11.1,0.2,16.6,1
		c1.8,0.2,3.6,0.6,5.4,0.3c3.3-0.5,6.6-0.8,10-1c2.8-0.2,5.6-0.1,8.4-0.5l-0.1-0.3c-1.1,0-2.2,0.1-3.3,0.1c-2.7,0.1-5.4-0.2-8,0.2
		c-4.1,0.6-8.3,0.8-12.4,0.2c-1.5-0.2-3,0-4.5-0.1c-4.9-0.6-9.9-0.1-14.8-1c-1.4-0.3-2.9-0.5-4.4-0.5c-3.8,0-7.6,0-11.3,0
		c-1.9,0-3.7-0.3-5.6-0.4c-1.6,0-3.2,0-4.8-0.3c-3.6-0.6-7.3-0.7-10.9-1.5c-2.4-0.8-4.8-1.6-7.3-2c-1.6-0.2-3.3-0.1-4.6,1
		c2.3,0.5,4.5,1.1,6.8,1.5C40.9,311.6,44.9,312.3,49,312.5z"/>
	<path class="st0" d="M161,324.4c1.3-1.7,1.7-4.1,1.1-6.2c-0.3-0.9-0.9-1.8-1.8-2.2c-1-0.3-2.1-0.3-3.1-0.3c-8.8,0-17.6,0-26.4,0
		c-8.1-0.1-16.1,0-24.2-0.1c-1.4,0-2.7,0.2-4.1,0.3c-1.6,0-3.2-0.3-4.9-0.3c-8.3,0.1-16.6,0-24.9,0.1c-9.2,0.1-18.4,0.1-27.5,0.1
		c-1,0-2.1,0-3,0.3c-0.9,0.5-1.4,1.4-1.7,2.3c1.2-0.1,2.4-0.3,3.6,0c3,0.7,6.1,0.8,9,1.5c2.1,0.6,4.4,0.5,6.5,0.9
		c4.7,0.9,9.6,0.7,14.3,1.6c1.8,0.4,3.7,0.2,5.6,0.5c2.9,0.4,5.8-0.1,8.8,0.4c2.6,0.4,5.3,0.2,7.9,0.2c6.2,0.1,12.3,0,18.5,0
		c1.6,0,3.2,0.1,4.8-0.1c2.2-0.3,4.4-0.2,6.6-0.5c6.8-0.6,13.6-1.4,20.4-2.3c1.8-0.2,3.5-0.8,5.3-0.8c1.7,0,3.5-0.1,5.2,0.1
		c0.8,0.3,0.5,1.2,0.5,1.9c-1.6,0.2-3.5,0.2-4.3,1.7c-0.2,1-0.4,2.5,0.7,3c1.4,0.6,2.9,0.6,4.3,0.7C159,326.3,160.2,325.5,161,324.4
		z"/>
	<path class="st1" d="M4,79.7c0.6,2.8-0.9,5.5-1.1,8.3c-0.3,3.3-0.2,6.7,0.7,10c0.8,2.9,2.6,5.7,5.3,7.2c1.4,0.8,3.1,1.1,4.7,0.9
		c1.1-0.2,2.2-0.6,3.2-1c0.1,1.9,0.1,3.7,0.2,5.6c0.2,2.8,0,5.6,0.3,8.3c0.4,3.8,0.2,7.7,0.5,11.5c0.2,2.7,0.1,5.4,0.2,8
		c0.1,5,0.2,10,0.3,15.1c0,13.2,0.1,26.4-0.2,39.6c-0.3,16.5-0.9,32.9-1.5,49.4c-0.4,3.2-0.1,6.4-0.5,9.6c-0.3,5.3-0.3,10.7-0.7,16
		c-0.1,1.8,0,3.6-0.3,5.3c-0.3,1.7-0.2,3.5-0.3,5.2c-0.4,4.6-0.5,9.3-0.7,13.9c-0.3,2.9-0.4,5.9-0.7,8.9c-0.1,3.6-0.3,7.2-0.3,10.8
		c0,2.9,0.1,5.9,1.2,8.7c1,2.6,2.7,5,4.9,6.7c2.8,2.2,6.1,3.7,9.5,4.9c6.7,2.4,13.6,3.7,20.6,4.8c5.5,1,11.1,1.5,16.6,1.9
		c4.6,0.6,9.3,0.8,14,1c2.9,0.3,5.8,0.2,8.7,0.3c9.7,0.3,19.4,0.2,29.1,0c3.5,0,7-0.4,10.6-0.4c2,0,4-0.4,6-0.5c4-0.2,8-0.6,12-1.1
		c4.4-0.7,8.7-1.1,13.1-2c6.9-1.5,13.8-3,20.2-6.2c2.8-1.4,5.4-3.4,7.2-6c2-2.6,2.9-5.8,3-9c0.2-3.6,0.1-7.1-0.2-10.7
		c-0.1-1.9-0.3-3.8-0.1-5.7c1.5-0.5,3-0.6,4.5-1.1c3.3-1.1,6.7-1.9,9.9-3.3c7.9-3,15.5-7,22.2-12.2c9-7,16.3-16.4,20.4-27.1
		c1.3-3.2,2.4-6.6,3.2-10c1-3.1,1.3-6.3,1.8-9.5c0.7-3.5,0.8-7.2,1.2-10.7c0.2-2.3,0.2-4.6,0.3-6.9c0.7-15.4,0.3-30.8-1.5-46.1
		c-0.2-2-0.6-4-0.8-5.9c-0.3-2.5-0.9-5-1.2-7.5c-0.6-3.6-1.5-7.2-2.5-10.7c-1.5-5-3.2-10-5.7-14.6c-3.4-6.6-8.2-12.4-14-16.9
		c-4.6-3.5-9.8-6.3-15.3-8c-4.9-1.5-10-2.3-15.1-2.8c-3.9-0.6-7.9-0.3-11.8-0.6c-0.4-2.1,0-4.2,0.1-6.3c0.2-2.7,0-5.4,0.2-8
		c0.5-3.6,0.2-7.3,0.6-10.9c0.1-4.1,0.3-8.2,0.4-12.3c0-0.6,0.1-1.2,0.3-1.7c1.3-0.3,2.6-0.3,3.8-0.8c2.1-0.9,4.1-2.1,5.6-3.8
		c2.6-2.9,4-6.8,3.9-10.7c0.3-5.3-1.7-10.5-4.8-14.8c-3.1-4.3-7.5-7.7-12.2-10.1c-2.9-1.5-6-2.3-9.2-2.8c-1.9-0.2-3.8-0.3-5.7,0.2
		c-1,0.2-2,0.6-3,0.5c-1-0.6-1.8-1.5-2.8-2.1c-3.1-2-6.7-2.7-10.3-3.2c-3-0.5-6-0.3-9-0.2c-2.3,0.1-4.7-0.6-6.4-2.1
		c-2.3-2-4.8-3.9-7.7-5.2c-3.1-1.4-6.6-1.9-10-1.7c-2.7,0.2-5.4,0.2-8-0.3c-1.9-0.4-3.5-1.6-5.1-2.8c-3.6-2.7-8-4.5-12.5-5.2
		C89.3-0.2,85-0.1,80.8,0.3C75.1,1,69.5,2.6,64.2,4.8c-5.5,2.4-10.8,5.6-14.4,10.4c-1,1.2-1.5,2.7-2.5,3.9c-1.8,0.3-3.6,0.1-5.4,0.4
		c-5.7,0.8-11.4,3.3-15.1,7.7c-0.8,0.9-1.3,2.1-2.2,3.1c-0.7,0.2-1.4,0.3-2.2,0.5c-4.8,1-9,4.7-10.7,9.3c-0.7,1.7-0.6,3.6-1.1,5.4
		C10,46.6,8.8,47.3,7.9,48c-3.3,2.4-5.6,6.1-6.7,10c-1.6,5.3-1.8,11.3,0.4,16.4C2.4,76.2,3.5,77.8,4,79.7z M21.3,124
		c1-0.7,2.4-0.4,3.2,0.5c1.2,1.1,1.4,2.9,1.3,4.5c-0.1,0.6-0.2,1.3-0.6,1.8c-0.8,1.2-2.6,1.3-3.8,0.7c-1.2-0.7-1.6-2.3-1.5-3.6
		C19.7,126.5,20,124.9,21.3,124z M25.4,91.9c0.1-0.9,1.3-1.4,2.1-1c0.2,0.6,0.3,1.3,0.3,2c0.9,1.4,0.7,3.2,1.5,4.6
		c1,1.9,2.3,3.7,4.2,4.8c1.5,0.9,3.1,1.5,4.9,1.6c1.3,0.1,2.6-0.2,3.8-0.2c1.6-0.6,3.2-1.4,4.5-2.4c3.9-2.6,6.3-7.2,6.8-11.8
		c0.2-1.4,0-2.8,0.2-4.2c2.9-0.7,5.9-0.9,8.9-1.2c5-0.6,10-0.8,14.9-1.2c2.2,0,4.4-0.2,6.6,0c1.1,1.3,1.9,2.9,2.5,4.6
		c0.8,3.3,0.2,6.7-0.4,10c-0.8,4.2-0.9,8.7,0.9,12.6c0.6,1.4,1.7,2.6,2.5,3.9c-1.2,1-2.7,1.6-3.8,2.7c-1,0.9-1.9,1.9-3,2.7
		c-0.5,1.1-1.1,2.1-1.8,3.1c-0.9,1.4-1.5,2.9-1.9,4.5c-0.7,2.8-1.3,5.7-1.3,8.6c-0.1,0.8,0.1,1.6-0.3,2.3c-0.1,0.8-0.1,1.7-0.7,2.2
		c-0.5,0.5-1.2,0.7-1.9,0.6c-0.8,0.1-1.3-0.7-1.6-1.3c-0.4-1.2-0.3-2.6-0.2-3.8c0.2-1.4,0.6-2.8,0.3-4.2c-0.3-1.8-0.7-3.5-0.8-5.3
		c-1.2-3.9-2.2-7.9-4.4-11.5c-1.1,0.3-2.1-0.1-2.9-0.9c-0.6-0.9-0.7-2.2-1.7-2.9c-3.7-2.7-8.4-3.7-13-3.6c-3.5,0-7.2,0.9-10,3.2
		c-2.2,1.7-4.3,3.6-5.6,6.1c-1.9,3.6-2,7.8-2.1,11.8c-0.1,5.7-0.1,11.3-0.1,17c0,4,0.2,8,0,12.1c0,6.9-0.1,13.8-0.1,20.7
		c0,2,0.1,4.1-0.1,6.1c0.1,10.8-0.3,21.6-0.4,32.4c-0.3,7.3-0.4,14.6-0.8,21.9c-0.5,5.2-0.3,10.5-0.9,15.7c-0.3,4.8-0.7,9.7-1,14.5
		c-0.3,3.8-0.5,7.6-0.1,11.4c0.7,3.6,1.7,7.4,3.9,10.4c0.7,0.9,1.3,1.9,2.1,2.8c4.4,3.9,10,6.5,15.9,6.7c3.9,0.2,7.8-0.9,11.3-2.7
		c3-1.7,5.7-4.3,7.2-7.4c1-1.8,1.3-3.8,2-5.7c0-0.7,0-1.5,0-2.2c-0.6,1.4-0.8,3-1.5,4.4c-1.5,3.6-3.9,6.9-7.3,9
		c-1.3,0.8-2.5,1.7-4,2c-3,0.5-6.2,0.9-9.2-0.1c-2.2-0.7-4.1-2.2-6-3.4c-1.4-0.9-2.3-2.2-3.3-3.5c-2.9-4-4.2-9.2-3.6-14.1
		c0.8-7.6,1.4-15.2,1.8-22.8c-0.2-2.8,0.6-5.5,0.5-8.3c-0.1-4.8,0.5-9.6,0.4-14.3c0.1-5.6,0.2-11.3,0.4-16.9c0-10.7,0-21.4,0-32.1
		c-0.3-9.5,0-19.1-0.3-28.6c0-3.9-0.3-7.8-0.2-11.7c0-2.9,0.2-5.9-0.3-8.8c-0.4-2.1-1.2-4.2-1.2-6.3c0-2-0.1-3.9,0.1-5.9
		c0.2-2.1,1.9-3.6,2.5-5.6c0.3-0.7,0.4-1.5,0.9-2.1c1.1-1,2.6-1.8,4.2-1.8c1.9,0,3.8,0.2,5.6,0.5c1.4,0,2,1.6,3.2,2
		c2.7,1,5.3,2.3,7.7,4c2,1.5,3.5,3.6,5.3,5.2c2,1.9,3.1,4.5,3.7,7.2c0.6,3.1-0.1,6.2,0.1,9.4c0,1.2,1,2.1,1.5,3.1
		c0.3,1.2,0.1,2.5,0.1,3.7c0,8.7,0,17.3,0,26c0,5.2-0.2,10.3-0.1,15.5c0.1,13.3,0,26.6,0,40c-0.1,11.9,0,23.9-0.1,35.8
		c0,1.1,0,2.2,0.2,3.3c0.1,0.8,0.9,1.5,1.7,1.4c0.7-0.1,1.3-0.3,2-0.5c1.3-2.1,1.2-4.8,1.3-7.2c0.3-3.3,0.2-6.6,0.5-9.8
		c0.1-5.2,0.4-10.3,0.4-15.5c0-3.4,0.2-6.8,0.1-10.2c0-4.3,0.3-8.6,0.1-12.8c-0.2-4.8-0.1-9.6-0.1-14.3c0-2.4-0.1-4.8,0.1-7.2
		c-0.3-0.5-0.3-1-0.3-1.5c0.1-7.4,0-14.8-0.2-22.3c0.1-10.2-0.2-20.4,0.2-30.6c0-5.3,1.4-10.9,4.7-15.1c1.2-1.7,3-2.8,4.5-4.2
		c0.6-0.5,1.3-1.2,2.2-0.9c1,0.6,1.8,1.4,2.7,2.2c0.9,0.9,1.9,1.7,2.3,2.9c0.4,1.3,0.3,2.8,0.8,4.1c0.6,1.5,1.7,2.9,3.3,3.6
		c1.5,0.7,3.2,0.4,4.7,0.4c1-0.9,2.1-1.6,3.3-2.2c0.8-1.4,1.9-2.6,2.7-4c1-1.6,1.6-3.5,2.4-5.2c0.4,0,0.8,0.2,1.1,0.4
		c3.5,2.6,5.8,6.5,7.1,10.6c0.5,2,0.8,4.1,1.1,6.2c0.4,2.6,0.2,5.3,0.2,8c0,11.7,0.4,23.4,0.1,35.1c-0.1,5.5,0,11.1-0.1,16.6
		c0,12.9-0.1,25.9,0.1,38.8c0,1.9,0.1,3.8,0.2,5.8c0.2,2.3-0.1,4.7,0.2,7c0.4,2.9,0.1,5.8,0.4,8.7c0,2.8,0.5,5.5,0.6,8.3
		c0.1,1.5,0.4,3.2,1.4,4.3c1.1,1.2,3.2,0.1,3.4-1.4c0.2-1.7,0-3.5,0.1-5.2c0-26.3,0-52.5,0-78.8c-0.2-4.3-0.1-8.5-0.1-12.8
		c0-2.1-0.3-4.3-0.3-6.4c0-6.4,0-12.8,0-19.2c-0.1-2.1,1.1-3.9,0.9-6c-0.1-2.2-0.2-4.4,0.1-6.6c0.3-2.6,1.6-5,3.1-7.1
		c0.7-1,1.7-1.9,2.6-2.7c1.7-1.5,3-3.5,5-4.8c2.2-1.5,4.8-2.3,7.3-3.2c1-0.3,1.5-1.3,2.4-1.7c2.1-0.3,4.2,0,6.3-0.2
		c-0.4-0.8-1.2-1.3-1.9-1.9c-0.6-0.5-1.1-1.2-1.7-1.7c-3.5-0.4-7.1,0.4-10.4,1.3c-1.7,0.5-3.3,1.3-4.7,2.5c-1.6,1.4-3.2,2.9-4.2,4.8
		c-1.5,2.7-2.9,5.4-3.7,8.3c-0.4,1.6-1,3.1-1.3,4.7c-0.4,3-0.2,6-0.2,9.1c0.1,1.2-0.7,2.4-1.9,2.7c-1,0.3-1.7-0.6-2-1.5
		c-0.7-2.3-0.1-4.7-0.6-7c-0.3-1.7-0.7-3.5-1.2-5.2c-0.5-1.7-1.5-3.2-1.9-4.9c-1.3-1.2-2.1-2.9-3.5-4.1c-1-0.9-2.2-1.6-3.1-2.6
		c-0.2-0.6,0.2-1.1,0.5-1.6c0.8-1.7,2-3.4,3.8-4.4c1.6-1,3.6-1,5.3-1.5c1.7-0.5,3.4-1.1,5-1.8c5.7-2.9,9.8-9,9.8-15.4
		c-0.1-2.8-0.3-5.7,0.3-8.4c1.3-0.4,2.6-0.1,3.9,0.1c1.9,0.2,3.7,0.2,5.6,0.2c1.7,0,3.4,0.3,5.1,0.4c3.9,0.3,7.9,0.2,11.8,0.8
		c3.3,0.3,6.7,0.4,9.9,1.2c1.1,0,2.2,0.1,3.3,0.3c0.4,0.9,0.1,1.9,0,2.8c-0.4,2.9-0.1,5.8-0.4,8.7c-0.3,3.3-0.1,6.5-0.3,9.8
		c-0.4,4.4-0.1,8.8-0.3,13.2c-0.3,6.1,0,12.3-0.4,18.5c-0.2,4.3-0.1,8.6-0.2,12.8c-0.3,6.4-0.2,12.9-0.4,19.3c0.1,2.2,0,4.5,0.1,6.7
		c0,11.7-0.1,23.5,0.3,35.2c0.1,4.4,0,8.7,0.2,13.1c0.3,5.2,0,10.5,0.2,15.8c0.6,3.4,0,6.9,0.6,10.3c0.2,2.3,0.6,4.7,0.4,7.1
		c0.5,2.1,0.5,4.3,0.5,6.5c0,2.2,0.2,4.4,0.3,6.6c0.1,3.6,0.6,7.2,0.2,10.8l-0.4-0.1c-0.4-2.5,0.1-5.1-0.7-7.6c0,3.8,0.1,7.6,0,11.4
		c-0.1,2.9-1.3,5.9-3.4,7.9c-2,1.9-4.4,3.6-7,4.7c-1.6,0.7-3.2,1.5-5,1.8c-1.8,0.6-3.7,0.8-5.6,1.2c-0.7,0.1-1.4,0.3-2.1,0
		c-2.7,1-5.6,0.8-8.4,0.7l-0.4,0c0.5,0.2,1,0.6,1.7,0.5c1.9,0,3.8,0,5.7,0c4.8-0.3,9.4-1.6,13.9-3.4c3.2-1.3,6.2-3.2,8.8-5.5
		c1.3-1.2,2.1-2.9,2.6-4.6c0.6-2.1,0.1-4.3,0.4-6.5l0.4,0.2c0.6,3.7,0.4,7.8-1.7,11c-1.9,2.7-5,4.4-8,5.7c-7.3,3-15.2,4.2-23,5.4
		c-1.4,0.2-2.8,0.7-4.2,0.8c-2.6,0.3-5.2,0.5-7.8,0.9c-5.1,0.5-10.1,0.8-15.2,1.1c-2.9,0.4-5.8,0.2-8.7,0.2
		c-3.8,0.1-7.5,0.2-11.3,0.2c-4.7,0-9.3-0.2-14-0.2c-2,0-4-0.4-6-0.4c-2.7,0-5.4-0.4-8.1-0.5c-3.6-0.6-7.3-0.5-10.9-1.1
		c-2.7-0.5-5.5-0.5-8.2-1.1c-6.5-1.3-13.2-2.3-19.4-4.8c-2.5-0.9-5-2.2-7.1-3.9c-1.7-1.4-3-3.4-3.4-5.6c-0.8-4.1,0.2-8.2,0.1-12.2
		c0-2.8,0.3-5.5,0.2-8.3c0.1-0.5-0.2-1.2,0.3-1.5c0.6-13.4,1.2-26.9,1.5-40.3c0-1.3-0.2-2.6,0.3-3.8l0-0.3c-0.2-1.3-0.2-2.5-0.2-3.8
		c0.1-6.2,0.3-12.3,0.3-18.5c0.2-6.4,0.2-12.8,0-19.2c0-6.3,0-12.6-0.1-18.9c0-1.3-0.2-2.7,0.1-4c-0.2-1.2-0.3-2.4-0.2-3.5
		c-0.1-7.6-0.3-15.2-0.5-22.8c1-1,2.6-1.7,2.9-3.3c0.7-2.6-0.4-5.3-1.9-7.4c-0.7-0.9-1.8-1.4-2.6-2.2c-0.5-0.8-0.6-1.7-0.5-2.6
		c-0.6-1.7-0.5-3.6-0.6-5.5c0-2.2-0.1-4.4-0.4-6.6c-0.1-1.3-0.4-2.7,0.2-4c1.4-1.6,2.9-3.3,3.6-5.4C25.5,95.2,25.2,93.5,25.4,91.9z
		 M149.7,74.7c0.4-1.2,1.4-2.1,2.3-3c3-2.7,6.2-5,9.7-6.9c3-1.5,5.9-3.2,9.2-4c1.5-0.3,2.9,0.5,4.3,1.1c1.5,0.7,3.1,1.1,4.4,2
		c0.2,1.9-0.1,3.9-0.2,5.8c-0.2,2.5-0.1,5-0.2,7.5c-1.1,0.1-2.2-0.1-3.2-0.2c-6.2-0.8-12.3-1.2-18.5-1.8
		C154.9,75.1,152.2,75.5,149.7,74.7z M175.8,323c-2.3,1.9-5.1,3.2-7.9,4.1c-3.8,1.4-7.7,2.1-11.6,3c-2.9,0.6-5.9,1.1-8.9,1.4
		c-2.1,0.3-4.3,0.6-6.5,0.7c-3.5,0.4-7,0.8-10.5,1c-2.5-0.1-5.1,0.2-7.6,0.3c-5.6,0.1-11.3,0.5-16.9,0.4c-7.2,0-14.3,0-21.5-0.3
		c-2.9-0.1-5.8,0.1-8.7-0.3c-4.1-0.4-8.2-0.8-12.3-1c-2.8-0.3-5.6-0.6-8.4-1c-2.6-0.2-5.2-0.9-7.8-1.2c-2.7-0.4-5.3-1.1-8-1.8
		c-3.9-0.9-7.9-2.3-11.3-4.6c-2.6-2-5-4.6-6.1-7.8c-1.2-4-1.1-8.3-1-12.5c0.2-1.9,0.4-3.7,0.3-5.6c1.5,1,2.8,2.2,4.3,3
		c6.2,3.4,13.2,5,20.1,6.7c1.5,0.3,3,0.5,4.4,0.9c3.7,0.9,7.5,1.3,11.2,1.7c8.3,1.3,16.6,1.8,25,2.1c7.4,0.3,14.8,0.6,22.3,0.2
		c8.3-0.3,16.7-0.4,24.9-1.7c5.6-0.3,11.2-1.1,16.8-2.2c2.6-0.3,5.2-0.7,7.7-1.4c4.5-0.9,8.9-2.3,13.3-3.8c3.6-1.3,7.2-3,9.9-5.8
		l0.2-0.2c0.5,4.3,0.3,8.7,0.4,13.1C181.8,315.5,179.4,320.1,175.8,323z M186.6,257.6c-0.5-7.5-0.8-15-1-22.5
		c-0.5-4.4-0.1-8.9-0.5-13.3c-0.3-4.8-0.2-9.7-0.5-14.5c-0.2-2.9-0.1-5.9-0.1-8.9c-0.4-12.9-0.4-25.9-0.5-38.8
		c-0.1-8.3,0.1-16.5,0.2-24.8c3.6,0.4,7.1,0.4,10.7,1.1c4.6,0.5,9.2,1.9,13.2,4.1c4.5,2.4,8,6.3,10.4,10.7c2.8,5.6,3.6,11.8,4.2,18
		c0.8,5.2,0.9,10.5,1.3,15.8c0.3,3.1,0.1,6.3,0.4,9.4c0.3,7,0.2,13.9,0.1,20.9c-0.6,5.2-0.3,10.5-1.1,15.7c-0.5,5.6-1.8,11.1-4.5,16
		c-2.4,4.5-5.9,8.3-10.2,11c-4.5,2.9-9.8,4.2-15,5.3c-2.2,0.3-4.4,1-6.7,0.9C186.5,261.7,186.8,259.6,186.6,257.6z M189.2,110.7
		c2,0,4-0.1,6,0.3c3.2,0.7,6.4,0.6,9.5,1.4c6.9,1.3,13.5,4.2,19.1,8.4c2.6,1.8,4.9,4.2,7.1,6.5c2.5,2.9,4.5,6.2,6.1,9.7
		c1.4,2.6,2.2,5.4,3.1,8.2c1.1,3.5,1.7,7.1,2.5,10.7c0.6,3.4,1.3,6.9,1.7,10.3c0.5,2.7,0.5,5.4,1,8.1c0.5,3.3,0.6,6.6,1,9.8
		c0.2,1.9,0.1,3.7,0.1,5.6c0.8,10,0.3,20.1,0.3,30.2c0,2.1-0.4,4.3-0.4,6.4c0,1.4-0.2,2.9-0.4,4.3c-0.5,2.8-0.5,5.7-1.1,8.5
		c-0.9,3.8-1.8,7.7-3.3,11.4c-0.8,1.9-1.5,3.9-2.5,5.7c-4.2,7.9-10.6,14.4-18,19.2c-2.9,1.9-5.9,3.8-9.1,5.3
		c-7.6,4-15.9,6.8-24.2,8.8c0.1-0.4,0.2-0.7,0.3-1c1.8-0.6,3.7-1,5.4-1.7c4.5-1.7,9-3.5,13.3-5.6c2.6-1.4,5.4-2.8,7.4-5.1
		c1-1.1,2.1-2.6,1.9-4.2c-0.1-0.1-0.4-0.2-0.6-0.3c-0.8,1.6-2.5,2.4-3.9,3.4c-6,3.6-13,5.6-20,6c-1.3,0.1-2.7,0.1-4-0.1
		c-0.1-1.2-0.1-2.4,0-3.6c0-2.3-0.4-4.7-0.1-7c4.5-0.4,9-1,13.3-2.2c6.2-1.5,12.4-3.5,17.5-7.4c4.6-3.4,7.7-8.4,9.8-13.6
		c2.8-7.6,3.4-15.8,3.6-23.8c0.2-3.2,0.2-6.5,0.2-9.7c0-2.5,0.1-5-0.1-7.5c-0.2-2.4-0.2-4.8-0.2-7.2c0-2.3-0.5-4.5-0.4-6.8
		c0-2.5-0.1-5-0.5-7.5c-0.3-2-0.2-4.1-0.4-6.1c-0.3-2.5-0.8-5-1-7.5c-0.3-4.5-1.4-8.9-2.2-13.4c-1.7-6.8-4.3-13.6-9-19
		c-2.9-3.5-7-5.8-11.3-7.2c-3.8-1.3-7.8-1.8-11.7-2.5c-3.6-0.5-7.1-0.7-10.7-0.7c-0.1-0.9-0.1-1.9,0-2.8c2.3-0.4,4.7-0.1,7,0
		c1.9,0.1,3.9-0.1,5.8,0.3c2.2,0.4,4.5,0.5,6.7,1.1c4.2,0.7,8.3,1.8,12.2,3.3c1.3,0.6,2.6,1.2,4,1.6c-3.4-3.4-7.8-5.7-12.4-6.9
		c-2.1-0.5-4.1-1.2-6.3-1.5c-3-0.5-5.9-1-8.9-1.3c-2.7-0.3-5.5-0.2-8.2-0.6c-0.1-1.6-0.1-3.2,0.2-4.8c0.1-1.9,0-3.9,0.2-5.8
		C186.3,110.5,187.7,110.7,189.2,110.7z M5.9,62.4c0.8-1.8-0.3-4,0.9-5.7c0.6-1.1,2.1-1.3,3.2-1.1c1.6,0.3,2.8,1.9,2.5,3.5
		c0.1,0,0.4-0.1,0.6-0.2c0-0.9-0.2-1.8-0.1-2.6c-0.7-0.6-1.3-1.5-2.2-1.8c-0.9-0.1-1.8,0.1-2.7,0.1c0.6-1.8,2.2-2.9,3.8-3.6
		c1.5-0.6,2-2.3,2.2-3.8c0.5-2.9,0.8-5.9,2.6-8.4c2.3-3.2,6.4-4.7,10.3-4.5c3.6,0,7.2,1.5,9.6,4.1c1.3,1.5,2.3,3.3,3,5.2
		c0.1,0.1,0.4,0.2,0.5,0.2c-0.5-2.4-1.4-4.8-2.9-6.7c-1-1.3-2.4-2.1-3.5-3.3c-0.5,0-1-0.2-1.4-0.4c-1.1-0.5-2.3-0.8-3.4-1.2
		c1.1-2.7,3.5-4.5,6.1-5.7c2.6-1.3,5.4-2.4,8.4-2.4c4.3-0.3,8.8,1.5,11.5,4.9c1,1.3,2.1,2.8,2.2,4.6c0.1,0,0.4,0.1,0.5,0.1
		c-0.1-2.3-1.3-4.3-2.1-6.4c-1-1-2-2-3.1-2.9c-0.3-0.3-0.8-0.5-0.9-0.9c0.9-3.3,3-6.1,5.7-8.1c2.4-2,5.3-3.3,8-4.8
		c4.1-2,8.4-3.5,12.7-4.5c2.9-0.7,5.9-0.8,8.9-1c6-0.2,12.2,1.1,17.1,4.7c1.5,1.2,3,2.4,4.2,4c1.4-0.3,2.9,0.1,4.3,0.4
		c-1.6,1.6-3.2,3.3-3.8,5.5c-0.8,2.5-0.2,5.1,0.3,7.6c0.2-0.3,0.5-0.6,0.7-0.9c-1.3-2.8-0.6-6.2,1.4-8.5c2-2.5,5.1-3.9,8.2-4.1
		c4-0.2,8.1,0.7,11.4,2.9c2.1,1.3,4,3,5.6,5c0.9,1.1,1.5,2.3,2.5,3.3c0.8-0.7,1.6-1.6,2.6-1.9c2.8-1.2,5.8-1.1,8.8-0.8
		c1.2,0.1,2.3,0.6,3.5,0.9c1.5,0.4,3.2,0.4,4.7,1c1.6,0.6,3.1,1.4,4.5,2.4c0.9,0.6,1.4,1.6,2.2,2.3c1.2-0.4,2.3-1.1,3.6-1.3
		c2.5-0.4,5.1-0.2,7.6,0.6c2.9,0.9,5.7,2.2,8.2,3.9c3,2,5.6,4.5,7.6,7.5c2.5,4,3.3,9.1,1.5,13.6c-0.9,2.3-2.7,4.2-4.8,5.3
		c-2.1,1-4.5,1-6.8,0.8c-4-0.7-7.3-3.3-11.1-4.5c-3.4-1.1-7.1-0.8-10.3,0.8c-2,0.9-3.6,2.4-5.5,3.6c-2.6,1.7-5.3,2.9-8,4.4
		c-3.2,1.5-6.2,3.6-8.2,6.6c-1.7,2.6-2.8,5.5-3.7,8.4c-0.7,2.7-1.5,5.5-1.5,8.3c0,1.4,0.5,2.7,0.7,4.1c0.2,1.4-0.1,2.9-0.7,4.3
		c-2.3,4.5-6.7,7.8-11.6,9c-2.5,0.6-5.2,1.2-7.1,3.2c-2.6,2.8-3.9,6.5-5.6,9.9c-1.1,2.2-1.9,4.7-3.7,6.4c-1.1,1.1-2.8,1.5-4.3,1
		c-1.4-1.7-1.2-4.2-2.1-6.2c-1.1-2.6-3.6-4.2-5.4-6.3c-1.9-2-3.4-4.5-3.5-7.3c-0.1-2.2,0.1-4.5,1-6.5c1.1-2.3,2.4-4.5,3.1-7
		c0.3-1.4,0.5-3.1-0.4-4.3c-1.1-1.6-2.7-2.8-4-4.3c-1.8-2.1-3-4.6-4.2-7c-1.4-2.7-4.2-4.7-7.2-5.2c-2.4-0.4-4.9-0.2-7.1,0.7
		c-2.9,1.2-5.6,3.1-8.4,4.4c-2.9,1.5-6,2.6-9.3,2.3c-2.2-0.3-3.9-1.9-4.9-3.8c-0.7-1.2-0.9-2.6-1.4-3.8c-0.1-0.1-0.3-0.2-0.4-0.2
		c-0.1,2,0.1,4,0.7,5.9c1.2,3.5,2.3,7.2,2.1,11c-0.1,4.2-1.8,8.6-5.3,11.2c-2.4,1.9-6.2,2.1-8.7,0.2c-2-1.6-3.2-4.1-3.6-6.6
		c-0.7-3.1-0.7-6.3-1.3-9.5c-0.3-2-0.5-4-1-5.9c-0.2-0.6-0.7-0.9-1-1.3c-0.1,0.1-0.3,0.3-0.4,0.3c-0.4,1.5-1.9,2.7-3.5,2.7
		c-1.4-0.1-2.5-1.3-2.7-2.7c-0.6-1.2-0.2-2.6-0.1-3.9c-0.3,1-0.8,2-0.8,3c-0.2,2.9,0.3,5.8,0.4,8.7c0.1,2.9,0.4,5.8,0.4,8.6
		c0,1,0.1,2-0.3,2.9c-1.3,2.8-3.3,5.3-5.9,6.9c-1.6,0.7-3.5,0.4-4.9-0.7c-2.2-1.7-3.3-4.6-3.6-7.3c-0.2-2.4-0.4-4.8,0.5-7.1
		c1.2-2.9,1.6-6.1,0.8-9.2c-0.8-2.8-2.5-5.1-3.2-7.9C5,67,5,64.6,5.9,62.4z"/>
	<path class="st1" d="M154,24.4c-1.5-0.3-2.7,0.7-3.7,1.5c0.1,0.4,0.2,0.7,0.3,1.1c0.6-0.7,1.2-1.5,2.2-1.5c1.4-0.3,2.8,0.6,3.3,1.9
		c0.4,1-0.2,1.9-0.4,2.8c0.4,0.6,1.1,0,1.4-0.5c0.3-0.9,0.2-1.9,0.3-2.9C156.4,25.7,155.5,24.5,154,24.4z"/>
	<path class="st1" d="M114.3,40.2c3.5-1.3,7.3-1.7,10.9-0.9c3.3,0.8,6.4,2.4,8.7,4.8c0.4,0.4,0.9,0.8,1.4,1.1c-0.5-1.1-1.2-2-2-2.8
		c-3.2-3.3-7.7-5.5-12.3-5.4c-3.4-0.1-6.7,1.2-9.6,2.9c-3.2,2.2-5.9,5.4-7,9.2c0.3-0.4,0.7-0.8,1-1.2
		C107.5,44.5,110.6,41.7,114.3,40.2z"/>
	<path class="st1" d="M80.7,46.9c1.4,0.2,3.1-0.5,4.2,0.6c0.9,0.6,1,1.7,1.1,2.6l0,0.4c1.3-1.3,0.4-3.7-1.1-4.5
		C83.5,45.4,81.4,45.4,80.7,46.9z"/>
	<path class="st1" d="M27.4,47.5c0.9,0.1,1.8,0.7,2.1,1.5c0.2,0.6,0.3,1.3,0.4,2c0.8-1.3,0-2.9-0.9-3.9c-0.8-0.9-2.1-1.2-3.3-0.8
		c-0.7,0.3-1,1-1.4,1.6C25.4,47.7,26.4,47.5,27.4,47.5z"/>
	<path class="st1" d="M180.5,50.3c1.1,0.1,1.8,1,2.5,1.7c0.1,0.1,0.4,0.4,0.6,0.5c0-0.7,0.1-1.6-0.4-2.2c-1.3-1.6-3.6-2.1-5.5-1.5
		c-1.1,0.4-1.6,1.5-1.6,2.6c0.1,0,0.4-0.2,0.6-0.2C177.8,50.6,179.1,49.8,180.5,50.3z"/>
	<path class="st1" d="M23.9,55.9c1.1-0.1,2.1-0.2,3.2-0.5c0.2-0.1,0.5-0.3,0.6-0.4c-1.4-0.7-3.3,0.4-4.6-0.7c-1.3-1-1.1-2.9-1-4.3
		C20.2,51.8,21.5,55.2,23.9,55.9z"/>
	<path class="st1" d="M76.9,53.9c-0.4-1.2-0.3-2.4-0.2-3.6c-1.8,1.8-1.2,5.5,1.4,6.3c1.4,0.2,3.3,0.1,4.1-1.3
		c-0.8,0.2-1.6,0.4-2.4,0.4C78.6,55.8,77.3,55.1,76.9,53.9z"/>
	<path class="st1" d="M56.5,57.4c2.4,1.3,5.4-0.7,5.9-3.1c0.3-1-0.2-2.3-1.2-2.7c-0.9-0.3-1.8-0.2-2.7,0c-1.5,0.6-3,1.9-2.9,3.6
		C55.6,56,55.7,57,56.5,57.4z M58.9,52.3c0.9-0.4,2.1-0.1,2.7,0.7c0.3,1.5-0.9,2.9-2.1,3.6c-0.9,0.6-2.7,0.8-3-0.6
		C56.1,54.5,57.5,52.9,58.9,52.3z"/>
	<path class="st1" d="M122.3,64.8c-1.6-0.5-3.1,0.4-4.1,1.6c1.1-0.5,2.2-1.1,3.4-0.7c0.7,0.2,1.4,0.8,1.2,1.5
		c-0.4,1.4-1.8,2.6-3.3,2.2c-1-0.2-1.4-1.2-1.8-2l-0.2-0.3c0,0.6,0,1.2,0.1,1.8c0.3,0.9,1.2,1.5,2.1,1.6c1.4,0.2,2.9-0.7,3.5-2
		C123.9,67.2,123.7,65.4,122.3,64.8z"/>
	<path class="st1" d="M40.6,87.1c1,0,1.5-1,2-1.6c-0.2,0.1-0.6,0.2-0.8,0.2c-0.7,0.2-1.5,0.3-2-0.2c-0.5-0.7-0.6-1.6-0.8-2.5
		c-0.4,0.3-1,0.6-0.9,1.2C37.8,85.7,39.1,87.2,40.6,87.1z"/>
	<path class="st1" d="M72.5,93.4c1.7,0.8,2.6,2.9,2.2,4.7c-0.5,1.8-2.4,2.9-4.2,2.7c-1.3-0.2-2.7-1-3.1-2.4c-0.3-1.1,0-2.3,0.3-3.4
		c-0.5,1-1.2,2-1.4,3.2c0,0.8,0.4,1.6,0.7,2.3c0.7,0.6,1.4,1.1,2.3,1.5c1.3,0.1,2.7,0.1,4-0.3c1-0.4,1.9-1.2,2.5-2
		c0.4-1.1,0.7-2.3,0.4-3.5c-0.5-2.1-2.3-3.6-4.3-4c-1.1-0.2-2.1,0.5-2.8,1.3C70.2,93.2,71.4,92.8,72.5,93.4z"/>
	<path class="st1" d="M32.9,108.9c1.4-1.4,1.3-4.1-0.5-5.2c-1.5-0.8-3.5-0.9-4.9,0.2c-0.8,0.6-1.4,1.4-1.9,2.2c-0.2,1-0.1,2,0,3
		C27.7,110.9,31.1,110.9,32.9,108.9z M28,109.3c-0.9-0.3-1.4-1.3-1.8-2.1c0-2.6,3.2-4.2,5.4-3.1c1.1,0.4,1.8,1.5,1.6,2.7
		C32.6,108.9,30,109.8,28,109.3z"/>
	<path class="st1" d="M139.5,297.2c5.6,2.9,12.5,3.3,18.4,1.2c4.1-1.3,8-3.8,10.3-7.5c0.8-1.2,1.6-2.4,2.4-3.6
		c1.3-3.5,1.9-7.1,2-10.8c0.1-1.4-0.1-2.8,0.2-4.2c1-0.5,2.2-0.8,2.9-1.7c0.7-0.8,0.9-1.8,0.9-2.8c-0.6,1-1.2,2-2.1,2.7
		c-0.9,0.7-2.2,0.6-3.2,0.1c-0.3-0.5-0.4-1.1-0.4-1.6c0-1.3,0.7-2.4,1.3-3.5c0-6-1-12-0.9-18c0.1-2.4-0.5-4.8-0.7-7.2
		c-0.7-14.9-0.9-29.9-1.3-44.8c0-14-0.1-28.1,0-42.1c0.2,0,0.6,0,0.9,0c0.1,1.3,0.1,2.7,0.1,4c0,7.9,0.1,15.8,0.3,23.7
		c-0.1,6,0.2,12.1,0.3,18.1c0.1,3.9,0.2,7.8,0.4,11.7c0.1,2.8-0.1,5.7,0.2,8.5c0.3,3.1,0.2,6.2,0.7,9.3c0.4,2.8,0,5.8,0.7,8.6
		c0.3-4.4-0.5-8.8-0.4-13.2c-0.2-11.2-0.7-22.4-0.7-33.6c-0.1-3.4,0.1-6.8-0.2-10.3c-0.1-1.4-0.2-2.7-0.2-4.1c0-6,0-12.1,0-18.1
		c0-1.5-0.1-3,0.2-4.4c0.9-1.1,2.3-1.6,3.4-2.4c0.4-1,0.8-2.1,0.7-3.3c-0.1-1.3-0.7-2.5-1.4-3.5c-1-0.7-2-1.3-2.8-2.1
		c-0.2-0.5-0.2-1-0.2-1.6c0-6.2,0.1-12.4-0.2-18.5c-0.1-2.4-0.9-4.7-1.9-6.8c0.1,0.8,0.2,1.7,0.3,2.6c0.4,1.8,0.7,3.6,0.7,5.4
		c0,4.4,0,8.8,0,13.2c0,2.1,0.3,4.3-0.4,6.3c1,0.2,2,0.3,2.8,1c1.3,1.1,1.8,3,1.5,4.7c-0.3,1.3-1.3,2.2-2.5,2.7
		c-2,0.9-4.5,0-5.6-1.9c-0.6-1.2-0.5-2.7,0.2-3.9c0.2-0.3,0.5-0.6,0.8-0.9c0.7-0.7,1.6-1.2,2.4-1.7c0-6.1-0.2-12.3-0.2-18.4
		c0-2-0.3-4-0.7-5.9c-1.3-2.2-2.2-4.9-4.5-6.2c-0.4,5.9,0.5,11.9-1,17.6c-0.5,1.9-0.7,3.9-0.7,5.9c0,7-0.2,14-0.3,21
		c-0.2,8.7-0.1,17.3-0.3,26c0,7.4,0,14.8,0.1,22.2c0.1,10.7,0.1,21.4,0.1,32.1c0,1.6,0.4,3.2,0.5,4.8c0.2,2.4,0.1,4.8,0.3,7.2
		c0.1,1.7,0.2,3.5,0.1,5.2c0.1,0.2,0.4,0.5,0.5,0.7c1,1.2,2.1,2.6,2.4,4.2c0.4,1.7,0.3,3.7-1,4.9c-2.2,2.2-6.5,1-7.4-1.9
		c-0.7-2.3,0.2-4.7,1.7-6.5c0.6-0.8,1.6-1.2,2.5-1.5c-0.8,0-1.7,0-2.4,0.5c-1.7,1.3-2.5,3.4-3.5,5.2c0,1.3,0,2.5,0.3,3.8
		c0.4,1.2,1.5,2.1,2.6,2.7c1.7,0.8,3.6,0.4,5.4,0.6c0.5,2.3,0.7,4.6,0.9,6.9c0.2,3.1,0.5,6.3-0.5,9.3c-0.8,2.5-1.9,4.9-3.5,7
		c-2.4,3.2-5.8,5.4-9.6,6.6c-5.4,1.3-11.5-0.4-15.4-4.5c-1.3-1.4-2.4-2.9-3.3-4.6c-1.2-2.3-1.7-4.9-2.6-7.3
		c-0.1,0.2-0.2,0.6-0.3,0.8c0.8,3.1,1.4,6.3,3,9C134.1,293.4,136.7,295.6,139.5,297.2z"/>
	<path class="st1" d="M30.4,199.2c0,6.7-0.4,13.3-0.4,20c-0.2,6.7-0.4,13.3-0.5,20c0.4-0.9,0.3-2,0.4-2.9c0.2-3.4,0.4-6.9,0.6-10.3
		c0.2-3.5,0.1-7.1,0.4-10.6c0.4-8.5,0.6-17.1,0.7-25.6c0.3-9.9,0.2-19.9,0.2-29.8c0-1.7,0.1-3.4,0.2-5c-0.2-2.6-0.1-5.2-0.1-7.8
		c0-6,0.1-12.1,0-18.1c0-1.8,0.2-3.5,0.3-5.3c0.1-2,0.1-4,0.3-6c-0.1,0.2-0.2,0.6-0.3,0.8c-0.8,2.5-1,5.2-1.3,7.8
		c0.2,4.1,0.1,8.1,0.1,12.2c0,1.5-0.1,3-0.2,4.4c0,9.7-0.1,19.4-0.1,29.1C30.5,181.1,30.7,190.1,30.4,199.2z"/>
	<path class="st1" d="M144.7,133c2,0.1,3.8-0.8,5.4-1.8c0.4-0.8,0.8-1.6,1-2.5c0-0.8-0.1-1.5-0.2-2.2c-0.5-0.6-1-1.1-1.6-1.7
		c-1.6-0.8-3.5-1.4-5.3-0.9c-1.8,0.5-3.8,1.5-4.3,3.4c-0.4,1.2,0,2.5,0.4,3.7C141.4,132.1,143,133,144.7,133z M142.5,126.1
		c2.1-1.8,5.4-1.4,7.3,0.5c0.2,0.4,0.3,0.8,0.3,1.3l0.3,0c-0.2,1.8-1.9,3.3-3.7,3.3c-1.5,0.3-3.3,0.2-4.5-0.8
		C140.9,129.4,141.1,127,142.5,126.1z"/>
	<path class="st1" d="M49.1,132.7c-0.2,0-0.6-0.1-0.8-0.1c-0.1,0.8,0,1.6-0.1,2.4c-0.2,0.7-0.9,1-1.5,1.2c-1,0.3-2.1,0.3-3.1-0.1
		c-0.9-0.4-1.3-1.5-1.1-2.4c0.2-1,1.2-1.8,2.2-1.8c1.1-0.1,2.2,0,3.3,0.1c-1.3-0.5-2.7-0.5-4.1-0.5c-0.8,0.5-1.5,1-2.1,1.8
		c-0.8,1-0.8,2.5,0.1,3.4c0.7,0.7,1.7,1.1,2.6,1.1c1.4-0.2,3-0.4,4.1-1.5C49.4,135.2,49.3,133.8,49.1,132.7z"/>
	<path class="st1" d="M105.5,163.1c2,0.3,4.4-0.5,5.2-2.5c0.6-1.5-0.5-3.3-2.1-3.6l-0.2,0.2c0.5,0.5,1,0.9,1.4,1.5
		c0.3,0.8,0.2,1.9-0.6,2.4c-1,0.6-2.2,0.9-3.3,0.7c-1.4-0.2-2.6-1.7-2.1-3.2c0.4-0.8,1.2-1.3,2-1.5c0.8-0.2,1.6-0.3,2.4-0.4
		c-1.5-0.4-3.2,0.1-4.5,1c-0.5,0.4-1.1,0.8-1.1,1.5C102.2,161.1,103.7,163,105.5,163.1z"/>
	<path class="st1" d="M237.6,231.7c0.4-3.9,0.3-7.9,0.6-11.8c0.2-6.9,0-13.9-0.6-20.8c-0.6-5.2-0.8-10.4-1.5-15.6
		c-0.2-1.8-0.6-3.7-0.9-5.5c-0.6-5.1-1.5-10.2-2.1-15.3c-0.2-1.3-0.3-2.7-0.8-3.9c0.1,1.8,0.4,3.5,0.4,5.3c0,1.7,0,3.3,0.2,5
		c0.7,6.1,0.4,12.3,0.9,18.4c0.2,10.9,0.2,21.8-0.2,32.8c-0.4,8.7-1.3,17.4-3.4,25.9c-0.7,2.9-1.3,5.8-2.3,8.6
		c-0.6,1.7-1.3,3.3-1.7,5.1c0.4-0.2,0.8-0.4,1.1-0.7c2.2-3,4.1-6.1,5.7-9.4c1.1-3.6,2.6-7.1,3.3-10.8
		C236.7,236.6,237.2,234.2,237.6,231.7z"/>
	<path class="st1" d="M98.4,180.1c0.9,0.1,1.7-0.3,2.6-0.5c0.6-1.2,1.2-2.7,0.8-4.1c-0.3-0.9-0.7-1.8-1.4-2.5
		c-0.7-0.2-1.7-0.2-2.2,0.4c-0.7,0.7-1.4,1.4-1.8,2.3c-0.3,1-0.2,2.2,0.1,3.2C97,179.3,97.6,179.9,98.4,180.1z M98.8,173.9
		c0.5-0.2,1.1,0,1.6,0.1c0.6,1,0.8,2.4,0.5,3.5c-0.3,0.9-1.3,1.8-2.3,1.4C96.6,178.1,97,174.8,98.8,173.9z"/>
	<path class="st1" d="M60.8,183.9c0.8-0.9,0.8-2.1,1-3.2c-0.6,1.2-1.3,2.5-2.4,3.3c-1.4,1.1-3.7,0.9-4.9-0.5c-0.9-1-1-2.5-0.7-3.8
		c0.2-1.1,1.3-1.8,2.2-2.4c1.1-0.7,2.4-1.3,3.7-0.9c1,0.2,1.5,1.1,2.1,1.8l0.1-0.3c-0.4-1.1-1.2-2.3-2.6-2.4c-1.2,0-2.4,0.3-3.5,0.7
		c-2.1,1.8-3.7,4.8-2.6,7.5c0.9,0.7,1.8,1.5,3,1.7C57.8,185.6,59.7,185.2,60.8,183.9z"/>
	<path class="st1" d="M113.7,203.1c1.3,0.2,2.6,0.4,3.9,0.3c1.3-0.1,2.6-1,3.1-2.3c0.3-0.8,0.2-1.8-0.5-2.4
		c-0.8-0.7-1.8-1.1-2.8-1.5c-1.6,0.2-3.3,0.4-4.5,1.5C112.1,200.1,112.4,202.1,113.7,203.1z M113.8,199.3c0.4-0.6,1-1,1.6-1.2
		c1.5-0.5,3.4-0.1,4.3,1.3c0.4,1.4-0.9,2.6-2.1,2.8c-1,0.1-2.1,0.2-3.1-0.3C113.6,201.4,113.4,200.2,113.8,199.3z"/>
	<path class="st1" d="M88.5,218.8c2-0.1,4.1-1.6,4.3-3.7c0.2-1.8,0-3.9-1.3-5.3c-1.1-1.2-2.4-2.5-4.2-2.6c-1.4-0.1-2.7,0.7-3.9,1.4
		c-0.9,1.4-2,2.9-2,4.6c-0.1,1.6,0.9,2.9,1.7,4.2C84.8,218.2,86.6,219,88.5,218.8z M83.8,214.5c-0.3-1.3-0.4-2.7,0.2-3.9
		c0.8-1.1,1.7-2.1,3-2.5c0.8-0.2,1.6,0,2.2,0.5c1.2,0.9,2.4,2,2.9,3.5l0.2-0.3c0,1.6-0.4,3.5-1.8,4.5
		C88.4,217.9,84.8,217.1,83.8,214.5z"/>
	<path class="st1" d="M137.5,212.7c-0.8,1.4-0.6,3.3,0.6,4.4c0.7,0.7,1.6,1.1,2.5,1.3c2.5,0.5,5.1-0.5,6.7-2.4
		c0.4-0.5,0.3-1.2,0.3-1.7c-0.9,1.2-1.9,2.4-3.4,2.8c-1.4,0.4-2.9,0.3-4.2-0.3c-1.1-0.6-1.9-1.9-1.7-3.2c0.2-1.3,1.4-2.2,2.4-2.9
		c1.3-0.9,3-1.4,4.6-1c0.9,0.2,1.6,0.9,2.2,1.6c-0.1-0.6-0.2-1.1-0.7-1.5c-1.5-1.2-3.6-0.9-5.3-0.6
		C139.8,209.9,138.4,211.1,137.5,212.7z"/>
	<path class="st1" d="M56.3,228.5c0.5,0.5,0.9,1.1,1.2,1.7c-0.2-0.8-0.4-1.6-0.5-2.4c-1.1-0.6-2.4-1.2-3.8-0.9
		c-0.6,0.1-1.1,0.5-1.4,1C53.3,227.7,55.2,227.2,56.3,228.5z"/>
	<path class="st1" d="M99.6,239.8c2.6,1.4,6.3,0.4,7.8-2.1c0.4-1.1,0.3-2.3,0.3-3.4c-0.1-0.8,0.1-1.8-0.6-2.3
		c-1.8-1.6-4.5-1.2-6.4,0c-0.7,0.6-1.5,1.3-2.2,2C97.1,235.7,97.5,238.8,99.6,239.8z M98.7,234.7l0.3,0c0.6-1.6,2.2-2.4,3.7-3
		c1.4-0.4,3.4-0.3,4.2,1.1l0.2-0.2c0.8,1.8,0.3,4.1-1.2,5.3c-1.9,1.4-4.8,1.5-6.5-0.2C98.5,237,98.7,235.8,98.7,234.7z"/>
	<path class="st1" d="M57.2,234.7c0-1.2,0-2.3-0.1-3.5c-0.3,1.3-0.1,2.8-0.9,3.9c-1.5,2.4-5.3,3-7.4,1.1c-0.8-0.7-1.2-1.7-1.4-2.7
		c-0.1-0.4-0.3-0.9-0.4-1.3c-0.7,1.2-0.6,2.8-0.1,4.1c1.4,2.6,4.9,3,7.4,2.1c0.4-0.2,0.8-0.5,1.2-0.7
		C56.2,236.8,57,235.9,57.2,234.7z"/>
	<path class="st1" d="M112.7,247.1c-0.7,1.2-0.8,3.1,0.4,4c1.1,0.9,2.7,0.8,4.1,0.6c0.4-0.3,0.9-0.6,1.3-0.9
		c0.6-1.3,1.1-2.7,1.1-4.2c-0.5-1.3-1.6-2.1-2.7-2.8C115.3,244.7,113.6,245.5,112.7,247.1z M115.5,245.3c1-0.6,2.6-0.3,3.1,0.9
		c0.6,1.5-0.2,3.3-1.6,4.2c-1.2,0.7-3.1,0.3-3.6-1.1C113,247.6,114.1,246,115.5,245.3z"/>
	<path class="st1" d="M52.9,271c0.3-1.5,0.3-3.3-0.6-4.6c-2.6-1.5-6.2-1.7-8.6,0.3c-1.7,1.2-1.7,4.1,0,5.4c1.9,1.5,4.6,1.9,6.9,1.2
		C51.4,272.6,52.6,272.2,52.9,271z M49.3,272.2c-1.8,0.3-4.2-0.3-4.9-2.2c-0.6-0.6-0.2-1.7-0.1-2.4c1.8-1.7,4.7-2,7-1.1
		c0.9,0.3,1.3,1.2,1.6,2C52.7,270.5,51.2,272,49.3,272.2z"/>
	<path class="st1" d="M91.3,275.9c-2.9,1.1-4.5,4.7-3.5,7.6c1.1,2,4.1,2.2,5.7,0.7c1.7-1.6,1.9-4.2,1.3-6.4
		C94.4,276.3,92.8,275.4,91.3,275.9z M93.6,277.1c1.3,2,0.7,4.9-1.3,6.2c-1.3,0.8-3.3,0-3.5-1.6c-0.3-2,0.8-4.1,2.5-5.2
		C92.1,276.2,93.2,276.3,93.6,277.1z"/>
	<path class="st1" d="M46.4,302.5c-3.3-0.4-6.5-1.3-9.6-2.4c-2.8-0.9-5.1-2.6-7.5-4.2c-1.7-1.2-3-2.9-4.2-4.5
		c-0.9-1.2-1-2.8-1.1-4.2c-0.1-1.9-0.2-3.7,0.1-5.6c0.1-0.9,0.5-1.9-0.2-2.7c-0.6,2.2-0.4,4.5-0.5,6.8c0,1.8-0.2,3.7,0.6,5.5
		c0.9,2,2.5,3.5,4.1,4.9c2.4,2.1,5.2,3.5,8.1,4.7c4.2,1.7,8.7,2.1,13.1,2.7c1.5,0.2,3.2,0.4,4.6-0.3C51.4,303,48.9,303,46.4,302.5z"
		/>
	<path class="st1" d="M119.2,287.3c1,1.2,0.9,2.9,0.1,4.1c-0.5,0.8-1,1.6-1.9,1.9c-1,0.3-2.1,0.3-3.1-0.1c-1.3-0.6-1.9-2.2-1.7-3.5
		c0.2-0.8,0.6-1.6,1.1-2.3c-0.7,0.3-1.5,0.7-2,1.3c-0.4,1.4-0.7,3,0,4.4c0.6,1.3,2,1.6,3.1,2.2c-1.7,0.1-3.4-0.1-5.2,0.1
		c-1,0.9-1.7,2.1-2.9,2.8c-1.9,1-4.2,1.2-6.3,1.2c-1.5,0-3.1-0.1-4.4-0.8c-1.2-0.7-2.1-1.8-3.3-2.5c-1.4-0.4-2.9-0.1-4.4-0.2
		c-2.4-0.2-4.4-1.6-5.8-3.5c-1.8-2.3-3.3-4.9-3.6-7.8c-0.1-0.5-0.3-1-0.4-1.5c-0.1,0.1-0.4,0.2-0.5,0.3c0.7,4.2,2.2,8.4,5.1,11.6
		c5.4,5.8,13.9,8.7,21.7,7.2c4.3-0.8,8.5-2.7,11.8-5.6c2-1.7,3.9-3.9,4.3-6.6c0.3-1.7-1.2-3-2.5-3.7l-0.3,0
		C118.6,286.6,118.9,286.9,119.2,287.3z"/>
	<path class="st1" d="M168.7,310.2c-2.5,0.4-4.9,1.1-7.3,1.2c-3.5,0.2-7.1,0.7-10.6,1c-2.5,0.1-5,0.5-7.5,0.5
		c-2.2-0.1-4.3,0.2-6.5,0.3c-4.9,0.1-9.7,0.8-14.6,0.9c-2.8,0.3-5.6,0.2-8.4,0.5c-3.3,0.3-6.7,0.6-10,1c-1.8,0.3-3.6-0.1-5.4-0.3
		c-5.5-0.8-11.1-0.8-16.6-1c-5.8-0.5-11.6-0.6-17.4-0.7c-5.1-0.4-10.3-0.5-15.4-1.1c-4.1-0.2-8.1-0.8-12.1-1.4
		c-2.3-0.4-4.5-1-6.8-1.5l-0.3,0c-1.3,1.3-1.9,3.2-2.3,5c-0.5,2.1,0.5,4.4,2.1,5.8c2.3,2.1,5.2,3.7,8.2,4.7c1.6,0.6,3.1,1.3,4.8,1.6
		c-0.6-1.4-1.7-2.6-2.3-4.1c-0.4-1.4-0.3-2.9,0.1-4.2c0.4-0.9,0.9-1.8,1.7-2.3c1-0.4,2-0.3,3-0.3c9.2,0,18.4,0,27.5-0.1
		c8.3-0.1,16.6,0.1,24.9-0.1c1.6,0,3.2,0.3,4.9,0.3c1.4,0,2.7-0.2,4.1-0.3c8.1,0.1,16.1,0,24.2,0.1c8.8,0,17.6,0,26.4,0
		c1,0,2.1,0,3.1,0.3c0.9,0.4,1.5,1.3,1.8,2.2c0.7,2.1,0.2,4.4-1.1,6.2c-0.8,1.1-2,1.9-3.1,2.6l-0.1,0.3c1.6-0.2,3.1-0.9,4.7-1.4
		c2.9-0.9,5.7-2.2,8.3-3.8c1.6-1.1,3.3-2.4,4-4.4c0.7-2.7-0.1-5.7-1.9-7.8C171.5,309.7,170.1,310,168.7,310.2z"/>
	<path class="st1" d="M133.8,330.4c-3.3,0.1-6.5,0.5-9.8,0.4c-3,0-6,0.3-9,0.3c-8.9,0-17.8,0.1-26.8,0c-7.3-0.3-14.5-0.6-21.8-1
		c-4.6-0.5-9.3-0.9-13.9-1.4c-1.8-0.2-3.5-0.5-5.3-0.6c0.9,0.4,1.9,0.6,2.9,0.8c6.6,1.2,13.4,1.6,20.1,2.2c1.6,0.1,3.1,0.1,4.7,0.3
		c4.4,0.7,9,0.4,13.4,0.8c2.1,0.2,4.3,0.1,6.4,0.2c4.2,0.2,8.3,0.2,12.5,0.1c4.6-0.3,9.3-0.1,14-0.6c2.4-0.2,4.8-0.1,7.2-0.3
		c4.2-0.4,8.4-0.5,12.6-1.1c3.4-0.4,6.9-0.8,10.3-1.4c1.5-0.3,3.1-0.3,4.5-1c-1.8,0-3.6,0.4-5.3,0.6
		C144.8,329.7,139.3,330,133.8,330.4z"/>
	<path class="st2" d="M8.7,70.2c0.2,2.1,1.4,3.9,2.1,5.8c1.2,2.9,1.2,6.2,0.2,9.1c-0.6,1.7-1.4,3.4-1.5,5.2
		c-0.2,1.7-0.2,3.5,0.3,5.3c0.4,1.4,1.4,2.7,2.8,3.1c1.3,0.3,2.5-0.3,3.6-0.9c0.8-0.5,1.8-1,2.3-1.8c-0.2-1-0.6-2-0.5-3
		c0.1-1.5,0.4-3,0.5-4.5c0.4-4.8,0-9.7,0.9-14.5c0.3-1.5,1-3.2,2.5-4c0.6,0.2,0.1,1,0.2,1.5c-0.1,1.3-0.6,2.7,0.1,3.9
		c0.8,0.3,1.6,0.7,2.4,0.8c1.3-0.2,2.5-0.6,3.8-0.8c0.1-0.1,0.3-0.3,0.4-0.3c0.2-0.3,0.6-0.6,1-0.6c1,1.4,1.5,3.1,1.9,4.7
		c0.9,3.4,1.9,6.9,2.5,10.4c0.4,2.2,0.8,4.6,2.2,6.4c1.2,1.6,3.5,2.1,5.3,1.4c1.9-0.7,3.6-2.1,4.3-4.1c0.6-1.7,0.3-3.4,0.2-5.1
		c-0.2-2.2-0.1-4.5-0.2-6.8c-0.1-3.5-0.6-7.1-0.6-10.6c0.2-2.4,0.2-4.8,1.1-7c1.3,2.2,1.2,4.8,2.2,7c1,2.1,2.7,4.1,5.1,4.7
		c2.9,0.6,5.8-0.2,8.5-1.4c2.4-1,4.5-2.5,6.9-3.7c3.6-1.9,8-2.2,11.8-1c2.3,0.6,4.6,1.5,6.2,3.3c1.8,1.9,2.6,4.4,4.1,6.5
		c1.5,2.3,3.8,4,4.9,6.5c1,2.1,0.8,4.5,0.3,6.8c-0.8,3.7-1.9,7.3-2,11.1c0,1.9-0.1,3.9,0.6,5.7c1.2,3,3.5,5.3,5,8.2
		c0.6,1.1,1.1,2.3,2.1,3.2c1.1,0.8,2.7,0.2,3.4-0.9c2.6-3.4,3.6-7.7,6.2-11.2c1.2-1.7,2.7-3.2,4.5-4.1c2.3-1.2,4.8-1.7,7.2-2.7
		c2.9-1.3,5.4-3.8,6.3-6.9c0.2-0.9,0.4-1.9,0.1-2.8c-0.2-0.7-1-1.2-1.7-1.3c-1.4-0.2-2.9,0.2-3.9,1.1c-1,0.8-1.8,2-3,2.7
		c-1.1,0.4-2.4,0.2-3.6,0.3c-2.4-0.1-4.9,0.3-7,1.6c-1.8,1.3-2.7,3.4-3.9,5.1c-1.1,1.7-3.3,2.5-5.2,2.4c-1-0.1-2.3-0.6-2.5-1.7
		c-0.1-2.1,1-4.1,0.5-6.2c-0.3-1.3-1.4-2.4-1.6-3.7c1.6-0.4,3.3-0.5,4.8-1.3c1.1-0.5,2-1.3,3.1-1.7c1-0.1,2,0.4,3,0.2
		c1.6-0.9,2.5-2.6,3.4-4c1.1-1.7,1.6-3.8,2.9-5.3c1.5-0.1,3.1,0.4,4.6,0c1.7-0.6,2.8-2.3,4.4-3c0.7,0,1.3,0.5,1.7,1
		c-0.5,3.1-2.5,5.7-3.7,8.5c3.1-0.9,5.6-3.2,7.1-5.9c0.9-1.7,1.4-3.6,2.2-5.4c0.9-2,2.1-3.9,3.3-5.8c1.6-2.4,3.5-4.8,6-6.5
		c2.7-1.9,5.7-2.9,8.7-4.2c3.7-1.5,6-5,9.7-6.5c4.7-1.9,10.2-1.4,14.7,0.8c3.1,1.6,6.1,3.8,9.8,3.8c2.7,0.2,5.5-0.9,6.9-3.3
		c2.5-4.3,2.4-10.2-0.7-14.2c-3.2-4.3-8.1-7-13-8.8c-2.7-1.1-5.7-1.4-8.6-1.2c-1.5,0.1-2.9,0.7-4.4,1c-0.3-0.9-0.2-2.1-1.1-2.7
		c-1-0.7-2.1-1.3-3.3-1.6c-0.7-0.2-1.4,0.3-2.1,0.6c0,1,0,1.9-0.3,2.9c-0.2,0.5-0.9,1.1-1.4,0.5c-1-0.2-2.1-0.2-3.1-0.5
		c-1.2-0.4-1.6-1.7-1.9-2.8c-0.1-0.4-0.2-0.7-0.3-1.1c-1.9-0.7-4-1.4-6.1-1.2c0,0.9,0.2,1.9,0.1,2.8c-0.7,0.4-1.7,0.9-2.4,0.3
		c-0.6-0.6-1-1.4-1.5-2.1c-0.8,0-1.6,0.4-2.3,0.2c-1.3-0.9-2.1-2.2-3.1-3.3c-4.7-4.9-12.5-7-18.9-4.4c-1.3,0.6-2.9,1.3-3.4,2.8
		c1.4,0.1,2.9-0.2,4.3,0.3c1.6,0.8,2.7,2.4,3.2,4.1c0.4,1.4,0.5,3.1-0.3,4.4c-0.6,0.9-1.7,1.7-2.9,1.4c-1.7-0.4-3.1-1.8-3.8-3.4
		c-0.7-1.5-0.9-3.2-1.4-4.7c-1,0.9-1.5,2.2-2.3,3.2c-0.2,0.3-0.5,0.6-0.7,0.9c-0.5-2.5-1.1-5.1-0.3-7.6c0.6-2.2,2.2-3.9,3.8-5.5
		c-1.4-0.2-2.9-0.7-4.3-0.4c-0.5,0-1,0.3-1.4,0c-1.3-0.8-2.4-1.9-3.8-2.5c-1.8-0.8-3.7-1.5-5.6-2C92.4,8.1,87.4,8.5,82.6,9
		c-2.4,0.4-4.8,1.1-7.2,1.7c-2.2,0.5-4,1.9-6.1,2.5c-1.3,0.4-2.6,0.7-3.7,1.6c0.9,1.5,2.7,2.4,3.2,4.2c0.2,1.2,0,2.4-0.1,3.6
		c-0.2,1.5-0.2,3.1-1,4.4c-1,1.5-2.5,2.9-4.4,2.9c-1,0-2.2,0.1-2.9-0.7c-1.5-1.5-1.9-3.8-1.8-5.9c0-1.8,0.7-3.5,1.2-5.3
		c-2.1,0.9-3.6,2.8-4.4,4.9c-0.5,1.3-0.3,2.8,0,4.1c0.9,2.1,2,4.1,2.1,6.4c-0.1,0-0.4-0.1-0.5-0.1c-0.9-0.3-1.4-1.1-2.1-1.7
		c-1.3-1.4-3-2.3-4.6-3.2c-1.9-1.1-4.1-1.1-6.2-0.9c-1.1,0.1-2.4,0.4-3.1,1.4c-1,1.4-0.9,3.2-1.7,4.7c-0.5,0.6-1.3,0.5-2,0.3
		c-1.1-0.3-2.3-0.6-3.5-0.4c1.1,1.2,2.5,2,3.5,3.3c1.5,1.9,2.4,4.3,2.9,6.7c-0.1-0.1-0.4-0.2-0.5-0.2c-1.8-0.8-3.3-2.1-5.1-3
		c-1.9-0.9-3.8-2.3-6-2.3c-1.8,0-3.7-0.2-5.4,0.6c-1.8,0.8-3.6,1.9-4.7,3.6c-1.5,2.2-1.2,5.1-2.4,7.4c-1.1,2.1-2.4,4.2-3.2,6.4
		c-0.1,0.9,0.1,1.8,0.1,2.6c-0.1,0-0.4,0.1-0.6,0.2c-1.2,1.7-2.7,3.3-3.2,5.4C8.8,66.3,8.5,68.3,8.7,70.2z M177.6,48.8
		c1.9-0.5,4.2-0.1,5.5,1.5c0.5,0.6,0.4,1.5,0.4,2.2c-0.1-0.1-0.4-0.4-0.6-0.5c-0.6,0.2-1.3,0.3-1.9,0.5c-0.9,0.2-1.6,0.8-2.4,1.2
		c-1.3,0.2-2.2-1.3-2-2.5c-0.1,0-0.4,0.2-0.6,0.2C176,50.3,176.5,49.1,177.6,48.8z M160.5,37.1c0.3-0.8,1-1.2,1.7-1.5
		c1.3-0.5,2.7,0.3,3.9,0.8c2,1,4.2,2.1,5.5,4.1c-0.1,1-0.8,1.9-1.7,2.5c-1.1,0.1-2.2-0.4-3.2-0.8c-2-0.9-4.1-1.8-5.6-3.5
		C160.8,38.3,160.3,37.7,160.5,37.1z M152,33.7c2.2-0.6,4.5,0.6,6.1,2.1c0.7,0.5,0.2,1.6-0.6,1.7c-2.2,0.3-4.9,0.2-6.5-1.4
		C150.1,35.2,151,33.9,152,33.7z M148.2,39.7c2-0.5,4.2-0.2,6.1,0.5c2.5,1,5.1,1.9,7.6,2.9c1.2,0.5,2.6,0.7,3.6,1.4
		c0,0.2-0.1,0.5-0.1,0.6c-2,0.3-4,0.2-6,0.2c-2.3,0-4.6-0.5-6.9-1.1c-1.6-0.4-3.1-1-4.4-2.1C147.4,41.7,147.3,40.3,148.2,39.7z
		 M139.9,43.9l0.3-0.1c3.3,0.8,6.3,2.6,8.8,4.9c0.4,0.3,0.5,0.7,0.2,1.2c-1.3,0.4-2.7-0.1-3.9-0.5c-1.9-0.7-3.9-1.6-5.2-3.1
		C139.5,45.6,138.9,44.4,139.9,43.9z M123.4,68.6c-0.7,1.2-2.1,2.1-3.5,2c-0.9,0-1.8-0.7-2.1-1.6c-0.1-0.6-0.1-1.2-0.1-1.8l0.2,0.3
		c0.1-0.3,0.3-0.8,0.4-1.1c1-1.2,2.5-2.1,4.1-1.6C123.7,65.4,123.9,67.2,123.4,68.6z M120,43.5c1.1-0.5,2.4-0.1,3,1
		c1.2,1.6-0.5,4.1-2.4,3.6C118.9,47.4,118.1,44.5,120,43.5z M126.9,48.2c-1.9,0-2.8-2.8-1.4-4c0.8-0.3,1.9-0.3,2.5,0.4
		C129.2,45.7,128.4,47.9,126.9,48.2z M133.2,48.1c-1.2,1.3-3.6-1-1.9-2.1C132.4,45.5,134.2,47.1,133.2,48.1z M133.2,28.1
		c1.2-0.4,2.2,1.1,1.8,2.1c-0.2,1.2-2,1.2-2.6,0.4C131.4,29.8,132.1,28.3,133.2,28.1z M129,23.9c1-0.5,2.4,0.1,3,1
		c0.9,1.2-0.6,2.8-1.9,2.7c-1-0.1-2-0.6-2.4-1.6C127.5,25.1,128.3,24.4,129,23.9z M111.4,39.9c2.9-1.7,6.2-3,9.6-2.9
		c4.7-0.1,9.2,2.1,12.3,5.4c0.8,0.8,1.5,1.8,2,2.8c-0.5-0.4-1-0.7-1.4-1.1c-1.5,0.3-3-0.4-4.4-0.9c-4.9-1.8-10.6-1.7-15.4,0.6
		c-0.4,0.2-0.7,0.5-0.6,0.9c0.8,0.7,2,1.1,2.4,2.2c1.2,2.8,0.6,6.5-1.9,8.5c-1.3,1.3-3.5,1.6-5.1,0.6c-0.8-0.7-1.3-1.6-1.7-2.4
		c-0.8-1.6-0.2-3.4-0.5-5.1c-0.5-0.3-0.9-0.5-1.4-0.7c-0.3,0.4-0.6,0.8-1,1.2C105.5,45.4,108.2,42.1,111.4,39.9z M103.8,71.5
		c0.8-0.2,1.6,0.1,2,0.8c0.1,0.8-0.3,1.5-0.8,2c-0.7,0-1.6-0.2-1.9-0.9C102.8,72.7,103.3,71.9,103.8,71.5z M95.1,31.6
		c1-0.3,1.6,1.1,1.3,2c-0.6,0.4-1.5,0.7-2.1,0.1C93.5,33,94.2,31.7,95.1,31.6z M90.6,10.7c1-0.6,2.2,0.1,2.5,1.1
		c-0.1,0.7-0.4,1.7-1.2,1.9c-0.8,0.2-1.6-0.5-1.9-1.2C89.9,11.8,90.2,11.2,90.6,10.7z M90,64.3c1.7,1.2,3.3,2.7,4.7,4.4
		c0.6,0.6,0.9,1.5,1.1,2.3c-1.6-1.1-2.8-2.7-4.4-3.9c-1.6-1.3-3.6-2.2-4.6-4C87.9,63.2,89,63.6,90,64.3z M86,10.7
		c0.8-0.4,1.8-0.3,2.5,0.3c0.7,0.7,0.6,1.7,0.5,2.5c-0.7,1.2-2.4,1.8-3.5,0.9C84.3,13.5,84.7,11.5,86,10.7z M84.9,46
		c1.5,0.8,2.3,3.2,1.1,4.5l0-0.4c-0.5,0.2-1,0.4-1.4,0.6c-0.9,1.4-1,3.3-2.3,4.5c-0.8,1.4-2.7,1.5-4.1,1.3c-2.5-0.8-3.1-4.5-1.4-6.3
		c0.6-1.3,1.3-2.5,2.4-3.4c0.4-0.4,1-0.1,1.5-0.1C81.4,45.4,83.5,45.4,84.9,46z M77.8,30.8c1.2-0.6,2.5,0.5,2.5,1.7
		c-0.3,1.2-2,1.5-2.9,0.7C76.4,32.6,76.8,31.1,77.8,30.8z M74.6,13c0.6-0.9,1.7-1.3,2.7-1.6c1-0.2,2.1-0.4,3.1,0.2
		c0.8,0.9,1.7,1.8,2.2,2.9c0.3,1.6-0.1,3.4-0.9,4.8c-1.1,2.1-3.9,3.4-6.2,2.5c-1.4-0.3-2.1-1.7-2.4-2.9C72.5,16.8,73.4,14.6,74.6,13
		z M66.8,39.5c0.2,0,0.6-0.1,0.8-0.1c0.7,0.6,0.6,1.6,0.3,2.3c-0.7,0.3-1.5,0.3-2.2,0C65.2,40.8,65.7,39.6,66.8,39.5z M58.5,51.6
		c0.9-0.3,1.8-0.3,2.7,0c1,0.4,1.5,1.7,1.2,2.7c-0.6,2.4-3.6,4.4-5.9,3.1c-0.8-0.4-0.9-1.4-0.9-2.2C55.6,53.4,57,52.1,58.5,51.6z
		 M53.4,65.3c1.3,0.6,1.3,2.5,2.5,3.2c2.2,0.3,4.4-0.4,6.5-1.1c1.9-0.7,3.3-2.1,5.2-2.7c1.4-0.4,2.9-0.3,4.1,0.5
		c-1.3,0.7-2.7,1.1-4,1.8c-2.2,1.2-4.3,2.7-6.8,3.4c-2.4,0.5-5.3,0.2-6.9-1.9C53.2,67.7,53.3,66.4,53.4,65.3z M50.2,35.6
		c1.1-0.4,2.1,0.9,2.2,1.8c0.2,1.3-1.3,2.4-2.5,1.7C48.4,38.5,48.6,36,50.2,35.6z M46.5,39c1.5-0.6,3.2,1.4,2.5,2.8
		c-1,0.6-2.6,1.2-3.6,0.4C44.2,41.1,45.4,39.6,46.5,39z M42.5,54c0.2-0.5,0.5-0.9,0.9-1.2l0.2-0.2c0,1.6-0.3,3.3-0.3,4.9
		c0.1,4.9,0,9.8,0,14.8c-2.3-1.8-2.7-4.9-2.8-7.6C40.3,60.9,41.2,57.3,42.5,54z M38.9,83c0.1-1.3,0.9-2.6,2.2-2.9
		c0.6-0.2,1.2,0.1,1.7,0.4c0.5,1.8,0.5,3.9-1.1,5.2c0.2-0.1,0.6-0.2,0.8-0.2c-0.5,0.7-1,1.6-2,1.6c-1.5,0.1-2.8-1.4-2.5-2.9
		C38,83.6,38.5,83.3,38.9,83z M39.5,91.3c0.9-0.3,1.7-0.8,2.5-1.3c0.4-0.4,0.8-0.3,0.9,0.2c0,1.7-1.3,3.4-3.1,3.8
		c-1,0.1-2.2-0.5-2.6-1.5C37.8,91.8,38.7,91.6,39.5,91.3z M28.8,72.2c-0.5,0.5-1.3,0.8-2,0.7c-1.3-0.5-1.9-2-2-3.3
		c1.1,0.1,2.2,0.2,3.2-0.3c0.4-0.2,0.8-0.2,1.2-0.1C29.3,70.2,29.3,71.3,28.8,72.2z M22.1,49.9c0.7-0.8,1.5-1.5,2.3-2
		c0.4-0.6,0.7-1.3,1.4-1.6c1.1-0.3,2.5-0.1,3.3,0.8c0.9,1,1.7,2.6,0.9,3.9c-0.1-0.7-0.2-1.3-0.4-2c-1,0.7-1.1,2-0.7,3.1
		c0.4,0.3,0.8,0.5,1.2,0.8c-0.3,1-1.2,2.5-2.4,2c-0.2,0.1-0.5,0.3-0.6,0.4c0.3,1.1,0.6,2.3,0.5,3.4c-0.3,1.3-2.3,1.3-2.9,0.2
		c-0.4-1-0.6-2.1-0.8-3.1C21.5,55.2,20.2,51.8,22.1,49.9z"/>
	<path class="st2" d="M176,77.1c1.1,0.1,2.1,0.3,3.2,0.2c0.1-2.5,0-5,0.2-7.5c0.1-1.9,0.4-3.9,0.2-5.8c-1.4-0.9-3-1.3-4.4-2
		c-1.4-0.5-2.8-1.4-4.3-1.1c-3.3,0.7-6.3,2.4-9.2,4c-3.5,1.9-6.8,4.2-9.7,6.9c-0.9,0.9-1.9,1.7-2.3,3c2.5,0.7,5.2,0.3,7.8,0.6
		C163.7,75.9,169.8,76.4,176,77.1z"/>
	<path class="st2" d="M67.4,98.4c0.4,1.4,1.8,2.2,3.1,2.4c1.8,0.2,3.6-1,4.2-2.7c-1.6,0.1-3.3,0.3-4.6-0.6c-1-0.6-1.5-1.6-2-2.5
		l-0.2-0.2L67.7,95C67.4,96.1,67.1,97.3,67.4,98.4z"/>
	<path class="st2" d="M33.2,106.8c-1.1,0.5-2.2,1.1-3.5,1.1c-1.2-0.1-2.3-0.4-3.5-0.7c0.4,0.8,0.8,1.8,1.8,2.1
		C30,109.8,32.6,108.9,33.2,106.8z"/>
	<path class="st2" d="M184.6,116.5c0,1.4,0,2.9,0.1,4.3c1-1.3,1.6-2.9,3-3.8c1.8-0.6,3.7-0.3,5.6-0.3c6.7,0.6,13.5,1.4,19.9,3.7
		c4.9,1.6,9.5,4.3,13.3,7.8c1.8,1.7,3.3,3.6,4.5,5.7c1.1,1.9,1.4,4.2,1.6,6.3c-3.2-3.9-7.5-7.1-12.4-8.6c-1.4-0.4-2.7-1.1-4-1.6
		c-3.9-1.5-8-2.7-12.2-3.3c-2.2-0.5-4.5-0.6-6.7-1.1c-1.9-0.4-3.8-0.2-5.8-0.3c-2.3-0.1-4.7-0.3-7,0c-0.1,0.9-0.1,1.9,0,2.8
		c3.6,0,7.2,0.2,10.7,0.7c3.9,0.7,7.9,1.2,11.7,2.5c4.3,1.5,8.3,3.8,11.3,7.2c4.6,5.4,7.3,12.2,9,19c0.8,4.5,1.9,8.9,2.2,13.4
		c0.2,2.5,0.7,5,1,7.5c0.2,2,0.1,4.1,0.4,6.1c0.4,2.5,0.6,5,0.5,7.5c-0.1,2.3,0.4,4.5,0.4,6.8c0,2.4-0.1,4.8,0.2,7.2
		c0.3,2.5,0.1,5,0.1,7.5c0,3.2-0.1,6.5-0.2,9.7c-0.2,8-0.8,16.2-3.6,23.8c-2.1,5.2-5.3,10.2-9.8,13.6c-5.1,3.9-11.3,5.9-17.5,7.4
		c-4.3,1.2-8.8,1.8-13.3,2.2c-0.3,2.3,0.1,4.7,0.1,7c2.7,0,5.3-0.6,7.8-1.5c5-1.7,10-3.7,15.1-5.3c1-0.3,2.1-0.5,3.2-0.4
		c0.8,0.1,1.3,0.9,1.8,1.4c0.2,0.1,0.4,0.2,0.6,0.3c0.2,1.6-0.9,3.1-1.9,4.2c-2,2.3-4.8,3.7-7.4,5.1c-4.3,2.1-8.8,3.9-13.3,5.6
		c-1.7,0.8-3.6,1.1-5.4,1.7c-0.1,0.3-0.2,0.7-0.3,1c8.4-2.1,16.6-4.8,24.2-8.8c3.2-1.5,6.1-3.3,9.1-5.3c7.5-4.8,13.9-11.4,18-19.2
		c1-1.8,1.7-3.8,2.5-5.7c1.5-3.7,2.4-7.5,3.3-11.4c0.6-2.8,0.6-5.7,1.1-8.5c0.2-1.4,0.5-2.8,0.4-4.3c-0.1-2.2,0.4-4.3,0.4-6.4
		c0-10.1,0.4-20.1-0.3-30.2c-0.1-1.9,0-3.7-0.1-5.6c-0.4-3.3-0.5-6.6-1-9.8c-0.5-2.7-0.5-5.4-1-8.1c-0.4-3.5-1.1-6.9-1.7-10.3
		c-0.8-3.6-1.4-7.2-2.5-10.7c-0.9-2.8-1.7-5.6-3.1-8.2c-1.6-3.5-3.6-6.8-6.1-9.7c-2.2-2.3-4.4-4.7-7.1-6.5
		c-5.6-4.2-12.2-7.1-19.1-8.4c-3.1-0.8-6.4-0.8-9.5-1.4c-2-0.4-4-0.3-6-0.3c-1.5,0-2.9-0.2-4.4,0
		C184.7,112.6,184.7,114.6,184.6,116.5z M234.3,248c1.6-3.5,2.9-7.2,3.4-11c0.4-2.5,1.1-4.9,1.3-7.3c0.2-2.7,0.6-5.5,0.5-8.2
		c0-1.5,0-3,0-4.5c0-2.3,0.5-4.5,0.4-6.8c-0.1-3.2,0.2-6.4-0.2-9.6c-0.4-2.9,0.1-5.9-0.3-8.8c-0.3-1.8-0.3-3.5-0.2-5.3
		c0.1-2.1-0.5-4.3-0.4-6.4c0-0.9,0-1.8,0-2.7c0-2.4-0.8-4.7-0.7-7.1c0-4.5-1.2-8.8-1.5-13.2c-0.1-1.9-0.7-3.7-0.9-5.6
		c-0.2-1.9-1-3.7-1.2-5.7c0.9,1.5,1.6,3.1,2.4,4.7c1.1,2.6,1.7,5.4,2.6,8c1.5,5.5,2,11.2,3.1,16.8c0.9,5.2,1.1,10.5,1.6,15.7
		c0,2,0.4,4,0.4,6.1c0,6.5,0,13.1,0,19.7c-0.5,4.1-0.4,8.3-1.1,12.4c-0.5,2.3-0.3,4.7-1,6.9c-0.7,2.3-0.9,4.7-1.7,6.9
		c-0.7,2.1-1.2,4.2-2.1,6.2c-1.7,3.9-3.7,7.9-7.2,10.4c-1.1,0.9-2.7,0.8-4,0.7c0-0.2-0.1-0.7-0.1-0.9c-0.4,0.3-0.8,0.5-1.1,0.7
		c0.4-1.8,1.1-3.4,1.7-5.1c1-2.8,1.6-5.7,2.3-8.6c2.1-8.5,3-17.2,3.4-25.9c0.4-10.9,0.4-21.8,0.2-32.8c-0.5-6.1-0.2-12.3-0.9-18.4
		c-0.2-1.6-0.2-3.3-0.2-5c0-1.8-0.4-3.5-0.4-5.3c0.5,1.2,0.7,2.6,0.8,3.9c0.7,5.1,1.6,10.2,2.1,15.3c0.2,1.8,0.6,3.7,0.9,5.5
		c0.6,5.2,0.9,10.4,1.5,15.6c0.5,6.9,0.7,13.8,0.6,20.8c-0.3,3.9-0.1,7.9-0.6,11.8c-0.3,2.4-0.9,4.8-1.3,7.3
		c-0.7,3.7-2.2,7.2-3.3,10.8C233.4,249.2,234,248.7,234.3,248z"/>
	<path class="st2" d="M142.2,127.5c0.2,1.1,0.5,2.2,1.5,2.9c0.9,0.5,2,0.6,3,0.9c1.8-0.1,3.5-1.5,3.7-3.3l-0.3,0
		c-1.5,0.8-2.9,1.7-4.6,1.7C144,129.7,143.2,128.4,142.2,127.5z"/>
	<path class="st2" d="M21.3,131.5c1.2,0.6,3,0.5,3.8-0.7c0.4-0.5,0.5-1.2,0.6-1.8c-1,0.1-2.1,0.2-3.1,0c-1-0.1-1.9-0.7-2.9-1.1
		C19.7,129.2,20,130.8,21.3,131.5z"/>
	<path class="st2" d="M172.7,149.5c0.6-0.7,1.2-2,0.2-2.6c-1.1,0-2.1,0.3-3.2,0.3c-1-0.7-1.8-1.7-2.7-2.5c-0.3,0.3-0.6,0.6-0.8,0.9
		c0.2,1.6,0.6,3.3,1.8,4.4C169.3,151.1,171.6,150.9,172.7,149.5z"/>
	<path class="st2" d="M60.7,180c-1.2,0.8-3,0.4-3.9-0.7c-0.4-0.6-0.6-1.4-0.8-2.1c-0.9,0.6-1.9,1.3-2.2,2.4
		c-0.3,1.3-0.2,2.8,0.7,3.8c1.2,1.4,3.4,1.6,4.9,0.5c1.1-0.8,1.8-2.1,2.4-3.3c0.1-0.9,0.1-1.9,0.1-2.8l-0.1,0.3
		C61.4,178.8,61.1,179.4,60.7,180z"/>
	<path class="st2" d="M98.4,180.1c-0.7-0.3-1.4-0.8-2-1.3c0.5,1,1.5,1.9,2.7,1.8c0.8,0.2,1.4-0.5,1.9-1
		C100.1,179.9,99.3,180.2,98.4,180.1z"/>
	<path class="st2" d="M93.3,182.1c0.3-0.8,0.3-1.7,0-2.5c-0.5-0.1-1.2-0.3-1.6,0c-0.6,0.3-1.1,1.2-0.6,1.8
		C91.6,182.3,92.6,182.2,93.3,182.1z"/>
	<path class="st2" d="M50,196.7c-0.4-0.1-0.8-0.2-1.2-0.2c-1.1,0.2-1.2,2.3,0,2.4c0.4-0.1,0.8-0.1,1.2-0.2
		C50.2,198,50.2,197.3,50,196.7z"/>
	<path class="st2" d="M47.4,207c0.2-0.8,0.3-1.7,0-2.5c-0.6-0.2-1.2-0.3-1.8-0.1c-1,0.6-0.6,1.9,0.1,2.5
		C46.2,207.1,46.8,207.1,47.4,207z"/>
	<path class="st2" d="M90.6,216.4c1.4-1,1.8-2.9,1.8-4.5l-0.2,0.3c-0.7,1.3-2,2.5-3.6,2.2c-1.9-0.8-2.5-3.2-4.6-3.7
		c-0.6,1.2-0.5,2.6-0.2,3.9C84.8,217.1,88.4,217.9,90.6,216.4z"/>
	<path class="st2" d="M141.2,213c-0.8-0.5-0.5-1.5-0.5-2.2c-1.1,0.7-2.2,1.5-2.4,2.9c-0.3,1.3,0.5,2.6,1.7,3.2
		c1.3,0.7,2.9,0.7,4.2,0.3c1.5-0.4,2.5-1.6,3.4-2.8l0-0.3c-0.2-0.5-0.4-0.9-0.6-1.3C145.1,213.1,143,213.8,141.2,213z"/>
	<path class="st2" d="M118.4,215.9c-0.3,0.5-0.4,1.1-0.4,1.6c0.5,0.5,1.3,0.9,2,0.8c0.8-0.6,0.8-1.7,0.5-2.5
		C119.9,215.5,119.1,215.6,118.4,215.9z"/>
	<path class="st2" d="M48.8,236.2c2.1,1.9,5.9,1.3,7.4-1.1c0.8-1.1,0.6-2.6,0.9-3.9c0.1,1.2,0.1,2.3,0.1,3.5c0.3-1.5,0.5-3,0.3-4.5
		c-0.4-0.6-0.8-1.1-1.2-1.7c0.3,1.6,0.6,3.2,0,4.8c-0.5,1.4-2.2,1.9-3.6,1.9c-1.5,0.1-2.9-1.1-3.3-2.5c-0.1-1.2,0.5-2.3,1-3.4
		c-0.3-0.1-0.6-0.2-1-0.3l-0.3,0c-1.2,1.1-1.9,2.9-1.8,4.5C47.6,234.5,48,235.6,48.8,236.2z"/>
	<path class="st2" d="M105.8,238c1.6-1.3,2-3.5,1.2-5.3l-0.2,0.2c-0.5,1.8-1.7,3.6-3.7,4c-1.7,0.2-3.2-0.9-4.2-2.2l-0.3,0
		c0,1-0.2,2.3,0.6,3.1C101,239.5,104,239.4,105.8,238z"/>
	<path class="st2" d="M53.3,248.4c-0.9,0.5-0.4,1.7,0,2.3c0.6,0.1,1.2,0,1.8-0.1c0.2-0.7,0.3-1.4,0-2.1
		C54.5,248.2,53.9,248.2,53.3,248.4z"/>
	<path class="st2" d="M137.1,253.8c0.3-1,0.4-2.2-0.1-3.1c-1-0.5-2,0.1-2.8,0.6c0,0.5,0,1-0.1,1.5
		C135,253.3,135.9,253.9,137.1,253.8z"/>
	<path class="st2" d="M158.9,255.9c-1.4,1.8-2.4,4.2-1.7,6.5c0.9,3,5.2,4.1,7.4,1.9c1.3-1.3,1.4-3.2,1-4.9c-0.4,1.5-0.8,3.3-2.3,4.1
		c-1.7,0.6-4.2,0.3-5-1.6c-0.8-2.1,0.1-4.7,1.8-6.1c0.8-0.7,2-0.5,3-0.6c-0.1-0.2-0.4-0.5-0.5-0.7c-0.5,0-0.9-0.1-1.4-0.1
		C160.4,254.8,159.5,255.1,158.9,255.9z"/>
	<path class="st2" d="M170.9,268.9c0,0.6,0.2,1.1,0.4,1.6c1,0.5,2.3,0.6,3.2-0.1c0.9-0.7,1.5-1.7,2.1-2.7c0-1.1-0.4-2.1-0.8-3
		c-0.2,0.8-0.3,1.6-0.7,2.2C173.9,268,172.3,268.4,170.9,268.9z"/>
	<path class="st2" d="M120.7,269c-0.6,1.1-2,0.9-3,0.6c-1-0.3-1.2-1.4-1.7-2.2c-0.3,1.1-0.1,2.3,0.3,3.4c0.1,0.2,0.3,0.6,0.4,0.8
		c1.5,0.2,3.2,0.5,4.7-0.3c1-0.6,1-2,0.8-3.1c-0.1-1.2-1.2-1.8-2.1-2.4C120.7,266.8,121.4,268,120.7,269z"/>
	<path class="st2" d="M48.1,269.9c-1-0.6-1.5-1.6-2.2-2.4c-0.5,0.1-0.9,0.2-1.3,0.5c-0.1,0.7-0.2,1.4-0.2,2.1
		c0.8,1.9,3.1,2.5,4.9,2.2c1.9-0.2,3.4-1.8,3.6-3.6C51.4,269.3,49.8,270.4,48.1,269.9z"/>
	<path class="st2" d="M114.4,293.3c1,0.4,2.1,0.4,3.1,0.1c0.8-0.4,1.4-1.2,1.9-1.9c-1.2,0.1-2.3,0.3-3.5,0c-1.2-0.6-1.7-2.3-1.3-3.5
		c0.4-0.8,1.3-1.3,2.2-1.4c0.8,0.1,1.6,0.4,2.4,0.8c-0.3-0.4-0.6-0.8-0.8-1.1c-1.7-0.2-3.2,0.5-4.6,1.3c-0.4,0.7-0.8,1.5-1.1,2.3
		C112.5,291.1,113.1,292.7,114.4,293.3z"/>
	<path class="st2" d="M181.2,297.7l-0.2,0.2c-2.6,2.8-6.3,4.5-9.9,5.8c-4.3,1.5-8.7,2.9-13.3,3.8c-2.5,0.7-5.1,1.1-7.7,1.4
		c-5.5,1.1-11.1,1.9-16.8,2.2c-8.2,1.2-16.6,1.3-24.9,1.7c-7.4,0.3-14.8,0-22.3-0.2c-8.3-0.4-16.7-0.9-25-2.1
		c-3.8-0.4-7.5-0.8-11.2-1.7c-1.5-0.3-3-0.5-4.4-0.9c-6.9-1.6-13.9-3.3-20.1-6.7c-1.6-0.8-2.9-2-4.3-3c0,1.9-0.2,3.7-0.3,5.6
		c-0.1,4.2-0.3,8.4,1,12.5c1,3.2,3.4,5.8,6.1,7.8c3.4,2.3,7.3,3.6,11.3,4.6c2.6,0.7,5.3,1.4,8,1.8c2.6,0.3,5.2,1,7.8,1.2
		c2.8,0.4,5.6,0.7,8.4,1c4.1,0.2,8.2,0.5,12.3,1c2.9,0.4,5.8,0.2,8.7,0.3c7.2,0.4,14.3,0.4,21.5,0.3c5.6,0.1,11.3-0.3,16.9-0.4
		c2.5-0.2,5.1-0.4,7.6-0.3c3.5-0.2,7-0.6,10.5-1c2.2-0.1,4.3-0.4,6.5-0.7c3-0.3,5.9-0.8,8.9-1.4c3.9-0.9,7.9-1.6,11.6-3
		c2.8-1,5.6-2.3,7.9-4.1c3.5-3,5.9-7.6,5.7-12.3C181.5,306.4,181.7,302,181.2,297.7z M151.1,329.2c-3.4,0.6-6.9,0.9-10.3,1.4
		c-4.2,0.5-8.4,0.7-12.6,1.1c-2.4,0.2-4.8,0.1-7.2,0.3c-4.6,0.4-9.3,0.3-14,0.6c-4.2,0-8.3,0.1-12.5-0.1c-2.1-0.1-4.3,0-6.4-0.2
		c-4.5-0.4-9-0.1-13.4-0.8c-1.6-0.2-3.1-0.1-4.7-0.3c-6.7-0.6-13.4-1-20.1-2.2c-1-0.2-2-0.3-2.9-0.8c1.8,0.1,3.5,0.4,5.3,0.6
		c4.6,0.5,9.3,0.9,13.9,1.4c7.3,0.3,14.5,0.6,21.8,1c8.9,0.1,17.8,0.1,26.8,0c3,0,6-0.3,9-0.3c3.3,0,6.5-0.3,9.8-0.4
		c5.5-0.4,11.1-0.8,16.5-1.6c1.8-0.2,3.5-0.6,5.3-0.6C154.2,328.9,152.6,329,151.1,329.2z M174.8,317.8c-0.6,2-2.3,3.3-4,4.4
		c-2.6,1.6-5.4,2.9-8.3,3.8c-1.6,0.5-3.1,1.1-4.7,1.4l0.1-0.3c-1.5-0.1-3-0.1-4.3-0.7c-1.1-0.5-1-2-0.7-3c0.9-1.6,2.8-1.6,4.3-1.7
		c0.1-0.7,0.3-1.5-0.5-1.9c-1.7-0.2-3.5-0.1-5.2-0.1c-1.8,0-3.5,0.6-5.3,0.8c-6.8,1-13.5,1.8-20.4,2.3c-2.2,0.3-4.4,0.2-6.6,0.5
		c-1.6,0.2-3.2,0.1-4.8,0.1c-6.2,0-12.3,0.1-18.5,0c-2.7,0-5.3,0.1-7.9-0.2c-2.9-0.4-5.9,0.1-8.8-0.4c-1.9-0.3-3.7-0.1-5.6-0.5
		c-4.7-0.8-9.6-0.6-14.3-1.6c-2.2-0.4-4.4-0.4-6.5-0.9c-3-0.7-6.1-0.8-9-1.5c-1.2-0.3-2.4-0.1-3.6,0c-0.4,1.3-0.5,2.8-0.1,4.2
		c0.6,1.5,1.6,2.7,2.3,4.1c-1.7-0.3-3.2-1-4.8-1.6c-3-1-5.9-2.5-8.2-4.7c-1.6-1.4-2.6-3.6-2.1-5.8c0.4-1.8,1-3.6,2.3-5l0.3,0
		c1.3-1,3-1.1,4.6-1c2.5,0.4,4.9,1.2,7.3,2c3.6,0.8,7.3,0.9,10.9,1.5c1.6,0.3,3.2,0.2,4.8,0.3c1.9,0,3.7,0.4,5.6,0.4
		c3.8,0,7.6,0,11.3,0c1.5,0,2.9,0.2,4.4,0.5c4.9,0.9,9.9,0.4,14.8,1c1.5,0.1,3,0,4.5,0.1c4.1,0.6,8.3,0.4,12.4-0.2
		c2.6-0.4,5.3-0.1,8-0.2c1.1,0,2.2-0.1,3.3-0.1l0.1,0.3c4.9-0.1,9.7-0.8,14.6-0.9c2.2-0.1,4.3-0.4,6.5-0.3c2.5,0.1,5-0.4,7.5-0.5
		c3.5-0.3,7-0.8,10.6-1c2.5-0.1,4.9-0.8,7.3-1.2c1.4-0.2,2.8-0.6,4.2-0.2C174.7,312.1,175.6,315.1,174.8,317.8z"/>
	<path class="st3" d="M71.9,288.5c-0.9,3-2.8,5.6-5.2,7.6c-3.5,2.9-7.8,4.6-12.3,5.4c-1.8,0.3-3.6,0.2-5.4-0.2
		c-2.6-0.5-5.2-1-7.6-2.2c-2.5-1.2-4.6-3.1-6.6-5.1c-1.6-1.5-2.9-3.3-3.8-5.2c-1.1-2.2-1.7-4.6-2.5-6.9c-0.9-1-1.9-1.9-2.5-3.2
		c-0.7-1.6-1.4-3.2-2.1-4.7c-0.7-1.6-0.6-3.4-0.6-5.1c-0.5,0.3-0.3,1-0.3,1.5c0.1,2.8-0.2,5.5-0.2,8.3c0.1,4.1-0.9,8.2-0.1,12.2
		c0.4,2.2,1.7,4.2,3.4,5.6c2.1,1.7,4.5,3,7.1,3.9c6.2,2.4,12.9,3.4,19.4,4.8c2.7,0.6,5.5,0.6,8.2,1.1c3.6,0.6,7.3,0.6,10.9,1.1
		c2.7,0.2,5.4,0.6,8.1,0.5c2,0,4,0.4,6,0.4c4.7,0,9.3,0.2,14,0.2c3.8,0,7.5-0.1,11.3-0.2c2.9-0.1,5.8,0.1,8.7-0.2
		c5.1-0.3,10.1-0.6,15.2-1.1c2.6-0.4,5.2-0.6,7.8-0.9c1.4-0.1,2.8-0.6,4.2-0.8c7.8-1.3,15.7-2.4,23-5.4c3-1.3,6-2.9,8-5.7
		c2.1-3.2,2.2-7.3,1.7-11l-0.4-0.2c-0.2,2.2,0.2,4.4-0.4,6.5c-0.5,1.7-1.3,3.4-2.6,4.6c-2.6,2.3-5.5,4.2-8.8,5.5
		c-4.4,1.8-9.1,3.1-13.9,3.4c-1.9,0.1-3.8,0-5.7,0c-0.6,0.1-1.1-0.3-1.7-0.5c-2.4-0.2-4.8-0.3-7.1-0.7c-3.8-0.7-7.7-1.6-10.8-3.9
		c-2.2-1.7-4.2-4.2-4-7.2c0.3-2.9,1.8-5.6,1.9-8.5c0.2-3.6-0.1-7.1,0.4-10.7c0.2-1.4,0.8-2.7,1.6-3.9c0.6,4.5,0,9.2,1.2,13.7
		c0.1-0.2,0.2-0.6,0.3-0.8c0.8,2.5,1.4,5,2.6,7.3c0.9,1.7,2,3.2,3.3,4.6c3.9,4,9.9,5.8,15.4,4.5c3.8-1.2,7.2-3.4,9.6-6.6
		c1.6-2.1,2.7-4.5,3.5-7c0.9-3,0.6-6.2,0.5-9.3c-0.2-2.3-0.4-4.7-0.9-6.9c-1.8-0.2-3.7,0.2-5.4-0.6c-1.1-0.6-2.2-1.4-2.6-2.7
		c-0.3-1.2-0.3-2.5-0.3-3.8c-0.4,0.7-0.6,1.5-0.5,2.3c0,1.7,0,3.4-0.3,5.1c-0.5,3-1,6-2.2,8.8c-0.7,1.5-1.7,2.8-2.8,4.1
		c-0.5,1.8-0.6,3.8-1.6,5.5c-0.9,1.5-2.3,2.7-4.1,3.1c-2.3,0.5-4.8-0.3-6.5-2c-1.7-1.7-2.5-4.1-3-6.4c-1.1-5.6-0.8-11.3-0.8-16.9
		c0.1-3.7,0-7.3,0.4-11c0-0.5,0-1,0.1-1.5c0-4.5-0.1-9.1,0.2-13.6c0.2-3.6,0.1-7.1,0.3-10.7c0.2-3.1,0.2-6.3,0.4-9.4
		c0.2-3.1,0.1-6.3,0.4-9.4c0.4-7.4,0.6-14.7,1-22.1c0.1-1.6,0.4-3.2,0.1-4.8c-1-0.3-2.1-0.4-3-0.8c-1.4-1.1-1.6-3.4-0.4-4.8
		c0.9-1.1,2.5-1.1,3.7-1.7c0.6-1.3,0.5-2.8,0.6-4.2c0.3-6.5,1-13.1,1.2-19.6c0.1-2.8,0.5-5.5,0.7-8.3c0.3-2.4,0.3-4.8,0.8-7.2
		c0.2-1.2,0.4-2.6,0-3.8c-0.4-1.2-0.8-2.4-0.4-3.7c0.5-1.9,2.5-3,4.3-3.4c1.8-0.5,3.6,0.2,5.3,0.9c-1.4-1.7-3.9-1-5.8-1.4
		c0.4-0.7,1-1.4,1.7-1.7c2.4-1.2,5.3-1,7.9-0.3c2.5,0.4,4.5,2,5.9,3.9c0.5-0.2,1-0.4,1.4-0.5c1.5,3.5,1.5,7.4,1.7,11.2
		c0-2,0.2-4,0.7-5.9c1.5-5.8,0.6-11.8,1-17.6c2.3,1.3,3.2,4.1,4.5,6.2c0.2-0.2,0.7-0.5,1-0.6c-0.1-0.9-0.2-1.7-0.3-2.6
		c-1.5-3.5-4.3-6.2-7.1-8.5c-2.3-1-4.7-2.2-7.2-2.6c-2-0.4-4-0.4-5.9-0.8c-1.3-0.2-1.6-1.6-1.9-2.6c-0.7-3.4-0.4-6.8-0.1-10.2
		c0.2-1.8,0.3-3.6,0.9-5.2c2.1,0.2,4.1,1,6.2,1.2c2.6,0.3,5.1,0.5,7.7,0.9c1.8,0,3.5,0.1,5.3,0.5c1.6,0.4,3.2,0.8,4.4,2
		c0.6,0.5,0.6,1.4,0.6,2.1c0.1,1.8,0,3.6,0,5.4c0.2-2,0.3-4,0.4-6c-0.1-2.2,0.3-4.4-0.6-6.5c1.2,0.1,2.3,0.2,3.5,0.3
		c-3.3-0.8-6.6-0.9-9.9-1.2c-3.9-0.6-7.9-0.5-11.8-0.8c-1.7-0.1-3.4-0.4-5.1-0.4c-1.9,0-3.8,0.1-5.6-0.2c-1.3-0.1-2.6-0.4-3.9-0.1
		c-0.6,2.8-0.4,5.6-0.3,8.4c0,6.5-4.1,12.5-9.8,15.4c-1.6,0.7-3.3,1.3-5,1.8c-1.8,0.5-3.7,0.5-5.3,1.5c-1.7,1-2.9,2.6-3.8,4.4
		c1.5,1.6,3.3,2.7,4.7,4.4c0.9,1.1,1.2,2.5,1.5,3.8c0.4,1.7,1.4,3.2,1.9,4.9c0.5,1.7,0.8,3.5,1.2,5.2c0.4,2.3-0.1,4.7,0.6,7
		c0.2,0.9,1,1.8,2,1.5c1.2-0.3,1.9-1.5,1.9-2.7c0-3-0.3-6.1,0.2-9.1c0.3-1.6,0.9-3.1,1.3-4.7c0.7-3,2.2-5.7,3.7-8.3
		c1-1.9,2.6-3.4,4.2-4.8c1.3-1.2,3-2,4.7-2.5c3.4-0.9,6.9-1.8,10.4-1.3c0.6,0.5,1.1,1.1,1.7,1.7c0.6,0.6,1.5,1.1,1.9,1.9
		c-2.1,0.3-4.2-0.1-6.3,0.2c-0.9,0.4-1.4,1.4-2.4,1.7c-2.5,1-5.1,1.7-7.3,3.2c-1.9,1.3-3.2,3.3-5,4.8c-0.9,0.8-1.9,1.7-2.6,2.7
		c-1.5,2.1-2.8,4.5-3.1,7.1c-0.4,2.2-0.2,4.4-0.1,6.6c0.1,2.1-1,3.9-0.9,6c0,6.4,0,12.8,0,19.2c0,2.1,0.3,4.3,0.3,6.4
		c0,4.3-0.1,8.5,0.1,12.8c0,26.3,0,52.5,0,78.8c0,1.7,0.1,3.5-0.1,5.2c-0.2,1.5-2.3,2.5-3.4,1.4c-1.1-1.2-1.4-2.8-1.4-4.3
		c-0.1-2.8-0.6-5.5-0.6-8.3c-0.3-2.9,0-5.8-0.4-8.7c-0.3-2.3,0-4.7-0.2-7c-0.1-1.9-0.2-3.8-0.2-5.8c-0.1-12.9-0.1-25.9-0.1-38.8
		c0-5.5,0-11.1,0.1-16.6c0.3-11.7-0.1-23.4-0.1-35.1c0-2.7,0.1-5.3-0.2-8c-0.3-2.1-0.5-4.1-1.1-6.2c-1.2-4.1-3.6-8-7.1-10.6
		c-0.3-0.2-0.7-0.4-1.1-0.4c-0.8,1.8-1.4,3.6-2.4,5.2c-0.8,1.4-1.9,2.6-2.7,4c0.8,0.8,1.7,1.6,1.8,2.8c0.1,1.9-0.2,4.1-1.6,5.5
		c-1.4,0.5-3.1-0.5-3.3-2c-0.3-1.4-0.2-2.8-0.2-4.2c-1.6,0-3.3,0.3-4.7-0.4c-1.6-0.6-2.6-2.1-3.3-3.6c-0.5-1.3-0.4-2.8-0.8-4.1
		c-0.4-1.2-1.4-2.1-2.3-2.9c-0.9-0.8-1.7-1.6-2.7-2.2c-0.9-0.2-1.6,0.4-2.2,0.9c-1.5,1.4-3.3,2.5-4.5,4.2c-3.4,4.2-4.7,9.8-4.7,15.1
		c-0.4,10.2-0.2,20.4-0.2,30.6c0.2,7.4,0.3,14.8,0.2,22.3c0,0.5,0,1,0.3,1.5c0-0.2,0.1-0.6,0.1-0.8c-0.4-3.1-0.2-6.3-0.2-9.4
		c0-4.1,0-8.3,0-12.4c0-1.3-0.1-2.7,0.1-4c1.2-1.5,3.5-1.8,4.5-3.6c0.9-3.3-0.1-7,1.2-10.3c1.1,2.1,1.3,4.5,2.8,6.4
		c1.2,1.6,3.5,2.5,5.3,1.6c1.9-0.9,3.6-2.2,5.5-3.3c3.3-1.8,6.7-3.7,9.2-6.6c2.3-2.9,3.7-6.4,4.3-10c0.3-1.6,0.4-3.2,0.9-4.8
		c0.7,0.2,1.4,0.5,1.8,1c1.7,2,2.3,4.6,2.7,7.1c0.7,4.7,0.7,9.5,0.5,14.2c-0.3,4.5,0,9.1-0.3,13.6c-0.3,3.9-0.1,7.8-0.4,11.7
		c-0.2,2.9-0.2,5.9-0.2,8.8c0,2.6-0.2,5.3-0.1,7.9c1,0.4,2,0.8,2.8,1.5c0.6,0.6,0.8,1.6,0.5,2.4c-0.5,1.3-1.8,2.1-3.1,2.3
		c-1.3,0.1-2.6-0.1-3.9-0.3c1,0.5,2.2,0.7,3.3,1.1c0.3,2.1,0,4.2,0.1,6.3c0.1,3.8-0.3,7.5-0.2,11.3c0,7.4-0.1,14.7,0,22.1
		c1.1,0.7,2.2,1.5,2.7,2.8c0.8,3.2,0.4,6.5,0.7,9.8c0.2,3,0.3,6,0.2,9c-0.6-0.2-1.1-0.5-1.6-0.9c-0.4-4.6,0.3-9.2-0.4-13.7
		c-0.4,0.3-0.9,0.6-1.3,0.9c-0.4,4.2-0.1,8.5-0.2,12.7c0.1,0.2,0.2,0.7,0.3,0.9c0.8,0.2,1.7,0.3,2.5,0.4l0.3,0.1
		c0.9,0.6,1.9,1.3,2.1,2.4c0.1,1,0.2,2.4-0.8,3.1c-1.4,0.8-3.1,0.5-4.7,0.3c0,3-0.1,6-0.1,9c0,0.9-0.1,2.1,0.9,2.5
		c1,0.4,2.2,0.8,2.9,1.7c0.6,1,0.8,2.2,1.1,3.3c0.2-1.7,0.3-3.5,0.7-5.2c0.2,0,0.7-0.1,0.9-0.1c0.6,0.7,0.4,1.6,0.3,2.4
		c-0.4,2.7-1.2,5.3-2.4,7.8c-1.4,2.8-3.9,4.9-6.5,6.6c-5.3,3.3-11.8,4.1-18,3.4c-3.1-0.4-6-1.6-8.7-3c-2.4-1.2-4.4-3.1-6.2-5.1
		c-2.7-3-4.1-6.9-4.8-10.8c-0.7-2.9-0.4-5.9-0.9-8.9c-0.3-1.8-0.4-3.6-0.3-5.4c0.1-0.5,0-1.2,0.4-1.6c0.8,0.8,1.1,2,1.6,3
		c0.1,0,0.4-0.1,0.5-0.1c0.3-1.5,0.3-3,0.1-4.5c-0.3,0-0.7,0.1-1,0.2c-0.7,0.2-1.3,0.4-2,0.5c-0.8,0.1-1.6-0.6-1.7-1.4
		c-0.2-1.1-0.2-2.2-0.2-3.3c0.1-11.9,0-23.9,0.1-35.8c0-13.3,0-26.6,0-40c0-5.2,0.2-10.3,0.1-15.5c0-8.7,0-17.3,0-26
		c0-1.2,0.1-2.5-0.1-3.7c-0.5-1-1.5-1.9-1.5-3.1c-0.2-3.1,0.6-6.3-0.1-9.4c-0.6-2.6-1.7-5.3-3.7-7.2c-1.8-1.7-3.3-3.8-5.3-5.2
		c-2.3-1.7-5-3-7.7-4c-1.3-0.4-1.8-1.9-3.2-2c-1.9-0.3-3.7-0.5-5.6-0.5c-1.6,0-3.1,0.7-4.2,1.8c-0.5,0.6-0.7,1.4-0.9,2.1
		c-0.6,2-2.3,3.5-2.5,5.6c-0.2,2-0.1,3.9-0.1,5.9c0,2.2,0.8,4.2,1.2,6.3c0.5,2.9,0.3,5.8,0.3,8.8c-0.1,3.9,0.2,7.8,0.2,11.7
		c0.3,9.5,0,19.1,0.3,28.6c0,10.7,0,21.4,0,32.1c-0.2,5.6-0.2,11.3-0.4,16.9c0.1,4.8-0.4,9.6-0.4,14.3c0.1,2.8-0.7,5.5-0.5,8.3
		c-0.4,7.6-1,15.2-1.8,22.8c-0.6,4.9,0.7,10.1,3.6,14.1c0.9,1.3,1.9,2.6,3.3,3.5c1.9,1.3,3.7,2.8,6,3.4c3,1,6.1,0.7,9.2,0.1
		c1.5-0.2,2.7-1.2,4-2c3.3-2.1,5.7-5.4,7.3-9c0.6-1.4,0.8-3,1.5-4.4c0,0.7-0.1,1.5,0,2.2C72.2,285.5,72.3,287,71.9,288.5z
		 M49.2,303.3c-4.4-0.6-9-1-13.1-2.7c-2.9-1.2-5.7-2.6-8.1-4.7c-1.6-1.4-3.2-2.9-4.1-4.9c-0.8-1.7-0.6-3.6-0.6-5.5
		c0.1-2.3,0-4.6,0.5-6.8c0.7,0.8,0.3,1.8,0.2,2.7c-0.3,1.9-0.2,3.7-0.1,5.6c0.1,1.5,0.2,3,1.1,4.2c1.2,1.6,2.5,3.3,4.2,4.5
		c2.3,1.7,4.7,3.4,7.5,4.2c3.1,1.1,6.3,2,9.6,2.4c2.5,0.6,5,0.6,7.5,0.5C52.4,303.8,50.8,303.5,49.2,303.3z M126.8,131.6
		c0.3,2,0.5,4.1,0.2,6.1c0,0.6-0.7,0.9-1.1,1.2c-0.5-1.3-0.5-2.8-0.5-4.2c0-1.9-0.3-3.7-0.4-5.6c-0.2-3.2-1.5-6.2-2.1-9.4
		c-0.5-2.6-1.7-5.4-0.3-8c1,0.7,1.4,1.9,1.9,2.9c0.6,1.3,1.5,2.6,1.7,4.1c1.1,0.5,1.3,1.8,1.1,2.9
		C127.5,125,126.4,128.3,126.8,131.6z M129,114.3c-0.8-0.6-0.8-2.3,0.4-2.5c0.2,0,0.7-0.1,0.9-0.1
		C131.2,112.7,130.4,114.7,129,114.3z M137.3,107.6c-0.5,0.5-1.1,1.1-1.9,1.3c-0.6-0.3-1.2-0.9-1-1.7c0.2-0.8,0.5-1.6,0.8-2.3
		c0.4-0.5,0.8-1.2,1.5-1.1C137.7,104.9,137.6,106.4,137.3,107.6z M137.4,123.2c0.4-0.1,0.8-0.1,1.2-0.1c-0.3,1.6-0.6,3.3-1.5,4.7
		c-0.2,0-0.7,0.1-0.9,0.1C136.3,126.3,136.7,124.7,137.4,123.2z M120.1,218.3c-0.8,0-1.5-0.3-2-0.8c0-0.6,0.1-1.1,0.4-1.6
		c0.7-0.2,1.4-0.3,2.1,0C120.9,216.7,120.8,217.7,120.1,218.3z M64.4,234.6c0,1.9,0,3.7-0.1,5.6c-0.3,4.5,0,8.9-0.4,13.4
		c-0.3,5.9-0.7,11.9-2.5,17.6c-0.6,2-1.7,4-3.1,5.5c-1.3,1.5-3.7,1.9-5.5,0.9c-1.1-0.8-1.9-2-2.5-3.2c-0.3-0.4-0.2-0.9,0.2-1.2
		c-2.3,0.7-5,0.3-6.9-1.2c-1.7-1.3-1.7-4.1,0-5.4c2.4-2,6-1.8,8.6-0.3c-0.6-0.8-1.7-1-2.4-1.7c-0.2-2.6,0-5.2-0.1-7.8
		c0.1-5.2-0.1-10.3,0.2-15.5c0.1-0.7-0.1-1.9,0.9-1.9c1.2-0.1,2.4-0.3,3.4-1c-2.5,0.9-6.1,0.5-7.4-2.1c-0.4-1.3-0.6-2.9,0.1-4.1
		c0.1,0.4,0.3,0.9,0.4,1.3c-0.1-1.7,0.6-3.4,1.8-4.5l0.3,0c0.1-1.1,0.3-2.3,0.3-3.4c-0.2-7,0.1-14.1-0.4-21.1
		c-0.1-1.9,0.3-3.9-0.7-5.6c-1.2-0.2-1.1-2.2,0-2.4c0.5-1,0.3-2.2,0.3-3.3c-0.1-1.4,0-2.8-0.1-4.2c-0.1-2.1-0.4-4.3-0.4-6.4
		c0-1.2,0.1-2.4-0.2-3.5c-0.8-0.3-1.7-0.4-2.5-0.9c-0.5-0.7-0.6-1.8,0.1-2.4c0.7-0.4,1.5-0.5,2.2-0.9c0.2-1.1,0-2.3-0.1-3.4
		c-0.7-10.4-1.3-20.8-2.5-31.1c0-1-0.5-1.9-1-2.7c-1,0-2-0.4-2.6-1.1c-0.9-0.9-0.9-2.5-0.1-3.4c0.6-0.7,1.3-1.3,2.1-1.8
		c-0.6-2-1.1-4.8,0.7-6.4c1.7-1.5,4-2.3,6.3-2.4c1.6,0,3.4,0,4.8,0.9c2,1.2,3.6,3.1,4.6,5.2c2.3,4.4,2.8,9.4,3.1,14.3
		c0.4,4.1,0.2,8.2,0.4,12.3c0.3,5.2,0.1,10.5,0.4,15.7c0.2,3.5,0,7,0.1,10.5C64.6,199.2,64.6,216.9,64.4,234.6z M45.6,204.5
		c0.6-0.2,1.2-0.1,1.8,0.1c0.3,0.8,0.2,1.7,0,2.5c-0.6,0.1-1.1,0.1-1.7,0C45,206.3,44.7,205,45.6,204.5z"/>
	<path class="st3" d="M40.8,107c-1.5,1.1-3.2,2.1-4.4,3.5c-1.8,2.1-3,4.6-3.9,7.2c-0.2,2-0.2,4-0.3,6c-0.1,1.8-0.3,3.5-0.3,5.3
		c0.1,6,0,12.1,0,18.1c0,2.6-0.1,5.2,0.1,7.8c0.5,0.6,1,1.2,0.9,2c0,9.1,0,18.2,0,27.2c0.2-2,0.1-4.1,0.1-6.1
		c0-6.9,0.1-13.8,0.1-20.7c0.2-4-0.1-8,0-12.1c0-5.7,0-11.3,0.1-17c0-4,0.2-8.2,2.1-11.8c1.2-2.5,3.4-4.4,5.6-6.1
		c2.8-2.2,6.5-3.2,10-3.2c4.5-0.1,9.3,0.8,13,3.6c1,0.7,1,2,1.7,2.9c0.7,0.8,1.8,1.2,2.9,0.9c-1-2-2.5-3.5-3.8-5.3
		c-0.8-1-1.5-2.1-2.6-2.7c-2.7-1.3-5.8-1.6-8.8-2.3c1.6-1.5,3.7-2.4,5.1-4.2c1.4-1.7,2.1-3.8,2.9-5.8c0.4-1,1-2.1,2.2-2.2
		c1.9-0.2,3.3,1.3,4.4,2.5l0.2,0.2c0.3-0.5,0.7-1,1.1-1.4c0.7-0.8,1.7-1.5,2.8-1.3c2,0.4,3.9,1.9,4.3,4c0.3,1.2,0,2.4-0.4,3.5
		c0.4-0.4,0.7-0.9,1.1-1.3c1.2,1.6,1.5,3.6,2.1,5.4c0.9,2.5,2.2,4.9,4.3,6.6c1,0.9,2.2,1.6,2.9,2.9c0.2,1.2-0.7,2.2-1.4,3
		c-0.8,0.9-1.5,1.9-2,2.9c1.1-0.8,2-1.8,3-2.7c1.1-1.1,2.6-1.7,3.8-2.7c-0.8-1.3-1.9-2.4-2.5-3.9c-1.8-4-1.7-8.5-0.9-12.6
		c0.7-3.3,1.2-6.7,0.4-10c-0.6-1.6-1.4-3.2-2.5-4.6c-2.2-0.3-4.4,0-6.6,0c-5,0.5-10,0.7-14.9,1.2c-3,0.3-6,0.4-8.9,1.2
		c-0.3,1.4-0.1,2.8-0.2,4.2c-0.5,4.6-2.8,9.2-6.8,11.8c-1.4,1.1-2.9,1.8-4.5,2.4c0.2,0.1,0.6,0.4,0.8,0.6
		C42.8,105.5,41.8,106.3,40.8,107z"/>
	<path class="st3" d="M21.5,102.3c0.6,0.9,1.1,1.7,1.4,2.7c0.7,2.7,1.8,5.2,2.4,7.9c0.3,1.6,1,3.3,0.3,4.8c-0.4,1-1.6,0.7-2.5,0.7
		c-0.3-1.1,0.2-2.4-0.4-3.3c-0.2,1-0.2,2.1-0.3,3.2c0,0.9,0,1.8,0.5,2.6c0.8,0.8,1.9,1.3,2.6,2.2c1.5,2.1,2.7,4.8,1.9,7.4
		c-0.3,1.5-1.8,2.3-2.9,3.3c0.2,7.6,0.4,15.2,0.5,22.8c0,1.2,0,2.4,0.2,3.5c1.9-1.3,3.1-3.3,5.2-4.4c0.3-4.3-0.2-8.6,0.3-12.8
		c0.1-1.5,0.2-3,0.2-4.4c0-4.1,0.1-8.1-0.1-12.2l-0.2,0.2c-0.1,1-0.1,2-0.5,3c-0.6,0.8-1.5,1.3-2.3,1.7c0.1-1,0.2-1.9,0.3-2.9
		c-0.4-2.4-1.7-4.4-2.9-6.4c1.3-1.3,2.9-2.3,3.4-4.2c-0.6-1.5-1.3-3-2.1-4.4c-0.7-1.3-0.8-2.8-0.9-4.2c-0.1-1-0.2-2,0-3
		c0.3-1.4,0.8-2.8,0.9-4.2c0.1-1.9-0.4-3.7-0.6-5.5c-0.2-1.6,0.1-3.2,0.5-4.7c0.9,0.4,1,1.5,1.4,2.2c0-0.3,0-0.8,0-1.1
		c0-0.7-0.1-1.3-0.3-2c-0.8-0.4-2,0.1-2.1,1c-0.2,1.6,0.1,3.4-0.4,5C24.3,98.9,22.9,100.6,21.5,102.3z"/>
	<path class="st3" d="M175.8,264.7c0.4,1,0.8,1.9,0.8,3c0,1-0.2,2-0.9,2.8c-0.7,1-1.9,1.2-2.9,1.7c-0.3,1.4-0.1,2.8-0.2,4.2
		c-0.2,3.7-0.8,7.4-2,10.8c1.4-2,1.9-4.4,2.1-6.8c0.3-2.6-0.3-5.2,0.3-7.7c0.3,0,0.8-0.2,1-0.2c0.3,3.6-0.1,7.3-0.4,10.9
		c0,2.5-0.3,5-0.8,7.5c-0.2,1-0.5,2-1.1,2.7c-1.5,1.8-3.7,3-5.9,3.9c-2,1.1-4.1,1.9-6.2,2.8c1,0.1,2.1,0.2,3.1,0.2
		c1.8-0.2,3.4-1.1,5-1.8c2.6-1.1,5-2.7,7-4.7c2.1-2,3.3-5,3.4-7.9c0.1-3.8,0.1-7.6,0-11.4c0.8,2.5,0.3,5.1,0.7,7.6l0.4,0.1
		c0.3-3.6-0.1-7.2-0.2-10.8c-0.1-2.2-0.2-4.4-0.3-6.6c-0.1-2.2,0-4.4-0.5-6.5c-0.9,1.9-1.9,3.7-2.7,5.7L175.8,264.7z"/>
	<path class="st3" d="M88.6,295.9c1.4,0.2,2.9-0.1,4.4,0.2c1.2,0.7,2.1,1.8,3.3,2.5c1.3,0.7,2.9,0.8,4.4,0.8c2.1,0,4.4-0.2,6.3-1.2
		c1.2-0.6,1.9-1.9,2.9-2.8c1.7-0.2,3.4,0,5.2-0.1c-1.1-0.6-2.6-1-3.1-2.2c-0.7-1.4-0.4-3,0-4.4c-1.4,1.8-3.7,2.4-5.7,3.3
		c-2.1,0.9-4.3,1.7-6.6,2.1c-3.1,0.6-6.2,1.1-9.4,0.7c-2.3-0.3-4.6-1.5-5.9-3.5c-1.1-1.6-1.5-3.5-2.4-5.1c-0.5-1-1.7-1.2-2.6-1.7
		c0.4,2.9,1.9,5.6,3.6,7.8C84.2,294.3,86.2,295.8,88.6,295.9z"/>
	<path class="st4" d="M172.4,91.4c0.3-1.9,0.4-3.8,0.6-5.7c1.6-0.1,3.2,0.1,4.8,0.4c0.2,2.7-0.1,5.4-0.3,8c-0.4,2.9-0.3,5.9-0.5,8.9
		c-0.2,2.8,0,5.6-0.3,8.3c-0.4,3.1,0.4,6.4-0.7,9.4c-0.1,2.9-0.3,5.7-0.5,8.6c0,5.3,0,10.5,0,15.8c-0.5-0.2-0.9-0.5-1.3-0.7
		c0.7,1.1,1.3,2.2,1.4,3.5c0.1,1.1-0.3,2.2-0.7,3.3c0.4-0.1,0.7-0.1,1.1-0.1c0.9,1.7,0.4,3.7,0.5,5.5c0,4.7-0.2,9.4,0.1,14.1
		c0.2-6.4,0.2-12.9,0.4-19.3c0.1-4.3,0-8.6,0.2-12.8c0.4-6.1,0-12.3,0.4-18.5c0.2-4.4-0.1-8.8,0.3-13.2c0.3-3.3,0-6.6,0.3-9.8
		c0.3-2.9,0-5.8,0.4-8.7c0.1-0.9,0.3-1.9,0-2.8c-1.1-0.2-2.2-0.2-3.3-0.3c-1.2,0-2.3-0.2-3.5-0.3C172.7,87,172.4,89.3,172.4,91.4z"
		/>
	<path class="st4" d="M161.4,94.3c-0.2-2.3,0-4.6,0.3-6.9c-2.5-0.4-5.1-0.6-7.7-0.9c-2.1-0.2-4.1-1-6.2-1.2
		c-0.7,1.7-0.8,3.5-0.9,5.2c-0.3,3.4-0.6,6.8,0.1,10.2c0.3,1,0.6,2.5,1.9,2.6c2,0.4,4,0.4,5.9,0.8c2.5,0.5,4.9,1.6,7.2,2.6
		c0-1.5,0-2.9-0.2-4.4C161.6,99.8,161.6,97.1,161.4,94.3z"/>
	<path class="st4" d="M26.4,91.7c-0.5,1.5-0.8,3.1-0.5,4.7c0.2,1.8,0.7,3.6,0.6,5.5c0,1.4-0.5,2.8-0.9,4.2c0.5-0.8,1.1-1.7,1.9-2.2
		c1.4-1.1,3.4-1,4.9-0.2c1.7,1.1,1.8,3.8,0.5,5.2c-1.8,2.1-5.3,2-7.3,0.2c0.1,1.4,0.2,2.9,0.9,4.2c0.8,1.4,1.5,2.9,2.1,4.4
		c0.4,0.4,0.8,0.9,1.3,1.2c0.8,0.2,1.5-0.2,2.2-0.5c0.1-0.2,0.2-0.6,0.3-0.8c0.9-2.6,2.1-5.1,3.9-7.2c1.2-1.4,2.9-2.5,4.4-3.5
		c1-0.7,2-1.5,2.2-2.7c-0.2-0.1-0.6-0.4-0.8-0.6c-1.3,0-2.6,0.3-3.8,0.2c-1.7-0.1-3.4-0.7-4.9-1.6c-1.9-1.1-3.2-2.9-4.2-4.8
		c-0.8-1.4-0.6-3.2-1.5-4.6c0,0.3,0,0.8,0,1.1C27.4,93.2,27.3,92.1,26.4,91.7z"/>
	<path class="st4" d="M86.3,113.3c-0.6-1.2-1.9-2-2.9-2.9c-2.1-1.7-3.4-4.1-4.3-6.6c-0.7-1.8-0.9-3.8-2.1-5.4
		c-0.4,0.4-0.8,0.8-1.1,1.3c-0.7,0.8-1.5,1.6-2.5,2c-1.3,0.4-2.7,0.4-4,0.3c1.2,0.2,2.4,0.3,3.5,0.6c0.9,0.6,1.5,1.5,2.1,2.3
		c1.9,2.7,3.2,5.8,4.3,8.9c0.4,1.3,0.8,2.7,0.5,4c-0.4,1.4-1,2.8-1.4,4.2c-0.9,2.7-1.5,5.5-2.7,8.1c-0.1-1.5-0.2-3-0.5-4.5
		c-0.7-3.6-1.5-7.2-3.2-10.4c-1.1-2.1-2.6-3.9-4.5-5.4c-0.9-0.7-1.9-1.3-2.7-2.3c-0.3-1.2,0-2.4,0.1-3.6c0.2-1.2,0.4-2.4,1-3.4
		c0.4-0.1,0.8-0.2,1.2-0.2c-0.3-0.7-0.7-1.5-0.7-2.3c0.2-1.2,0.8-2.2,1.4-3.2l0.1-0.3c-1.2-1.2-2.6-2.7-4.4-2.5
		c-1.2,0.1-1.8,1.3-2.2,2.2c-0.8,2-1.5,4.1-2.9,5.8c-1.4,1.8-3.5,2.7-5.1,4.2c2.9,0.6,6,0.9,8.8,2.3c1.2,0.6,1.9,1.7,2.6,2.7
		c1.3,1.8,2.8,3.3,3.8,5.3c2.2,3.5,3.1,7.6,4.4,11.5c0.8,2.2,0.7,4.7,1.3,7c0.9,0.3,1.9,0.5,2.7,0.9c1.1,0.9,0.8,2.6,0.9,3.9
		c0.4-0.7,0.2-1.5,0.3-2.3c0-2.9,0.6-5.8,1.3-8.6c0.4-1.6,1-3.1,1.9-4.5c0.6-1,1.3-2,1.8-3.1c0.5-1.1,1.2-2.1,2-2.9
		C85.6,115.5,86.5,114.5,86.3,113.3z"/>
	<path class="st4" d="M134.3,107.3c-0.2,0.7,0.4,1.4,1,1.7c0.8-0.1,1.4-0.7,1.9-1.3c-0.7-0.9-1.4-1.8-2.1-2.7
		C134.8,105.7,134.5,106.5,134.3,107.3z"/>
	<path class="st4" d="M125,119.9c0.4-0.4,0.8-0.8,1.2-1.2c-0.2-1.5-1.1-2.7-1.7-4.1c-0.6-1-0.9-2.2-1.9-2.9c-1.4,2.5-0.3,5.4,0.3,8
		c0.6,3.2,1.9,6.2,2.1,9.4c0.1,1.9,0.4,3.7,0.4,5.6c0,1.4,0,2.9,0.5,4.2c0.5-0.3,1.1-0.5,1.1-1.2c0.3-2,0.1-4.1-0.2-6.1
		c-0.5-3.3,0.7-6.6,0.5-9.9c-0.7-0.1-1.3-0.2-1.9-0.4C125,121,124.5,120.3,125,119.9z"/>
	<path class="st4" d="M129.4,111.8c-1.2,0.2-1.2,1.9-0.4,2.5c1.4,0.4,2.2-1.6,1.3-2.6C130.1,111.7,129.6,111.8,129.4,111.8z"/>
	<path class="st4" d="M114.8,114c-0.3,0.5-0.6,1-0.5,1.6c1,1,2.1,1.6,3.1,2.6c1.4,1.2,2.2,2.8,3.5,4.1c-0.3-1.3-0.6-2.7-1.5-3.8
		C118.2,116.8,116.3,115.6,114.8,114z"/>
	<path class="st4" d="M169.4,142.9l0.3,0c0.7-2,0.4-4.2,0.4-6.3c0-4.4,0-8.8,0-13.2c0-1.8-0.3-3.7-0.7-5.4c-0.2,0.2-0.7,0.5-1,0.6
		c0.3,2,0.7,3.9,0.7,5.9C169.1,130.6,169.3,136.8,169.4,142.9z"/>
	<path class="st4" d="M153.1,121.4c-2.6-0.7-5.4-0.9-7.9,0.3c-0.8,0.3-1.3,1-1.7,1.7c1.9,0.3,4.4-0.3,5.8,1.4
		c0.6,0.5,1.1,1.1,1.6,1.7C151.5,124.7,152.3,123,153.1,121.4z"/>
	<path class="st4" d="M64.3,170.9c-0.4-5.2-0.1-10.5-0.4-15.7c-0.3-4.1,0-8.2-0.4-12.3c-0.3-4.9-0.8-9.9-3.1-14.3
		c-1-2.1-2.6-4-4.6-5.2c-1.4-0.9-3.2-0.9-4.8-0.9c-2.3,0.1-4.6,0.9-6.3,2.4c-1.8,1.6-1.3,4.3-0.7,6.4c1.4,0,2.8,0.1,4.1,0.5
		c0.4,0.2,0.8,0.5,1.2,0.8c0.2,1.2,0.3,2.6-0.5,3.5c-1.1,1.1-2.7,1.3-4.1,1.5c0.6,0.8,1,1.7,1,2.7c1.2,10.3,1.8,20.7,2.5,31.1
		c0.1,1.1,0.3,2.3,0.1,3.4c-0.7,0.3-1.5,0.5-2.2,0.9c-0.6,0.6-0.6,1.8-0.1,2.4c0.8,0.5,1.7,0.6,2.5,0.9c0.3,1.1,0.2,2.3,0.2,3.5
		c0,2.1,0.3,4.3,0.4,6.4c0,1.4,0,2.8,0.1,4.2c0,1.1,0.3,2.3-0.3,3.3c0.4,0.1,0.8,0.1,1.2,0.2c0.3,0.6,0.3,1.3,0,1.9
		c-0.4,0.1-0.8,0.2-1.2,0.2c1,1.7,0.5,3.7,0.7,5.6c0.5,7,0.2,14.1,0.4,21.1c0,1.2-0.1,2.3-0.3,3.4c0.3,0.1,0.6,0.2,1,0.3
		c0.5-0.5,0.9-0.9,1.4-1.4c0.2-0.6,0.8-1,1.4-1c1.3-0.3,2.6,0.3,3.8,0.9c0.2-2,0.4-4,0.7-6c0.1-1.2,0.5-2.4,1.2-3.4
		c0.6,0.4,1,1,1.3,1.7c1,2.9,1.1,6.1,0.8,9.2c-0.2,3.6-0.7,7.1-1.5,10.6c-0.3,1.1-0.7,2.6-1.9,2.9c-0.6,0.2-1.1-0.3-1.2-0.8
		c-0.5-1.4-0.7-2.8-0.9-4.3c-0.4,0.3-0.8,0.5-1.2,0.7c-1,0.7-2.2,0.9-3.4,1c-1,0-0.8,1.2-0.9,1.9c-0.2,5.2-0.1,10.3-0.2,15.5
		c0.1,2.6-0.2,5.2,0.1,7.8c0.7,0.7,1.8,0.9,2.4,1.7c0.9,1.3,0.9,3.1,0.6,4.6c-0.2,1.2-1.5,1.6-2.3,2.2c-0.4,0.2-0.5,0.8-0.2,1.2
		c0.6,1.2,1.3,2.5,2.5,3.2c1.7,1,4.1,0.6,5.5-0.9c1.5-1.6,2.5-3.5,3.1-5.5c1.8-5.7,2.2-11.7,2.5-17.6c0.4-4.5,0.1-8.9,0.4-13.4
		c0.1-1.9,0.1-3.7,0.1-5.6c0.2-17.7,0.2-35.4,0-53.2C64.3,177.9,64.5,174.4,64.3,170.9z M55.1,250.6c-0.6,0.2-1.2,0.2-1.8,0.1
		c-0.3-0.7-0.8-1.9,0-2.3c0.6-0.1,1.2-0.2,1.8,0.1C55.4,249.1,55.3,249.9,55.1,250.6z M58.3,213.1c0,2.3-3.5,3.4-4.9,1.6
		c-1.1-1.3-1.2-3.2-1-4.9c0.2-1,0.9-1.9,1.9-2.2c0.9-0.3,2.1,0,2.7,0.7C58.3,209.6,58.5,211.5,58.3,213.1z M54,200.4
		c0.5-0.1,1.1-0.1,1.6,0c1,0.7,1.1,2.2,0.3,3.1c-0.4,0.7-1.3,0.6-1.9,0.5C52.9,203.1,52.8,201.2,54,200.4z M61.9,183.2
		c-0.2,1.3-1.6,1.7-2.6,2.2c-0.9,0.4-1.6,1.2-2.4,1.8c-0.7,0.3-1.5,0.3-2.2,0.1c-1.1-0.9-1.3-2.4-1.6-3.6c-1.1-2.7,0.6-5.7,2.6-7.5
		c-0.1-3-0.3-6.1,0.9-8.9c0.2-0.7,1.3-0.7,1.5,0c0.9,1.8,1,3.9,0.8,5.9c-0.1,0.8,0,1.6,0.3,2.3c1.3,0,2.1,1.2,2.6,2.4
		C62.1,179.6,62.2,181.4,61.9,183.2z"/>
	<path class="st4" d="M138.6,123.1c-0.4,0-0.8,0.1-1.2,0.1c-0.6,1.5-1.1,3.1-1.2,4.7c0.2,0,0.7-0.1,0.9-0.1
		C138,126.4,138.3,124.7,138.6,123.1z"/>
	<path class="st4" d="M159,255c0.7-0.5,1.5-0.5,2.4-0.5c0.5,0,0.9,0,1.4,0.1c0.1-1.8,0-3.5-0.1-5.2c-0.2-2.4-0.1-4.8-0.3-7.2
		c-0.1-1.6-0.5-3.2-0.5-4.8c0-10.7,0-21.4-0.1-32.1c-0.1-7.4-0.1-14.8-0.1-22.2c0.1-8.7,0.1-17.3,0.3-26c0-7,0.3-14,0.3-21
		c-0.1-3.8-0.2-7.7-1.7-11.2c-0.5,0.2-1,0.3-1.4,0.5c0.7,1.7,1.3,3.4,1.6,5.2c0.3,1.6-0.7,3.1-1,4.6c0.2,1.5,1,2.9,0.8,4.5
		c-0.6,7-1.3,14.1-1.8,21.1c-0.6,8.4-1.1,16.8-1.5,25.2c0,2.2-0.1,4.4-0.3,6.5c-0.2,3.2-0.1,6.5-0.3,9.7c-0.4,5.6-0.3,11.3-0.4,17
		c0.1,4-0.4,8-0.3,12.1c-0.1,6.5,0,13.1-0.3,19.6c-0.1,3.1,0,6.2-0.2,9.4C156.6,258.4,157.3,256.2,159,255z"/>
	<path class="st4" d="M27.9,131.2c0.8-0.5,1.7-0.9,2.3-1.7c0.3-1,0.3-2,0.5-3c-0.9,0.6-1.7,1.1-2.5,1.8
		C28.1,129.3,27.9,130.3,27.9,131.2z"/>
	<path class="st4" d="M105,133c0.2,1.5,1.9,2.5,3.3,2c1.4-1.4,1.7-3.6,1.6-5.5c-0.1-1.2-1-2-1.8-2.8c-1.2,0.6-2.3,1.3-3.3,2.2
		C104.8,130.3,104.7,131.7,105,133z M106.4,128.8c0.6-0.3,1.7-0.4,2,0.4c0.7,1.3,0.7,2.9,0.2,4.3c-0.9,0.7-2.3,0.3-2.6-0.9
		C105.7,131.4,105.4,129.7,106.4,128.8z"/>
	<path class="st4" d="M146.7,281c-1.4-0.2-2.6-1.2-3.4-2.3c-1.5-2-1.9-4.4-2.2-6.8c-0.9-6.2-0.2-12.5-0.5-18.8
		c-0.1-2-0.1-3.9,0.2-5.9c0.5-3.4,0.6-6.9,0.8-10.3c0.1-1.3-0.5-2.5-0.8-3.8c0.3-1.3,1.3-2.4,1.3-3.8c0.1-1.9,0.1-3.9,0.3-5.8
		c0.1-1.5,0.4-3,0.1-4.5c-0.6-0.2-1.2-0.4-1.8-0.5c-0.9-0.2-1.8-0.6-2.5-1.3c-1.1-1.1-1.3-3-0.6-4.4c0.9-1.6,2.3-2.9,4-3.5
		c0.6-0.3,1.3-0.5,1.9-0.9c0.1-0.4,0.2-0.9,0.3-1.3c0.7-11.5,1.7-23,2.7-34.6c0.1-1.5,0.4-2.9,0.1-4.4c-0.7-0.1-1.4-0.1-2.1-0.3
		c-0.8-0.6-1.5-1.9-0.8-2.9c1.1-0.9,2.6-1.5,3.3-2.8c0.9-1.2,0.9-2.7,1-4.1c0.2-2.5,0.7-4.9,1-7.4c0.6-5.2,1.1-10.3,1.6-15.5
		c0.1-1.3,0.5-2.8-0.3-4c-1.6,1.1-3.5,2-5.4,1.8c-1.7,0.1-3.3-0.9-4.5-2c0.4,1.2,0.2,2.5,0,3.8c-0.5,2.4-0.5,4.8-0.8,7.2
		c-0.3,2.8-0.6,5.5-0.7,8.3c-0.1,6.6-0.9,13.1-1.2,19.6c-0.1,1.4,0,2.9-0.6,4.2c-1.2,0.5-2.8,0.5-3.7,1.7c-1.2,1.3-1,3.7,0.4,4.8
		c0.9,0.5,2,0.5,3,0.8c0.3,1.6,0,3.2-0.1,4.8c-0.4,7.4-0.7,14.7-1,22.1c-0.3,3.1-0.1,6.3-0.4,9.4c-0.2,3.1-0.2,6.3-0.4,9.4
		c-0.3,3.6-0.1,7.1-0.3,10.7c-0.3,4.5-0.2,9.1-0.2,13.6c0.9-0.5,1.8-1,2.8-0.6c0.5,1,0.4,2.1,0.1,3.1c-1.1,0.2-2.1-0.5-3-1.1
		c-0.4,3.6-0.3,7.3-0.4,11c0,5.6-0.2,11.3,0.8,16.9c0.5,2.3,1.3,4.7,3,6.4c1.6,1.7,4.1,2.6,6.5,2c1.7-0.4,3.1-1.7,4.1-3.1
		c1-1.7,1.1-3.7,1.6-5.5C148.7,280.7,147.7,281.1,146.7,281z"/>
	<path class="st4" d="M80.2,201.5c0,0.8,0,1.8,0.3,2.6c0.7,0.5,1.7,0.5,2.3,1.2c0.4,1.1,0.5,2.2,0.6,3.4c1.2-0.7,2.5-1.5,3.9-1.4
		c1.7,0,3.1,1.4,4.2,2.6c1.3,1.4,1.4,3.5,1.3,5.3c-0.2,2.1-2.3,3.6-4.3,3.7c-1.9,0.2-3.7-0.5-5.3-1.4c0,3.6-0.1,7.2,0.1,10.9
		c0.1,2.1,0.3,4.2,0.3,6.4c0.1,10.7,0.1,21.4,0.1,32.1c0,3.5-0.1,6.9-0.6,10.4c-0.3,1.3-0.5,2.8-1.6,3.7c-0.6,0.5-1.4-0.2-1.7-0.8
		c-0.7-1.7-0.7-3.6-1.2-5.4c-0.3,0.6-0.5,1.3-0.6,2.1c-0.3,2.2-0.3,4.5,0.1,6.7c0.1-0.1,0.4-0.2,0.5-0.3c0.2,0.5,0.3,1,0.4,1.5
		c0.9,0.4,2.1,0.6,2.6,1.7c0.9,1.7,1.3,3.6,2.4,5.1c1.4,1.9,3.6,3.1,5.9,3.5c3.1,0.4,6.3-0.1,9.4-0.7c2.3-0.4,4.5-1.1,6.6-2.1
		c2-0.9,4.3-1.5,5.7-3.3c0.5-0.7,1.3-1,2-1.3c1.4-0.7,2.9-1.5,4.6-1.3l0.3,0c-2-1-4,0.4-5.9,0.9c0.2-1,0.4-2,1.1-2.7
		c1-0.9,2.4-1.1,3.7-1.3c-1-0.4-0.9-1.6-0.9-2.5c0-3,0.1-6,0.1-9c-0.1-0.2-0.3-0.6-0.4-0.8c-1-0.7-2.2-1.3-3.1-2.1
		c-0.6-1-0.4-2.4,0.4-3.2c1.1-0.5,2.2-0.7,3.4-1c0.1-4.2-0.2-8.5,0.2-12.7c-1.4,0.2-2.9,0.3-4.1-0.6c-1.3-0.9-1.2-2.8-0.4-4
		c0.8-1.6,2.6-2.5,4.1-3.3c-0.2-7.4,0-14.7,0-22.1c-0.1-3.8,0.3-7.5,0.2-11.3c-0.1-2.1,0.2-4.2-0.1-6.3c-1.1-0.4-2.3-0.6-3.3-1.1
		c-1.3-1-1.6-3-0.7-4.4c1.3-1.1,3-1.2,4.5-1.5c0-2.6,0.1-5.3,0.1-7.9c0-2.9,0-5.9,0.2-8.8c0.3-3.9,0.1-7.8,0.4-11.7
		c0.3-4.5,0.1-9.1,0.3-13.6c0.3-4.7,0.2-9.5-0.5-14.2c-0.4-2.5-1-5.1-2.7-7.1c-0.5-0.6-1.1-0.9-1.8-1c-0.5,1.5-0.7,3.2-0.9,4.8
		c-0.6,3.6-2,7.2-4.3,10c-2.5,2.9-5.9,4.8-9.2,6.6c-1.9,1-3.5,2.4-5.5,3.3c-1.9,0.9-4.2,0-5.3-1.6c-1.5-1.9-1.7-4.3-2.8-6.4
		c-1.3,3.3-0.2,6.9-1.2,10.3c-1,1.7-3.3,2.1-4.5,3.6c-0.3,1.3-0.1,2.7-0.1,4c0,4.1,0,8.3,0,12.4c0,3.1-0.2,6.3,0.2,9.4
		c0.2,1.3,0.3,2.5,0.3,3.8C80.2,195.9,80.2,198.7,80.2,201.5z M105.3,254.5c-1,0.2-2.1-0.5-2.3-1.5c-0.3-1.3-0.3-3.2,1.1-3.8
		c0.6-0.2,1.2-0.1,1.7,0.2C107.3,250.7,107.2,253.5,105.3,254.5z M113.3,274.7c0.6,0.4,0.6,1.3,0.4,2c-0.4,1.1-1.8,1.2-2.8,0.8
		c-1.1-0.7-0.8-2.7,0.4-3.2C112,274.1,112.8,274.3,113.3,274.7z M102.5,159.3c0.1-0.7,0.6-1.1,1.1-1.5c1.3-0.9,3-1.3,4.5-1
		c-0.8,0.1-1.6,0.2-2.4,0.4c0.9-0.1,1.8-0.1,2.7,0l0.2-0.2c1.6,0.3,2.7,2.1,2.1,3.6c-0.8,2-3.2,2.9-5.2,2.5
		C103.7,163,102.2,161.1,102.5,159.3z M96.4,175.7c0.4-0.9,1.1-1.6,1.8-2.3c0.6-0.6,1.5-0.5,2.2-0.4c0.7,0.7,1.1,1.6,1.4,2.5
		c0.4,1.4-0.2,2.9-0.8,4.1c-0.5,0.5-1,1.2-1.9,1c-1.2,0.1-2.2-0.7-2.7-1.8C96.2,177.8,96,176.7,96.4,175.7z M96.4,209.4
		c-0.1-3.8,0.2-7.5,0.9-11.2c0.4-1.7,0.7-3.4,1.6-4.9c0.5-0.9,1.8-1.4,2.6-0.6c1.7,1.4,2.2,3.7,2.6,5.7c0.5,2.9,0.9,5.8,0.6,8.7
		c-0.1,1.4-0.7,2.7-1.3,3.9c-0.7,1.7-0.8,3.5-1.1,5.3c-0.3,2.1-0.7,4.1-0.8,6.2c-0.1,2.3-0.1,4.5-0.1,6.8c0,0.9,0,1.9-0.8,2.6
		c1.9-1.1,4.6-1.5,6.4,0c0.8,0.5,0.6,1.5,0.6,2.3c0,1.1,0.2,2.3-0.3,3.4c-1.5,2.6-5.2,3.5-7.8,2.1c-2.1-1-2.4-4.1-1.2-5.9
		c-0.9-1.7-1.4-3.7-1.3-5.7c0.1-4.1,0-8.3-0.4-12.4c-0.1-1.1-0.8-2.1-1.1-3.1C95.8,211.6,96.4,210.6,96.4,209.4z M94.9,277.8
		c0.6,2.1,0.4,4.8-1.3,6.4c-1.6,1.5-4.6,1.3-5.7-0.7c-1.1-2.9,0.6-6.5,3.5-7.6C92.8,275.4,94.4,276.3,94.9,277.8z M91.7,179.7
		c0.5-0.4,1.1-0.2,1.6,0c0.3,0.8,0.2,1.7,0,2.5c-0.8,0-1.8,0.2-2.2-0.6C90.6,180.9,91.1,180,91.7,179.7z"/>
	<path class="st4" d="M25.4,216.2c0-3.4-0.1-6.8,0.1-10.2c0.1-2.6,0.3-5.3,0.3-7.9c0-7.2,0-14.3,0-21.5c-0.2-3.7-0.6-7.5-0.2-11.2
		c1.4,0,2.1-1.4,3.2-2.1c0.5-0.4,1.4-0.8,1.4-1.5c0.3-2,0.2-4,0.2-6c-2.1,1-3.3,3.1-5.2,4.4c-0.3,1.3-0.1,2.7-0.1,4
		c0.2,6.3,0.1,12.6,0.1,18.9c0.2,6.4,0.1,12.8,0,19.2c0.1,6.2-0.1,12.3-0.3,18.5c0,1.3,0,2.5,0.2,3.8
		C25.6,221.7,25.4,218.9,25.4,216.2z"/>
	<path class="st4" d="M24,274c0.7,1.6,1.3,3.2,2.1,4.7c0.6,1.2,1.5,2.2,2.5,3.2c-0.3-2.9-0.6-5.7-0.8-8.6c-0.2-2.1-0.3-4.2-1.1-6.1
		c-0.6-1.5-1.6-2.7-2.3-4.1c-0.6-1.3-0.3-2.8-0.2-4.2c0.4-3.1,0-6.3,0.4-9.4c0.4-2.9,0-5.8,0.3-8.8c0.6-5.3,0.1-10.6,0.4-15.9
		c-0.5,1.2-0.2,2.5-0.3,3.8c-0.4,13.4-0.9,26.9-1.5,40.3C23.4,270.6,23.3,272.4,24,274z"/>
	<path class="st4" d="M118.9,264.6c0.5,0.4,1,0.7,1.6,0.9c0.1-3,0-6-0.2-9c-0.2-3.3,0.2-6.6-0.7-9.8c0.1,1.5-0.4,2.9-1.1,4.2
		C119.3,255.4,118.5,260,118.9,264.6z"/>
	<path class="st4" d="M167.1,295.7c-0.2,0.7-0.6,1.4-1.1,2c2.2-1,4.4-2.1,5.9-3.9c0.6-0.8,0.9-1.8,1.1-2.7c0.5-2.5,0.8-5,0.8-7.5
		c-1.8,2.4-2.3,5.4-3.9,7.9C169,292.9,167.6,294.1,167.1,295.7z"/>
	<path class="st4" d="M153,301.5c-2.1,0.3-4.2,0.8-6.3,1.1c2.8,0.1,5.7,0.3,8.4-0.7C154.5,301.7,153.8,301.3,153,301.5z"/>
	<path class="st5" d="M171.2,140.8c0,0.5,0,1.1,0.2,1.6c0.8,0.9,1.8,1.4,2.8,2.1c0.4,0.3,0.9,0.5,1.3,0.7c0-5.3-0.1-10.5,0-15.8
		c0.2-2.9,0.4-5.7,0.5-8.6c-1.3,0.2-2.7,0.6-3.9,0.1c-0.5-1.4-0.4-2.9-0.4-4.3c0.1-3.9-0.1-7.8,0.2-11.7c0.2-2.5,0.1-5,0.2-7.5
		c0-1.8,0-3.6,0-5.4c-0.1-0.7-0.1-1.6-0.6-2.1c-1.2-1.2-2.8-1.6-4.4-2c-1.7-0.4-3.5-0.6-5.3-0.5c-0.3,2.3-0.5,4.6-0.3,6.9
		c0.2,2.7,0.2,5.4,0.5,8.2c0.1,1.4,0.2,2.9,0.2,4.4c2.9,2.4,5.7,5,7.1,8.5c1,2.2,1.8,4.4,1.9,6.8
		C171.3,128.4,171.2,134.6,171.2,140.8z"/>
	<path class="st5" d="M65.8,100.7c-0.7,1-0.8,2.3-1,3.4c-0.2,1.2-0.4,2.4-0.1,3.6c0.7,0.9,1.8,1.5,2.7,2.3c1.9,1.4,3.4,3.3,4.5,5.4
		c1.7,3.2,2.5,6.8,3.2,10.4c0.3,1.5,0.4,3,0.5,4.5c1.2-2.6,1.7-5.4,2.7-8.1c0.4-1.4,1.1-2.8,1.4-4.2c0.4-1.3-0.1-2.7-0.5-4
		c-1-3.1-2.4-6.2-4.3-8.9c-0.6-0.8-1.2-1.8-2.1-2.3c-1.1-0.4-2.3-0.4-3.5-0.6c-0.8-0.4-1.5-1-2.3-1.5
		C66.6,100.5,66.2,100.6,65.8,100.7z"/>
	<path class="st5" d="M135.2,105c0.7,0.9,1.4,1.8,2.1,2.7c0.3-1.2,0.4-2.8-0.6-3.7C136,103.7,135.5,104.5,135.2,105z"/>
	<path class="st5" d="M30,118.9c-0.5-0.3-0.9-0.8-1.3-1.2c-0.5,1.9-2.1,2.9-3.4,4.2c1.2,2,2.5,4,2.9,6.4c0.8-0.7,1.6-1.3,2.5-1.8
		l0.2-0.2c0.3-2.6,0.6-5.3,1.3-7.8C31.5,118.7,30.7,119.1,30,118.9z"/>
	<path class="st5" d="M126.2,118.7c-0.4,0.4-0.9,0.8-1.2,1.2c-0.4,0.4,0,1.1,0.4,1.3c0.6,0.2,1.3,0.3,1.9,0.4
		C127.5,120.5,127.3,119.2,126.2,118.7z"/>
	<path class="st5" d="M156,231.2c-0.1-4,0.4-8,0.3-12.1c0.1-5.7,0-11.3,0.4-17c0.2-3.2,0-6.5,0.3-9.7c0.2-2.2,0.2-4.4,0.3-6.5
		c0.4-8.4,0.9-16.8,1.5-25.2c0.5-7.1,1.2-14.1,1.8-21.1c0.2-1.6-0.6-3-0.8-4.5c0.2-1.6,1.3-3,1-4.6c-0.3-1.8-0.9-3.5-1.6-5.2
		c-1.5-1.9-3.5-3.5-5.9-3.9c-0.8,1.6-1.6,3.3-2.2,5c0.1,0.7,0.3,1.5,0.2,2.2c-0.2,0.9-0.6,1.7-1,2.5c0.8,1.2,0.4,2.6,0.3,4
		c-0.5,5.2-1,10.3-1.6,15.5c-0.3,2.5-0.8,4.9-1,7.4c-0.1,1.4-0.1,3-1,4.1c-0.8,1.3-2.2,1.9-3.3,2.8c-0.7,0.9,0,2.3,0.8,2.9
		c0.7,0.2,1.4,0.2,2.1,0.3c0.2,1.5,0,2.9-0.1,4.4c-1,11.5-2,23-2.7,34.6c0,0.4-0.1,0.9-0.3,1.3c-0.6,0.3-1.2,0.6-1.9,0.9
		c1.8-0.3,3.8-0.6,5.3,0.6c0.5,0.3,0.6,0.9,0.7,1.5c0,0.9,0,1.8,0,2.7l0,0.3c0,0.6,0.1,1.3-0.3,1.7c-1.6,1.9-4.2,2.9-6.7,2.4
		c0.6,0.2,1.2,0.3,1.8,0.5c0.3,1.5,0,3-0.1,4.5c-0.2,1.9-0.1,3.9-0.3,5.8c-0.1,1.4-1,2.5-1.3,3.8c0.3,1.2,1,2.4,0.8,3.8
		c-0.2,3.4-0.4,6.9-0.8,10.3c-0.3,1.9-0.3,3.9-0.2,5.9c0.3,6.3-0.3,12.6,0.5,18.8c0.3,2.4,0.8,4.8,2.2,6.8c0.8,1.1,2,2.1,3.4,2.3
		c1.1,0.1,2.1-0.3,3.1-0.6c1.1-1.3,2.1-2.5,2.8-4.1c1.2-2.8,1.8-5.8,2.2-8.8c0.3-1.7,0.3-3.4,0.3-5.1c-0.1-0.8,0.1-1.6,0.5-2.3
		c0.2-3.1,0.1-6.2,0.2-9.4C156,244.3,155.9,237.8,156,231.2z"/>
	<path class="st5" d="M76.7,133.9c-0.2,0.8-0.2,1.6-0.8,2.2c-1,0-1.8-0.3-2.7-0.7c0,1.3-0.1,2.6,0.2,3.8c0.3,0.6,0.8,1.4,1.6,1.3
		c0.7,0,1.4-0.1,1.9-0.6c0.6-0.6,0.6-1.5,0.7-2.2C77.4,136.5,77.8,134.9,76.7,133.9z"/>
	<path class="st5" d="M32.9,156.9c0.1-0.8-0.5-1.4-0.9-2c-0.1,1.7-0.2,3.3-0.2,5c0,9.9,0,19.9-0.2,29.8c-0.1,8.5-0.3,17.1-0.7,25.6
		c-0.4,3.5-0.2,7-0.4,10.6c-0.2,3.4-0.4,6.8-0.6,10.3c-0.1,1,0,2-0.4,2.9c0.1-6.7,0.4-13.3,0.5-20c0-6.7,0.4-13.3,0.4-20
		c0.3-9,0.1-18.1,0.3-27.1c0-9.7,0.1-19.4,0.1-29.1c-0.5,4.3,0,8.5-0.3,12.8c-0.1,2,0.1,4-0.2,6c0,0.8-0.9,1.1-1.4,1.5
		c-1.1,0.7-1.8,2.1-3.2,2.1c-0.4,3.7,0,7.5,0.2,11.2c0,7.2,0,14.3,0,21.5c0,2.6-0.2,5.3-0.3,7.9c-0.2,3.4,0,6.8-0.1,10.2
		c0,2.8,0.2,5.6-0.2,8.3l0,0.3c-0.4,5.3,0.2,10.6-0.4,15.9c-0.3,2.9,0.1,5.9-0.3,8.8c-0.4,3.1,0,6.3-0.4,9.4
		c-0.1,1.4-0.4,2.9,0.2,4.2c0.7,1.4,1.7,2.7,2.3,4.1c0.8,1.9,0.9,4.1,1.1,6.1c0.2,2.9,0.5,5.7,0.8,8.6c0.7,2.3,1.3,4.7,2.5,6.9
		c1,1.9,2.3,3.7,3.8,5.2c2,1.9,4.1,3.8,6.6,5.1c2.4,1.2,5,1.7,7.6,2.2c1.8,0.4,3.6,0.5,5.4,0.2c4.4-0.8,8.8-2.4,12.3-5.4
		c2.4-2,4.3-4.6,5.2-7.6c0.4-1.5,0.3-3,0.2-4.5c-0.7,1.9-1.1,3.9-2,5.7c-1.5,3.2-4.2,5.7-7.2,7.4c-3.5,1.8-7.4,2.9-11.3,2.7
		c-5.9-0.2-11.5-2.8-15.9-6.7c-0.8-0.8-1.5-1.8-2.1-2.8c-2.2-3-3.2-6.7-3.9-10.4c-0.5-3.8-0.2-7.6,0.1-11.4c0.3-4.8,0.7-9.7,1-14.5
		c0.6-5.2,0.5-10.5,0.9-15.7c0.3-7.3,0.5-14.6,0.8-21.9c0.1-10.8,0.5-21.6,0.4-32.4C32.8,175.1,32.9,166,32.9,156.9z"/>
	<path class="st5" d="M176.5,156.6c-0.1-1.8,0.4-3.8-0.5-5.5c-0.4,0-0.7,0.1-1.1,0.1c-1.1,0.8-2.5,1.4-3.4,2.4
		c-0.3,1.5-0.1,2.9-0.2,4.4c0,6,0,12.1,0,18.1c0,1.4,0.1,2.7,0.2,4.1c0.3,3.4,0.1,6.8,0.2,10.3c0,11.2,0.5,22.4,0.7,33.6
		c-0.1,4.4,0.8,8.8,0.4,13.2c-0.7-2.8-0.3-5.7-0.7-8.6c-0.5-3.1-0.4-6.2-0.7-9.3c-0.3-2.8-0.1-5.7-0.2-8.5
		c-0.1-3.9-0.3-7.8-0.4-11.7c-0.1-6-0.3-12.1-0.3-18.1c-0.2-7.9-0.3-15.8-0.3-23.7c0-1.3,0-2.7-0.1-4c-0.2,0-0.6,0-0.9,0
		c0,14,0,28.1,0,42.1c0.4,14.9,0.6,29.9,1.3,44.8c0.1,2.4,0.7,4.8,0.7,7.2c-0.1,6,0.9,12,0.9,18c1-0.7,2.3-1,3.5-1
		c0.8-2,1.8-3.8,2.7-5.7c0.2-2.4-0.1-4.7-0.4-7.1c-0.6-3.4,0-6.9-0.6-10.3c-0.2-5.2,0-10.5-0.2-15.8c-0.2-4.4-0.1-8.7-0.2-13.1
		c-0.4-11.7-0.3-23.4-0.3-35.2c0-2.2,0.1-4.5-0.1-6.7C176.3,166,176.5,161.3,176.5,156.6z"/>
	<path class="st5" d="M59,173.2c0.2-2,0-4.1-0.8-5.9c-0.2-0.6-1.3-0.7-1.5,0c-1.2,2.8-1,5.9-0.9,8.9c1.1-0.4,2.3-0.6,3.5-0.7
		C59.1,174.8,58.9,174,59,173.2z"/>
	<path class="st5" d="M61.8,180.7c-0.1,1.1-0.2,2.3-1,3.2c-1.1,1.3-3,1.7-4.7,1.5c-1.2-0.2-2.1-1-3-1.7c0.3,1.3,0.5,2.8,1.6,3.6
		c0.7,0.1,1.5,0.2,2.2-0.1c0.8-0.6,1.4-1.4,2.4-1.8c1-0.5,2.4-0.9,2.6-2.2c0.3-1.8,0.2-3.6,0-5.3C61.9,178.8,61.9,179.8,61.8,180.7z
		"/>
	<path class="st5" d="M78.2,271.4c-0.1,0-0.4,0.1-0.5,0.1c-0.5-1-0.8-2.2-1.6-3c-0.4,0.4-0.4,1.1-0.4,1.6c-0.1,1.8,0,3.6,0.3,5.4
		c0.5,2.9,0.2,5.9,0.9,8.9c0.6,3.9,2.1,7.8,4.8,10.8c1.8,2,3.8,3.9,6.2,5.1c2.7,1.4,5.6,2.6,8.7,3c6.1,0.7,12.6-0.1,18-3.4
		c2.6-1.7,5.1-3.8,6.5-6.6c1.3-2.4,2-5.1,2.4-7.8c0.1-0.8,0.3-1.7-0.3-2.4c-0.2,0-0.7,0.1-0.9,0.1c-0.4,1.7-0.4,3.5-0.7,5.2
		c-0.3-1.1-0.5-2.3-1.1-3.3c-0.7-0.9-1.8-1.3-2.9-1.7c-1.3,0.2-2.7,0.3-3.7,1.3c-0.8,0.7-1,1.7-1.1,2.7c1.9-0.5,3.9-2,5.9-0.9
		c1.3,0.7,2.8,2,2.5,3.7c-0.4,2.7-2.3,4.9-4.3,6.6c-3.4,2.9-7.5,4.7-11.8,5.6c-7.8,1.5-16.3-1.4-21.7-7.2c-2.9-3.2-4.5-7.4-5.1-11.6
		c-0.5-2.2-0.4-4.5-0.1-6.7c0.1-0.7,0.3-1.4,0.6-2.1c0.5,1.8,0.4,3.7,1.2,5.4c0.2,0.6,1,1.3,1.7,0.8c1-0.9,1.3-2.4,1.6-3.7
		c0.5-3.4,0.6-6.9,0.6-10.4c0-10.7,0-21.4-0.1-32.1c0-2.1-0.2-4.3-0.3-6.4c-0.1-3.6-0.1-7.2-0.1-10.9c-0.8-1.3-1.8-2.6-1.7-4.2
		c0-1.7,1.1-3.2,2-4.6c-0.1-1.1-0.2-2.3-0.6-3.4c-0.6-0.6-1.6-0.7-2.3-1.2c-0.4-0.8-0.3-1.7-0.3-2.6c0-2.8,0-5.5,0.1-8.3
		c0-1.3-0.1-2.6-0.3-3.8c0,0.2-0.1,0.6-0.1,0.8c-0.2,2.4-0.1,4.8-0.1,7.2c0,4.8-0.1,9.6,0.1,14.3c0.2,4.3-0.1,8.6-0.1,12.8
		c0,3.4-0.2,6.8-0.1,10.2c0,5.2-0.3,10.3-0.4,15.5c-0.4,3.3-0.3,6.5-0.5,9.8c-0.2,2.4,0,5-1.3,7.2c0.3-0.1,0.6-0.1,1-0.2
		C78.5,268.4,78.5,269.9,78.2,271.4z"/>
	<path class="st5" d="M97.1,228.2c-0.1,2,0.4,4,1.3,5.7c0.7-0.7,1.4-1.3,2.2-2c0.8-0.6,0.8-1.7,0.8-2.6c0-2.3,0-4.5,0.1-6.8
		c0.1-2.1,0.6-4.2,0.8-6.2c0.3-1.8,0.3-3.6,1.1-5.3c0.5-1.3,1.1-2.5,1.3-3.9c0.3-2.9-0.1-5.8-0.6-8.7c-0.4-2.1-0.9-4.3-2.6-5.7
		c-0.8-0.7-2.2-0.3-2.6,0.6c-0.8,1.5-1.2,3.2-1.6,4.9c-0.7,3.7-1,7.5-0.9,11.2c0,1.2-0.6,2.2-0.8,3.3c0.3,1,0.9,2,1.1,3.1
		C97.1,220,97.2,224.1,97.1,228.2z"/>
	<path class="st5" d="M55.9,203.5c0.8-0.9,0.6-2.4-0.3-3.1c-0.5-0.1-1.1-0.1-1.6,0c-1.2,0.8-1.1,2.7,0,3.6
		C54.7,204.1,55.5,204.2,55.9,203.5z"/>
	<path class="st5" d="M54.4,207.6c-1,0.3-1.8,1.2-1.9,2.2c-0.3,1.7-0.2,3.5,1,4.9c1.4,1.8,4.8,0.7,4.9-1.6c0.2-1.6,0-3.5-1.2-4.7
		C56.4,207.6,55.3,207.4,54.4,207.6z"/>
	<path class="st5" d="M57.2,234.7c-0.3,1.2-1.1,2.1-1.8,3c0.2,1.4,0.3,2.9,0.9,4.3c0.2,0.5,0.6,1,1.2,0.8c1.3-0.4,1.7-1.8,1.9-2.9
		c0.7-3.5,1.3-7,1.5-10.6c0.2-3.1,0.2-6.2-0.8-9.2c-0.2-0.7-0.7-1.3-1.3-1.7c-0.7,1-1,2.2-1.2,3.4c-0.3,2-0.5,4-0.7,6
		c0.2,0.8,0.4,1.6,0.5,2.4C57.7,231.7,57.5,233.2,57.2,234.7z"/>
	<path class="st5" d="M104.2,249.1c-1.5,0.7-1.4,2.5-1.1,3.8c0.2,1,1.3,1.7,2.3,1.5c1.8-1,1.9-3.7,0.5-5.1
		C105.4,249,104.7,248.9,104.2,249.1z"/>
	<path class="st5" d="M113.3,268.6c0.9,0.9,2.1,1.4,3.1,2.1c-0.4-1.1-0.6-2.3-0.3-3.4c0.2-0.5,0.5-1,0.9-1.3
		c0.9-0.4,1.9-0.3,2.9-0.2c-0.9-0.1-1.7-0.2-2.5-0.4c-0.1-0.2-0.2-0.7-0.3-0.9c-1.1,0.3-2.3,0.5-3.4,1
		C112.8,266.2,112.7,267.7,113.3,268.6z"/>
	<path class="st5" d="M165.9,297.7c0.5-0.6,0.9-1.3,1.1-2c0.6-1.6,1.9-2.8,2.8-4.3c1.6-2.5,2.2-5.5,3.9-7.9
		c0.3-3.6,0.7-7.3,0.4-10.9c-0.3,0.1-0.8,0.2-1,0.2c-0.6,2.5,0,5.2-0.3,7.7c-0.3,2.4-0.7,4.8-2.1,6.8c-0.8,1.2-1.6,2.4-2.4,3.6
		c-2.4,3.6-6.3,6.1-10.3,7.5c-6,2.1-12.8,1.7-18.4-1.2c-2.8-1.6-5.3-3.8-6.9-6.7c-1.6-2.8-2.2-6-3-9c-1.1-4.5-0.5-9.1-1.2-13.7
		c-0.8,1.2-1.4,2.5-1.6,3.9c-0.5,3.5-0.2,7.1-0.4,10.7c-0.2,2.9-1.6,5.6-1.9,8.5c-0.2,2.9,1.7,5.5,4,7.2c3.2,2.3,7,3.2,10.8,3.9
		c2.4,0.5,4.8,0.5,7.1,0.7l0.4,0c2.1-0.3,4.2-0.8,6.3-1.1c0.7-0.1,1.4,0.2,2.1,0.4c0.7,0.2,1.4,0,2.1,0c1.9-0.3,3.8-0.5,5.6-1.2
		c-1,0-2.1-0.1-3.1-0.2C161.9,299.7,164,298.8,165.9,297.7z"/>
	<path class="st5" d="M110.9,277.5c1,0.4,2.3,0.2,2.8-0.8c0.2-0.7,0.3-1.6-0.4-2c-0.6-0.4-1.3-0.6-2-0.4
		C110.1,274.8,109.9,276.8,110.9,277.5z"/>
</g>
</svg>
