<?xml version="1.0" encoding="UTF-8"?>
<svg id="Calque_1" data-name="Calque 1" xmlns="http://www.w3.org/2000/svg" viewBox="0 0 1719.73 532.94">
  <defs>
    <style>
      .cls-1 {
        fill: #d8a952;
      }

      .cls-2 {
        fill: #180f08;
      }
    </style>
  </defs>
  <g>
    <path d="m591.01,255.5c11.47,2.1,20.7,5.54,27.69,10.31,6.99,4.77,11.86,10.05,14.6,15.83,2.75,5.78,4.12,11.9,4.12,18.37,0,17.79-6.54,29.23-19.63,34.32-13.09,5.09-26.46,7.64-40.11,7.64-1.29,0-3.64-.06-7.03-.18-3.39-.12-6.81-.22-10.24-.3-3.44-.08-6.06-.14-7.88-.18-1.82-.04-3.86-.06-6.12-.06-4.85,0-12.73.32-23.63.97v-4.61c3.23-.32,5.82-.75,7.76-1.27s3.64-1.47,5.09-2.85c1.45-1.37,2.38-3.23,2.79-5.57.81-3.47,1.43-10.7,1.88-21.69.44-10.99.74-22.16.91-33.51.16-11.35.24-20.13.24-26.36,0-6.7-.08-13.21-.24-19.51-.16-6.3-.59-12.48-1.27-18.54-.69-6.06-1.6-10.1-2.73-12.12-1.13-2.26-2.83-3.88-5.09-4.85-2.26-.97-5.29-1.74-9.09-2.3v-4.61c8.56.65,16.12.97,22.66.97,1.53,0,7.15-.32,16.84-.97,10.34-.73,15.79-1.09,16.36-1.09,7.84,0,14.98,1.45,21.45,4.36s11.65,7.24,15.57,13.01c3.92,5.77,5.88,12.49,5.88,20.16,0,8.15-2.51,15.2-7.51,21.13-5.01,5.93-12.77,10.43-23.27,13.5Zm-34.17-15.81v14.9c1.78-.16,3.84-.24,6.18-.24,7.27-.16,13.65-.81,19.15-1.94s10.38-3.92,14.66-8.36c4.28-4.44,6.42-11.27,6.42-20.48,0-7.27-1.51-13.45-4.54-18.54-3.03-5.09-7.09-8.97-12.18-11.63s-10.54-4-16.36-4-8.97.65-10.18,1.94c-1.05.89-1.84,7.05-2.36,18.48-.53,11.43-.79,21.39-.79,29.87Zm0,20.6v47.5c0,8.24.16,14.06.48,17.45.32,3.39,1.09,5.92,2.3,7.57,1.21,1.66,3.03,2.65,5.45,2.97s6.7.48,12.85.48c6.54,0,12.86-1.03,18.96-3.09,6.1-2.06,11.25-5.67,15.45-10.85,4.2-5.17,6.3-12.12,6.3-20.84,0-4.85-.93-9.81-2.79-14.91-1.86-5.09-4.65-9.63-8.36-13.63-3.72-4-8.63-7.27-14.72-9.81-6.1-2.55-13.19-3.82-21.27-3.82-1.94,0-4.26.08-6.97.24-2.71.16-5.27.4-7.7.73Z"/>
    <path d="m673.17,269.74l-14.91,6.66c-.65-2.58-.97-4.48-.97-5.69,0-4.12,2.52-7.94,7.58-11.45,5.05-3.52,10.74-6.36,17.09-8.55,6.34-2.18,10.76-3.27,13.27-3.27,2.18,0,4.89.97,8.12,2.91s5.82,3.88,7.76,5.82c1.7,1.62,3.01,3.21,3.94,4.79.93,1.57,1.76,4.06,2.48,7.45s1.09,7.72,1.09,12.97c0,1.54-.2,6.95-.6,16.24l-.48,9.09c-.32,4.36-.48,7.84-.48,10.42,0,3.32.44,6.87,1.33,10.66.81,3.88,2.63,5.82,5.45,5.82,3.15,0,7.35-1.17,12.6-3.51v4.97l-17.82,7.15c-3.56,1.21-5.57,1.82-6.06,1.82-1.86,0-3.7-1.23-5.51-3.7-1.82-2.46-3.29-5.39-4.42-8.79-14.95,8.32-26.42,12.48-34.42,12.48-4.93,0-8.65-1.44-11.15-4.3-2.5-2.87-3.76-7.17-3.76-12.91s.67-9.57,2-12.24c1.33-2.67,3.49-4.77,6.48-6.3,6.06-3.07,12.48-5.35,19.27-6.85,6.79-1.49,13.9-2.77,21.33-3.82l.61-14.91v-4c0-6.87-1.96-12.3-5.88-16.3-3.92-4-8.51-6-13.76-6-2.51,0-5.03.71-7.57,2.12-2.55,1.41-3.82,3.41-3.82,6,0,1.29.4,3.03,1.21,5.21Zm28.72,57.32c-.24-2.67,0-10.26.73-22.78-10.63-.73-19.16.56-25.6,3.88-6.44,3.31-9.66,7.47-9.66,12.48,0,3.64.99,7.07,2.96,10.3,1.97,3.23,4.69,4.85,8.15,4.85,3.86,0,11.67-2.91,23.43-8.73Z"/>
    <path d="m742.37,341.48l.24-3.52c4.04-.8,6.83-1.61,8.36-2.42,1.53-.81,2.87-2.7,4-5.69s1.88-7.46,2.24-13.43c.36-5.97.54-15.12.54-27.46,0-9.76-.53-16.25-1.58-19.48s-3.68-4.84-7.88-4.84c-2.51,0-5.05.32-7.64.97l.48-3.94,31.27-18.24c.32,5.01.48,11.88.48,20.6l12.97-7.39c.64-.4,1.21-.77,1.7-1.09.89-.48,1.9-1.07,3.03-1.76,1.13-.68,3.07-1.86,5.82-3.51s4.93-3.01,6.54-4.06l.97.48c.48.48,1.05.89,1.7,1.21,2.42,1.13,4.32,2.42,5.7,3.88,1.37,1.45,2.06,3.56,2.06,6.3,0,3.15-1.29,5.74-3.88,7.76-2.59,2.02-5.69,3.23-9.33,3.64,0-2.75-.65-4.85-1.94-6.3-1.29-1.45-3.11-2.18-5.45-2.18s-5.29.87-8.6,2.61c-3.31,1.74-5.82,3.37-7.51,4.91-2.02,1.78-3.21,3.25-3.58,4.42-.36,1.17-.59,4.06-.67,8.67-.48,13.65-.73,20.89-.73,21.69,0,15.75.81,25.49,2.42,29.2.73,1.29,1.53,2.08,2.42,2.36s2.42.42,4.61.42l3.15-.24,14.42-.24-.24,4.97c-.4,0-2.95.08-7.64.24-4.69.16-7.84.24-9.45.24l-39.02,1.21Z"/>
    <path d="m888.28,255.5c11.47,2.1,20.7,5.54,27.69,10.31,6.99,4.77,11.86,10.05,14.6,15.83,2.75,5.78,4.12,11.9,4.12,18.37,0,17.79-6.54,29.23-19.63,34.32-13.09,5.09-26.46,7.64-40.11,7.64-1.29,0-3.64-.06-7.03-.18-3.39-.12-6.81-.22-10.24-.3-3.44-.08-6.06-.14-7.88-.18-1.82-.04-3.86-.06-6.12-.06-4.85,0-12.72.32-23.63.97v-4.61c3.23-.32,5.82-.75,7.76-1.27s3.64-1.47,5.09-2.85c1.45-1.37,2.38-3.23,2.79-5.57.81-3.47,1.43-10.7,1.88-21.69.44-10.99.75-22.16.91-33.51.16-11.35.24-20.13.24-26.36,0-6.7-.08-13.21-.24-19.51-.16-6.3-.59-12.48-1.27-18.54-.69-6.06-1.59-10.1-2.73-12.12-1.13-2.26-2.83-3.88-5.09-4.85s-5.29-1.74-9.09-2.3v-4.61c8.56.65,16.12.97,22.66.97,1.53,0,7.15-.32,16.85-.97,10.34-.73,15.79-1.09,16.36-1.09,7.84,0,14.99,1.45,21.45,4.36,6.46,2.91,11.65,7.24,15.57,13.01,3.92,5.77,5.88,12.49,5.88,20.16,0,8.15-2.5,15.2-7.51,21.13s-12.77,10.43-23.27,13.5Zm-34.17-15.81v14.9c1.78-.16,3.84-.24,6.18-.24,7.27-.16,13.65-.81,19.15-1.94,5.49-1.13,10.38-3.92,14.66-8.36,4.28-4.44,6.42-11.27,6.42-20.48,0-7.27-1.52-13.45-4.54-18.54-3.03-5.09-7.09-8.97-12.18-11.63-5.09-2.67-10.54-4-16.36-4s-8.97.65-10.18,1.94c-1.05.89-1.84,7.05-2.36,18.48-.52,11.43-.79,21.39-.79,29.87Zm0,20.6v47.5c0,8.24.16,14.06.48,17.45s1.09,5.92,2.3,7.57c1.21,1.66,3.03,2.65,5.45,2.97s6.71.48,12.85.48c6.54,0,12.87-1.03,18.96-3.09,6.1-2.06,11.25-5.67,15.45-10.85,4.2-5.17,6.3-12.12,6.3-20.84,0-4.85-.93-9.81-2.79-14.91-1.86-5.09-4.65-9.63-8.36-13.63-3.72-4-8.63-7.27-14.72-9.81-6.1-2.55-13.19-3.82-21.27-3.82-1.94,0-4.26.08-6.97.24-2.71.16-5.27.4-7.7.73Z"/>
    <path class="cls-1" d="m1076.18,280.46l-60.59,13.09c.4,7.6,1.15,13.47,2.24,17.63,1.09,4.16,3.25,8.38,6.48,12.66,6.22,8.16,13.73,12.24,22.54,12.24,3.64,0,7.51-.69,11.63-2.06,4.12-1.37,8.68-3.84,13.69-7.39l2.18,2.91c-14.06,10.1-26.54,15.15-37.45,15.15-11.55,0-20.56-4.36-27.03-13.09-6.46-8.73-9.69-18.74-9.69-30.05s2.46-21.15,7.39-28.78c4.93-7.63,10.46-13.19,16.6-16.66,6.14-3.47,10.79-5.21,13.94-5.21,3.64,0,7.41.59,11.33,1.76,3.92,1.17,7.76,3.42,11.51,6.73,3.76,3.31,6.89,7.84,9.39,13.57.73,1.21,1.41,2.02,2.06,2.42.65.4,1.82.61,3.52.61l.24,4.48Zm-60.35,8.36l15.87-3.39c.65-.32,3.09-.97,7.33-1.94,4.24-.97,7.09-1.57,8.55-1.82,4.2-.97,6.87-1.65,8-2.06,1.13-.4,1.7-1.05,1.7-1.94,0-1.29-.97-3.49-2.91-6.6-1.94-3.11-4.71-5.96-8.3-8.54-3.6-2.58-7.82-3.88-12.66-3.88-6.06,0-10.36,3.19-12.91,9.57-2.55,6.38-4.1,13.25-4.67,20.6Z"/>
    <path d="m1084.6,341.48l.24-3.52c4.04-.8,6.83-1.61,8.36-2.42s2.87-2.7,4-5.69c1.13-2.98,1.88-7.46,2.24-13.43.36-5.97.54-15.12.54-27.46,0-9.76-.52-16.25-1.57-19.48-1.05-3.23-3.68-4.84-7.88-4.84-2.5,0-5.05.32-7.63.97l.48-3.94,31.27-18.24c.32,5.01.48,11.88.48,20.6l12.97-7.39c.65-.4,1.21-.77,1.7-1.09.89-.48,1.9-1.07,3.03-1.76,1.13-.68,3.07-1.86,5.82-3.51,2.75-1.66,4.93-3.01,6.54-4.06l.97.48c.48.48,1.05.89,1.7,1.21,2.42,1.13,4.32,2.42,5.69,3.88s2.06,3.56,2.06,6.3c0,3.15-1.29,5.74-3.88,7.76-2.59,2.02-5.7,3.23-9.33,3.64,0-2.75-.65-4.85-1.94-6.3s-3.11-2.18-5.45-2.18-5.29.87-8.61,2.61-5.82,3.37-7.51,4.91c-2.02,1.78-3.21,3.25-3.58,4.42-.36,1.17-.58,4.06-.66,8.67-.48,13.65-.73,20.89-.73,21.69,0,15.75.81,25.49,2.42,29.2.73,1.29,1.53,2.08,2.42,2.36.89.28,2.42.42,4.61.42l3.15-.24,14.42-.24-.24,4.97c-.4,0-2.95.08-7.63.24-4.69.16-7.84.24-9.45.24l-39.02,1.21Z"/>
    <path d="m1275.82,341.72l-4.97-.24c.16-11.23-2.06-24.72-6.67-40.48,1.94-.56,3.23-.89,3.88-.97,1.94,6.06,3.46,10.44,4.54,13.15,1.09,2.71,2.5,5.09,4.24,7.15,1.73,2.06,4.14,3.9,7.21,5.51,5.25,2.75,11.31,5.21,18.18,7.39,6.87,2.18,14.26,3.27,22.18,3.27,6.87,0,13.76-1.69,20.66-5.09,6.91-3.39,10.36-10.87,10.36-22.42,0-5.82-1.01-10.82-3.03-15.03-2.02-4.2-4.67-7.59-7.94-10.18-3.27-2.58-7.07-4.89-11.39-6.91-4.32-2.02-9.92-4.32-16.79-6.91-9.53-3.47-17.39-7.03-23.57-10.66-6.18-3.64-11.09-8.12-14.72-13.45s-5.45-11.83-5.45-19.51c0-12.2,4.48-22.36,13.45-30.48,8.97-8.12,21.77-12.18,38.42-12.18,8.48,0,16.84.89,25.08,2.67,3.31.65,5.37.97,6.18.97,2.42,0,4.85-.81,7.27-2.42l.97-.48c.64,0,1.45.16,2.42.48-.24,1.86-.47,3.7-.67,5.51-.2,1.82-.4,3.82-.6,6-.2,2.18-.34,3.88-.42,5.09-.08,1.21-.16,2.02-.24,2.42,1.05,9.77,1.53,15.11,1.45,16l-3.64.24c-.65-8.24-3.35-14.72-8.12-19.45-4.77-4.73-10.14-7.94-16.12-9.63-5.98-1.69-11.72-2.54-17.21-2.54-13.41,0-22.28,3.5-26.6,10.48-4.32,6.99-6.48,13.59-6.48,19.81,0,6.54,1.62,11.98,4.85,16.3,3.23,4.32,7.25,7.71,12.06,10.17,4.81,2.45,11.57,5.37,20.3,8.75,9.85,3.86,17.77,7.43,23.75,10.71,5.98,3.28,11.31,8,16,14.19,4.69,6.19,7.03,13.85,7.03,22.99,0,7.76-2.02,14.76-6.06,20.98-4.04,6.23-10.1,11.16-18.18,14.8-8.08,3.64-17.98,5.46-29.69,5.46s-23.23-1.66-35.51-4.97c-2.18-.48-3.52-.73-4-.73-2.1,0-2.91,1.42-2.42,4.24Z"/>
    <path d="m1381.38,193.87v-4.67c1.78-.89,2.95-1.5,3.51-1.83l23.51-11.44,4-2.19,4,1.95c-1.53,7.27-2.63,15.65-3.27,25.14-.65,9.49-1.13,21.55-1.45,36.17l-.73,24.6c9.53-4.12,17.27-7.15,23.21-9.09,5.94-1.94,11.65-2.91,17.15-2.91,7.76,0,13.41,2.36,16.97,7.09,3.56,4.73,5.76,10.5,6.6,17.33.85,6.83,1.27,15.81,1.27,26.96,0,2.18-.02,4.2-.06,6.06-.04,1.86-.1,4.46-.18,7.82-.08,3.35-.18,6.42-.3,9.21-.12,2.79-.18,4.38-.18,4.79,0,3.48.84,5.78,2.53,6.91,1.68,1.13,6.33,1.69,13.95,1.69l-.24,3.76h-7.86c-1.21,0-6.18.04-14.92.12-8.74.08-13.23.12-13.47.12s-2.01.4-5.32,1.21c-.81,0-1.21-.57-1.21-1.7,0-.81.65-1.37,1.94-1.7,3.07-.73,5.35-2.02,6.85-3.88,1.49-1.86,2.5-5.01,3.03-9.45.52-4.44.79-11.76.79-21.94,0-16.07-1.29-27.55-3.88-34.42-2.59-6.86-8.48-10.3-17.69-10.3-4.77,0-10.02.89-15.75,2.67-5.74,1.78-9.98,3.39-12.72,4.85,0,2.26-.16,6.06-.48,11.39l-1.09,29.2c0,1.86-.02,3.56-.06,5.09-.04,1.53-.1,3.23-.18,5.09,0,7.84.52,12.89,1.58,15.15.4,1.37,1.37,2.32,2.91,2.85,1.53.52,5.61,1.07,12.24,1.64v4.24c-2.67-.32-8.32-.48-16.97-.48s-18.62.4-28.96,1.21l.24-4c5.17-1.05,8.58-2.08,10.24-3.09,1.65-1.01,2.79-2.93,3.39-5.75.6-2.82,1.03-8.11,1.27-15.87.24-12.67.56-23.53.97-32.58l.48-33.91c.16-3.47.24-11.18.24-23.13,0-10.9-.46-18.95-1.39-24.16-.93-5.21-3.21-7.81-6.85-7.81-.56,0-3.11.66-7.63,1.96Z"/>
    <path d="m1502.81,295.79c0-7.11,1.31-13.55,3.94-19.33,2.62-5.78,6.24-10.76,10.85-14.97,4.61-4.2,9.98-7.43,16.12-9.69,6.14-2.26,12.73-3.39,19.75-3.39,6.38,0,12.42,1.17,18.12,3.52,5.69,2.34,10.68,5.57,14.96,9.69,4.28,4.12,7.65,8.99,10.12,14.6,2.46,5.61,3.7,11.65,3.7,18.12,0,8.41-2,16.28-6,23.63-4,7.35-9.66,13.27-16.97,17.75-7.31,4.48-15.74,6.73-25.27,6.73-7.19,0-14.6-1.58-22.24-4.73-7.64-3.15-14.06-8.22-19.27-15.21-5.21-6.99-7.82-15.89-7.82-26.72Zm15.87-6.66c0,7.51,1.49,14.99,4.48,22.42,2.99,7.43,7.17,13.53,12.54,18.3,5.37,4.77,11.29,7.15,17.75,7.15,5.65,0,10.78-1.55,15.39-4.67,4.61-3.11,8.28-7.53,11.03-13.27,2.75-5.73,4.12-12.24,4.12-19.51s-1.6-14.52-4.79-21.51c-3.19-6.99-7.6-12.68-13.21-17.09-5.62-4.4-11.82-6.6-18.6-6.6-5.49,0-10.42,1.49-14.78,4.48-4.36,2.99-7.78,7.15-10.24,12.48-2.47,5.33-3.7,11.27-3.7,17.81Z"/>
    <path d="m1613.57,265.62l-.97-3.45c3.88-2.35,6.6-3.85,8.13-4.5,1.13,0,4.68-1.7,10.62-5.1,5.95-3.4,10.06-6.53,12.33-9.36.63,1.94,1.5,7.63,2.61,17.09l10.42-4.12c10.82-4.52,19.02-6.79,24.6-6.79,6.06,0,12.1,1.98,18.12,5.94,6.02,3.96,10.91,9.29,14.66,16,3.76,6.71,5.64,13.9,5.64,21.57,0,9.78-2.22,17.92-6.67,24.42-4.44,6.5-9.92,11.51-16.42,15.03-6.5,3.52-12.77,5.96-18.78,7.33-6.02,1.37-10.56,2.06-13.63,2.06-5.01,0-10.99-1.17-17.94-3.51,0,1.45-.08,6.01-.24,13.67-.16,7.66-.24,12.14-.24,13.43v22.02c0,5.16.2,8.83.6,11.01.4,2.17,1.15,3.56,2.24,4.17,1.09.6,2.97.99,5.64,1.15l8.85.48c2.02,0,3.03.79,3.03,2.36,0,1-.3,1.62-.91,1.87-.61.25-2.04.37-4.3.37-10.02,0-16.28.06-18.78.18-2.51.12-10.75.62-24.72,1.52,0-1.45-.08-2.67-.24-3.64,4.12-.32,6.87-.91,8.24-1.75,1.37-.85,2.46-2.24,3.27-4.18,1.29-3.55,2.14-10.68,2.55-21.38.4-10.7.6-21.87.6-33.5l.24-15.14c0-11.63-.08-23.64-.24-36.04-.16-12.39-.48-19.97-.97-22.71-.4-1.62-1.03-3.17-1.88-4.67-.85-1.49-1.86-2.71-3.03-3.63-1.17-.93-2.36-1.39-3.58-1.39-.89,0-3.84,1.07-8.85,3.21Zm32.48-.36l-.24,61.32,11.15,3.76c8.48,2.83,14.38,4.24,17.69,4.24,3.96,0,8.36-.99,13.21-2.97,4.85-1.98,9.11-5.31,12.79-10,3.68-4.69,5.51-10.79,5.51-18.3,0-8.24-1.9-15.86-5.7-22.85-3.8-6.99-8.52-12.46-14.18-16.42-5.66-3.96-11.03-5.94-16.12-5.94-2.59,0-10.62,2.38-24.11,7.15Z"/>
    <path d="m1026.31,278.22l-60.59,13.09c.4,7.6,1.15,13.47,2.24,17.63,1.09,4.16,3.25,8.38,6.48,12.66,6.22,8.16,13.73,12.24,22.54,12.24,3.64,0,7.51-.69,11.63-2.06,4.12-1.37,8.68-3.84,13.69-7.39l2.18,2.91c-14.06,10.1-26.54,15.15-37.45,15.15-11.55,0-20.56-4.36-27.03-13.09s-9.69-18.74-9.69-30.05,2.46-21.15,7.39-28.78c4.93-7.63,10.46-13.19,16.6-16.66s10.79-5.21,13.94-5.21c3.64,0,7.41.59,11.33,1.76,3.92,1.17,7.76,3.42,11.51,6.73,3.76,3.31,6.89,7.84,9.39,13.57.73,1.21,1.41,2.02,2.06,2.42.65.4,1.82.61,3.52.61l.24,4.48Zm-60.35,8.36l15.87-3.39c.65-.32,3.09-.97,7.33-1.94,4.24-.97,7.09-1.57,8.55-1.82,4.2-.97,6.87-1.65,8-2.06,1.13-.4,1.7-1.05,1.7-1.94,0-1.29-.97-3.49-2.91-6.6-1.94-3.11-4.71-5.96-8.3-8.54-3.6-2.58-7.82-3.88-12.66-3.88-6.06,0-10.36,3.19-12.91,9.57-2.55,6.38-4.1,13.25-4.67,20.6Z"/>
  </g>
  <path class="cls-2" d="m241.53,251.68c-28.53-4.11-60.68-7.69-84.43-2.14l.62,9.22c9.81.87,2.36,34.96,40.97,33.11,20.72,1.7,25.31-6.73,42.84-29.52m-44.03,27c-20.5-.69-30-11.15-27.81-31.36.43-13.92,57.24-9.32,60.09,0-1.93,22.51-12.15,32.04-32.28,31.36Z"/>
  <path class="cls-2" d="m241.53,262.36c17.5,22.78,22.18,31.24,42.84,29.52,38.61,1.85,31.16-32.24,40.97-33.11l.62-9.22c-23.75-5.55-55.9-1.97-84.43,2.14m11.75,6.31c2.86-9.32,59.66-13.92,60.09,0,7.34,41.49-62.28,42.93-60.09,0Z"/>
  <g>
    <path class="cls-2" d="m241.47,325.94c-28.59-26.52-42.24,32.24-65.03,29.83-25.16-1.59-19.77-25.83.58-18.22-5.73-11.76-32.9-5.58-29.44,7.86,6.74,36.43,84.35,23.53,93.88-1.44"/>
    <path class="cls-2" d="m241.53,325.94c28.59-26.52,42.24,32.24,65.03,29.83,25.16-1.59,19.77-25.83-.58-18.22,5.73-11.76,32.9-5.58,29.44,7.86-6.74,36.43-84.35,23.53-93.88-1.44"/>
  </g>
  <g>
    <path class="cls-2" d="m172.4,182.49l-33.88-31.83c9.91-97.5,163.65-19.09,222.62-44.47,55.45,110.98-140.87,101.53-188.74,76.3Z"/>
    <path class="cls-2" d="m166.88,184.62l-32.33-31.35c-43.22,8.68-7.9,102.81-8.66,125.71h11.77c-3.49-11.17,3.19-15.41,4.02-27.79-10.47-23.41-9.09-53.8,25.2-66.57Z"/>
    <path class="cls-2" d="m338.19,191.97c13.55-4.33,18.73-12.43,22.83-19.23,11.03,14.19,7.28,56.63-1.35,106.23h-16.36c3.21-13.56-3.87-29.38-3.8-33.45,1.64-20.15,16.93-41.28-1.31-53.55Z"/>
  </g>
  <g>
    <path class="cls-2" d="m240.98,403.8c-22.72-2.39-37.17,25.45-42.77,53.31,17.48-.61,31.73-16.71,42.77-48.3"/>
    <path class="cls-2" d="m240.98,403.8c22.72-2.39,37.17,25.45,42.77,53.31-17.48-.61-31.73-16.71-42.77-48.3"/>
  </g>
  <g>
    <path class="cls-2" d="m240.98,415.08c-4.34,11.83-12.04,24.68-15.07,28.34,1.47,13.5,7.1,21.7,15.07,26.93"/>
    <path class="cls-2" d="m240.98,415.08c4.34,11.83,12.04,24.68,15.07,28.34-1.47,13.5-7.1,21.7-15.07,26.93"/>
  </g>
  <g>
    <path class="cls-2" d="m224.04,445.98c.99,5.69,2.61,11.16,5.49,16.2-4.62,15.21-11.15,27.12-19.7,35.53-3.38-10.24-6.37-23.05-5.56-38.36,7.67-1.87,13.86-6.85,19.77-13.36Z"/>
    <path class="cls-2" d="m257.98,445.98c-.99,5.69-2.61,11.16-5.49,16.2,4.62,15.21,11.15,27.12,19.7,35.53,3.38-10.24,6.37-23.05,5.56-38.36-7.67-1.87-13.86-6.85-19.77-13.36Z"/>
  </g>
  <g>
    <path class="cls-2" d="m240.98,473.75c-4.33-2.99-7.61-6.05-9.83-9.16-2.71,7.68-4.64,12.61-5.77,14.65,3.76,11.56,9.62,21.45,15.61,25.07"/>
    <path class="cls-2" d="m240.98,473.75c4.33-2.99,7.61-6.05,9.83-9.16,2.71,7.68,4.64,12.61,5.77,14.65-3.76,11.56-9.62,21.45-15.61,25.07"/>
  </g>
  <g>
    <path class="cls-2" d="m223.99,482.12c3.02,7.72,5.54,12.87,7.65,15.84-1.55,6.76-4.73,13.47-9.75,20.12-2.5-3.93-5.09-9.96-7.89-21.08,2.99-3.12,6.18-7.52,9.99-14.88Z"/>
    <path class="cls-2" d="m257.96,482.12c-3.02,7.72-5.54,12.87-7.65,15.84,1.55,6.76,4.73,13.47,9.75,20.12,2.5-3.93,5.09-9.96,7.89-21.08-2.99-3.12-6.18-7.52-9.99-14.88Z"/>
  </g>
  <g>
    <path class="cls-2" d="m240.98,507.73c-1.9-1.3-4.45-3.7-7.8-7.47-1.83,6.74-3.8,10.9-5.84,13.98,3.77,11.16,8.55,15.98,13.65,18.7"/>
    <path class="cls-2" d="m240.98,507.73c1.9-1.3,4.45-3.7,7.8-7.47,1.83,6.74,3.8,10.9,5.84,13.98-3.77,11.16-8.55,15.98-13.65,18.7"/>
  </g>
  <g>
    <path class="cls-1" d="m293.55,444.61c3.29-.33,55.03-14.55,53.13-12.86,1.32,2.04-22.24,10.37-52.26,15.82-1.94-.98-2.49-1.97-.87-2.96Z"/>
    <path class="cls-1" d="m347.87,428.77c1.89-11.11,13.33-21.31,23.28-28.45,0,0-7.44,8.97-8.23,10.83.31,9.72-1.91,19.91-15.05,17.62Z"/>
    <path class="cls-1" d="m348.33,432.98c11.54,15.09,41.33,3.85,55.45-1.93,0,0-19.08,4.91-21.62,4.73-7.75-1.86-24.02-10.45-33.83-2.8Z"/>
    <path class="cls-1" d="m365.17,425.5c-1.51-13.87,9.14-25.09,20.6-34.02,0,0-6.68,9.3-7.31,11.19-.85,8.7-.11,23.99-13.29,22.83Z"/>
    <path class="cls-1" d="m367.57,427.82c12.02,11.78,38.98-.35,51.16-7.87,0,0-14.55,5.88-17.1,6.05-7.4.02-26.18-6.49-34.07,1.82Z"/>
    <path class="cls-1" d="m379.89,417.32c-2.26-13.72,7.69-25.27,18.75-34.61,0,0-6.17,9.5-6.7,11.4-.39,8.67,1.22,23.94-12.05,23.21Z"/>
    <path class="cls-1" d="m383.65,419.49c13.01,10.58,38.4-2.96,49.92-11.81,0,0-13.7,6.98-16.22,7.34-7.19.63-26.88-4.45-33.7,4.47Z"/>
    <path class="cls-1" d="m394.41,408.39c-3.6-13.38,5.02-25.49,15.29-35.54,0,0-5.22,9.81-5.56,11.74.43,8.54,3.69,23.71-9.73,23.8Z"/>
    <path class="cls-1" d="m408.29,397.98c-4.55-12.07,3.98-25.69,12.76-35.66,0,0-4.88,10.94-5.02,12.88,1.43,7.76,3.86,21.65-7.73,22.78Z"/>
    <path class="cls-1" d="m420.47,386.76c-5.7-11.45,2.87-24.94,10.5-35.19,0,0-5.13,11.94-5.08,13.88,3.08,7.28,6.53,19.75-5.42,21.31Z"/>
    <path class="cls-1" d="m431.94,375.3c-7.22-10.44.94-24.58,7.13-35.12,0,0-3.6,12.71-3.39,14.64,4.1,6.65,8.03,18.39-3.74,20.47Z"/>
    <path class="cls-1" d="m443.16,363.43c-8.68-9.21-1.65-24.43,2.49-35.42,0,0-1.91,12.9-1.46,14.8,4.76,6.13,8.14,15.5-1.03,20.62Z"/>
    <path class="cls-1" d="m398.59,410.06c12.4,9.12,38.47-6.81,48.09-15.74,0,0-13.17,7.66-15.62,8.23-7.17,2.11-26.72-2.71-32.47,7.51Z"/>
    <path class="cls-1" d="m411.66,400.09c12.58,7.11,35.34-7.74,44.24-17.43,0,0-10.46,7.28-12.88,7.93-7.06,2.17-26.45-1.46-31.36,9.5Z"/>
    <path class="cls-1" d="m424.91,389.09c13.27,5.86,33.61-10.29,41.36-21.19,0,0-9.29,8.13-11.6,9-6.51,2.78-26.45.81-29.76,12.19Z"/>
    <path class="cls-1" d="m436,377.61c13.39,4.48,31.81-12.03,38.35-23.68,0,0-8.17,8.54-10.35,9.56-5.88,3.19-26.11,2.85-28,14.12Z"/>
    <path class="cls-1" d="m446.8,365.12c14.37,3.37,29.52-14.51,34.54-27.37,0,0-6.8,9.43-8.82,10.65-5.38,3.73-25.6,4.99-25.72,16.73Z"/>
    <path class="cls-1" d="m466.24,312.45c-5.31,20.34,1.62,33.68-14.72,41.65-1.43-23.34,7.01-8.6,14.72-41.65Z"/>
  </g>
  <g>
    <path class="cls-1" d="m187.8,442.47c-3.29-.33-55.03-14.55-53.13-12.86-1.32,2.04,22.24,10.37,52.26,15.82,1.94-.98,2.49-1.97.87-2.96Z"/>
    <path class="cls-1" d="m133.47,426.63c-1.89-11.11-13.33-21.31-23.28-28.45,0,0,7.44,8.97,8.23,10.83-.31,9.72,1.91,19.91,15.05,17.62Z"/>
    <path class="cls-1" d="m133.02,430.84c-11.54,15.09-41.33,3.85-55.45-1.93,0,0,19.08,4.91,21.62,4.73,7.75-1.86,24.02-10.45,33.83-2.8Z"/>
    <path class="cls-1" d="m116.18,423.36c1.51-13.87-9.14-25.09-20.6-34.02,0,0,6.68,9.3,7.31,11.19.85,8.7.11,23.99,13.29,22.83Z"/>
    <path class="cls-1" d="m113.77,425.68c-12.02,11.78-38.98-.35-51.16-7.87,0,0,14.55,5.88,17.1,6.05,7.4.02,26.18-6.49,34.07,1.82Z"/>
    <path class="cls-1" d="m101.46,415.17c2.26-13.72-7.69-25.27-18.75-34.61,0,0,6.17,9.5,6.7,11.4.39,8.67-1.22,23.94,12.05,23.21Z"/>
    <path class="cls-1" d="m97.69,417.34c-13.01,10.58-38.4-2.96-49.92-11.81,0,0,13.7,6.98,16.22,7.34,7.19.63,26.88-4.45,33.7,4.47Z"/>
    <path class="cls-1" d="m86.93,406.25c3.6-13.38-5.02-25.49-15.29-35.54,0,0,5.22,9.81,5.56,11.74-.43,8.54-3.69,23.71,9.73,23.8Z"/>
    <path class="cls-1" d="m73.06,395.84c4.55-12.07-3.98-25.69-12.76-35.66,0,0,4.88,10.94,5.02,12.88-1.43,7.76-3.86,21.65,7.73,22.78Z"/>
    <path class="cls-1" d="m60.87,384.62c5.7-11.45-2.87-24.94-10.5-35.19,0,0,5.13,11.94,5.08,13.88-3.08,7.28-6.53,19.75,5.42,21.31Z"/>
    <path class="cls-1" d="m49.41,373.16c7.22-10.44-.94-24.58-7.13-35.12,0,0,3.6,12.71,3.39,14.64-4.1,6.65-8.03,18.39,3.74,20.47Z"/>
    <path class="cls-1" d="m38.19,361.29c8.68-9.21,1.65-24.43-2.49-35.42,0,0,1.91,12.9,1.46,14.8-4.76,6.13-8.14,15.5,1.03,20.62Z"/>
    <path class="cls-1" d="m82.76,407.92c-12.4,9.12-38.47-6.81-48.09-15.74,0,0,13.17,7.66,15.62,8.23,7.17,2.11,26.72-2.71,32.47,7.51Z"/>
    <path class="cls-1" d="m69.69,397.95c-12.58,7.11-35.34-7.74-44.24-17.43,0,0,10.46,7.28,12.88,7.93,7.06,2.17,26.45-1.46,31.36,9.5Z"/>
    <path class="cls-1" d="m56.44,386.95c-13.27,5.86-33.61-10.29-41.36-21.19,0,0,9.29,8.13,11.6,9,6.51,2.78,26.45.81,29.76,12.19Z"/>
    <path class="cls-1" d="m45.34,375.46c-13.39,4.48-31.81-12.03-38.35-23.68,0,0,8.17,8.54,10.35,9.56,5.88,3.19,26.11,2.85,28,14.12Z"/>
    <path class="cls-1" d="m34.54,362.98c-14.37,3.37-29.52-14.51-34.54-27.37,0,0,6.8,9.43,8.82,10.65,5.38,3.73,25.6,4.99,25.72,16.73Z"/>
    <path class="cls-1" d="m15.11,310.3c5.31,20.34-1.62,33.68,14.72,41.65,1.43-23.34-7.01-8.6-14.72-41.65Z"/>
  </g>
  <path class="cls-1" d="m241.53,0C108.45,0,.56,107.89.56,240.98c0,22.72,3.15,44.71,9.03,65.55h8.52c-6.09-20.79-9.37-42.79-9.37-65.55C8.73,112.41,112.96,8.18,241.53,8.18s232.8,104.23,232.8,232.8c0,22.76-3.28,44.76-9.37,65.55h8.52c5.88-20.84,9.03-42.83,9.03-65.55C482.51,107.89,374.62,0,241.53,0Z"/>
</svg>