<?xml version="1.0" encoding="UTF-8"?>
<svg id="Calque_1" data-name="Calque 1" xmlns="http://www.w3.org/2000/svg" xmlns:xlink="http://www.w3.org/1999/xlink" viewBox="0 0 524.2 100.24">
  <defs>
    <style>
      .cls-1 {
        filter: url(#drop-shadow-5);
      }

      .cls-1, .cls-2, .cls-3, .cls-4, .cls-5, .cls-6, .cls-7 {
        fill: ivory;
      }

      .cls-8 {
        fill: none;
        filter: url(#drop-shadow-1);
      }

      .cls-2 {
        filter: url(#drop-shadow-3);
      }

      .cls-9 {
        fill: #d8a952;
      }

      .cls-3 {
        filter: url(#drop-shadow-8);
      }

      .cls-4 {
        filter: url(#drop-shadow-7);
      }

      .cls-5 {
        filter: url(#drop-shadow-4);
      }

      .cls-6 {
        filter: url(#drop-shadow-6);
      }

      .cls-10 {
        fill: #d3a452;
        filter: url(#drop-shadow-2);
      }
    </style>
    <filter id="drop-shadow-1" filterUnits="userSpaceOnUse">
      <feOffset dx="0" dy="0"/>
      <feGaussianBlur result="blur" stdDeviation="4"/>
      <feFlood flood-color="#1a0e04" flood-opacity=".6"/>
      <feComposite in2="blur" operator="in"/>
      <feComposite in="SourceGraphic"/>
    </filter>
    <filter id="drop-shadow-2" filterUnits="userSpaceOnUse">
      <feOffset dx="0" dy="0"/>
      <feGaussianBlur result="blur-2" stdDeviation="4"/>
      <feFlood flood-color="#1a0e04" flood-opacity=".6"/>
      <feComposite in2="blur-2" operator="in"/>
      <feComposite in="SourceGraphic"/>
    </filter>
    <filter id="drop-shadow-3" filterUnits="userSpaceOnUse">
      <feOffset dx="0" dy="0"/>
      <feGaussianBlur result="blur-3" stdDeviation="4"/>
      <feFlood flood-color="#1a0e04" flood-opacity=".6"/>
      <feComposite in2="blur-3" operator="in"/>
      <feComposite in="SourceGraphic"/>
    </filter>
    <filter id="drop-shadow-4" filterUnits="userSpaceOnUse">
      <feOffset dx="0" dy="0"/>
      <feGaussianBlur result="blur-4" stdDeviation="4"/>
      <feFlood flood-color="#1a0e04" flood-opacity=".6"/>
      <feComposite in2="blur-4" operator="in"/>
      <feComposite in="SourceGraphic"/>
    </filter>
    <filter id="drop-shadow-5" filterUnits="userSpaceOnUse">
      <feOffset dx="0" dy="0"/>
      <feGaussianBlur result="blur-5" stdDeviation="4"/>
      <feFlood flood-color="#1a0e04" flood-opacity=".6"/>
      <feComposite in2="blur-5" operator="in"/>
      <feComposite in="SourceGraphic"/>
    </filter>
    <filter id="drop-shadow-6" filterUnits="userSpaceOnUse">
      <feOffset dx="0" dy="0"/>
      <feGaussianBlur result="blur-6" stdDeviation="4"/>
      <feFlood flood-color="#1a0e04" flood-opacity=".6"/>
      <feComposite in2="blur-6" operator="in"/>
      <feComposite in="SourceGraphic"/>
    </filter>
    <filter id="drop-shadow-7" filterUnits="userSpaceOnUse">
      <feOffset dx="0" dy="0"/>
      <feGaussianBlur result="blur-7" stdDeviation="4"/>
      <feFlood flood-color="#1a0e04" flood-opacity=".6"/>
      <feComposite in2="blur-7" operator="in"/>
      <feComposite in="SourceGraphic"/>
    </filter>
    <filter id="drop-shadow-8" filterUnits="userSpaceOnUse">
      <feOffset dx="0" dy="0"/>
      <feGaussianBlur result="blur-8" stdDeviation="4"/>
      <feFlood flood-color="#1a0e04" flood-opacity=".6"/>
      <feComposite in2="blur-8" operator="in"/>
      <feComposite in="SourceGraphic"/>
    </filter>
  </defs>
  <g class="cls-8">
    <path class="cls-7" d="m373.36,34.52c5.39.89,9.72,2.35,13,4.38,3.28,2.03,5.57,4.27,6.86,6.72s1.93,5.06,1.93,7.81c0,7.56-3.07,12.42-9.22,14.58-6.15,2.16-12.43,3.25-18.84,3.25-.61,0-1.71-.03-3.3-.08s-3.2-.1-4.81-.13-2.85-.06-3.7-.08c-.85-.02-1.81-.03-2.87-.03-2.28,0-5.98.14-11.1.41v-1.96c1.52-.14,2.73-.32,3.64-.54s1.71-.63,2.39-1.21c.68-.58,1.12-1.37,1.31-2.37.38-1.48.67-4.55.88-9.22.21-4.67.35-9.41.43-14.24s.11-8.56.11-11.2c0-2.85-.04-5.61-.11-8.29s-.28-5.3-.6-7.88c-.32-2.57-.75-4.29-1.28-5.15-.53-.96-1.33-1.65-2.39-2.06-1.06-.41-2.49-.74-4.27-.98v-1.96c4.02.28,7.57.41,10.64.41.72,0,3.36-.14,7.91-.41,4.86-.31,7.42-.46,7.68-.46,3.68,0,7.04.62,10.07,1.85s5.47,3.08,7.31,5.53c1.84,2.45,2.76,5.31,2.76,8.57,0,3.46-1.18,6.46-3.53,8.98s-6,4.43-10.93,5.74l.03.02Zm-16.05-6.72v6.33c.83-.07,1.8-.1,2.9-.1,3.41-.07,6.41-.34,8.99-.82s4.87-1.66,6.89-3.55c2.01-1.89,3.02-4.79,3.02-8.7,0-3.09-.71-5.71-2.13-7.88-1.42-2.16-3.33-3.81-5.72-4.94s-4.95-1.7-7.68-1.7-4.21.28-4.78.82c-.49.38-.86,2.99-1.11,7.85s-.37,9.09-.37,12.69h-.01Zm0,8.75v20.18c0,3.5.08,5.97.23,7.41.15,1.44.51,2.51,1.08,3.22s1.42,1.12,2.56,1.26c1.14.14,3.15.21,6.03.21,3.07,0,6.04-.44,8.91-1.31,2.86-.87,5.28-2.41,7.26-4.61,1.97-2.2,2.96-5.15,2.96-8.86,0-2.06-.44-4.17-1.31-6.33s-2.18-4.09-3.93-5.79-4.05-3.09-6.91-4.17c-2.86-1.08-6.19-1.62-9.99-1.62-.91,0-2,.03-3.27.1s-2.48.17-3.61.31h-.01Z"/>
    <path class="cls-7" d="m397.48,71.15v-1.6c2.85-.45,4.86-1.22,6.03-2.31s1.92-2.78,2.22-5.04c.19-1.17.4-3.85.63-8.05s.44-9.01.63-14.43.28-10.29.28-14.61c0-9.05-.51-14.21-1.55-15.48-.65-.86-1.95-1.29-3.9-1.29-.46,0-.82.02-1.09.05s-.52.07-.75.1c-.23.03-.48.07-.74.1v-1.62c7.27-2.76,12.39-5.08,15.36-6.98h1.71c-1.18,4.05-1.92,11.39-2.22,22.02l-.46,24.75c0,11.59.29,18.16.85,19.7.34.89,1.48,1.57,3.41,2.03s3.66.76,5.18.9v1.96c-7.44-.48-12.44-.72-15.02-.72-3.45,0-6.98.17-10.58.51h0Z"/>
    <path class="cls-9" d="m426.38,51.64c0-3.02.62-5.76,1.85-8.21,1.23-2.45,2.93-4.57,5.09-6.36,2.16-1.78,4.68-3.16,7.57-4.12,2.88-.96,5.98-1.44,9.28-1.44,3,0,5.83.5,8.51,1.49,2.67,1,5.02,2.37,7.03,4.12s3.59,3.82,4.75,6.2c1.16,2.39,1.74,4.95,1.74,7.7,0,3.57-.94,6.92-2.82,10.04s-4.53,5.64-7.97,7.54c-3.43,1.9-7.39,2.86-11.87,2.86-3.38,0-6.86-.67-10.44-2.01-3.59-1.34-6.6-3.49-9.05-6.46-2.45-2.97-3.67-6.75-3.67-11.35Zm7.45-2.83c0,3.19.7,6.37,2.11,9.52,1.4,3.16,3.37,5.75,5.89,7.77,2.52,2.03,5.3,3.04,8.34,3.04,2.65,0,5.06-.66,7.23-1.98s3.89-3.2,5.18-5.64c1.29-2.44,1.93-5.2,1.93-8.29s-.75-6.17-2.25-9.14-3.57-5.39-6.2-7.26c-2.64-1.87-5.55-2.81-8.74-2.81-2.58,0-4.89.64-6.94,1.91s-3.65,3.04-4.81,5.3c-1.16,2.27-1.74,4.79-1.74,7.57h0Z"/>
    <path class="cls-7" d="m496.09,64.2c-2.16-.48-4.35-1.2-6.57-2.16s-4.22-2.51-6-4.66-2.67-5.04-2.67-8.68c0-3.3.98-6.32,2.93-9.09,1.95-2.76,4.5-4.93,7.63-6.49,3.13-1.56,6.32-2.34,9.59-2.34,2.01,0,3.89.25,5.63.75s3.36,1.26,4.84,2.29c2.73-.48,5.61-.72,8.65-.72,2.01,0,3.38.07,4.1.21-.11,1.85-.63,3.71-1.54,5.56-2.58-.96-5.29-1.44-8.14-1.44.49.62.99,1.45,1.48,2.5s.89,2.17,1.19,3.37c.3,1.2.46,2.37.46,3.5,0,3.16-.78,5.84-2.33,8.03-1.56,2.2-3.48,3.96-5.78,5.28s-5.23,2.75-8.79,4.3c-6.68,2.68-10.02,4.62-10.02,5.82,0,2.09,2.79,3.14,8.36,3.14,4.63,0,8.23.07,10.81.21s4.86.5,6.83,1.08,3.51,1.57,4.61,2.96,1.65,3.32,1.65,5.79c0,3.33-1.43,6.27-4.3,8.83-2.86,2.56-6.53,4.53-10.98,5.92-4.46,1.39-8.93,2.08-13.4,2.08-5.77,0-9.77-1.14-12.01-3.42-2.24-2.28-3.36-4.69-3.36-7.23,0-2.88.98-5.2,2.93-6.95,1.95-1.75,4.43-3.43,7.43-5.05-4.02-1.99-5.99-4.63-5.92-7.93,1.78-1.24,4.76-2.56,8.93-3.96l3.76-1.49h0Zm-3.59,14.62c-2.35.65-4.48,1.74-6.37,3.26-1.9,1.52-2.85,3.26-2.85,5.21,0,2.26,1.46,4.29,4.38,6.11,2.92,1.81,6.7,2.72,11.32,2.72,2.62,0,5.46-.35,8.54-1.05,3.07-.7,5.7-1.82,7.88-3.36s3.27-3.42,3.27-5.65c0-1.54-.59-2.99-1.76-4.36-1.22-1.34-3.04-2.09-5.46-2.26-.53-.07-2.46-.09-5.78-.05-3.32.03-5.3.05-5.95.05-3.38,0-5.79-.21-7.23-.62h0Zm9.67-17.35c2.73-1.3,4.87-2.75,6.4-4.32,1.54-1.58,2.3-4.15,2.3-7.72,0-2.02-.32-3.97-.97-5.84s-1.54-3.53-2.67-4.97-2.53-2.6-4.18-3.48-3.5-1.31-5.55-1.31c-3.11,0-5.72,1.07-7.82,3.22-2.11,2.15-3.16,4.87-3.16,8.16,0,4.63,1.54,8.12,4.61,10.45,3.07,2.33,6.75,4.27,11.04,5.82h0Z"/>
  </g>
  <path class="cls-10" d="m260.62,47.52l-28.45,5.56c.19,3.23.54,5.72,1.05,7.49.51,1.77,1.53,3.56,3.04,5.38,2.92,3.47,6.45,5.2,10.58,5.2,1.71,0,3.53-.29,5.46-.88,1.93-.58,4.08-1.63,6.43-3.14l1.02,1.24c-6.6,4.29-12.46,6.44-17.58,6.44-5.43,0-9.65-1.85-12.69-5.56-3.04-3.71-4.55-7.96-4.55-12.77s1.16-8.98,3.47-12.23c2.31-3.24,4.91-5.6,7.8-7.08,2.88-1.48,5.06-2.21,6.54-2.21,1.71,0,3.48.25,5.32.75,1.84.5,3.64,1.45,5.41,2.86,1.76,1.41,3.23,3.33,4.41,5.77.34.51.66.86.97,1.03.3.17.85.26,1.65.26l.11,1.9h.01Zm-28.34,3.55l7.46-1.44c.3-.14,1.45-.41,3.44-.82s3.33-.67,4.01-.77c1.97-.41,3.22-.7,3.76-.87.53-.17.8-.45.8-.82,0-.55-.46-1.48-1.37-2.81s-2.21-2.53-3.9-3.63c-1.69-1.1-3.67-1.65-5.95-1.65-2.85,0-4.87,1.36-6.06,4.07-1.2,2.71-1.93,5.63-2.19,8.75h0Z"/>
  <path class="cls-2" d="m32.04,36.92c5.39.89,9.72,2.35,13,4.38,3.28,2.03,5.57,4.27,6.86,6.72s1.93,5.06,1.93,7.8c0,7.56-3.07,12.42-9.22,14.58s-12.43,3.25-18.84,3.25c-.61,0-1.71-.03-3.3-.08s-3.2-.1-4.81-.13c-1.61-.03-2.85-.06-3.7-.08-.85-.02-1.81-.03-2.87-.03-2.28,0-5.98.14-11.1.41v-1.96c1.52-.14,2.73-.32,3.64-.54s1.71-.63,2.39-1.21,1.12-1.37,1.31-2.37c.38-1.48.67-4.55.88-9.22.21-4.67.35-9.41.43-14.24s.11-8.55.11-11.2c0-2.85-.04-5.61-.11-8.29s-.28-5.3-.6-7.88c-.32-2.57-.75-4.29-1.28-5.15-.53-.96-1.33-1.65-2.39-2.06-1.06-.41-2.49-.74-4.27-.98v-1.96c4.02.28,7.57.41,10.64.41.72,0,3.36-.14,7.91-.41,4.86-.31,7.42-.46,7.68-.46,3.68,0,7.04.62,10.07,1.85,3.03,1.24,5.47,3.08,7.31,5.53s2.76,5.31,2.76,8.57c0,3.46-1.18,6.46-3.53,8.98s-6,4.43-10.93,5.74l.03.03Zm-16.05-6.72v6.33c.83-.07,1.8-.1,2.9-.1,3.41-.07,6.41-.34,8.99-.82s4.87-1.66,6.89-3.55c2.01-1.89,3.02-4.79,3.02-8.7,0-3.09-.71-5.72-2.13-7.88-1.42-2.16-3.33-3.81-5.72-4.94s-4.95-1.7-7.68-1.7-4.21.28-4.78.82c-.49.38-.86,2.99-1.11,7.85-.25,4.86-.37,9.09-.37,12.69h0Zm0,8.75v20.18c0,3.5.08,5.97.23,7.41.15,1.44.51,2.51,1.08,3.22s1.42,1.13,2.56,1.26c1.14.14,3.15.21,6.03.21,3.07,0,6.04-.44,8.91-1.31,2.86-.87,5.28-2.41,7.26-4.61,1.97-2.2,2.96-5.15,2.96-8.86,0-2.06-.44-4.17-1.31-6.33s-2.18-4.09-3.93-5.79-4.05-3.09-6.91-4.17c-2.86-1.08-6.19-1.62-9.99-1.62-.91,0-2,.03-3.27.1s-2.48.17-3.61.31h-.01Z"/>
  <path class="cls-5" d="m70.62,42.96l-7,2.83c-.3-1.1-.46-1.91-.46-2.42,0-1.75,1.19-3.37,3.56-4.87,2.37-1.49,5.04-2.7,8.02-3.63s5.06-1.39,6.23-1.39c1.02,0,2.29.41,3.81,1.24s2.73,1.65,3.64,2.47c.8.69,1.41,1.36,1.85,2.03.44.67.82,1.73,1.17,3.17s.51,3.28.51,5.51c0,.65-.09,2.95-.28,6.9l-.23,3.86c-.15,1.85-.23,3.33-.23,4.43,0,1.41.21,2.92.63,4.53.38,1.65,1.23,2.47,2.56,2.47,1.48,0,3.45-.5,5.92-1.49v2.11l-8.37,3.04c-1.67.51-2.62.77-2.85.77-.87,0-1.74-.52-2.59-1.57s-1.55-2.29-2.08-3.73c-7.02,3.54-12.41,5.3-16.16,5.3-2.31,0-4.06-.61-5.24-1.83s-1.76-3.04-1.76-5.48.31-4.07.94-5.2c.63-1.13,1.64-2.02,3.04-2.68,2.85-1.3,5.86-2.27,9.05-2.91,3.19-.63,6.53-1.17,10.02-1.62l.29-6.33v-1.7c0-2.92-.92-5.23-2.76-6.93-1.84-1.7-3.99-2.55-6.46-2.55-1.18,0-2.36.3-3.56.9-1.2.6-1.79,1.45-1.79,2.55,0,.55.19,1.29.57,2.21h.01Zm13.49,24.35c-.11-1.13,0-4.36.34-9.68-4.99-.31-9,.24-12.02,1.65-3.02,1.41-4.54,3.17-4.54,5.3,0,1.54.46,3,1.39,4.38.93,1.37,2.2,2.06,3.83,2.06,1.81,0,5.48-1.24,11-3.71Z"/>
  <path class="cls-1" d="m103.11,73.44l.11-1.49c1.9-.34,3.21-.69,3.93-1.03s1.35-1.15,1.88-2.42.88-3.17,1.05-5.7c.17-2.54.26-6.42.26-11.67,0-4.15-.25-6.9-.74-8.28-.49-1.37-1.73-2.06-3.7-2.06-1.18,0-2.37.14-3.59.41l.23-1.67,14.68-7.75c.15,2.13.23,5.05.23,8.75l6.09-3.14c.3-.17.57-.33.8-.46.42-.21.89-.46,1.42-.75s1.44-.79,2.73-1.49,2.31-1.28,3.07-1.72l.46.21c.23.21.49.38.8.51,1.14.48,2.03,1.03,2.68,1.65.64.62.97,1.51.97,2.68,0,1.34-.61,2.44-1.82,3.3s-2.67,1.37-4.38,1.54c0-1.17-.3-2.06-.91-2.68s-1.46-.93-2.56-.93-2.48.37-4.04,1.11-2.73,1.43-3.53,2.09c-.95.76-1.51,1.38-1.68,1.88s-.28,1.72-.31,3.68c-.23,5.8-.34,8.87-.34,9.22,0,6.69.38,10.83,1.14,12.41.34.55.72.88,1.14,1s1.14.18,2.16.18l1.48-.1,6.77-.1-.11,2.11c-.19,0-1.39.03-3.59.1s-3.68.1-4.44.1l-18.32.51h-.02Z"/>
  <path class="cls-6" d="m171.63,36.92c5.39.89,9.72,2.35,13,4.38,3.28,2.03,5.57,4.27,6.86,6.72s1.93,5.06,1.93,7.8c0,7.56-3.07,12.42-9.22,14.58s-12.43,3.25-18.84,3.25c-.61,0-1.71-.03-3.3-.08s-3.2-.1-4.81-.13-2.85-.06-3.7-.08c-.85-.02-1.81-.03-2.87-.03-2.28,0-5.98.14-11.1.41v-1.96c1.52-.14,2.73-.32,3.64-.54s1.71-.63,2.39-1.21,1.12-1.37,1.31-2.37c.38-1.48.67-4.55.88-9.22.21-4.67.35-9.41.43-14.24s.11-8.55.11-11.2c0-2.85-.04-5.61-.11-8.29s-.28-5.3-.6-7.88c-.32-2.57-.75-4.29-1.28-5.15-.53-.96-1.33-1.65-2.39-2.06s-2.49-.74-4.27-.98v-1.96c4.02.28,7.57.41,10.64.41.72,0,3.36-.14,7.91-.41,4.86-.31,7.42-.46,7.68-.46,3.68,0,7.04.62,10.07,1.85,3.03,1.24,5.47,3.08,7.31,5.53s2.76,5.31,2.76,8.57c0,3.46-1.18,6.46-3.53,8.98s-6,4.43-10.93,5.74l.03.03Zm-16.05-6.72v6.33c.83-.07,1.8-.1,2.9-.1,3.41-.07,6.41-.34,8.99-.82s4.87-1.66,6.89-3.55c2.01-1.89,3.02-4.79,3.02-8.7,0-3.09-.71-5.72-2.13-7.88-1.42-2.16-3.33-3.81-5.72-4.94s-4.95-1.7-7.68-1.7-4.21.28-4.78.82c-.49.38-.86,2.99-1.11,7.85-.25,4.86-.37,9.09-.37,12.69h-.01Zm0,8.75v20.18c0,3.5.08,5.97.23,7.41.15,1.44.51,2.51,1.08,3.22s1.42,1.13,2.56,1.26c1.14.14,3.15.21,6.03.21,3.07,0,6.04-.44,8.91-1.31,2.86-.87,5.28-2.41,7.26-4.61,1.97-2.2,2.96-5.15,2.96-8.86,0-2.06-.44-4.17-1.31-6.33s-2.18-4.09-3.93-5.79-4.05-3.09-6.91-4.17c-2.86-1.08-6.19-1.62-9.99-1.62-.91,0-2,.03-3.27.1s-2.48.17-3.61.31h0Z"/>
  <path class="cls-4" d="m236.44,46.57l-28.45,5.56c.19,3.23.54,5.72,1.05,7.49.51,1.77,1.53,3.56,3.04,5.38,2.92,3.47,6.45,5.2,10.58,5.2,1.71,0,3.53-.29,5.46-.88,1.93-.58,4.08-1.63,6.43-3.14l1.02,1.24c-6.6,4.29-12.46,6.44-17.58,6.44-5.43,0-9.65-1.85-12.69-5.56-3.04-3.71-4.55-7.96-4.55-12.77s1.16-8.98,3.47-12.23c2.31-3.24,4.91-5.6,7.8-7.08,2.88-1.48,5.06-2.21,6.54-2.21,1.71,0,3.48.25,5.32.75,1.84.5,3.64,1.45,5.41,2.86,1.76,1.41,3.23,3.33,4.41,5.77.34.51.66.86.97,1.03.3.17.85.26,1.65.26l.11,1.9h0Zm-28.34,3.55l7.46-1.44c.3-.14,1.45-.41,3.44-.82s3.33-.67,4.01-.77c1.97-.41,3.22-.7,3.76-.87.53-.17.8-.45.8-.82,0-.55-.46-1.48-1.37-2.81s-2.21-2.53-3.9-3.63c-1.69-1.1-3.67-1.65-5.95-1.65-2.85,0-4.87,1.36-6.06,4.07-1.2,2.71-1.93,5.63-2.19,8.75h0Z"/>
  <path class="cls-3" d="m265.26,73.44l.11-1.49c1.9-.34,3.21-.69,3.93-1.03s1.35-1.15,1.88-2.42.88-3.17,1.05-5.7c.17-2.54.26-6.42.26-11.67,0-4.15-.25-6.9-.74-8.28-.49-1.37-1.73-2.06-3.7-2.06-1.18,0-2.37.14-3.59.41l.23-1.67,14.68-7.75c.15,2.13.23,5.05.23,8.75l6.09-3.14c.3-.17.57-.33.8-.46.42-.21.89-.46,1.42-.75s1.44-.79,2.73-1.49,2.31-1.28,3.07-1.72l.46.21c.23.21.49.38.8.51,1.14.48,2.03,1.03,2.68,1.65.64.62.97,1.51.97,2.68,0,1.34-.61,2.44-1.82,3.3-1.21.86-2.67,1.37-4.38,1.54,0-1.17-.3-2.06-.91-2.68-.61-.62-1.46-.93-2.56-.93s-2.48.37-4.04,1.11-2.73,1.43-3.53,2.09c-.95.76-1.51,1.38-1.68,1.88-.17.5-.28,1.72-.31,3.68-.23,5.8-.34,8.87-.34,9.22,0,6.69.38,10.83,1.14,12.41.34.55.72.88,1.14,1s1.14.18,2.16.18l1.48-.1,6.77-.1-.11,2.11c-.19,0-1.39.03-3.59.1-2.2.07-3.68.1-4.44.1l-18.32.51h-.02Z"/>
</svg>